<svg xmlns="http://www.w3.org/2000/svg" viewBox="0 0 134.29 43.93"><defs><style>.cls-1{fill:#fff}</style></defs><title>Asset 6</title><g id="Layer_2" data-name="Layer 2"><g id="Layer_1-2" data-name="Layer 1"><path d="M5.94 0h122.41a5.94 5.94 0 0 1 5.94 5.94V38a5.94 5.94 0 0 1-5.94 5.94H5.93A5.93 5.93 0 0 1 0 38V5.94A5.94 5.94 0 0 1 5.94 0z"/><path class="cls-1" d="M35 29a21.84 21.84 0 0 1-2 3.67c-1.28 1.94-3.07 4.36-5.31 4.38-2 0-2.49-1.29-5.18-1.27s-3.25 1.3-5.23 1.28c-2.23 0-3.94-2.21-5.21-4.15-3.57-5.44-3.95-11.82-1.74-15.21a7.89 7.89 0 0 1 6.35-3.82c2.37 0 3.85 1.29 5.81 1.29s3.05-1.3 5.78-1.3A7.72 7.72 0 0 1 34.14 17 6.65 6.65 0 0 0 35 29z"/><path class="cls-1" d="M26.25 11.74a6.64 6.64 0 0 0 1.47-4.91 7.16 7.16 0 0 0-4.63 2.49 6.18 6.18 0 0 0-1.51 4.79 6 6 0 0 0 4.67-2.37zm19.65 5.92l-5.12 15.06h2.35l1.52-4.63h5l1.57 4.63h2.4l-5.17-15.06zm1.21 2.47c.18.67.36 1.37.6 2.13l1.38 4h-3.92l1.36-4c.2-.68.4-1.38.58-2.13zm13.09 1.43a4.26 4.26 0 0 0-3.62 1.74l-.09-1.5h-2.08v.2c.06.93.09 2 .09 3.44V37h2.28v-5.38A4 4 0 0 0 59.9 33a4.7 4.7 0 0 0 3.45-1.46 6.23 6.23 0 0 0 1.53-4.39 6 6 0 0 0-1.33-4 4.34 4.34 0 0 0-3.35-1.59zm-.56 1.89c2 0 2.94 1.88 2.94 3.74 0 2.41-1.16 3.9-3 3.9A2.76 2.76 0 0 1 56.87 29a2.66 2.66 0 0 1-.08-.74v-1.85a3.05 3.05 0 0 1 .07-.57v-.18a2.89 2.89 0 0 1 2.78-2.21zm12.3-1.89a4.28 4.28 0 0 0-3.63 1.74l-.09-1.5h-2.08v.2c.06.94.09 2 .09 3.44V37h2.28v-5.38A4 4 0 0 0 71.63 33a4.74 4.74 0 0 0 3.46-1.46 6.27 6.27 0 0 0 1.52-4.39 6 6 0 0 0-1.33-4 4.32 4.32 0 0 0-3.34-1.59zm-.57 1.89c2 0 2.94 1.88 2.94 3.74 0 2.41-1.16 3.9-3 3.9A2.77 2.77 0 0 1 68.6 29a3.1 3.1 0 0 1-.08-.74v-1.85a3.05 3.05 0 0 1 .07-.57v-.18a2.89 2.89 0 0 1 2.78-2.21zm15.27.55c-2.13-.83-2.81-1.47-2.81-2.67 0-1 .8-2 2.59-2a5.15 5.15 0 0 1 2.67.67l.19.12.65-1.9-.13-.08a6.66 6.66 0 0 0-3.32-.74c-2.9 0-4.93 1.71-4.93 4.17 0 2 1.27 3.36 4 4.35 1.93.73 2.65 1.47 2.65 2.74 0 1.43-1.11 2.32-2.9 2.32a6.24 6.24 0 0 1-3.3-.91l-.2-.12-.61 1.94.11.07a7.75 7.75 0 0 0 3.85 1c3.92 0 5.31-2.38 5.31-4.43s-1.09-3.42-3.82-4.53zm7.94-4.79l-2.24.7v1.89h-1.63v1.82h1.63v5.58a4.27 4.27 0 0 0 .79 2.89 2.93 2.93 0 0 0 2.21.86 5.44 5.44 0 0 0 1.76-.27h.13l-.11-1.83-.22.07a3.39 3.39 0 0 1-1.06.12c-.88 0-1.26-.56-1.26-1.87v-5.55h2.75V21.8h-2.75zm8.42 2.35c-3.18 0-5.41 2.38-5.41 5.78S99.71 33 102.8 33c2.61 0 5.41-1.81 5.41-5.8a5.75 5.75 0 0 0-1.45-4 5.05 5.05 0 0 0-3.76-1.64zm-.06 1.8c2 0 3 2 3 3.85 0 2.29-1.27 3.95-3 3.95-1.72 0-3-1.63-3-3.88-.08-1.95.86-3.92 2.97-3.92zm12.27-1.69h-.13a2.22 2.22 0 0 0-.57-.07 3.26 3.26 0 0 0-2.86 1.83l-.06-1.59h-2V22c.07.9.09 1.92.09 3.28v7.45h2.28v-5.82A5.89 5.89 0 0 1 112 26a2.52 2.52 0 0 1 2.4-2.3 5.68 5.68 0 0 1 .61 0h.24zm5.13-.13c-3 0-5.16 2.42-5.16 5.89s2.11 5.5 5.37 5.5a8.68 8.68 0 0 0 3.61-.69l.14-.06-.44-1.7-.19.08a7.11 7.11 0 0 1-2.85.51 3.17 3.17 0 0 1-3.42-3.3h7.36v-.15a5.59 5.59 0 0 0 .07-.95c.03-2.36-1.16-5.13-4.49-5.13zm-.16 1.73a2.28 2.28 0 0 1 1.68.64 3.24 3.24 0 0 1 .78 2.12h-5.2a2.92 2.92 0 0 1 2.74-2.76zm-79.4-15.9A15.81 15.81 0 0 1 43 7.22a4.9 4.9 0 0 1 3.21.88 3.14 3.14 0 0 1 1.12 2.57 3.61 3.61 0 0 1-1.14 2.77 5.25 5.25 0 0 1-3.51 1 16.84 16.84 0 0 1-1.87-.08zm1 6.31a7.73 7.73 0 0 0 1 0c2.19 0 3.37-1.1 3.37-3C46.23 9 45.18 8 43 8a5.81 5.81 0 0 0-1.2.1zm9.22.84a2.58 2.58 0 0 1-2.73-2.64 2.64 2.64 0 0 1 2.82-2.71 2.54 2.54 0 0 1 2.74 2.62A2.65 2.65 0 0 1 51 14.52zm0-.7a1.82 1.82 0 0 0 1.73-2 1.74 1.74 0 1 0-3.44 0 1.79 1.79 0 0 0 1.7 2zm4.44-4.54l.76 2.59c.15.58.31 1.11.41 1.64.13-.52.31-1.06.5-1.63l.93-2.6H59l.88 2.56c.21.61.38 1.15.51 1.67a13.34 13.34 0 0 1 .44-1.66l.81-2.57h1l-1.83 5.12h-.94L59 12a16.44 16.44 0 0 1-.51-1.69A14.07 14.07 0 0 1 58 12l-1 2.4h-.94l-1.68-5.12zm8.23 1.39V9.28h.91l.06.84a2.12 2.12 0 0 1 1.87-.95 1.94 1.94 0 0 1 2 2.18v3.05h-1v-3c0-.82-.34-1.52-1.32-1.52a1.46 1.46 0 0 0-1.38 1 1.21 1.21 0 0 0-.07.43v3.09h-1zm6.52-3.78h1v7.51h-1zm5.07 7.63a2.58 2.58 0 0 1-2.73-2.64 2.64 2.64 0 0 1 2.82-2.71 2.54 2.54 0 0 1 2.74 2.62 2.65 2.65 0 0 1-2.82 2.73zm0-.7a1.82 1.82 0 0 0 1.73-2 1.74 1.74 0 1 0-3.44 0 1.79 1.79 0 0 0 1.7 2zm8.14-.65a9 9 0 0 0 .08 1.23h-.92l-.1-.64a2.2 2.2 0 0 1-1.74.76A1.55 1.55 0 0 1 79 13.05c0-1.24 1.22-1.92 3.42-1.91V11c0-.42-.13-1.2-1.29-1.19a3 3 0 0 0-1.5.38l-.23-.62a4 4 0 0 1 1.88-.44 1.9 1.9 0 0 1 2.17 2.09zm-1-1.38c-1.13 0-2.41.16-2.41 1.15a.87.87 0 0 0 1 .89 1.41 1.41 0 0 0 1.35-.83.74.74 0 0 0 0-.29zm7.6-4.9v7.51h-.93v-.89a2.14 2.14 0 0 1-1.93 1 2.44 2.44 0 0 1-2.44-2.6 2.55 2.55 0 0 1 2.5-2.74 1.94 1.94 0 0 1 1.71.77v-3zm-1 4.48a1.92 1.92 0 0 0 0-.41 1.49 1.49 0 0 0-1.6-1.06 1.75 1.75 0 0 0-1.71 2 1.7 1.7 0 0 0 1.68 1.91 1.55 1.55 0 0 0 1.52-1.11 1.77 1.77 0 0 0 0-.41zm7.49 3.15a2.57 2.57 0 0 1-2.72-2.64 2.63 2.63 0 0 1 2.82-2.71 2.54 2.54 0 0 1 2.73 2.62 2.65 2.65 0 0 1-2.82 2.73zm0-.7a1.82 1.82 0 0 0 1.72-2 1.74 1.74 0 1 0-3.44 0 1.8 1.8 0 0 0 1.71 2zm4.14-3.15V9.28h.92l.06.84a2.14 2.14 0 0 1 1.88-.95 1.94 1.94 0 0 1 2 2.18v3.05h-1v-3c0-.82-.35-1.52-1.32-1.52a1.39 1.39 0 0 0-1.46 1.38v3.14h-1zm10.26-2.61v1.22h1.48V10h-1.48v2.76c0 .64.2 1 .77 1a2.18 2.18 0 0 0 .6-.07v.71a3.23 3.23 0 0 1-.92.13 1.6 1.6 0 0 1-1.12-.39 1.88 1.88 0 0 1-.39-1.35V10H109v-.72h.89v-.94zm2.64-1.17h1v3.2a1.71 1.71 0 0 1 .74-.66 2.16 2.16 0 0 1 1.06-.26 1.94 1.94 0 0 1 2 2.19v3h-1v-2.9c0-.83-.34-1.52-1.32-1.52a1.49 1.49 0 0 0-1.39.93 1.16 1.16 0 0 0-.07.44v3.09h-1zm7.11 5.11a1.73 1.73 0 0 0 1.94 1.78 4.18 4.18 0 0 0 1.57-.26l.19.66a5 5 0 0 1-1.9.33 2.53 2.53 0 0 1-2.8-2.58 2.6 2.6 0 0 1 2.68-2.77 2.24 2.24 0 0 1 2.34 2.41 1.68 1.68 0 0 1 0 .44zm3-.67a1.37 1.37 0 0 0-1.42-1.51 1.61 1.61 0 0 0-1.59 1.51z"/></g></g></svg>