<svg xmlns="http://www.w3.org/2000/svg" viewBox="0 0 134.29 43.93"><defs><style>.cls-1{fill:none}.cls-2{clip-path:url(#clip-path)}.cls-3{fill:url(#linear-gradient)}.cls-4{fill:url(#linear-gradient-2)}.cls-5{fill:url(#linear-gradient-3)}.cls-6{fill:url(#linear-gradient-4)}.cls-7{fill:#f9f9f9}.cls-8{fill:#fafafa}</style><clipPath id="clip-path"><path class="cls-1" d="M29.1 19.34l-6.05-3.5L11.37 9.1c-.65-.38-1.3-.15-1.3.63v27.48c0 .58.46.84 1 .51l12-6.9 6.05-3.49 5.8-3.33c.69-.4.62-.94 0-1.25s-5.82-3.41-5.82-3.41z"/></clipPath><linearGradient id="linear-gradient" x1="17.57" y1="8.46" x2="17.57" y2="38.2" gradientUnits="userSpaceOnUse"><stop offset="0" stop-color="#207aae"/><stop offset=".31" stop-color="#4897b3"/><stop offset=".77" stop-color="#7fbeb9"/><stop offset="1" stop-color="#95cdbc"/></linearGradient><linearGradient id="linear-gradient-2" x1="10.07" y1="15.84" x2="29.1" y2="15.84" gradientUnits="userSpaceOnUse"><stop offset="0" stop-color="#59b9a8"/><stop offset="1" stop-color="#e4e698"/></linearGradient><linearGradient id="linear-gradient-3" x1="19.59" y1="23.33" x2="19.59" y2="38.31" gradientUnits="userSpaceOnUse"><stop offset="0" stop-color="#e23332"/><stop offset=".15" stop-color="#d43541"/><stop offset=".72" stop-color="#a03e78"/><stop offset="1" stop-color="#8c418e"/></linearGradient><linearGradient id="linear-gradient-4" x1="30.55" y1="19.34" x2="30.55" y2="27.33" gradientUnits="userSpaceOnUse"><stop offset="0" stop-color="#ee8579"/><stop offset=".63" stop-color="#f6b274"/><stop offset="1" stop-color="#fac872"/></linearGradient></defs><title>Asset 5</title><g id="Layer_2" data-name="Layer 2"><g id="Layer_1-2" data-name="Layer 1"><rect width="134.29" height="43.93" rx="5.94"/><g class="cls-2" id="PLAY"><path class="cls-3" d="M10.07 8.46V38.2l15-14.87-15-14.87z"/><path class="cls-4" d="M29.1 19.34l-6.05-3.5-12.98-7.49v.11l15 14.87 4.03-3.99z"/><path class="cls-5" d="M10.07 38.2v.11l12.98-7.49 6.05-3.5-4.03-3.99-15 14.87z"/><path class="cls-6" d="M29.1 19.34l-4.03 3.99 4.03 3.99 6.92-3.99-6.92-3.99z"/></g><path class="cls-7" d="M104.51 29.15a3.69 3.69 0 0 1-1.54-.32 2.85 2.85 0 0 1-1.18-.95h-.09a12.06 12.06 0 0 1 .09 1.43v3.56h-1.31V20.34h1.07l.18 1.18h.06a3.18 3.18 0 0 1 1.18-1 3.59 3.59 0 0 1 1.54-.31 3.2 3.2 0 0 1 2.66 1.18 5.17 5.17 0 0 1 .93 3.29 5.19 5.19 0 0 1-.95 3.32 3.21 3.21 0 0 1-2.64 1.15zm-.19-7.86a2.34 2.34 0 0 0-1.92.74 3.78 3.78 0 0 0-.61 2.33v.29a4.35 4.35 0 0 0 .61 2.61 2.31 2.31 0 0 0 1.95.79 2 2 0 0 0 1.76-.91 4.32 4.32 0 0 0 .63-2.5 4.15 4.15 0 0 0-.63-2.48 2.09 2.09 0 0 0-1.79-.87zm6.81 7.71h-1.31V16.71h1.31zm7.54 0l-.26-1.23h-.07a3.61 3.61 0 0 1-1.29 1.1 4 4 0 0 1-1.6.29 2.91 2.91 0 0 1-2-.67 2.4 2.4 0 0 1-.73-1.88q0-2.62 4.19-2.75l1.47-.05v-.53a2.21 2.21 0 0 0-.44-1.51 1.81 1.81 0 0 0-1.4-.48 5.74 5.74 0 0 0-2.45.66l-.4-1a6.25 6.25 0 0 1 2.93-.75 3.27 3.27 0 0 1 2.29.69 2.86 2.86 0 0 1 .75 2.2V29zm-3-.93a2.66 2.66 0 0 0 1.92-.67 2.45 2.45 0 0 0 .7-1.88v-.78l-1.31.06a5 5 0 0 0-2.26.48 1.48 1.48 0 0 0-.69 1.34 1.35 1.35 0 0 0 .43 1.08 1.79 1.79 0 0 0 1.25.36zm4.73-7.73h1.4l1.9 4.93a19.75 19.75 0 0 1 .77 2.44h.07c.06-.27.21-.73.43-1.38s.93-2.65 2.14-6h1.4l-3.71 9.85a4.89 4.89 0 0 1-1.3 2.07 2.72 2.72 0 0 1-1.81.61 5.2 5.2 0 0 1-1.18-.13v-1.04a4.78 4.78 0 0 0 1 .09 2 2 0 0 0 1.93-1.51l.48-1.23zm-40.16.8a2.95 2.95 0 0 1-.24 5 1.31 1.31 0 0 0-.51.89 1 1 0 0 0 .48.78l.65.5a3.17 3.17 0 0 1 1.52 2.54c0 1.7-1.65 3.42-4.76 3.42-2.63 0-3.89-1.25-3.89-2.59a2.61 2.61 0 0 1 1.39-2.21 7.68 7.68 0 0 1 3.46-.83 1.88 1.88 0 0 1-.55-1.23 1.65 1.65 0 0 1 .18-.71 5.66 5.66 0 0 1-.57 0 2.87 2.87 0 0 1-3-2.84 3.26 3.26 0 0 1 1.16-2.43 4.92 4.92 0 0 1 3.24-1h3.73l-1.16.65zm-1.29 8a2.55 2.55 0 0 0-.41 0 6.93 6.93 0 0 0-1.9.29 2 2 0 0 0-1.56 1.86c0 1.28 1.25 2.21 3.19 2.21 1.73 0 2.65-.84 2.65-2 0-.86-.59-1.35-1.92-2.32zm.53-3.44a1.86 1.86 0 0 0 .45-1.32c0-1.31-.78-3.33-2.28-3.33a1.7 1.7 0 0 0-1.27.59A2.14 2.14 0 0 0 76 23c0 1.21.71 3.22 2.27 3.22a1.85 1.85 0 0 0 1.21-.48zm-10.63 3.19a4.26 4.26 0 0 1-4.41-4.27 4.47 4.47 0 0 1 4.68-4.39 4.22 4.22 0 0 1 4.31 4.27 4.41 4.41 0 0 1-4.58 4.39zm2.25-1.47a3.23 3.23 0 0 0 .55-2c0-1.59-.76-4.63-3-4.63a2.52 2.52 0 0 0-1.63.62 2.73 2.73 0 0 0-.83 2.2c0 1.79.89 4.73 3.07 4.73a2.28 2.28 0 0 0 1.84-.92zm-12.05 1.47a4.26 4.26 0 0 1-4.4-4.27 4.47 4.47 0 0 1 4.67-4.39 4.23 4.23 0 0 1 4.32 4.27 4.41 4.41 0 0 1-4.59 4.39zm2.26-1.47a3.22 3.22 0 0 0 .54-2c0-1.59-.75-4.63-3-4.63a2.51 2.51 0 0 0-1.62.62 2.7 2.7 0 0 0-.83 2.2c0 1.79.88 4.73 3.07 4.73a2.3 2.3 0 0 0 1.84-.92zm-8.04 1.18l-2.6.6a18.63 18.63 0 0 1-3 .31c-5 0-6.92-3.69-6.92-6.58 0-3.52 2.71-6.79 7.34-6.79a10.79 10.79 0 0 1 2.78.38 7.35 7.35 0 0 1 2.4 1.13l-1.51 1.43-.64.15.46-.73a5.21 5.21 0 0 0-3.89-1.7 5 5 0 0 0-5 5.36 6.42 6.42 0 0 0 6.43 6.62 5.35 5.35 0 0 0 2.3-.45v-2.92l-2.74.14 1.45-.78H54l-.48.45a.48.48 0 0 0-.18.29v.88z"/><path class="cls-7" d="M86 28.08c-.6-.06-.73-.16-.73-.87V16.93a.49.49 0 0 0 0-.12c.08-.64.26-.74.82-1.07h-2.6l-1.36.65h1.39v11.22c0 .36-.07.41-.49 1h3.21l.67-.4c-.31-.08-.62-.09-.91-.13zm7.37.17c-.2.1-.4.23-.6.32a4.16 4.16 0 0 1-1.75.34 3.83 3.83 0 0 1-2.4-.7 4.65 4.65 0 0 1-1.83-3.81 4.08 4.08 0 0 1 4.13-4.16 3.5 3.5 0 0 1 1.85.5A3 3 0 0 1 94 22.53l-4.2 1.71-1.39.11c.45 2.29 2 3.62 3.71 3.62a4.6 4.6 0 0 0 2.2-.63zm-1.7-5.38c.35-.13.53-.23.53-.49a1.8 1.8 0 0 0-1.79-1.55 2.22 2.22 0 0 0-2.07 2.51v1zm3.44-2.51v1.19H95v-1.19h-.39v-.12h.93v.12zm1.62 1.19v-1.2l-.37 1.2h-.11l-.37-1.2v1.2h-.13v-1.31H96l.33 1.06.33-1.06h.23v1.31z"/><path class="cls-8" d="M44.36 12.61h-.9a6.13 6.13 0 0 0-.26-1.06h-1.3a5.27 5.27 0 0 0-.27 1.06h-.85a18.55 18.55 0 0 1 .66-1.81 13.79 13.79 0 0 0 .66-1.87h1.07a14.15 14.15 0 0 0 .59 1.84 15.32 15.32 0 0 1 .6 1.84zM43.06 11a14.72 14.72 0 0 1-.49-1.57c0 .07-.17.6-.5 1.57zM48 12.61h-.7a6.75 6.75 0 0 0-.78-1.23 6.32 6.32 0 0 1-.92-1.59h-.05a9.33 9.33 0 0 1 .07 1.12v1.7H45V8.93h.84a5.38 5.38 0 0 0 .69 1.2 7.38 7.38 0 0 1 .86 1.5 9.61 9.61 0 0 1-.07-1.13V8.93H48v3.68zm4.08-1.97a2.08 2.08 0 0 1-.51 1.4 1.79 1.79 0 0 1-1.44.6h-1.15V8.96h1.17a1.9 1.9 0 0 1 1.47.5 1.75 1.75 0 0 1 .46 1.18zm-.77.12a1.36 1.36 0 0 0-.31-.91 1.19 1.19 0 0 0-1-.37h-.33v2.51a1.47 1.47 0 0 0 .36 0 1.06 1.06 0 0 0 .9-.38 1.41 1.41 0 0 0 .38-.85zm4.54 1.85H55a6.18 6.18 0 0 0-.5-1.24.69.69 0 0 0-.57-.23h-.31v1.47h-.78V8.93h1.34c.86 0 1.29.29 1.29.88a1 1 0 0 1-.74 1 .89.89 0 0 1 .5.45 8.47 8.47 0 0 1 .62 1.35zM54.79 10c0-.37-.24-.56-.72-.56a2.29 2.29 0 0 0-.47 0v1.14h.26c.64.05.93-.15.93-.58zm5.11.7a2 2 0 0 1-.54 1.44 1.71 1.71 0 0 1-1.31.57 1.65 1.65 0 0 1-1.24-.53 1.81 1.81 0 0 1-.51-1.33 2 2 0 0 1 .54-1.43 1.71 1.71 0 0 1 1.31-.57 1.64 1.64 0 0 1 1.24.52 1.83 1.83 0 0 1 .51 1.33zm-.78.08a1.39 1.39 0 0 0-.31-.95.9.9 0 0 0-.74-.37.86.86 0 0 0-.7.37 1.49 1.49 0 0 0-.29.93 1.42 1.42 0 0 0 .31 1 .94.94 0 0 0 .74.37.88.88 0 0 0 .7-.37 1.5 1.5 0 0 0 .29-.98zm2.37 1.83h-.8V8.93h.8v1.76c0 .7-.02 1.31 0 1.92zm4.09-1.97a2 2 0 0 1-.52 1.4 1.78 1.78 0 0 1-1.43.6h-1.15V8.96h1.16a1.94 1.94 0 0 1 1.48.5 1.8 1.8 0 0 1 .46 1.18zm-.77.12a1.37 1.37 0 0 0-.32-.91 1.18 1.18 0 0 0-1-.37h-.34v2.51a1.55 1.55 0 0 0 .37 0 1.09 1.09 0 0 0 .9-.38 1.47 1.47 0 0 0 .39-.85zM71 12.61h-.9a6.13 6.13 0 0 0-.26-1.06h-1.3a5.27 5.27 0 0 0-.27 1.06h-.85a18.55 18.55 0 0 1 .66-1.81 13.79 13.79 0 0 0 .66-1.87h1.07a16.3 16.3 0 0 0 .59 1.84 15.32 15.32 0 0 1 .6 1.84zM69.7 11a16 16 0 0 1-.48-1.57c0 .07-.17.6-.5 1.57zm4.59-1.1a1.09 1.09 0 0 1-.5 1 2.17 2.17 0 0 1-1.23.32h-.19v1.4h-.79V8.94H73a1.63 1.63 0 0 1 .9.24.82.82 0 0 1 .39.72zm-.73.15c0-.4-.26-.6-.8-.6a2.12 2.12 0 0 0-.42 0v1.21h.16c.72.04 1.06-.17 1.06-.61zm4.11-.15a1.07 1.07 0 0 1-.5 1 2.17 2.17 0 0 1-1.23.32h-.18v1.4H75V8.94h1.4a1.59 1.59 0 0 1 .9.24.82.82 0 0 1 .37.72zm-.72.15q0-.6-.81-.6a2.12 2.12 0 0 0-.42 0v1.21h.17c.71.04 1.11-.17 1.11-.61zm6.25.65a2 2 0 0 1-.53 1.44 1.71 1.71 0 0 1-1.31.57 1.65 1.65 0 0 1-1.24-.53 1.81 1.81 0 0 1-.51-1.33 2 2 0 0 1 .53-1.43 1.73 1.73 0 0 1 1.32-.57 1.64 1.64 0 0 1 1.24.52 1.82 1.82 0 0 1 .5 1.33zm-.77.08a1.45 1.45 0 0 0-.31-.95.91.91 0 0 0-.74-.37.84.84 0 0 0-.7.37 1.49 1.49 0 0 0-.29.93 1.42 1.42 0 0 0 .31 1 .93.93 0 0 0 .74.37.88.88 0 0 0 .7-.37 1.5 1.5 0 0 0 .29-.98zM87 12.61h-.7a6.75 6.75 0 0 0-.78-1.23 6.32 6.32 0 0 1-.92-1.59 9.33 9.33 0 0 1 .07 1.12v1.7H84V8.93h.84a5.38 5.38 0 0 0 .69 1.2 7.38 7.38 0 0 1 .86 1.5 9.61 9.61 0 0 1-.07-1.13V8.93H87v3.68z"/></g></g></svg>