<svg xmlns="http://www.w3.org/2000/svg" viewBox="0 0 110.82 36.92"><defs><style>.cls-1{fill:none;stroke:#fff;stroke-miterlimit:10}.cls-2{fill:#fff}</style></defs><title>Asset 23</title><g id="Layer_2" data-name="Layer 2"><g id="Layer_1-2" data-name="Layer 1"><rect class="cls-1" x=".5" y=".5" width="109.82" height="35.92" rx="4.85"/><path class="cls-2" d="M29.14 24.25a17.93 17.93 0 0 1-1.61 3c-1 1.59-2.52 3.57-4.34 3.59-1.62 0-2-1.06-4.24-1.05s-2.66 1.06-4.28 1.05c-1.82 0-3.22-1.81-4.26-3.4C7.49 23 7.18 17.78 9 15a6.49 6.49 0 0 1 5.2-3.13c1.94 0 3.15 1.06 4.75 1.06s2.5-1.06 4.73-1.06a6.33 6.33 0 0 1 4.76 2.51 5.45 5.45 0 0 0 .7 9.87z"/><path class="cls-2" d="M22 10.1a5.44 5.44 0 0 0 1.2-4 5.87 5.87 0 0 0-3.78 2 5 5 0 0 0-1.27 3.9A4.93 4.93 0 0 0 22 10.1zm16 4.84l-4.15 12.31h1.92L37 23.47h4l1.28 3.78h2l-4.2-12.31zm1 2c.14.55.29 1.12.49 1.74L40.65 22h-3.21l1.11-3.29c.17-.56.33-1.14.45-1.71zm10.74 1.19a3.51 3.51 0 0 0-3 1.42l-.07-1.22H45v.15c.06.77.08 1.61.08 2.81v9.5h1.86v-4.43a3.28 3.28 0 0 0 2.55 1.09 3.84 3.84 0 0 0 2.82-1.2 5.06 5.06 0 0 0 1.25-3.58 5 5 0 0 0-1.09-3.28 3.54 3.54 0 0 0-2.73-1.26zm-.47 1.54c1.66 0 2.41 1.54 2.41 3.07 0 2-1 3.19-2.48 3.19A2.25 2.25 0 0 1 47 24.2a2.13 2.13 0 0 1-.07-.61V22.1a2.64 2.64 0 0 1 .06-.46v-.16a2.36 2.36 0 0 1 2.28-1.81zm10.06-1.54a3.49 3.49 0 0 0-3 1.42l-.08-1.22h-1.7v.15c0 .77.07 1.61.07 2.81v9.5h1.86v-4.43a3.29 3.29 0 0 0 2.55 1.09 3.88 3.88 0 0 0 2.83-1.2 5.1 5.1 0 0 0 1.24-3.58 5 5 0 0 0-1.08-3.28 3.57 3.57 0 0 0-2.69-1.26zm-.46 1.54c1.66 0 2.4 1.54 2.4 3.07 0 2-1 3.19-2.47 3.19a2.26 2.26 0 0 1-2.2-1.73 2.56 2.56 0 0 1-.07-.61V22.1a2.75 2.75 0 0 1 .06-.47v-.15a2.37 2.37 0 0 1 2.28-1.81zm12.48.49c-1.74-.68-2.3-1.21-2.3-2.18s.66-1.66 2.12-1.66a4.24 4.24 0 0 1 2.19.55l.16.1.48-1.56-.1-.06a5.41 5.41 0 0 0-2.71-.61c-2.38 0-4 1.41-4 3.41 0 1.62 1 2.76 3.27 3.57 1.58.59 2.17 1.19 2.17 2.23s-.91 1.9-2.37 1.9a5 5 0 0 1-2.68-.76l-.16-.1-.51 1.59.1.06a6.35 6.35 0 0 0 3.15.81c3.2 0 4.33-1.95 4.33-3.62s-.91-2.83-3.14-3.67zm6.5-3.95l-1.85.57v1.55h-1.32v1.49H76v4.56a3.45 3.45 0 0 0 .65 2.36 2.36 2.36 0 0 0 1.8.71 4.55 4.55 0 0 0 1.44-.22h.1l-.09-1.49-.18.05a2.53 2.53 0 0 1-.86.1c-.72 0-1-.45-1-1.52v-4.55h2.24v-1.49h-2.25zm6.86 1.92a4.39 4.39 0 0 0-4.42 4.73 4.25 4.25 0 0 0 4.28 4.59A4.4 4.4 0 0 0 89 22.7a4.74 4.74 0 0 0-1.19-3.29 4.13 4.13 0 0 0-3.1-1.28zm0 1.47c1.68 0 2.44 1.64 2.44 3.16 0 1.86-1 3.22-2.48 3.22-1.42 0-2.44-1.33-2.44-3.17-.06-1.6.71-3.21 2.43-3.21zm10.01-1.38h-.11a1.82 1.82 0 0 0-.46-.06 2.67 2.67 0 0 0-2.34 1.5v-1.3h-1.73v.15c0 .74.08 1.57.08 2.69v6.08H92v-4.77a5.46 5.46 0 0 1 0-.73 2.05 2.05 0 0 1 2-1.87 3.84 3.84 0 0 1 .5 0h.2zm4.19-.11c-2.48 0-4.21 2-4.21 4.82a4.16 4.16 0 0 0 4.39 4.5 7.14 7.14 0 0 0 3-.56l.11-.05-.36-1.39-.15.06a5.71 5.71 0 0 1-2.34.42 2.59 2.59 0 0 1-2.79-2.7h6v-.11a4 4 0 0 0 .06-.78c-.01-1.94-.98-4.21-3.71-4.21zm-.12 1.42a1.86 1.86 0 0 1 1.36.52 2.7 2.7 0 0 1 .65 1.74h-4.25a2.37 2.37 0 0 1 2.24-2.26zm-64.94-13a13.52 13.52 0 0 1 1.79-.12 4 4 0 0 1 2.62.71 2.56 2.56 0 0 1 .93 2.11 2.94 2.94 0 0 1-.94 2.26 4.27 4.27 0 0 1-2.87.84 13.35 13.35 0 0 1-1.53-.07zm.85 5.16a6.89 6.89 0 0 0 .84 0c1.79 0 2.76-.9 2.76-2.47 0-1.39-.85-2.25-2.62-2.25a5.53 5.53 0 0 0-1 .08zm7.48.68A2.1 2.1 0 0 1 40 10.22 2.16 2.16 0 0 1 42.26 8a2.08 2.08 0 0 1 2.24 2.14 2.16 2.16 0 0 1-2.31 2.23zm0-.57a1.48 1.48 0 0 0 1.41-1.63 1.42 1.42 0 1 0-2.81 0 1.46 1.46 0 0 0 1.42 1.63zm3.66-3.71l.62 2.12c.13.47.25.91.34 1.34.1-.42.25-.87.41-1.33L48 8.09h.71l.72 2.09c.17.5.31 1 .41 1.37a11.58 11.58 0 0 1 .36-1.36l.66-2.1h.84l-1.5 4.19h-.77l-.71-2a13.68 13.68 0 0 1-.42-1.38 11.29 11.29 0 0 1-.43 1.39l-.75 2h-.77L45 8.09zm6.73 1.14V8.09h.75v.69A1.76 1.76 0 0 1 54.89 8a1.59 1.59 0 0 1 1.64 1.78v2.5h-.84V9.86c0-.67-.28-1.24-1.08-1.24a1.19 1.19 0 0 0-1.13.78 1 1 0 0 0-.06.35v2.53h-.85zm5.34-3.09h.84v6.14h-.84zm4.14 6.23a2.1 2.1 0 0 1-2.23-2.15A2.16 2.16 0 0 1 62.12 8a2.08 2.08 0 0 1 2.24 2.14 2.16 2.16 0 0 1-2.3 2.23zm0-.57a1.49 1.49 0 0 0 1.41-1.63 1.42 1.42 0 1 0-2.82 0 1.47 1.47 0 0 0 1.4 1.61zm6.66-.53a7.62 7.62 0 0 0 .06 1H68l-.07-.53a1.78 1.78 0 0 1-1.42.62 1.27 1.27 0 0 1-1.43-1.2c0-1 1-1.56 2.8-1.56v-.07c0-.35-.1-1-1.06-1a2.43 2.43 0 0 0-1.22.31l-.19-.51A3.24 3.24 0 0 1 66.93 8a1.56 1.56 0 0 1 1.78 1.71zm-.83-1.13c-.92 0-2 .13-2 .94a.71.71 0 0 0 .79.73 1.17 1.17 0 0 0 1.14-.7.67.67 0 0 0 0-.24zm6.2-4v6.14h-.76v-.73a1.74 1.74 0 0 1-1.58.82 2 2 0 0 1-2-2.12A2.08 2.08 0 0 1 71.81 8a1.59 1.59 0 0 1 1.4.63V6.14zm-.85 3.66a1.19 1.19 0 0 0 0-.33A1.21 1.21 0 0 0 72 8.59a1.44 1.44 0 0 0-1.39 1.61A1.39 1.39 0 0 0 72 11.76a1.26 1.26 0 0 0 1.24-.91 1.15 1.15 0 0 0 0-.33zm6.18 2.57a2.1 2.1 0 0 1-2.23-2.15A2.16 2.16 0 0 1 79.49 8a2.09 2.09 0 0 1 2.24 2.14 2.16 2.16 0 0 1-2.31 2.23zm0-.57a1.48 1.48 0 0 0 1.41-1.63 1.42 1.42 0 1 0-2.81 0 1.46 1.46 0 0 0 1.39 1.61zm3.38-2.57V8.09h.75v.69A1.76 1.76 0 0 1 85.11 8a1.59 1.59 0 0 1 1.64 1.78v2.5h-.84V9.86c0-.67-.28-1.24-1.08-1.24a1.19 1.19 0 0 0-1.13.78 1 1 0 0 0-.06.35v2.53h-.85zm8.39-2.14v1h1.21v.58h-1.21v2.26c0 .52.17.81.64.81a2 2 0 0 0 .49-.05v.58a2.71 2.71 0 0 1-.75.1 1.3 1.3 0 0 1-.92-.32 1.51 1.51 0 0 1-.32-1.1V8.67h-.72v-.58h.72v-.77zm2.17-.95h.84v2.61a1.4 1.4 0 0 1 .61-.54 1.85 1.85 0 0 1 .88-.21 1.59 1.59 0 0 1 1.62 1.79v2.49h-.84V9.87c0-.68-.28-1.24-1.08-1.24a1.21 1.21 0 0 0-1.13.76.8.8 0 0 0-.06.36v2.53h-.84zm5.81 4.17a1.42 1.42 0 0 0 1.58 1.46 3.53 3.53 0 0 0 1.29-.21l.16.54a4.24 4.24 0 0 1-1.56.26 2.06 2.06 0 0 1-2.29-2.11A2.13 2.13 0 0 1 100.53 8a1.84 1.84 0 0 1 1.92 2 1.6 1.6 0 0 1 0 .36zm2.47-.54a1.12 1.12 0 0 0-1.16-1.24 1.32 1.32 0 0 0-1.3 1.24z"/></g></g></svg>