<svg xmlns="http://www.w3.org/2000/svg" viewBox="0 0 203.16 63.97"><defs><style>.cls-1,.cls-16{fill:#fff}.cls-2{fill:#c5d1cf}.cls-3{fill:#f0f0f0}.cls-4{clip-path:url(#clip-path)}.cls-5{fill:#23243a}.cls-6{fill:#161624}.cls-7{fill:#7d430c}.cls-8{fill:#fff0dd}.cls-9{fill:#ff8033}.cls-10{fill:#ffaa78}.cls-11{fill:#3c1105}.cls-12{fill:#ff8d57}.cls-13{fill:#4a2423}.cls-14{fill:#29a9e0}.cls-15{fill:#a82418}.cls-16{opacity:.33}.cls-17{fill:#fb3e59}.cls-18{fill:#c20c11}.cls-19{fill:#ff9a5e}.cls-20{fill:#9e5510}.cls-21{fill:#ff7f3d}.cls-22{fill:#e76b41}.cls-23{fill:#c54830}.cls-24{fill:#ba631d}.cls-25{fill:#adcdb6}.cls-26{fill:#6e8b86}.cls-27{fill:#a9bbb8}.cls-28{fill:#f5541e}.cls-29{fill:#fadb21}.cls-30{fill:#9cb1ae}</style><clipPath id="clip-path"><path class="cls-1" d="M68.54 31.28A21.54 21.54 0 1 1 47 9.75a21.54 21.54 0 0 1 21.54 21.53z"/></clipPath></defs><title>Asset 14</title><g id="Layer_2" data-name="Layer 2"><g id="Layer_1-2" data-name="Layer 1"><path class="cls-2" d="M202.29 3.57a3.78 3.78 0 0 0-.48-.5L199.67.9 199 2.16H15.4L6.14 12.31C3.26 13.26 0 14.49 0 14.49l2.16 2.17h13.19l-.14 42.24-1.47 1.25 2.32 2.39a3.7 3.7 0 0 0 .48.49A3.82 3.82 0 0 0 19 64h180.32a3.83 3.83 0 0 0 3.84-3.83V6a3.76 3.76 0 0 0-.87-2.43z"/><path class="cls-3" d="M197.17 0H13.25L0 14.51h13.2L13.05 58a3.83 3.83 0 0 0 3.84 3.85h180.28A3.83 3.83 0 0 0 201 58V3.84A3.84 3.84 0 0 0 197.17 0z"/><path class="cls-1" d="M68.54 31.28A21.54 21.54 0 1 1 47 9.75a21.54 21.54 0 0 1 21.54 21.53z"/><g class="cls-4"><path class="cls-5" d="M43.55 46.52s4.28-2.47 10.38-.14-11.4 3.4-11.4 3.4-.61-2.21 1.02-3.26z"/><path class="cls-6" d="M42 51.19a65.38 65.38 0 0 1-2.47 11.23h1.91a63.33 63.33 0 0 0 2.77-11.11c.26-1.82-2.47-3.89-4.21-3.28l-.33.14c1.33.54 2.5 1.83 2.33 3.02z"/><path class="cls-5" d="M39.57 62.42A65.38 65.38 0 0 0 42 51.19c.13-1.2-1-2.48-2.33-3-.79.37-1 .91-1.67 2.59a57.2 57.2 0 0 0-2.55 11.66z"/><path class="cls-7" d="M35.64 20.42a13.53 13.53 0 0 0-1 5.28 20.64 20.64 0 0 0 1 6.06c.73 2.06.64 9.8-.71 11.53 0 0 7.54 2.17 9.58-2.16 5.03-10.65-7.44-19.77-8.87-20.71z"/><path class="cls-8" d="M58.05 53.94a22.16 22.16 0 0 0-1.75 3.84l-2-3.53s-2.49 5.25-3.77 6.22-4.47.12-8.26 0A3.22 3.22 0 0 1 39 58.1a5.61 5.61 0 0 1 .28-1.43 12.71 12.71 0 0 0 .2-7.85s18.34-2.48 19 .85-.43 4.27-.43 4.27z"/><path class="cls-9" d="M51.44 45.7a8.63 8.63 0 0 1-3.18 2.43c-2 .91-2.63-1.1-2.83-2.31 2.19-2.38.09-7.37.09-7.37l5-3.24s-2.03 8.05.92 10.49z"/><path class="cls-10" d="M51.44 28.51c0 1.79-1 9.63-4 11.79a11 11 0 0 1-4.69.8c-2.24-.27-4.58-6.86-5.41-8.69S38 22.25 38 22.25c.36-2.74 3.66-3.43 7.18-3.21l-1 .83s1.29 5.63 3.6 6.75 3.68.11 3.66 1.89z"/><path class="cls-8" d="M58.15 49.11s-19.21.58-18.84-.4.69-.38 4.84-2a3.52 3.52 0 0 0 1.28-.86c.2 1.21.83 3.22 2.83 2.31a8.63 8.63 0 0 0 3.18-2.43 2.77 2.77 0 0 0 1.06.56c5.1 1.2 5.65 2.82 5.65 2.82z"/><path class="cls-11" d="M37.16 28.79c-.08 0 .62-1.11 1.29-1.23a5.25 5.25 0 0 1 2.27-.09 1.6 1.6 0 0 1 .28 1.14 2.75 2.75 0 0 0-1-.32 9 9 0 0 0-2.84.5z"/><path class="cls-12" d="M41.06 31.25L37.58 31a1.8 1.8 0 0 1 1.3-1.2c1.37-.36 2.18 1.45 2.18 1.45z"/><path class="cls-13" d="M41.06 31.25h-3.52l-.37-.25h.41a1.8 1.8 0 0 1 1.3-1.2c1.37-.36 2.18 1.45 2.18 1.45z"/><path class="cls-1" d="M41.06 31.25a3.72 3.72 0 0 1-.86.53 2.58 2.58 0 0 1-.55.16 2.37 2.37 0 0 1-1.08-.07 2 2 0 0 1-.55-.25 2.13 2.13 0 0 1-.48-.37.79.79 0 0 1 0-.21 1.8 1.8 0 0 1 1.3-1.2c1.41-.4 2.22 1.41 2.22 1.41z"/><path class="cls-14" d="M40.17 30.72a1.07 1.07 0 1 1-1.05-1.26 1.18 1.18 0 0 1 1.05 1.26z"/><path class="cls-11" d="M39.79 30.72a.68.68 0 1 1-.67-.8.74.74 0 0 1 .67.8z"/><path class="cls-1" d="M38.73 30.66a.25.25 0 1 1-.49 0 .25.25 0 1 1 .49 0z"/><path class="cls-12" d="M41.06 31.21a1.92 1.92 0 0 0-1.64-1.79c-1.59-.25-2.25 1.6-2.25 1.6.16-1.07.86-2.76 2.56-2.39 1.19.26 1.32 2.27 1.33 2.58z"/><path class="cls-13" d="M41.06 31.25s-.81-1.81-2.18-1.41a1.8 1.8 0 0 0-1.3 1.2h-.41s.66-1.85 2.25-1.6a1.92 1.92 0 0 1 1.64 1.79zm8.48-1.11l-.49.36-5.14.5a3.54 3.54 0 0 1 2.19-2c1.2-.28 2.29.73 2.74 1.21z"/><path class="cls-12" d="M49.17 30.19a4.39 4.39 0 0 0-3.32-1.67c-2 .07-2.31 2.58-2.31 2.58s-.54-3.3 2-3.44 3.57 2.34 3.63 2.53z"/><path class="cls-1" d="M48.69 30.56a4 4 0 0 1-1.56 1.13 3.07 3.07 0 0 1-.85.2 3.6 3.6 0 0 1-1.1-.07 4.06 4.06 0 0 1-.81-.26 4.45 4.45 0 0 1-.83-.46 3.51 3.51 0 0 1 2.2-2c1.19-.29 2.28.72 2.73 1.2z"/><path class="cls-14" d="M46.94 30.28a1.33 1.33 0 1 1-1.33-1.42 1.39 1.39 0 0 1 1.33 1.42z"/><path class="cls-11" d="M46.45 30.28a.84.84 0 1 1-.84-.9.87.87 0 0 1 .84.9z"/><path class="cls-1" d="M45.12 30.21a.31.31 0 1 1-.31-.33.32.32 0 0 1 .31.33z"/><path class="cls-13" d="M49.17 30.2l-.7.11c-.45-.48-1.54-1.49-2.73-1.2a3.51 3.51 0 0 0-2.2 2s.3-2.51 2.31-2.58a4.39 4.39 0 0 1 3.32 1.67z"/><path class="cls-15" d="M43 34.47c-.12.39-1.13 0-1.69 0s-.64.44-1.28-.19a.76.76 0 0 1-.28-.69 1.89 1.89 0 0 1 .79-.92c.64-.48.18-2.74.18-2.74.47.33.37 2.25.26 2.63s-.49.59-.78.88a.89.89 0 0 0-.28.37c-.06.3.56.8.95.55s.83 0 1.36.07.59-.17.67-.49-.16-.34-.34-.45l-.11-.05-.12-.06a.54.54 0 0 1 .57.27 1 1 0 0 1 .1.82z"/><path class="cls-12" d="M42.93 34c-.08.32-.14.55-.67.49s-1-.31-1.36-.07-1-.25-.95-.55a.89.89 0 0 1 .28-.37 3.16 3.16 0 0 0 1.82.28c.49-.21.46-.26.43-.28l.11.05c.18.09.41.25.34.45z"/><path class="cls-16" d="M41.23 34c0 .1-.27.14-.59.09s-.55-.15-.53-.25.27-.13.58-.09.55.15.54.25z"/><path class="cls-17" d="M41.86 37.71s-.43-1.56.23-1.2.76-.47 1.39-.22a4.85 4.85 0 0 0 2.85-.19s-2.87 2.18-4.47 1.61z"/><path class="cls-18" d="M41.82 37.68c.23.14 1.49.68 4.47-1.61l.22-.16-.35.19c-.85.46-3.05 1.57-4.33 1.55z"/><path class="cls-17" d="M42.89 38.76c1.89.05 3.23-2.37 3.44-2.66-3 2.29-4.24 1.75-4.47 1.61a1 1 0 0 0 1.03 1.05z"/><path class="cls-11" d="M48.74 27.51a3.18 3.18 0 0 0-2-.89 9.63 9.63 0 0 0-3 .37 1.11 1.11 0 0 0-.18 1.12 4.86 4.86 0 0 1 1.3-.51 17.18 17.18 0 0 1 3.88-.09z"/><path class="cls-19" d="M53 35.15a9.19 9.19 0 0 1-5.59 5.15c3-2.16 4-10 4-11.79s-1.3-.77-3.61-1.89-3.6-6.75-3.6-6.75l1-.83c4.26.25 8.86 1.81 9.13 2.66.5 1.55.5 8.6-1.33 13.45z"/><path class="cls-20" d="M50.8 18.44a21.77 21.77 0 0 1-5.1 2.38c-.3.09-.61.16-.9.22-.22-.44-.42-.84-.57-1.17-.27-.56-1.42-.7-1.42-.7.1-2.17 5.83-1.3 7.99-.73zM52.58 27a2.15 2.15 0 0 0-1.08-.69c-1.18-.37-2.73-.09-3.58-.36a4.31 4.31 0 0 1-1.4-1.68 3.38 3.38 0 0 1 .76-2.3c.75-.85 2.23-1.44 5.07-.91.45 2.72.93 6.83.23 5.94z"/><path class="cls-20" d="M51.17 17.78c-1.58 1-3 2.24-4.78 2.76-.85-.54-1.23-.54-1.23-.54v1.2c-7.79 3.35-9.44 7.38-9.44 7.38s-1.54-6 .63-9.7a12.11 12.11 0 0 1 14.73-4.68 6.12 6.12 0 0 1 2.53 1.8c-.68.48-1.48 1.2-2.44 1.78zM60 37c-1.43 6.78-12.2 6.81-12.2 6.81a59.1 59.1 0 0 0 2.68-6.13c4.12-2.83 7.7-1.8 9.52-.68z"/><path class="cls-21" d="M51.53 33.76a3.81 3.81 0 0 1 .53-3.76c.56-.69 1.35-1.22 2.17-.73 1.31.82 1.32 4-.24 5.56a1.18 1.18 0 0 1-1.86 0 4.09 4.09 0 0 1-.6-1.07z"/><path class="cls-22" d="M54.32 30.93s.21.61-.13.44-1.36-.62-1.13.1 1.06 1.11.59 1.72-.52.52-.72.34c0 0 .56-.32.45-.67a2.2 2.2 0 0 1 0-.65L52.8 32l-.28-.67.15-.52 1-.43a1.13 1.13 0 0 1 .65.55z"/><path class="cls-23" d="M53.17 30.37s1.11-.15 1 .64.14-.57-.71-.34-.82.11-.84.56.22.62.77.86-.26 1.71-.5 1.48.79-1 .36-1.25-1-.68-.94-1.11a1.33 1.33 0 0 1 .86-.84z"/><path class="cls-20" d="M59.22 28.09a6 6 0 0 1-7.07 3.41 11.15 11.15 0 0 0-.3-5.77 5.12 5.12 0 0 0-.52-.95 19.57 19.57 0 0 0-3.83-3.51c.77-.88 2.29-1.48 5.22-.94A24.53 24.53 0 0 1 57 21.59a41.56 41.56 0 0 1 2.22 6.5z"/><path class="cls-24" d="M60.15 36.29c0 .25-.06.49-.1.73-1.94-1.11-5.44-2.2-9.61.78a36.15 36.15 0 0 0 1.71-6.3 6 6 0 0 0 7.07-3.41 25.45 25.45 0 0 1 .93 8.2z"/><path class="cls-25" d="M42.54 61.83v.59h5.27v-1.51c-1.5-.08-3.4-.37-5.49-.44A3.22 3.22 0 0 1 39 58.1c-.16 3.26 3.54 3.73 3.54 3.73z"/><path class="cls-24" d="M53.61 16c-.72.55-1.29 1-2.32 1.7a22.94 22.94 0 0 1-5.58 2.73c-.34.11-.78.2-1.11.27.56 1.19 1.37 2.6 2 3.72a4.09 4.09 0 0 1 .79-2.6c1.07-.92 2.47-1.73 5.59-1.11a21.42 21.42 0 0 1 4.18 1.4A24.82 24.82 0 0 0 53.61 16z"/><path class="cls-5" d="M45.12 53.22l-.78 7.39c-3.38.26-4.69-2.19-5.27-3.78a58.56 58.56 0 0 0 .21-8.4 2.83 2.83 0 0 1 .87-.44c1-.31 2.48-1.07 3.4-1.47-.06.16-1.92 4.91 1.57 6.7z"/><path class="cls-6" d="M54.83 62.42q.22-.87.48-1.71c.32-1 .65-2 1-2.88l-2-3.53s-2.49 5.25-3.77 6.22a4.35 4.35 0 0 1-2.77.44v1.51z"/><path class="cls-25" d="M60 62.42h2.07a65.22 65.22 0 0 0-2.83-12.19 3.84 3.84 0 0 0-2.24-2.1 3.11 3.11 0 0 1 .28.65A88 88 0 0 1 60 62.42z"/><path class="cls-5" d="M56 62.42h4a88 88 0 0 0-2.75-13.64 3.11 3.11 0 0 0-.28-.65 2.17 2.17 0 0 0-2.42.34 5 5 0 0 0-1.08 4.14A50.93 50.93 0 0 0 56 62.42z"/><path class="cls-5" d="M50.51 60.47c1.28-1 3.77-6.22 3.77-6.22l2 3.53c-.33.87-.66 1.85-1 2.88.13.52.31 1.12.53 1.76h6.37c-.87-5-2.07-10.94-3-12.64a7.37 7.37 0 0 0-5.29-3.4c-.7 5.5-6.43 7-6.43 7l.24 7.56a4.35 4.35 0 0 0 2.81-.47z"/><path class="cls-6" d="M41.44 62v.47h2.75l.19-1.8c-3.38.26-4.69-2.19-5.27-3.78-.06.41-.12.79-.2 1.13-.75 3.06 2.53 3.98 2.53 3.98z"/><path class="cls-20" d="M53.61 16s-15.54 8.76-17.93 12.56c0 0-2.31-9.15 6.18-10.5S53.61 16 53.61 16z"/></g><path class="cls-26" d="M125 13.35l-.82-1.17 2.58.47.15.24 1.5-.36 1.88-3 1.85 3 .71.18-.13-.2c.09 0 2-.35 2-.35l.82 1.17-.07.05h.06l-2.27 2.68.23 3.51-3.25-1.34-3.24 1.33-.8-1.22.68-1.06.28.18.11-1.4z"/><path class="cls-27" d="M126.17 18.33l3.27-1.29 3.25 1.33-.22-3.51 2.27-2.68-3.41-.87-1.84-2.99-1.89 2.97-3.41.83 2.24 2.71-.26 3.5z"/><path class="cls-26" d="M112.7 13.35l-.82-1.17 2.58.47.15.24 1.5-.36 1.88-3 1.85 3 .71.18-.14-.2c.1 0 2-.35 2-.35l.82 1.17-.07.05h.06L121 16.09l.23 3.51-3.26-1.34-3.27 1.3-.8-1.22.68-1.06.28.18.11-1.4z"/><path class="cls-27" d="M113.86 18.33l3.27-1.29 3.25 1.33-.22-3.51 2.27-2.68-3.41-.87-1.85-2.99-1.88 2.97-3.41.83 2.24 2.71-.26 3.5z"/><path class="cls-26" d="M100.39 13.35l-.82-1.17 2.58.47.15.24 1.5-.36 1.88-3 1.85 3 .71.18-.14-.2c.1 0 2-.35 2-.35l.82 1.17-.07.05h.06l-2.27 2.68.22 3.51-3.25-1.34-3.27 1.3-.8-1.22.68-1.06.28.18.11-1.4z"/><path class="cls-27" d="M101.55 18.33l3.26-1.29 3.26 1.33-.23-3.51 2.27-2.68-3.4-.87-1.85-2.99-1.88 2.97-3.41.83 2.24 2.71-.26 3.5z"/><path class="cls-26" d="M88.08 13.35l-.82-1.17 2.58.47.15.24 1.5-.36 1.88-3 1.85 3 .71.18-.14-.2c.1 0 2-.35 2-.35l.82 1.17-.07.05h.06l-2.27 2.68.22 3.51-3.25-1.34-3.27 1.3-.8-1.22.68-1.06.28.18.11-1.4z"/><path class="cls-27" d="M89.24 18.33l3.26-1.29 3.26 1.33-.23-3.51 2.27-2.68-3.4-.87-1.85-2.99-1.88 2.97-3.41.83 2.24 2.71-.26 3.5z"/><path class="cls-28" d="M75.77 13.35L75 12.17l2.58.47.15.24 1.5-.36 1.88-3 1.85 3 .71.18-.14-.2c.1 0 2-.35 2-.35l.82 1.17-.07.05h.06L84 16.09l.22 3.51L81 18.26l-3.27 1.3-.8-1.22.68-1.06.28.18.11-1.4z"/><path class="cls-29" d="M76.93 18.33l3.26-1.29 3.25 1.33-.22-3.51 2.27-2.68-3.4-.87-1.85-2.99-1.88 2.97-3.41.83 2.24 2.71-.26 3.5z"/><path class="cls-30" d="M76.24 24.33h77.1v9.48h-77.1z"/><path class="cls-2" d="M76.24 37.69h113.71v7.2H76.24zm0 9.59h113.71v7.2H76.24z"/></g></g></svg>