<svg xmlns="http://www.w3.org/2000/svg" viewBox="0 0 123.26 139.66"><defs><style>.cls-1{fill:#fff}.cls-2{fill:#c5d1cf}.cls-3{fill:#f0f0f0}.cls-4{clip-path:url(#clip-path)}.cls-5{fill:#8b4533}.cls-6{fill:#4bbee1}.cls-7{fill:#88d0e7}.cls-8{fill:#268196}.cls-9{fill:#f09078}.cls-10{fill:#f4a780}.cls-11{fill:#70bcd1}.cls-12{fill:#5a91ac}.cls-13{fill:#f08f69}.cls-14,.cls-16{fill:#f0f1f1}.cls-15{fill:#6f4237}.cls-16{opacity:.7}.cls-17{fill:#06b7df}.cls-18{fill:#eb8d6b}.cls-19{fill:#eb7260}.cls-20{fill:#c4674a}.cls-21{fill:#d4c8a3}.cls-22{fill:#f5541e}.cls-23{fill:#fadb21}.cls-24{fill:#9cb1ae}</style><clipPath id="clip-path"><path class="cls-1" d="M88.08 33.12a21.54 21.54 0 1 1-21.53-21.53 21.53 21.53 0 0 1 21.53 21.53z"/></clipPath></defs><title>Asset 16</title><g id="Layer_2" data-name="Layer 2"><g id="Layer_1-2" data-name="Layer 1"><path class="cls-2" d="M122.1 3.24l-1.94-1.92-.69.84H15.4L6.21 12.23v-.71c-1 .59-6.21 3-6.21 3l2.17 2.18h13.18l-.14 119-1.17.55 2.05 2a4.08 4.08 0 0 0 .55.55 3.81 3.81 0 0 0 2.4.84h100.39a3.82 3.82 0 0 0 3.83-3.83V6a3.81 3.81 0 0 0-1.16-2.76z"/><path class="cls-3" d="M117.27 0h-104L0 14.51h13.2l-.15 119.15a3.84 3.84 0 0 0 3.84 3.85h100.38a3.84 3.84 0 0 0 3.84-3.84V3.84A3.84 3.84 0 0 0 117.27 0z"/><path class="cls-1" d="M88.08 33.12a21.54 21.54 0 1 1-21.53-21.53 21.53 21.53 0 0 1 21.53 21.53z"/><g class="cls-4"><path class="cls-5" d="M58.36 20.91s-2.68 2.89-1.18 4.93 5.73-1.66 5.73-1.66z"/><path class="cls-6" d="M66.81 58.74c3.61-15.45-15-16.51-31.17-.41l-.43.41z"/><path class="cls-7" d="M80.74 58.74a93.5 93.5 0 0 0-2.23-11.68l-2.14-2.59-.37-.07h-.18c-.48-.08-1-.14-1.44-.2a45.89 45.89 0 0 0-12.07.31c-1.36.2-2.62.45-3.75.71l-1 .23a17.32 17.32 0 0 0-.15 2l-.52-1.79h-.05l-.78.22-1.06.26-.52.16-1.05.35c-.92.31-1.43.52-1.43.52a87.26 87.26 0 0 0-3.63 11.57z"/><path class="cls-6" d="M80.74 58.74h15.08a15.14 15.14 0 0 0-6.24-9 32 32 0 0 0-12.4-5.16l-.81-.15 2.14 2.59a93.5 93.5 0 0 1 2.23 11.72z"/><path class="cls-8" d="M75.66 40.72c-2.15-.23-5.46-.23-10.17-.47-4.54-.22-6.86.42-8 1.18a3 3 0 0 0-.92.88 1.69 1.69 0 0 0-.3 1.06l.61 2.25.58 2.13.18.66h.11l9.15-.16s.54-.13 1.4-.37c1.44-.39 3.77-1.07 5.88-1.87.63-.25 1.25-.5 1.81-.76s.87-.42 1.24-.63c1-.61 1.74-1.23 1.76-1.83.01-1.32-.99-1.79-3.33-2.07zM56.88 45.6l.67-.17a17.32 17.32 0 0 0-.15 2z"/><path class="cls-8" d="M57.55 45.43a17.32 17.32 0 0 0-.15 2l-.52-1.79z"/><path class="cls-9" d="M75.94 45.25c-1 4.91-15.65 11.94-15.65 11.94l-.24-.81a59.24 59.24 0 0 0-2.2-6.31 6 6 0 0 1-.44-2.32v-.36a17.32 17.32 0 0 1 .15-2c.05-.38.11-.75.16-1.06.14-.74.27-1.22.27-1.22l1-.23c3.55-.73 15.1-2.79 16.78.91a1.17 1.17 0 0 1 .09.24.41.41 0 0 1 0 .08 2.27 2.27 0 0 1 .06.25 2.45 2.45 0 0 1 .02.89z"/><path class="cls-10" d="M75.12 30.07a15.16 15.16 0 0 1-.53 4.1l-.21-3.9-.38 4.85-1.36.32s1 5.23-.52 9.19c-11.47 2-14.94-2.73-16-5.41a14.67 14.67 0 0 1 .32-2.37 77.73 77.73 0 0 0 .9-8.2c.29-3.51.63-6.7 1.48-7.38C60.34 20.08 67.61 20 71.76 20c1.74 0 2.92.06 2.92.06s.15 3.51.34 7.84v.34c.05.62.07 1.23.1 1.83z"/><path class="cls-10" d="M57.65 44.31a7 7 0 0 1-1.5-5.09c1.14 3 5.25 8.36 19.75 4.59.29 2.83-12.11 7.52-18.25.5z"/><path class="cls-11" d="M72.73 50.88l-12.44 6.31 18.65-14.4-6.21 8.09z"/><path class="cls-12" d="M77.92 55.55l-5.19-4.67 6.21-8.09-1.02 12.76zM52.16 52.4l3.58-2.21.48-6.82-4.06 9.03z"/><path class="cls-11" d="M60.29 57.19l-4.55-7 .31-4.36.17-2.46.66 2.23.53 1.8.29 1.01 2.35 7.97.24.81z"/><path class="cls-13" d="M60 42.62s.91 1.7 5.46 2.15c-.01 0-4.23.85-5.46-2.15z"/><path class="cls-14" d="M65.17 29.77l4-.08A2.34 2.34 0 0 1 67 32.12c-2.22.12-1.83-2.35-1.83-2.35z"/><path class="cls-5" d="M68.34 30.35a1 1 0 1 1-1-1 1 1 0 0 1 1 1z"/><path class="cls-14" d="M58.61 29.83l3.32-.07a1.92 1.92 0 0 1-1.81 2c-1.84.1-1.51-1.93-1.51-1.93z"/><path class="cls-5" d="M61.52 30.28a.87.87 0 1 1-.87-.87.87.87 0 0 1 .87.87z"/><path class="cls-15" d="M61 30.35a.37.37 0 0 1-.37.37.37.37 0 0 1 0-.73.37.37 0 0 1 .37.36zm6.69.08a.37.37 0 0 1-.37.36.36.36 0 0 1-.36-.36.37.37 0 0 1 .36-.37.38.38 0 0 1 .37.37z"/><path class="cls-16" d="M60 30.82a.36.36 0 0 1-.36.36.37.37 0 0 1-.37-.36.38.38 0 0 1 .37-.37.37.37 0 0 1 .36.37zm6.68.1a.37.37 0 0 1-.73 0 .37.37 0 1 1 .73 0z"/><path class="cls-17" d="M101.17 58.74A44.93 44.93 0 0 0 91.46 51c-8.49-4.25-9.26 1-7.6 7.72z"/><path class="cls-18" d="M58.61 29.83l3.32-.07s-.52-1.86-1.94-1.7-1.38 1.77-1.38 1.77zm6.56-.06l4-.08A2 2 0 0 0 67 28.3c-1.68.33-1.83 1.47-1.83 1.47z"/><path class="cls-9" d="M72.13 44.63c1.54-4 .52-9.19.52-9.19l1.35-.32.37-4.85.21 3.9a15.16 15.16 0 0 0 .53-4.1c.27 5.86.6 12.38.78 13.71-1.34.38-2.59.65-3.76.85z"/><path class="cls-9" d="M72.13 44.63a18.81 18.81 0 0 1-7.07 4.85c-4.72 1.93-5 1.82-5 1.82l7.61-1.07s6.46-3.4 8.3-5.83l-.08-.59z"/><path class="cls-5" d="M57.34 22.52s2.44 3.35 4.93 1.26 9.33-.33 11.42 1.36c0 0 1.4 2.68-.33 7s-1.82 7.17-8.81 3.87c0 0-5.74-.64-7.75 1.74s-1 4.72-2 6.25 4.59 4.26 4.83 4.34 7.31 1.69 8.44 1 5.3-4.66 5.38-6.27-.36-6.15.69-8.56 2.93-11.22 1.24-14.19-5.52-5.74-7.85-4.77c0 0-4.71-1.66-5.84.91s-6.41 1.13-4.35 6.06z"/><path class="cls-10" d="M74.69 30s1-1.89 2.5-.52c1.71 1.52-.56 5.46-2.19 5.64s-.76-1.48-.76-1.48z"/><path class="cls-19" d="M75.5 33.57s1.94-1.25 1.4-2.6-1.92 0-2 .47c0 0 1.4-.19.6 2.13z"/><path class="cls-20" d="M67.5 38.3a10.79 10.79 0 0 1-1.19 1.37c-1.31 1.33-3.41 2.68-5.07.45A6.26 6.26 0 0 1 60.6 39l.72-.08 5.07-.52z"/><path class="cls-1" d="M66.39 38.41v.66a14.49 14.49 0 0 1-5.08.62v-.76z"/><path class="cls-1" d="M66.33 39.32v.35c-1.33 1.33-3.43 2.68-5.09.45v-.38c3.53.19 4.76-.23 5.09-.42z"/><path class="cls-21" d="M66.35 39.07v.25c-.35.19-1.56.61-5.06.42v-.05a14.49 14.49 0 0 0 5.06-.62z"/><path class="cls-18" d="M63.81 30.55c0-.3-.69-.33-.92-.14-2.68 2.24-2.79 5.09-2.38 5.65.91 1.23 2.34-.91 4 .06.82.5 1.33-.68 1.07-1.52s-1-.5-1.59-.82c-.42-.2-.09-1.89-.18-3.23z"/><path class="cls-5" d="M56.91 27.45l.21.85 4.72.38v-2.14l-4.93.91zm7.77-.7l.32 1.98 5.36.81V28.3l-5.68-1.55zm-7.45 3.73s-1.66 6.59-1 8.25 1.54-.5 1.54-.5-.65-6.71-.54-7.75z"/><path class="cls-5" d="M57.23 30.48s-.61 7.18 2 5.94l-1.42 2-.83-1.2z"/></g><path class="cls-22" d="M86.52 67.74l-.82-1.17 2.58.47.15.24 1.5-.37 1.88-3 1.85 3 .71.18-.14-.19c.1 0 2-.35 2-.35l.82 1.17h-.07.06l-2.27 2.69L95 74l-3.25-1.33-3.27 1.29-.8-1.21.68-1.06.28.17.11-1.4z"/><path class="cls-23" d="M87.68 72.72l3.26-1.3 3.26 1.33-.23-3.5 2.27-2.68-3.4-.88-1.85-2.98-1.88 2.96-3.41.84 2.24 2.71-.26 3.5z"/><path class="cls-22" d="M74.21 67.74l-.82-1.17L76 67l.15.24 1.5-.37 1.88-3 1.85 3 .71.18-.14-.19c.1 0 2-.35 2-.35l.82 1.17h-.07.06l-2.27 2.69.21 3.63-3.25-1.33-3.27 1.29-.8-1.21.68-1.06.28.17.11-1.4z"/><path class="cls-23" d="M75.37 72.72l3.26-1.3 3.26 1.33-.23-3.5 2.27-2.68-3.4-.88-1.85-2.98-1.88 2.96-3.41.84 2.24 2.71-.26 3.5z"/><path class="cls-22" d="M61.89 67.74l-.82-1.17 2.57.47.16.24 1.5-.37 1.88-3 1.85 3 .71.18-.14-.19c.09 0 2-.35 2-.35l.82 1.17h-.07.06l-2.27 2.69.22 3.5-3.25-1.33-3.27 1.29-.8-1.21.68-1.06.28.17.11-1.4z"/><path class="cls-23" d="M63.06 72.72l3.26-1.3 3.26 1.33-.23-3.5 2.27-2.68-3.4-.88-1.85-2.98-1.88 2.96-3.41.84 2.24 2.71-.26 3.5z"/><path class="cls-22" d="M49.58 67.74l-.83-1.17 2.58.47.16.24L53 66.9l1.88-3 1.85 3 .71.18-.14-.19c.09 0 2-.35 2-.35l.82 1.17h-.07.06l-2.27 2.69.22 3.5-3.25-1.33-3.28 1.29-.79-1.21.68-1.06.28.17.1-1.4z"/><path class="cls-23" d="M50.75 72.72l3.26-1.3 3.25 1.33-.22-3.5 2.27-2.68-3.4-.88-1.85-2.98-1.88 2.96-3.41.84 2.24 2.71-.26 3.5z"/><path class="cls-22" d="M37.27 67.74l-.82-1.17L39 67l.16.24 1.5-.37 1.88-3 1.84 3 .72.18-.1-.14c.09 0 2-.35 2-.35l.82 1.17h-.08.07l-2.27 2.69.22 3.5-3.25-1.33-3.28 1.29-.79-1.21.68-1.06.28.17.1-1.4z"/><path class="cls-23" d="M38.44 72.72l3.26-1.3 3.25 1.33-.22-3.5L47 66.57l-3.4-.88-1.85-2.98-1.88 2.96-3.42.84 2.25 2.71-.26 3.5z"/><path class="cls-24" d="M28.21 78.72h77.1v9.48h-77.1z"/><path class="cls-2" d="M23.26 98.1h89.16v7.2H23.26zm0 9.6h89.16v7.2H23.26zm0 9.48h60.73v7.2H23.26z"/></g></g></svg>