<svg xmlns="http://www.w3.org/2000/svg" viewBox="0 0 257.83 63.97"><defs><style>.cls-1,.cls-17,.cls-22{fill:#fff}.cls-2{fill:none}.cls-3{fill:#c5d1cf}.cls-4{fill:#f0f0f0}.cls-5{clip-path:url(#clip-path)}.cls-6{fill:#280801}.cls-7{fill:#362311}.cls-8{fill:#f7871b}.cls-9{fill:#ff9e22}.cls-10{fill:#7a2f06}.cls-11{fill:#90481d}.cls-12{fill:#3c1105}.cls-13{fill:#ff8d57}.cls-14{fill:#4a2423}.cls-15{fill:#8c3607}.cls-16{fill:#732d10}.cls-17{opacity:.33}.cls-18{isolation:isolate}.cls-19{clip-path:url(#clip-path-2)}.cls-20{fill:#68d6d2}.cls-20,.cls-22{opacity:.25}.cls-21{fill:#435042}.cls-23{fill:#685a4d}.cls-24{fill:#e76b41}.cls-25{fill:#c54830}.cls-26{fill:#91471d}.cls-27{fill:#420502}.cls-28{fill:#670804}.cls-29{fill:#6e8b86}.cls-30{fill:#a9bbb8}.cls-31{fill:#f5541e}.cls-32{fill:#fadb21}.cls-33{fill:#9cb1ae}</style><clipPath id="clip-path"><path class="cls-1" d="M67.93 30.85A21.54 21.54 0 1 1 46.39 9.31a21.54 21.54 0 0 1 21.54 21.54z"/></clipPath><clipPath id="clip-path-2"><path class="cls-2" d="M35.28 33.96L35.24 30l12.51.28.04 3.96-12.51-.28z"/></clipPath></defs><title>Asset 15</title><g id="Layer_2" data-name="Layer 2"><g id="Layer_1-2" data-name="Layer 1"><path class="cls-3" d="M256.82 3.41a3.19 3.19 0 0 0-.26-.26L254.43 1s-1.78.89-2.17 1.14H15.4L6.13 12.32c-2.84 1-6 2.15-6 2.15l2.07 2.22h13.15l-.14 42.91-1 1.15L16 62.5a3.85 3.85 0 0 0 3 1.5h235a3.84 3.84 0 0 0 3.84-3.83V6a3.79 3.79 0 0 0-1.02-2.59z"/><path class="cls-4" d="M251.83 0H13.25L0 14.51h13.2L13.05 58a3.83 3.83 0 0 0 3.84 3.85h234.94a3.83 3.83 0 0 0 3.84-3.85V3.84A3.84 3.84 0 0 0 251.83 0z"/><path class="cls-1" d="M67.93 30.85A21.54 21.54 0 1 1 46.39 9.31a21.54 21.54 0 0 1 21.54 21.54z"/><g class="cls-5"><path class="cls-6" d="M35.07 20.81S30.88 25.33 33.43 31s8.32 9.16 9 8.93.77-15.67-7.36-19.12z"/><path class="cls-7" d="M35.31 31.19l4.31-.85-.31-.36-3.73.77-.27.44z"/><path class="cls-8" d="M42 50.63a62.27 62.27 0 0 1-2.32 10.62h1.85a61.22 61.22 0 0 0 2.61-10.5c.25-1.76-2.39-3.76-4.07-3.17a1.81 1.81 0 0 0-.31.13c1.29.53 2.41 1.76 2.24 2.92z"/><path class="cls-9" d="M39.72 61.25A62.27 62.27 0 0 0 42 50.63c.13-1.16-1-2.39-2.24-2.92-.76.36-1 .88-1.61 2.5a54.32 54.32 0 0 0-2.43 11z"/><path class="cls-9" d="M57.48 53.28A21.32 21.32 0 0 0 55.8 57l-2-3.4s-2.39 5.06-3.63 6-4.31.12-8 0A3.11 3.11 0 0 1 39 57.31a5.56 5.56 0 0 1 .27-1.39 12.32 12.32 0 0 0 .19-7.57s17.69-2.39 18.36.82-.34 4.11-.34 4.11z"/><path class="cls-10" d="M51.11 45.33a8.43 8.43 0 0 1-3.06 2.35c-1.94.87-2.55-1.07-2.74-2.23 2.12-2.3.09-7.12.09-7.12l4.85-3.11s-1.99 7.78.86 10.11z"/><path class="cls-11" d="M51.13 28.76c0 1.72-.93 9.28-3.85 11.37a10.64 10.64 0 0 1-4.52.77c-2.17-.27-4.42-6.62-5.22-8.39s.64-9.8.64-9.8c.36-2.64 3.53-3.3 6.93-3.1l-.94.81s1.25 5.43 3.48 6.51 3.5.07 3.48 1.83z"/><path class="cls-9" d="M57.58 48.62s-18.52.56-18.17-.38.66-.37 4.66-2a3.42 3.42 0 0 0 1.24-.83c.19 1.16.8 3.1 2.74 2.23a8.43 8.43 0 0 0 3.06-2.35 2.61 2.61 0 0 0 1 .54c4.95 1.23 5.47 2.79 5.47 2.79z"/><path class="cls-12" d="M37.33 29c-.08 0 .6-1.08 1.25-1.19a4.87 4.87 0 0 1 2.19-.08 1.47 1.47 0 0 1 .29 1.1 2.74 2.74 0 0 0-1-.32 8.92 8.92 0 0 0-2.73.49z"/><path class="cls-13" d="M41.1 31.39l-3.36-.2A1.75 1.75 0 0 1 39 30c1.32-.36 2.1 1.39 2.1 1.39z"/><path class="cls-14" d="M41.1 31.39h-3.4l-.35-.22h.39A1.75 1.75 0 0 1 39 30c1.32-.36 2.1 1.39 2.1 1.39z"/><path class="cls-1" d="M41.1 31.39a3.5 3.5 0 0 1-.84.51 2.21 2.21 0 0 1-1.56.1 2 2 0 0 1-.53-.24 2.39 2.39 0 0 1-.47-.36.7.7 0 0 1 0-.2A1.75 1.75 0 0 1 39 30c1.32-.36 2.1 1.39 2.1 1.39z"/><path class="cls-15" d="M40.24 30.88a1 1 0 1 1-1-1.21 1.13 1.13 0 0 1 1 1.21z"/><path class="cls-12" d="M39.87 30.88a.66.66 0 1 1-.65-.77.72.72 0 0 1 .65.77z"/><path class="cls-1" d="M38.84 30.82a.25.25 0 0 1-.23.28.28.28 0 0 1 0-.56.25.25 0 0 1 .23.28z"/><path class="cls-16" d="M41.1 31.35a1.86 1.86 0 0 0-1.59-1.73c-1.53-.23-2.16 1.55-2.16 1.55.15-1 .82-2.67 2.46-2.31 1.19.26 1.28 2.2 1.29 2.49z"/><path class="cls-14" d="M41.1 31.39S40.32 29.64 39 30a1.75 1.75 0 0 0-1.26 1.16h-.39s.63-1.78 2.16-1.55a1.86 1.86 0 0 1 1.59 1.73zm8.18-1.07l-.47.35-5 .51A3.4 3.4 0 0 1 46 29.26a3 3 0 0 1 2.64 1.17z"/><path class="cls-16" d="M48.92 30.37a4.25 4.25 0 0 0-3.2-1.62c-1.95.07-2.23 2.49-2.23 2.49s-.53-3.18 1.95-3.31 3.42 2.29 3.48 2.44z"/><path class="cls-1" d="M48.45 30.73A4 4 0 0 1 47 31.82a3.23 3.23 0 0 1-.82.19 3.35 3.35 0 0 1-1.06-.07 3.76 3.76 0 0 1-.78-.25 4 4 0 0 1-.8-.45 3.4 3.4 0 0 1 2.12-1.92 3 3 0 0 1 2.64 1.17 2.51 2.51 0 0 1 .15.24z"/><path class="cls-15" d="M46.76 30.46a1.28 1.28 0 1 1-1.28-1.37 1.32 1.32 0 0 1 1.28 1.37z"/><path class="cls-12" d="M46.29 30.46a.81.81 0 1 1-.81-.87.84.84 0 0 1 .81.87z"/><path class="cls-1" d="M45 30.39a.3.3 0 1 1-.3-.32.3.3 0 0 1 .3.32z"/><path class="cls-14" d="M48.92 30.38l-.67.11a3 3 0 0 0-2.64-1.17 3.4 3.4 0 0 0-2.12 1.92s.28-2.42 2.23-2.49a4.25 4.25 0 0 1 3.2 1.62z"/><path class="cls-10" d="M43 34.49c-.12.38-1.09 0-1.63 0s-.63.42-1.24-.19a.73.73 0 0 1-.27-.67c.06-.31.39-.59.76-.88.62-.46.18-2.64.18-2.64.45.31.35 2.16.25 2.53s-.48.57-.76.85a.82.82 0 0 0-.26.36c-.06.29.53.77.91.53s.81 0 1.31.06.57-.15.65-.46-.16-.34-.33-.44l-.1-.05h-.12a.53.53 0 0 1 .55.25 1 1 0 0 1 .1.75z"/><path class="cls-15" d="M42.9 34c-.08.31-.13.52-.65.46s-.92-.29-1.31-.06-1-.24-.91-.53a.82.82 0 0 1 .26-.36 3.06 3.06 0 0 0 1.76.27c.47-.2.45-.25.42-.27l.1.05c.17.13.37.29.33.44z"/><path class="cls-17" d="M41.26 34c0 .1-.26.14-.56.1s-.54-.15-.52-.25.26-.13.56-.09.53.24.52.24z"/><path class="cls-12" d="M48.51 27.78a3.23 3.23 0 0 0-1.89-.86 9.32 9.32 0 0 0-2.93.36 1.08 1.08 0 0 0-.18 1.08 4.73 4.73 0 0 1 1.26-.49 16.63 16.63 0 0 1 3.74-.09z"/><path class="cls-15" d="M52.65 35.16a8.83 8.83 0 0 1-5.39 5c2.92-2.09 3.83-9.64 3.85-11.37s-1.25-.75-3.48-1.83-3.48-6.51-3.48-6.51l.94-.8c4.11.24 8.55 1.75 8.81 2.57.48 1.46.48 8.26-1.25 12.94z"/><path class="cls-8" d="M42.53 60.89v.36h5.07V60c-1.44-.08-3.28-.35-5.29-.42a3.11 3.11 0 0 1-3.17-2.29c-.14 3.14 3.39 3.6 3.39 3.6z"/><path class="cls-8" d="M54.44 61.25c.13-.48.26-1 .4-1.44.31-1 .63-2 .95-2.79l-2-3.4s-2.39 5.06-3.63 6a4.19 4.19 0 0 1-2.67.42v1.25z"/><g class="cls-18"><g class="cls-19"><path class="cls-7" d="M39.44 30.64h.48c.13 0 .55 0 .6.43v.62a5.5 5.5 0 0 1-.28 1.38.67.67 0 0 1-.19.27 8 8 0 0 1-2.46.32h-.39a3.83 3.83 0 0 1-.87-.17l-.16-.06a.91.91 0 0 1-.16-.11.84.84 0 0 1-.23-.4 6.26 6.26 0 0 1-.14-.83 2.49 2.49 0 0 1 0-.92 3.19 3.19 0 0 1 1.48-.34h2.35zm-4 .19c-.44.41-.06 2 0 2.2a1 1 0 0 0 .59.71 4.15 4.15 0 0 0 1.51.27h.36a7.93 7.93 0 0 0 2.2-.33c.64-.26.72-2.35.72-2.58l-.16.07c0-.1-.09-.19-.13-.29l.2-.08a.87.87 0 0 0-.73-.4h-.53c-1.09-.04-3.47-.04-4.02.43z"/><path class="cls-20" d="M36.44 30.77a1.78 1.78 0 0 0-.83.26 2.55 2.55 0 0 0 0 .66z"/><path class="cls-21" d="M35.54 31.17zm0 0zm0 0zm0 0zm0 0zm0 0zm0 0zm0 0zm0 0z"/><path class="cls-20" d="M38.85 30.64h-.55l-2.4 2.73a.91.91 0 0 0 .16.11l.16.06z"/><path class="cls-21" d="M36.27 33.56l-.16-.06zm-.19-.07zm-.18-.12a.91.91 0 0 0 .16.11.91.91 0 0 1-.16-.11zm2.87-2.73z"/><path class="cls-20" d="M40.53 31.71l-1.74 2a5.29 5.29 0 0 0 1.2-.25.67.67 0 0 0 .19-.27 5.5 5.5 0 0 0 .35-1.48z"/><path class="cls-21" d="M40 33.43zm0 0zm0 0zm.2-.27zm0 0zm.29-1.41a5.5 5.5 0 0 1-.28 1.38 5.5 5.5 0 0 0 .28-1.38z"/><path class="cls-7" d="M46.22 30.52a2.29 2.29 0 0 1 1.09.24 1.78 1.78 0 0 1 .2 1.15q0 .36-.06.72a.69.69 0 0 1-.37.54 3.9 3.9 0 0 1-1.4.32h-.74a9.66 9.66 0 0 1-1.2-.1 4 4 0 0 1-.55-.12.37.37 0 0 1-.17-.14 2 2 0 0 1-.21-.44 3.41 3.41 0 0 1-.15-.51v-.49c0-.2-.07-.4-.09-.57 0-.45.58-.46.6-.46.4 0 1.07-.08 1.75-.09h1zM43 30.33a.84.84 0 0 0-.77.43l.16.06-.09.29h-.13c0 .24.31 2.32 1 2.54a7 7 0 0 0 1.81.23h.41a4.56 4.56 0 0 0 1.85-.35 1 1 0 0 0 .51-.74c0-.18.25-1.8-.23-2.19a3.86 3.86 0 0 0-1.86-.33c-1.21-.06-2.47.04-2.66.06z"/><path class="cls-20" d="M43.4 30.56h-.42s-.59 0-.6.46c0 .17 0 .37.09.57z"/><path class="cls-21" d="M42.47 31.62c0-.2-.07-.4-.09-.57.02.17.05.37.09.57zm-.09-.57c0-.45.58-.46.6-.46s-.59.01-.6.46z"/><path class="cls-20" d="M45.66 30.49h-.44l-2.3 2.6.06.1a.37.37 0 0 0 .17.14l2.54-2.87z"/><path class="cls-21" d="M43.18 33.36a.37.37 0 0 1-.17-.14.37.37 0 0 0 .17.14zm-.18-.14zm0 0zm2.48-2.7z"/><path class="cls-20" d="M47.51 31.48l-1.84 2.09a3.8 3.8 0 0 0 1.4-.32.69.69 0 0 0 .37-.54q0-.36.06-.72c.02-.23.01-.37.01-.51z"/><path class="cls-21" d="M45.67 33.57a3.9 3.9 0 0 0 1.4-.32 3.8 3.8 0 0 1-1.4.32zm1.78-.9q0-.36.06-.72-.01.36-.06.72zm.06-.74z"/><path class="cls-7" d="M41.53 30.65a2.22 2.22 0 0 0-.81.13l-.2.08c0 .1.09.19.13.29l.16-.07a2.22 2.22 0 0 1 .72-.12 2.11 2.11 0 0 1 .6.11h.13l.09-.29-.16-.06a2.17 2.17 0 0 0-.66-.07z"/><path class="cls-22" d="M38.3 30.64h-1.21l-.65.08-.95 1.07v.26c0 .27.08.55.14.83a.84.84 0 0 0 .23.4z"/><path class="cls-23" d="M35.9 33.37a.84.84 0 0 1-.23-.4.84.84 0 0 0 .23.4zm-.24-.44c-.06-.28-.11-.56-.14-.83a6.26 6.26 0 0 0 .14.83zm1.43-2.24zm.1 0zm0 0h.66zm.68 0zm0 0zm.08 0zm.13 0z"/><path class="cls-22" d="M39.45 30.64h-.6l-2.58 2.92a3.83 3.83 0 0 0 .87.17h.39a8.55 8.55 0 0 0 1.26-.07l1.74-2v-.62c-.05-.39-.47-.43-.6-.43z"/><path class="cls-23" d="M37.28 33.74zm-.06 0zm-.95-.18a3.83 3.83 0 0 0 .87.17 3.83 3.83 0 0 1-.87-.17zm4.26-1.85v-.45q.01.21 0 .45zm0-.47zm-1.71-.6h1.07c.13 0 .55 0 .6.43-.05-.39-.47-.43-.6-.43h-.48z"/><path class="cls-22" d="M45.22 30.49h-.49c-.48 0-.95 0-1.33.06l-.93 1.06v.46a3.41 3.41 0 0 0 .15.51 2.84 2.84 0 0 0 .15.34z"/><path class="cls-23" d="M42.75 32.71zm0 0a3.41 3.41 0 0 1-.15-.51 3.41 3.41 0 0 0 .14.47zm-.15-.52zm0 0zm0-.07zm0-.06zm0-.16zm0 0zm0 0s-.11-.18-.11-.16zm0-.12zm2.26-1.12z"/><path class="cls-22" d="M45.76 30.5l-2.54 2.87a2.89 2.89 0 0 0 .51.11 9.66 9.66 0 0 0 1.2.1h.74l1.84-2.09a1.12 1.12 0 0 0-.2-.72 2.42 2.42 0 0 0-1.09-.24z"/><path class="cls-23" d="M44.93 33.58h.74-.74a9.66 9.66 0 0 1-1.2-.1 9.66 9.66 0 0 0 1.2.1zm.83-3.08h.46-.46z"/></g></g><path class="cls-7" d="M47.7 31.03l4.3-.85-.3-.36-4.24.74.24.47z"/><path class="cls-16" d="M51 32.61a3.67 3.67 0 0 1 .51-3.6c.54-.67 1.31-1.17 2.09-.7 1.27.79 1.28 3.88-.22 5.36a1.15 1.15 0 0 1-1.8-.05 3.9 3.9 0 0 1-.58-1.01z"/><path class="cls-24" d="M53.64 29.89s.21.59-.12.42-1.32-.6-1.09.1 1 1.07.57 1.66-.51.5-.7.33c0 0 .54-.31.44-.65a2.93 2.93 0 0 1 0-.63l-.52-.23-.28-.65.15-.5 1-.41a1.09 1.09 0 0 1 .55.56z"/><path class="cls-25" d="M52.53 29.34s1.07-.14 1 .63.14-.56-.67-.33-.8.1-.82.54.21.59.74.82-.24 1.65-.48 1.44.76-1 .35-1.21-1-.66-.9-1.08a1.28 1.28 0 0 1 .78-.81z"/><path class="cls-10" d="M57.91 61.25h.87a87.67 87.67 0 0 0 0-10.7 3.73 3.73 0 0 0-1.64-2.5H57a3.42 3.42 0 0 1 .93 1.89 88.55 88.55 0 0 1-.02 11.31z"/><path class="cls-26" d="M57.91 61.25a88.55 88.55 0 0 0 0-11.31 3.42 3.42 0 0 0-.91-1.89c-.6 0-3 .42-3.82 5.1a38.71 38.71 0 0 0-.1 8.1z"/><path class="cls-8" d="M56.39 50.05a59.33 59.33 0 0 1 .39 11.2h2.58a67 67 0 0 0-.71-11.7c-.26-1.76-3.56-3.41-5.09-1.87-.1.09-.21.14-.3.21 1.45.11 2.95 1.01 3.13 2.16z"/><path class="cls-9" d="M56.78 61.25a59.33 59.33 0 0 0-.39-11.2c-.18-1.15-1.68-2-3.13-2.16-.7.56-.8 1.14-1 2.88a48.17 48.17 0 0 0 .29 10.48z"/><path class="cls-27" d="M41.16 36.64l.14.46s1 1.15 1.07 1.15 2.39-1.17 2.39-1.17l.94-1h-.2l-2.18.22z"/><path class="cls-28" d="M45.7 36.11l-.33.06a8.71 8.71 0 0 1-4.21.47s-.13-1.36.44-.9.72-.12 1.36 0c1.75.39 2.17.49 2.74.37z"/><path class="cls-28" d="M42.32 37.63a1.42 1.42 0 0 1-1.16-1 4 4 0 0 0 .54 1.43 1.16 1.16 0 0 0 .88.39c1.83 0 2.92-2.1 3.12-2.35-1.7 1.21-2.7 1.56-3.38 1.53z"/><path class="cls-1" d="M45.38 36.17A7.43 7.43 0 0 1 42 37c-.72-.06-.81-.36-.81-.36a8.71 8.71 0 0 0 4.21-.47z"/><path class="cls-6" d="M36.9 35.23l.06.09a1.75 1.75 0 0 1 .15.24l.25.35.19.21.15.16a.46.46 0 0 1 .11.27.33.33 0 0 1-.13.28 1 1 0 0 1-.25.13 1.31 1.31 0 0 1 0-.14.26.26 0 0 0 0-.12v-.05l-.12-.07a1 1 0 0 1-.37-.34.87.87 0 0 1-.04-1.01zm10.33-11.95c.5.17 5.18 4.43 3.53 9s1.61 7.13 5.05 5.24c3.65-2 8.62-18.21-4.39-23.31C39.26 9.48 34.83 18 34.83 22s3.94-1.68 12.4 1.28z"/><path class="cls-6" d="M40.47 21.31s-2.63 1.8-1.23 2.87-.14 2.58-.32 2.77 1-1.45.15-2.11-1.56-2.84-.57-3.21a7.18 7.18 0 0 1 1.97-.32z"/><path class="cls-6" d="M38.93 19.85A14.81 14.81 0 0 0 37.39 23c-.61 1.79.25 1.6.19 2.4a6.08 6.08 0 0 0-.12 2.28 3.84 3.84 0 0 1-.44-2c.19-.74-1.54-1.85-.49-3.51a6.84 6.84 0 0 1 2.4-2.32zm.88 2.56l-.15.16a3.08 3.08 0 0 0-.36.46.85.85 0 0 0-.13.3.78.78 0 0 0 .09.41c.08.19.16.4.24.64a.77.77 0 0 1 0 .4c0 .13-.15.24-.24.21a.16.16 0 0 0 0-.17.58.58 0 0 0-.1-.19 3.28 3.28 0 0 1-.25-.35 2.24 2.24 0 0 1-.28-.47 1 1 0 0 1-.1-.37.85.85 0 0 1 .1-.4 1.19 1.19 0 0 1 .49-.48 1.17 1.17 0 0 1 .69-.15zm11.38 9.44l-.08-.08a1.4 1.4 0 0 1-.2-.29 1.64 1.64 0 0 1-.12-1.33 2.43 2.43 0 0 1 .18-.39.35.35 0 0 0 .06-.23.77.77 0 0 0-.17-.29 1.78 1.78 0 0 1-.31-.52c-.14-.49.09-.85 0-1.19a1.52 1.52 0 0 0-.27-.54.73.73 0 0 1-.17-.58.3.3 0 0 0 0 .1.8.8 0 0 0 .21.25 3.12 3.12 0 0 1 .45.45 1.11 1.11 0 0 1 .17.45 3.54 3.54 0 0 1 0 .45 1 1 0 0 0 0 .35.57.57 0 0 0 .15.27 2.53 2.53 0 0 1 .31.44.79.79 0 0 1 .09.35.65.65 0 0 1-.08.35 4.5 4.5 0 0 1-.27.44 1.67 1.67 0 0 0-.16.46 1.79 1.79 0 0 0 .21 1.08z"/><path class="cls-6" d="M50.26 26.76h-.11a1.34 1.34 0 0 1-.28-.12 1.29 1.29 0 0 1-.38-.34 1.41 1.41 0 0 1-.26-.67v-.67a.35.35 0 0 0-.1-.2 1.34 1.34 0 0 0-.32-.22 1.58 1.58 0 0 1-.41-.37 2.23 2.23 0 0 1-.26-.48 5.11 5.11 0 0 0-.45-1l.11.07a1.86 1.86 0 0 1 .26.25c.21.22.42.61.7.87A1 1 0 0 0 49 24l.35.19a1 1 0 0 1 .38.43 1 1 0 0 1 .06.54 2.34 2.34 0 0 0 0 .83 1.48 1.48 0 0 0 .47.77z"/><path class="cls-6" d="M49.41 25.39a1.31 1.31 0 0 1-.32-.06 1.64 1.64 0 0 1-.8-.53 1.72 1.72 0 0 1-.35-.61c-.07-.23-.11-.46-.19-.66a.72.72 0 0 0-.46-.48c-.27-.12-.56-.24-.87-.39h.84a1.33 1.33 0 0 1 .63.2 1.31 1.31 0 0 1 .46.67c.08.23.11.46.18.65a2.54 2.54 0 0 0 .88 1.21z"/><path class="cls-6" d="M48 23.75l-.51-.25-.61-.32a1.3 1.3 0 0 0-.73-.18c-.12 0-.28.08-.51.14a1.22 1.22 0 0 1-.4.05 1.12 1.12 0 0 1-.39-.11 3 3 0 0 1-.3-.13c-.1 0-.2-.07-.3-.09a6 6 0 0 0-.69-.14c-1-.13-2.16-.31-3.42-.57 0 0 1.1-.08 2.69 0 .39 0 .82 0 1.29.11a4.15 4.15 0 0 1 .72.21 1.94 1.94 0 0 0 .3.14.52.52 0 0 0 .24.05c.19 0 .43-.1.72-.12a1.35 1.35 0 0 1 .77.24 5.38 5.38 0 0 1 .59.48q.24.22.54.49z"/><path class="cls-6" d="M41.53 22.4h-.52a3.69 3.69 0 0 0-.6.08 1.69 1.69 0 0 0-.35.1c-.12 0-.21.1-.41.19a1 1 0 0 1-.36.06 1.22 1.22 0 0 1-.35-.06 4.32 4.32 0 0 1-.56-.23.47.47 0 0 0-.61 0 1.37 1.37 0 0 1-.36.21 4 4 0 0 1-.76.13 1.73 1.73 0 0 0-.65.27 5.11 5.11 0 0 0-1.13 1.25l.06-.17c0-.12.11-.28.21-.48a2.9 2.9 0 0 1 .45-.7 2 2 0 0 1 .95-.64c.21-.06.4-.08.55-.12a.68.68 0 0 0 .19-.08l.22-.17a.93.93 0 0 1 .4-.19 1 1 0 0 1 .45 0 3.76 3.76 0 0 1 .63.29.71.71 0 0 0 .5.1l.32-.1.36-.06a3.72 3.72 0 0 1 1.37.32z"/><path class="cls-6" d="M35.94 23.37a.41.41 0 0 0-.14.1 1 1 0 0 0-.21.54 5.08 5.08 0 0 1-.11.58 1.5 1.5 0 0 1-.15.38 2.78 2.78 0 0 1-.26.32 2.57 2.57 0 0 0-.5.55.62.62 0 0 0-.07.39 2.64 2.64 0 0 0 .13.46l-.08-.06a1.92 1.92 0 0 1-.19-.23.8.8 0 0 1-.17-.5 1.2 1.2 0 0 1 .22-.63c.12-.19.25-.34.36-.49a1.59 1.59 0 0 0 .13-.22l.1-.29a1.91 1.91 0 0 1 .32-.7.76.76 0 0 1 .31-.23.33.33 0 0 1 .31.03z"/><path class="cls-6" d="M35.85 21.93v.16a3 3 0 0 1 0 .46 1.94 1.94 0 0 0 0 .59.76.76 0 0 0 .13.28 4 4 0 0 1 .26.49 1.47 1.47 0 0 1 .08.75 2.84 2.84 0 0 1-.21.68 2.73 2.73 0 0 0-.36 1.15c0 .4.34.9.41 1.52a2.53 2.53 0 0 1-.44 1.75 1.32 1.32 0 0 0 0-.18 2.72 2.72 0 0 0 .06-.5 3.12 3.12 0 0 0-.09-.76 3.32 3.32 0 0 0-.37-.89 2.56 2.56 0 0 1-.27-.62 1.63 1.63 0 0 1 0-.82 7.9 7.9 0 0 1 .53-1.31 1 1 0 0 0 .06-.55c0-.19-.17-.42-.22-.69a1.47 1.47 0 0 1 .1-.76 6 6 0 0 0 .33-.75zm1.88.07l.08.18.21.51.16.36a1.34 1.34 0 0 1 .2.57 1 1 0 0 1-.21.67 2.17 2.17 0 0 1-.52.48l.08-.27a2.56 2.56 0 0 0 .13-.59.79.79 0 0 0 0-.3c0-.1-.12-.27-.18-.46a1.53 1.53 0 0 1 .05-1.15zM58 20l.06.06a.79.79 0 0 0 .16.18c.14.16.39.36.73.69a2.54 2.54 0 0 1 .51.65 2.09 2.09 0 0 1 .19 1 6.51 6.51 0 0 1-.16 1.05 3.12 3.12 0 0 0-.09 1.16l-.06-.11a1.76 1.76 0 0 1-.13-.36 4.61 4.61 0 0 1-.1-1.25 4.46 4.46 0 0 0 0-.73 1.76 1.76 0 0 0-.24-.71c-.13-.23-.33-.48-.5-.75A2 2 0 0 1 58 20z"/><path class="cls-6" d="M59.15 24.22v.07s0 .11.1.2a5.63 5.63 0 0 0 .57.75 2.77 2.77 0 0 1 .41.71 1.19 1.19 0 0 1 .09.51 1.28 1.28 0 0 1-.14.55 3.47 3.47 0 0 1-.3.42 4.38 4.38 0 0 0-.28.42 3.79 3.79 0 0 0-.43 1.06 2.49 2.49 0 0 1 0-.49 2.76 2.76 0 0 1 .34-1.24 1.93 1.93 0 0 0 .27-.6 1.12 1.12 0 0 0-.12-.66c-.1-.25-.26-.51-.39-.81a1.23 1.23 0 0 1-.12-.89z"/><path class="cls-6" d="M58.75 25.61s0 .12.13.34a5.14 5.14 0 0 0 .5.88 4.51 4.51 0 0 0 .48.56 1.2 1.2 0 0 1 .33.49 1 1 0 0 1-.08.66 4.65 4.65 0 0 1-1.64 1.71l.29-.41a12 12 0 0 0 .64-1.07 2.38 2.38 0 0 0 .26-.64.3.3 0 0 0-.09-.22c-.08-.09-.21-.23-.31-.36a2.51 2.51 0 0 1-.51-1.94z"/><path class="cls-6" d="M58.66 27.26l.14.34a4.28 4.28 0 0 0 .5.89 4.51 4.51 0 0 0 .48.56 1.15 1.15 0 0 1 .33.49.93.93 0 0 1-.08.65 4 4 0 0 1-.68.93 4.52 4.52 0 0 1-1 .79s.12-.15.29-.41a8.56 8.56 0 0 0 .64-1.07 2.19 2.19 0 0 0 .26-.64.3.3 0 0 0-.09-.22c-.07-.1-.2-.23-.31-.37a2.58 2.58 0 0 1-.48-1.94z"/><path class="cls-6" d="M58.13 29.78a8.42 8.42 0 0 1 .65 1.32 1.38 1.38 0 0 1 .13.43.8.8 0 0 1 0 .34.9.9 0 0 1-.15.24c-.21.24-.4.45-.64.7a2.61 2.61 0 0 0-.62.78 1.92 1.92 0 0 1-.22.55c-.11.17-.29.29-.33.57a.42.42 0 0 1 0-.16 1.11 1.11 0 0 1 .11-.39 1.11 1.11 0 0 0 .07-.47 1.61 1.61 0 0 1 .07-.4 1.62 1.62 0 0 1 .19-.4 8 8 0 0 1 .52-.67c.1-.12.2-.23.31-.34a1.05 1.05 0 0 0 .2-.26v-.36c0-.16-.07-.31-.09-.48a6.51 6.51 0 0 1-.2-1z"/><path class="cls-6" d="M57.35 32.88a1 1 0 0 0 0 .18c0 .12.12.29.25.57a2.4 2.4 0 0 1 .2.55.87.87 0 0 1 0 .57.77.77 0 0 1-.31.33 2.56 2.56 0 0 1-.59.23.79.79 0 0 0-.29.17.73.73 0 0 0-.22.4.83.83 0 0 1 0-.45 1.27 1.27 0 0 1 .21-.42 2.2 2.2 0 0 1 .37-.33 2.15 2.15 0 0 0 .29-.24v-.2a5.88 5.88 0 0 1-.11-.69.94.94 0 0 1 .2-.67zM51 36.24a.68.68 0 0 1-.31 0 .89.89 0 0 1-.65-.49 1.33 1.33 0 0 1 0-1.12c.07-.18.17-.35.26-.54a1.5 1.5 0 0 0 .16-.67v.06a.93.93 0 0 1 .1.22 1.58 1.58 0 0 1 0 .79c-.06.3-.16.58-.2.85a.79.79 0 0 0 .06.44.63.63 0 0 0 .58.46zm6.55-16.1v-.53a.32.32 0 0 0-.11-.21.36.36 0 0 0-.11-.06h-.25a1.08 1.08 0 0 1-.42-.14.84.84 0 0 1-.31-.37 4.45 4.45 0 0 0-.26-.73 1.81 1.81 0 0 0-.59-.66h.1a1.12 1.12 0 0 1 .28.08 1.56 1.56 0 0 1 .79.71 2.19 2.19 0 0 0 .23.43.26.26 0 0 0 .15.08l.33.09a.71.71 0 0 1 .39.24.62.62 0 0 1 .12.42 1.18 1.18 0 0 1-.34.65z"/><path class="cls-6" d="M55.91 18v-.06a.82.82 0 0 0 0-.18 1.17 1.17 0 0 0-.3-.57 1.29 1.29 0 0 0-.4-.29 1.4 1.4 0 0 1-.34-.25 1.55 1.55 0 0 1-.24-.37c-.06-.11-.11-.22-.17-.31a1.15 1.15 0 0 0-.27-.27 1.28 1.28 0 0 0-.9-.24l.1-.06a1.28 1.28 0 0 1 .3-.1 1.32 1.32 0 0 1 1.11.33 3.21 3.21 0 0 1 .41.54.69.69 0 0 0 .17.17c.08.06.19.12.3.21a1.13 1.13 0 0 1 .44.72.91.91 0 0 1-.21.73z"/><path class="cls-6" d="M57.09 18.89l-.09-.18a2.57 2.57 0 0 0-.14-.42 1 1 0 0 0-.15-.2 1.35 1.35 0 0 0-.34-.18 1.11 1.11 0 0 1-.48-.43 1.81 1.81 0 0 1-.24-.61l.21.14a2.48 2.48 0 0 0 .48.31l.34.12a1 1 0 0 1 .27.12 1 1 0 0 1 .23.24.84.84 0 0 1 .11.59 1.06 1.06 0 0 1-.2.5zm-3.33-3.2l-.34-.19-.42-.26-.51-.35a.57.57 0 0 0-.24-.11 1.58 1.58 0 0 0-.34 0 2.14 2.14 0 0 1-.5 0 1.36 1.36 0 0 1-.56-.21c-.32-.22-.54-.48-.87-.68a3.07 3.07 0 0 0-1.16-.42h.14a3.1 3.1 0 0 1 .39 0 2.51 2.51 0 0 1 1.34.42 3.37 3.37 0 0 0 .66.36 1.31 1.31 0 0 0 .37 0 2.43 2.43 0 0 1 .52 0 1.13 1.13 0 0 1 .52.27 4.14 4.14 0 0 1 .35.38 8.39 8.39 0 0 1 .65.79z"/><path class="cls-6" d="M50.35 14.25l-.35-.11-.51-.14-.3-.11a2.22 2.22 0 0 0-.31-.1.44.44 0 0 0-.25 0 1.9 1.9 0 0 0-.37.12 1.63 1.63 0 0 1-.28.07 1 1 0 0 1-.34 0 1.93 1.93 0 0 1-.56-.25 2.46 2.46 0 0 0-.45-.25 3 3 0 0 0-.55-.14 9 9 0 0 0-1.31-.08 4.59 4.59 0 0 1 .52-.17 3.06 3.06 0 0 1 1.47-.09 2.22 2.22 0 0 1 .47.17l.38.19a.55.55 0 0 0 .31 0c.12 0 .28-.08.48-.13a1.1 1.1 0 0 1 .32 0 1 1 0 0 1 .3.09 3.07 3.07 0 0 1 .47.28 7.84 7.84 0 0 1 .86.65z"/><path class="cls-6" d="M48.31 13.7a2.19 2.19 0 0 1-.27-.11c-.17-.07-.41-.2-.7-.3a1.85 1.85 0 0 0-.49-.11.81.81 0 0 0-.27 0l-.3.06a2 2 0 0 1-.41.11 1.29 1.29 0 0 1-.48 0 2.19 2.19 0 0 1-.82-.47l.37.06a1.56 1.56 0 0 0 .8 0 5.68 5.68 0 0 1 .59-.23 1.52 1.52 0 0 1 .82 0 2.21 2.21 0 0 1 1.16.99z"/><path class="cls-6" d="M46 13.25h-.07l-.19-.06a3.07 3.07 0 0 0-.75-.11 2.6 2.6 0 0 0-1.17.24l-.23.09a.71.71 0 0 1-.29 0 3.76 3.76 0 0 1-.44-.15 5.48 5.48 0 0 0-1-.24 2.05 2.05 0 0 1 .41-.1 2.13 2.13 0 0 1 .47 0h.69a2.24 2.24 0 0 1 .32-.17 1.94 1.94 0 0 1 .8-.17 1.81 1.81 0 0 1 .8.19 1.47 1.47 0 0 1 .65.48z"/><path class="cls-6" d="M42.85 13.46l-.26-.06a3.65 3.65 0 0 0-.73-.1 1.12 1.12 0 0 0-.43 0 .28.28 0 0 0-.13.11c0 .07-.1.18-.19.31a.79.79 0 0 1-.41.31 1.24 1.24 0 0 1-.46.06h-.45a.78.78 0 0 0-.48.17l.06-.11a.87.87 0 0 1 .26-.22 2.41 2.41 0 0 1 .43-.17 1.44 1.44 0 0 0 .43-.15.26.26 0 0 0 .12-.11s.07-.13.13-.23a.91.91 0 0 1 .28-.37.72.72 0 0 1 .46-.16 1.67 1.67 0 0 1 .78.19 1.69 1.69 0 0 1 .59.53z"/><path class="cls-6" d="M41 14.11a2.42 2.42 0 0 1-.33.11 3.43 3.43 0 0 1-1 .13.85.85 0 0 0-.47.09c-.12.06-.22.3-.4.58a7.25 7.25 0 0 1-.62.75 2 2 0 0 0-.49 1v-.13a1.41 1.41 0 0 1 0-.36 2.76 2.76 0 0 1 .45-1.11l.17-.29c.06-.1.1-.19.16-.31a1.43 1.43 0 0 1 .26-.4.87.87 0 0 1 .49-.28 1.26 1.26 0 0 1 .48 0l.43.08z"/><path class="cls-6" d="M38.7 15.36a1 1 0 0 1-.18.21c-.12.13-.34.28-.51.45a1 1 0 0 0-.21.3 2.79 2.79 0 0 1-.25.61 1.53 1.53 0 0 1-.63.49 1.06 1.06 0 0 0-.31.21.58.58 0 0 0-.2.41.52.52 0 0 1 0-.42 1 1 0 0 1 .21-.4c.1-.13.23-.24.33-.35a.91.91 0 0 0 .2-.33 2.11 2.11 0 0 1 .26-.62 1.13 1.13 0 0 1 .62-.39c.2-.07.42-.1.67-.17z"/><path class="cls-6" d="M38.32 15.54a.69.69 0 0 0-.2.07 1.17 1.17 0 0 0-.44.38 3.31 3.31 0 0 0-.45 1 1.88 1.88 0 0 1-.16.37.92.92 0 0 1-.32.33 3.49 3.49 0 0 1-.39.19.65.65 0 0 0-.34.35v-.13a.64.64 0 0 1 .13-.3 2.14 2.14 0 0 1 .28-.32 1.33 1.33 0 0 0 .12-.16.48.48 0 0 0 .08-.16c0-.13.07-.31.13-.53a2.07 2.07 0 0 1 .29-.65 1.23 1.23 0 0 1 .59-.49.7.7 0 0 1 .68.05z"/><path class="cls-6" d="M37.27 17.32a8.22 8.22 0 0 1-1 .92.93.93 0 0 0-.1.11.58.58 0 0 0 .07.11 1.86 1.86 0 0 1 .33 1 1.26 1.26 0 0 1-.14.57 2.44 2.44 0 0 1-.32.45c-.25.28-.51.56-.8.84 0 0 .06-.16.18-.43s.14-.3.23-.48a3.58 3.58 0 0 0 .27-.56 1 1 0 0 0 0-.57 2.33 2.33 0 0 0-.14-.33l-.11-.19a.8.8 0 0 1-.1-.32.55.55 0 0 1 .11-.36.87.87 0 0 1 .22-.18c.14-.08.28-.14.43-.21a6.81 6.81 0 0 1 .87-.37z"/><path class="cls-6" d="M35.88 19.27l-.12.2c-.07.13-.19.3-.34.53a3.34 3.34 0 0 0-.21.32v.09c0 .09 0 .16.06.27a1.91 1.91 0 0 1 .06.33 1 1 0 0 1 0 .39.47.47 0 0 1-.26.32 1.06 1.06 0 0 1-.37.1l.06-.05.13-.16a.27.27 0 0 0 .07-.19.9.9 0 0 0-.1-.27c-.06-.14-.1-.27-.17-.45a.8.8 0 0 1 0-.4.67.67 0 0 1 .17-.37 2.27 2.27 0 0 1 1.02-.66z"/><path class="cls-6" d="M37.16 16.91l-.18.17c-.11.11-.29.26-.51.46l-.13.1v.07l.06.16.09.32a1.23 1.23 0 0 1 0 .39.88.88 0 0 1-.11.42 1.53 1.53 0 0 1-.64.54s.05-.11.15-.29a2.52 2.52 0 0 0 .12-.29.74.74 0 0 0 0-.33 2.08 2.08 0 0 0-.15-.44 2.76 2.76 0 0 1-.08-.27v-.06a.35.35 0 0 1 0-.14.45.45 0 0 1 0-.26.6.6 0 0 1 .2-.19l.14-.08.32-.13a2.16 2.16 0 0 1 .72-.15zM35.45 21l-.16.17-.44.44a3.45 3.45 0 0 0-.52.8l-.15.28a.56.56 0 0 0-.1.26v.36a.21.21 0 0 1-.08.17.08.08 0 0 1-.11 0v-.13s-.06-.08-.1-.16a.63.63 0 0 1-.08-.3 1.37 1.37 0 0 1 0-.31 4.63 4.63 0 0 1 .19-.58 2.25 2.25 0 0 1 .34-.53 1.82 1.82 0 0 1 1.21-.47z"/><path class="cls-6" d="M34.2 23s-.06.12-.18.31-.32.49-.53.85c-.11.19-.22.39-.33.62a2.09 2.09 0 0 0-.13.35.84.84 0 0 0 0 .36 3.77 3.77 0 0 1 0 .51 2.57 2.57 0 0 1 0 .55 3.12 3.12 0 0 1-.4 1.1 4 4 0 0 0 0-.46 5.4 5.4 0 0 0-.08-1.13c0-.12 0-.23-.08-.36a1.65 1.65 0 0 1-.06-.48 2.12 2.12 0 0 1 .35-.93A4.16 4.16 0 0 1 34.2 23zm-.94 3.6a11.43 11.43 0 0 1-.26 1.66l-.09.42a1.88 1.88 0 0 0-.07.37 1 1 0 0 0 .15.37 2.4 2.4 0 0 1 .21.57 1.65 1.65 0 0 1 .06.32v.3a.31.31 0 0 0 0 .21 1.38 1.38 0 0 0 .21.21 2.18 2.18 0 0 1 .71 1.19l-.08-.12c-.06-.08-.14-.18-.25-.3a2.5 2.5 0 0 0-.45-.38l-.33-.2a.72.72 0 0 1-.23-.23 1.24 1.24 0 0 1-.11-.3 1.85 1.85 0 0 0 0-.23v-.2a3.39 3.39 0 0 0-.15-.41 4.52 4.52 0 0 1-.24-.49.92.92 0 0 1 0-.37 1.29 1.29 0 0 1 .07-.31 10.86 10.86 0 0 1 .85-2.08z"/><path class="cls-6" d="M35.5 19.32a12.09 12.09 0 0 1-1 1.34l-.29.32a1.87 1.87 0 0 0-.23.29.91.91 0 0 0-.05.39 3.23 3.23 0 0 1-.09.6 2.81 2.81 0 0 1-.1.31l-.14.28a.34.34 0 0 0 0 .21 1.1 1.1 0 0 0 .09.28 2.24 2.24 0 0 1 0 1.38v-.14a3 3 0 0 0-.07-.39 2.76 2.76 0 0 0-.21-.55c0-.1-.11-.17-.19-.33a.63.63 0 0 1-.09-.31.77.77 0 0 1 .05-.32c0-.07 0-.14.08-.22a1.17 1.17 0 0 0 0-.2 2.83 2.83 0 0 0 .07-.42 4 4 0 0 1 0-.55.91.91 0 0 1 .17-.29.84.84 0 0 1 .21-.24 11.38 11.38 0 0 1 1.79-1.44zM34.23 31.6a2.36 2.36 0 0 1 .12.71v.28s0 .11.18.23a1.47 1.47 0 0 1 .33.48 5.14 5.14 0 0 0 .29.57.86.86 0 0 1-.26-.11 4.55 4.55 0 0 1-.5-.37l-.31-.23a1 1 0 0 1-.2-.24.54.54 0 0 1-.07-.36 2.39 2.39 0 0 1 .42-.96z"/><path class="cls-6" d="M34 31.22a.67.67 0 0 1 0 .16.69.69 0 0 0-.05.13l.09.12.23.32.3.41a.54.54 0 0 1 .12.31c0 .11 0 .23-.13.24a.14.14 0 0 0 0-.09.46.46 0 0 0-.07-.07l-.13-.07a2.77 2.77 0 0 1-.24-.15 2 2 0 0 1-.26-.24 1.16 1.16 0 0 1-.2-.32 1 1 0 0 1-.07-.18.42.42 0 0 1 0-.27.34.34 0 0 1 .21-.21.85.85 0 0 0 .2-.09zm1 2.12v.07a1.1 1.1 0 0 0 .22.21l.59.5a.9.9 0 0 1 .21.25.51.51 0 0 1 0 .36c-.07.22-.23.32-.3.57v-.28a2 2 0 0 0 0-.25c0-.09 0-.1-.06-.12a3 3 0 0 1-.59-.47 1.15 1.15 0 0 1-.25-.45.41.41 0 0 1 0-.27c.07-.08.18-.13.18-.12zm15.88-6.54a.85.85 0 0 1 .12.2 1.23 1.23 0 0 1 .06.7 1.37 1.37 0 0 1-.64.88c-.17.1-.34.17-.49.28a.78.78 0 0 0-.21.23.54.54 0 0 0-.08.37.52.52 0 0 1-.13-.33.83.83 0 0 1 .07-.39 1.15 1.15 0 0 1 .27-.38 2.78 2.78 0 0 1 .34-.29 2.56 2.56 0 0 0 .27-.29 2 2 0 0 0 .42-.98zm-5.11-5.09a1.34 1.34 0 0 1 .19.11 2.11 2.11 0 0 1 .48.43 1.73 1.73 0 0 1 .44 1 1.36 1.36 0 0 1-.11.68.92.92 0 0 1-.51.48 1.69 1.69 0 0 0 .1-.23 1.56 1.56 0 0 0 0-.59 2.94 2.94 0 0 0-.22-.8 8.25 8.25 0 0 1-.37-1.08zm-5.44.38c0 .23-.25 0-2.87 1.06s-2.47 2-3.09 2.72.5-3.82.78-3.91 5.1-1.15 5.18.13z"/><path class="cls-6" d="M39.31 15.92S34.76 17 34 20.77a32.35 32.35 0 0 0-.83 4.72zm11.1 19.59s-.93 2.06.53 2.15a2.81 2.81 0 0 0 2.33-1.35l-.37.14s-1.39 1.1-1.69.7.18-1.54.18-1.54zm6.89-16.98a1.87 1.87 0 0 0 .7.47c.56.26.27.61.78 1.43s.14 1.69.29 2 .74.76.85 1.43a6.71 6.71 0 0 1-.1 1.79l-4.36 2.75L53 20.71zm-9.84-5.16a.65.65 0 0 1 1-.13 2.06 2.06 0 0 0 1 .46 9.19 9.19 0 0 1-1.41.42l-.59-.75zM52.74 15s1.22-.22 1.44.44-.39.7-.39.7zm6.57 15.43s.94.45.29 1.81a11.5 11.5 0 0 0-1 3c-.22 1-2.4 1.06-2.4 1.06l.91-.85a1.48 1.48 0 0 1 .21 1.78c-.63.86-3.84 0-3.84 0z"/><path class="cls-6" d="M51.9 37.3s0 2 1.12 1.49 1.8-.12 2.09-.5S56 37 56 37zm-16.85-3.89s-1.07.58.1 1.46 1 1.27 1.26 1.72.83-.34 1.4.69.34 1.37 1.12 1.42a7.06 7.06 0 0 0 1.09 0z"/></g><path class="cls-29" d="M124.4 13l-.82-1.17 2.58.46.16.25 1.49-.37 1.89-3 1.84 3 .71.18-.13-.19c.09-.05 2-.35 2-.35L135 13l-.08.05h.08l-2.27 2.68.22 3.51-3.3-1.24-3.28 1.29-.79-1.29.68-1.05.28.17.1-1.4z"/><path class="cls-30" d="M125.56 18.02l3.27-1.3 3.25 1.33-.22-3.5 2.27-2.68-3.4-.88-1.85-2.98-1.88 2.96-3.42.84 2.25 2.7-.27 3.51z"/><path class="cls-29" d="M112.09 13l-.82-1.17 2.58.46.16.25 1.49-.37 1.88-3 1.85 3 .71.18-.13-.19c.09-.05 2-.35 2-.35l.83 1.17-.08.05h.07l-2.27 2.68.22 3.51-3.24-1.22-3.28 1.29-.79-1.29.67-1.05.28.17.11-1.4z"/><path class="cls-30" d="M113.25 18.02l3.27-1.3 3.25 1.33-.22-3.5 2.27-2.68-3.4-.88-1.85-2.98-1.88 2.96-3.42.84 2.24 2.7-.26 3.51z"/><path class="cls-31" d="M99.78 13L99 11.86l2.58.46.16.25 1.49-.37 1.88-3 1.85 3 .71.18-.13-.19c.09-.05 2-.35 2-.35l.82 1.17-.07.05h.07l-2.28 2.68.23 3.51L105 18l-3.28 1.29L101 18l.68-1.05.28.17.11-1.4z"/><path class="cls-32" d="M100.94 18.02l3.27-1.3 3.25 1.33-.22-3.5 2.27-2.68-3.41-.88-1.85-2.98-1.88 2.96-3.41.84 2.24 2.7-.26 3.51z"/><path class="cls-31" d="M87.47 13l-.82-1.17 2.58.46.15.25 1.5-.37 1.88-3 1.85 3 .71.18-.13-.19c.09-.05 2-.35 2-.35L98 13l-.07.05H98l-2.27 2.68.27 3.55L92.72 18l-3.28 1.29-.8-1.29.68-1 .28.17.11-1.4z"/><path class="cls-32" d="M88.63 18.02l3.27-1.3 3.25 1.33-.22-3.5 2.27-2.68-3.41-.88-1.85-2.98-1.88 2.96-3.41.84 2.24 2.7-.26 3.51z"/><path class="cls-31" d="M75.16 13l-.82-1.17 2.58.46.15.25 1.5-.37 1.88-3 1.85 3 .71.18-.14-.19c.1-.05 2-.35 2-.35l.84 1.19-.07.05h.06l-2.27 2.68.23 3.51L80.4 18l-3.27 1.29-.8-1.29.67-1 .28.17.11-1.4z"/><path class="cls-32" d="M76.32 18.02l3.27-1.3 3.25 1.33-.23-3.5 2.28-2.68-3.41-.88-1.85-2.98-1.88 2.96-3.41.84 2.24 2.7-.26 3.51z"/><path class="cls-33" d="M75.63 24.02h59.44v9.48H75.63z"/><path class="cls-3" d="M75.63 37.37H246.2v7.2H75.63zm0 9.6h108.54v7.2H75.63z"/></g></g></svg>