<svg xmlns="http://www.w3.org/2000/svg" viewBox="0 0 182.14 63.97"><defs><style>.cls-1{fill:#fff}.cls-2{fill:#c5d1cf}.cls-3{fill:#f0f0f0}.cls-4{clip-path:url(#clip-path)}.cls-5{fill:#347c88}.cls-6{fill:#dd806b}.cls-7{fill:#e09573}.cls-8{fill:#0094b6}.cls-9{fill:#45a2ba}.cls-10{fill:#3c8a9f}.cls-11{fill:#f5af83}.cls-12{fill:#66282d}.cls-13{fill:#290800}.cls-14{fill:#d37d55}.cls-15{fill:#1d1d1b}.cls-16{fill:#882905}.cls-17{fill:#d45d54}.cls-18{fill:#854533}.cls-19{fill:#864533}.cls-20{fill:#d54b45}.cls-21{fill:#ba433c}.cls-22{fill:#6e8b86}.cls-23{fill:#a9bbb8}.cls-24{fill:#f5541e}.cls-25{fill:#fadb21}.cls-26{fill:#9cb1ae}</style><clipPath id="clip-path"><path class="cls-1" d="M67.35 31.28A21.54 21.54 0 1 1 45.81 9.75a21.54 21.54 0 0 1 21.54 21.53z"/></clipPath></defs><title>Asset 13</title><g id="Layer_2" data-name="Layer 2"><g id="Layer_1-2" data-name="Layer 1"><path class="cls-2" d="M181.1 3.38a2.72 2.72 0 0 0-.24-.24l-1.68-1.65-.16.74a3.45 3.45 0 0 0-.72-.07H15.4L7 11.42c-.24.27-6.9 3.07-6.9 3.07l2.07 2.22h13.18l-.14 43.39-1 .69 2 2 .1.11A3.84 3.84 0 0 0 19 64h159.3a3.83 3.83 0 0 0 3.84-3.83V6a3.81 3.81 0 0 0-1.04-2.62z"/><path class="cls-3" d="M176.14 0H13.25L0 14.51h13.2L13.05 58a3.83 3.83 0 0 0 3.84 3.85h159.25A3.83 3.83 0 0 0 180 58V3.84A3.84 3.84 0 0 0 176.14 0z"/><path class="cls-1" d="M67.35 31.28A21.54 21.54 0 1 1 45.81 9.75a21.54 21.54 0 0 1 21.54 21.53z"/><g class="cls-4"><path class="cls-1" d="M67.35 31.28A21.54 21.54 0 1 1 45.81 9.75a21.54 21.54 0 0 1 21.54 21.53z"/><path class="cls-5" d="M50.43 42.34c.1 0 1.35-2.17 2.86-1.36l-.15 1.8z"/><path class="cls-6" d="M43 41a31.05 31.05 0 0 1 0 3.3l1.61 3.92s8.21-2 8.33-4.26-.46-4.77.22-6.93S43 41 43 41z"/><path class="cls-7" d="M37.78 61.31c-.22-4.53-3-2.2-4.89 0z"/><path class="cls-8" d="M40.68 61.31c2.48-4.46 4.57-10.6 3.18-14.53 0 0-6.33.08-10.21 7.53-1.72 3.3-2.73 5.55-3.33 7zm15.81-1.69l.8.57s0 .41-.06 1.12h2l.08-1.49-.8-.57c-.69-3.28-3.07-14.39-3.94-15-.27-.2-1.06 0-2.09.34h.06c.88.64 3.26 11.75 3.95 15.03z"/><path class="cls-9" d="M57.23 61.31c0-.71.06-1.12.06-1.12l-.8-.57c-.69-3.28-1.33-15.22-2.2-15.87 0 0-1.78.81-1.8.8a78 78 0 0 0-7.9 3.63l-.21-.55-.08-.2-.68-1h-1.19l-.61.72-.15.17-.17-.12c-2.89 2.1-4.59 7.55-5.5 14.11z"/><path class="cls-9" d="M45.75 46.49s-.69.26-1.25 1.92L52 45s-5.28.63-6.25 1.49z"/><path class="cls-10" d="M45.75 46.49s2.68-.8 2.86 3.17c0 0 6-4.59 6-5.72a7.28 7.28 0 0 0-1.29-3s-.23 2.56-7.57 5.55z"/><path class="cls-9" d="M43.81 45.57l.78 2.66s-.92-3.21-3.44 0c0-.05 1.57-2.88 2.66-2.66z"/><path class="cls-11" d="M50.61 37.88c-.92 3.56-4 4.82-7.87 4.78a3.14 3.14 0 0 1-2.27-2.08c-.53-1.65-1.89-4.52-2.73-6.31-.76-1.63-1-12.61-1-12.61 4.43-7.5 9.92-6.51 13.64-4.26-1.8 1.22-3.13 2.14-3.13 2.14s.37 2.5 2 3.46 4.67 2.17 1.36 14.88z"/><path class="cls-7" d="M54.92 32c-.9 4-3.35 11.38-11 10.84a6 6 0 0 1-1.19-.2c3.9 0 6.95-1.22 7.87-4.78C53.92 25.17 50.82 24 49.24 23s-2-3.46-2-3.46 1.33-.92 3.13-2.14a13 13 0 0 1 4.14 3.79c1.08 1.93 1.34 6.66.41 10.81z"/><path class="cls-1" d="M37.21 28.93a1.45 1.45 0 0 0 1.39 1.56 1.76 1.76 0 0 0 2-1.74zm6.79-.34A1.52 1.52 0 0 0 45.52 30a2.51 2.51 0 0 0 2.65-1.87z"/><path class="cls-12" d="M39.81 29.45a.86.86 0 1 1-.93-.85.89.89 0 0 1 .93.85z"/><path class="cls-13" d="M39.39 29.49a.44.44 0 1 1-.87.06.44.44 0 1 1 .87-.06z"/><path class="cls-12" d="M46.59 29a.91.91 0 0 1-.8 1 .93.93 0 0 1-.14-1.85.91.91 0 0 1 .94.85z"/><path class="cls-13" d="M46.16 29a.45.45 0 0 1-.4.5.45.45 0 0 1-.47-.43.45.45 0 0 1 .4-.5.45.45 0 0 1 .47.43z"/><path class="cls-14" d="M37.21 28.93s.48-1.5 1.09-1.65c.93-.22 1.73-.34 2.33 1.47zm6.79-.34a1.75 1.75 0 0 1 2-1.95c2.15.14 2.15 1.47 2.15 1.47s-3.56.36-4.15.48z"/><path class="cls-15" d="M43.56 28.34l.42.25 4.19-.48-.02-.13-4.59.36zm-6.35.59l-.29-.18 3.55-.14.16.14-3.42.18z"/><path class="cls-16" d="M42.26 12.64c-2.41-.12-8 5.53-8.37 8.74 0 0 2.59-3.16 6.38.09 0 0 9.36-2.52 12.11-1.57 1.61.56 3.2-2.51.33-4.32a23.35 23.35 0 0 0-10.45-2.94z"/><path class="cls-16" d="M51.25 23.17s3-3.12.15-4.64c0 0 5.66-5 6.76 3.18.39 2.94-3.48 8.51-3.48 8.51s-1.28-5.48-3.43-7.05zm-14.43.59c-.13-.78 1-4.05 2.79-4.33s-4.21-2-4.48 1.13 1.69 3.2 1.69 3.2z"/><path class="cls-17" d="M41.23 31.27c-.2.37-1 2.13-.62 2.62s1.85.38 2.77.11 1 .26 1.19-.15.23-1.19-.51-1.24c0 0 .56.49.34.92s-.28-.27-1.07 0-2.28.71-2.52.23.42-2.49.42-2.49zm-.62-4.08a5.62 5.62 0 0 1 .56 4.17 4.47 4.47 0 0 0-.46-4.26z"/><path class="cls-18" d="M40.81 26.16v.07c0 .2 0 .84-.43 1s-2.59-.56-3.7.19c-.66.45-.33-.67 0-.93s3.88-1.18 4.13-.33zM43.64 25a3.78 3.78 0 0 0-.12.36c0 .21 0 .85.45 1s3.33-.85 4.42 0 .35-.72 0-1-4.65-.94-4.75-.36z"/><path class="cls-7" d="M53.66 29a5 5 0 0 1 1.67-4c.69-.62 1.52-1 2.2-.12 1.19 1.52.77 5.52-1.46 6.45a1.64 1.64 0 0 1-2.15-1 4.85 4.85 0 0 1-.26-1.33z"/><path class="cls-17" d="M56.44 26.16c-1.18 0-1.3 2.74-1.3 2.74a6.7 6.7 0 0 1 .41-1.51c0 .59.11 1.88 1 2.16 0 0-.83-.49-.72-2.51a.61.61 0 0 1 .17-.34.61.61 0 0 1 .48-.2c.93.07.83 1.11.83 1.11s.34-1.43-.87-1.45z"/><path class="cls-16" d="M52.09 31.23s1.63-5.76-.84-8.06l2.57.69s.58 5.28.1 6.54z"/><path class="cls-17" d="M46.7 35.7a9.9 9.9 0 0 1-4.94 1.55h-.29a3.47 3.47 0 0 1-.78-.1s-.17-.85.06-.8l.17.5h.81a10.68 10.68 0 0 0 4.97-1.15zm.38-1.07c-.12.12.63-.05.71.58a2.28 2.28 0 0 1 0 .82s.37-1.06.2-1.27a1.13 1.13 0 0 0-.91-.13z"/><path class="cls-19" d="M47.12 37.16c-.11.7-.14.76-.39 1.08-.57.74-4.56 1.61-4.61 1 0-.17-.15-.87-.21-1.26a10.54 10.54 0 0 0 5.21-.82z"/><path class="cls-1" d="M47.38 35.26s-.08 1-.26 1.9a10.54 10.54 0 0 1-5.21.84c-.06-.32-.12-.62-.15-.75a9.9 9.9 0 0 0 4.94-1.55l.24-.15c.15-.09.25-.17.33-.22z"/><path class="cls-20" d="M40.61 47.54L37 53.39 38.7 55s3-7.16 3.95-8.47a8.67 8.67 0 0 0-2.04 1.01z"/><path class="cls-20" d="M46.84 61.31c.6-3.92 1-6.29 1-6.29A18.2 18.2 0 0 1 37 53.39a39.09 39.09 0 0 0-2.16 7.92z"/><path class="cls-10" d="M43 43.17c.06.18-.19.55.8 2.4 0 0-2.65 2-2.77 3.75a9.76 9.76 0 0 1 .42-3.89A4.62 4.62 0 0 1 43 43.17z"/><path class="cls-11" d="M66.25 61.31c-.07-.17-.15-.34-.23-.52-5.23-11.6-6.34-4.14-6.56.52z"/><path class="cls-8" d="M65.3 61.31h3.26c-.55-1.5-1.47-3.75-3-7.13-2.53-5.53-5.77-7.91-8.14-8.92a23 23 0 0 1 5 8.11c1.11 2.94 2.09 5.63 2.88 7.94z"/><path class="cls-9" d="M65.3 61.31c-.79-2.3-1.77-5-2.92-7.94a23 23 0 0 0-5-8.11 8.19 8.19 0 0 0-3.22-.79c-1.86 4.19-.45 11.38 1.62 16.84z"/><path class="cls-21" d="M46.84 61.31h4c.24-2.05.5-4.05.71-5.59a11.81 11.81 0 0 1 2.3-5.62c1.35-1.77 2.83-3.82 2.53-4.72a1.54 1.54 0 0 0-1.79-1.17c1 2.16-6.71 10.81-6.71 10.81s-.44 2.37-1.04 6.29z"/></g><path class="cls-22" d="M123.23 13.35l-.82-1.17 2.58.47.15.24 1.5-.36 1.88-3 1.85 3 .71.18-.14-.2c.1 0 2-.35 2-.35l.82 1.17-.07.05h.06l-2.27 2.68.22 3.51-3.25-1.34-3.27 1.3-.8-1.22.68-1.06.28.18.11-1.4z"/><path class="cls-23" d="M124.39 18.33l3.26-1.29 3.26 1.33-.23-3.51 2.27-2.68-3.4-.87-1.85-2.99-1.88 2.97-3.41.83 2.24 2.71-.26 3.5z"/><path class="cls-24" d="M110.91 13.35l-.82-1.17 2.58.47.15.24 1.5-.36 1.88-3 1.85 3 .71.18-.14-.2c.1 0 2-.35 2-.35l.82 1.17-.07.05h.06l-2.27 2.68.22 3.51-3.25-1.34-3.27 1.3-.8-1.22.68-1.06.28.18.11-1.4z"/><path class="cls-25" d="M112.08 18.33l3.26-1.29 3.25 1.33-.22-3.51 2.27-2.68-3.4-.87-1.85-2.99-1.88 2.97-3.41.83 2.24 2.71-.26 3.5z"/><path class="cls-24" d="M98.6 13.35l-.83-1.17 2.58.47.16.24 1.5-.36 1.88-3 1.85 3 .71.18-.14-.2c.09 0 2-.35 2-.35l.82 1.17-.07.05h.06l-2.27 2.68.22 3.51-3.25-1.34-3.28 1.3-.79-1.22.68-1.06.28.18.11-1.4z"/><path class="cls-25" d="M99.77 18.33l3.26-1.29 3.25 1.33-.22-3.51 2.27-2.68-3.4-.87-1.85-2.99-1.88 2.97-3.41.83 2.24 2.71-.26 3.5z"/><path class="cls-24" d="M86.29 13.35l-.82-1.17 2.58.47.16.24 1.5-.36 1.88-3 1.84 3 .71.18-.13-.2c.09 0 2-.35 2-.35l.82 1.17-.08.05h.07l-2.27 2.68.22 3.51-3.25-1.34-3.28 1.3-.79-1.22.68-1.06.28.18.1-1.4z"/><path class="cls-25" d="M87.45 18.33l3.27-1.29 3.25 1.33-.22-3.51 2.27-2.68-3.4-.87-1.85-2.99-1.88 2.97-3.42.83 2.25 2.71-.27 3.5z"/><path class="cls-24" d="M74 13.35l-.82-1.17 2.58.47.16.24 1.49-.36 1.88-3 1.85 3 .71.18-.13-.2c.09 0 2-.35 2-.35l.83 1.17-.08.05h.07l-2.27 2.68.22 3.51-3.25-1.34L76 19.56l-.79-1.22.68-1.06.27.18.11-1.4z"/><path class="cls-25" d="M75.14 18.33l3.27-1.29 3.25 1.33-.22-3.51 2.27-2.68-3.4-.87-1.85-2.99-1.88 2.97-3.42.83 2.25 2.71-.27 3.5z"/><path class="cls-26" d="M74.45 24.33h59.44v9.48H74.45z"/><path class="cls-2" d="M74.45 37.69h96.05v7.2H74.45zm0 9.59h96.05v7.2H74.45z"/></g></g></svg>