<svg id="Layer_1" xmlns="http://www.w3.org/2000/svg" viewBox="0 0 421.9 388.3"><style>.st0{fill:url(#SVGID_1_)}.st1{fill:url(#SVGID_2_)}.st2{fill:url(#SVGID_3_)}</style><title>Asset 11</title><g id="Layer_1-2"><linearGradient id="SVGID_1_" gradientUnits="userSpaceOnUse" x1="40.315" y1="330.813" x2="69.655" y2="268.683" gradientTransform="matrix(1 0 0 -1 0 390)"><stop offset="0" stop-color="#5ecfa8"/><stop offset=".5" stop-color="#079768"/><stop offset="1" stop-color="#0f704d"/></linearGradient><path class="st0" d="M47.6 189.6c1.8.5 16.5-6.6 16.5-6.6s39.3-39.9 44.1-74.6S78.6 34 49.3 40.7c-14.6 5.5-18.8 7.5-18.8 7.5s31.9-11 55.3 34.5c25.7 52.8-31.6 79.2-38.2 106.9z"/><linearGradient id="SVGID_2_" gradientUnits="userSpaceOnUse" x1="9.56" y1="289.28" x2="77.611" y2="289.28" gradientTransform="matrix(1 0 0 -1 0 390)"><stop offset="0" stop-color="#0f704d"/><stop offset="1" stop-color="#5ecfa8"/></linearGradient><path class="st1" d="M43.4 55.4c-28 34.8 5.9 81.1 34.1 77.7 3.4 2.7-41.1 21.2-51.6 9.3S9.6 104.7 9.6 84.2s31.7-31.4 33.8-28.8z"/><linearGradient id="SVGID_3_" gradientUnits="userSpaceOnUse" x1="2.37" y1="271.687" x2="93.09" y2="271.687" gradientTransform="matrix(1 0 0 -1 0 390)"><stop offset="0" stop-color="#00b27c"/><stop offset="1" stop-color="#079768"/></linearGradient><path class="st2" d="M93.1 111.2c0 30.2-43 79.1-45.4 78.6S2.4 123.7 2.4 93.4s20.3-50.8 45.4-45.9S93.1 81 93.1 111.2zm-45.4 29.5c19 3.7 34.5-11.9 34.5-34.9S66.8 61.2 47.8 57.5 13.3 69.3 13.2 92.3s15.5 44.7 34.5 48.4z"/></g></svg>