<svg style="position:absolute;width:0;height:0" xmlns="http://www.w3.org/2000/svg" overflow="hidden"><defs><symbol id="icon-app-store-white" viewBox="0 0 96 32"><title>app-store-white</title><path fill="none" stroke="var(--color1,#fff)" stroke-miterlimit="10" stroke-width=".867" d="M4.637.433h86.778a4.204 4.204 0 0 1 4.204 4.204v22.726a4.204 4.204 0 0 1-4.204 4.204H4.637a4.204 4.204 0 0 1-4.204-4.204V4.637A4.204 4.204 0 0 1 4.637.433z"/><path fill="var(--color1,#fff)" d="M25.257 21.018a15.538 15.538 0 0 1-1.431 2.656l.035-.055c-.867 1.378-2.184 3.094-3.762 3.112-1.404 0-1.733-.919-3.675-.91s-2.306.919-3.71.91c-1.577 0-2.791-1.569-3.692-2.947-2.531-3.848-2.8-8.373-1.222-10.782.949-1.555 2.595-2.604 4.492-2.712l.015-.001c1.681 0 2.73.919 4.117.919s2.167-.919 4.1-.919a5.486 5.486 0 0 1 4.116 2.162l.01.014a4.73 4.73 0 0 0-2.444 4.137 4.725 4.725 0 0 0 3.018 4.407l.032.011z"/><path fill="var(--color1,#fff)" d="M19.068 8.754a4.687 4.687 0 0 0 1.039-3.488l.002.021a5.095 5.095 0 0 0-3.271 1.727l-.005.006a4.317 4.317 0 0 0-1.099 3.4l-.002-.02a4.266 4.266 0 0 0 3.33-1.638l.007-.009zm13.868 4.195l-3.597 10.67h1.664l1.066-3.276h3.467l1.109 3.276h1.733l-3.64-10.67zm.867 1.734c.121.477.251.971.425 1.508l1.005 2.878h-2.782l.962-2.852c.147-.485.286-.988.39-1.482zm9.309 1.031a3.035 3.035 0 0 0-2.594 1.223l-.006.008-.061-1.057h-1.447v.13c.052.667.069 1.395.069 2.436v8.234h1.612v-3.84a2.838 2.838 0 0 0 2.215.944h-.005.027a3.32 3.32 0 0 0 2.416-1.039l.001-.002a4.366 4.366 0 0 0 1.084-3.113v.01l.002-.139a4.31 4.31 0 0 0-.954-2.712l.007.008a3.065 3.065 0 0 0-2.347-1.092h-.02.001zm-.408 1.335c1.439 0 2.089 1.335 2.089 2.661 0 1.733-.867 2.765-2.15 2.765h-.009a1.952 1.952 0 0 1-1.895-1.486l-.003-.013a1.81 1.81 0 0 1-.062-.473l.001-.059v.003-1.291c.006-.145.025-.282.055-.414l-.003.015v-.139a2.05 2.05 0 0 1 1.975-1.569h.001zm8.72-1.335a3.022 3.022 0 0 0-2.595 1.223l-.006.008-.069-1.057h-1.473v.13c0 .667.061 1.395.061 2.436v8.234h1.612v-3.84c.524.582 1.28.946 2.121.946.031 0 .062 0 .093-.002h-.005.021c.956 0 1.818-.399 2.431-1.039l.001-.001a4.398 4.398 0 0 0 1.075-3.113v.01a4.319 4.319 0 0 0-.942-2.851l.007.009a3.09 3.09 0 0 0-2.33-1.092h-.002zm-.399 1.335c1.439 0 2.08 1.335 2.08 2.661 0 1.733-.867 2.765-2.141 2.765h-.003c-.919 0-1.69-.633-1.901-1.486l-.003-.013a2.145 2.145 0 0 1-.061-.515v-.014.001-1.291c.006-.148.025-.288.055-.423l-.003.016v-.13a2.058 2.058 0 0 1 1.975-1.569h.001zm10.817.424c-1.508-.589-1.993-1.049-1.993-1.889s.572-1.439 1.837-1.439l.086-.001a3.66 3.66 0 0 1 1.83.487l-.018-.009.139.087.416-1.352-.087-.052a4.631 4.631 0 0 0-2.358-.528h.009c-2.063 0-3.467 1.222-3.467 2.956 0 1.404.867 2.392 2.834 3.094 1.369.511 1.881 1.031 1.881 1.933s-.789 1.647-2.054 1.647h-.026a4.315 4.315 0 0 1-2.315-.669l.018.011-.139-.087-.442 1.378.087.052a5.435 5.435 0 0 0 2.69.702h.042-.002c2.774 0 3.753-1.69 3.753-3.138s-.789-2.453-2.722-3.181zm5.634-3.423l-1.603.494v1.343h-1.144v1.291h1.144v3.952a2.975 2.975 0 0 0 .569 2.053l-.006-.008c.372.381.891.618 1.465.618l.1-.002h-.005.036c.433 0 .85-.07 1.24-.199l-.028.008h.087l-.078-1.291-.156.043a2.148 2.148 0 0 1-.751.086h.006c-.624 0-.867-.39-.867-1.317v-3.944h1.942v-1.291h-1.95zm5.945 1.664h-.037a3.806 3.806 0 0 0-3.793 4.113l-.001-.013a3.684 3.684 0 0 0 3.672 3.979h.04-.002.038a3.814 3.814 0 0 0 3.801-4.131l.001.014.002-.127a4.096 4.096 0 0 0-1.037-2.729l.004.004a3.57 3.57 0 0 0-2.592-1.111l-.1.001h.005zm0 1.274c1.456 0 2.115 1.421 2.115 2.739 0 1.612-.867 2.791-2.15 2.791-1.231 0-2.115-1.153-2.115-2.748-.052-1.387.615-2.782 2.106-2.782zm8.676-1.196h-.095a1.522 1.522 0 0 0-.399-.052 2.315 2.315 0 0 0-2.022 1.287l-.006.014v-1.127h-1.499v.13c0 .641.069 1.361.069 2.332v5.27h1.595v-4.134a4.408 4.408 0 0 1 0-.647l-.001.015a1.779 1.779 0 0 1 1.732-1.621h.002a2.914 2.914 0 0 1 .444.001l-.01-.001h.173zm3.632-.095c-2.15 0-3.649 1.733-3.649 4.178a3.606 3.606 0 0 0 3.815 3.9h-.01a6.176 6.176 0 0 0 2.641-.501l-.04.015.095-.043-.312-1.205-.13.052a4.862 4.862 0 0 1-2.036.364h.008a2.245 2.245 0 0 1-2.418-2.345v.005h5.2v-.095c.034-.181.053-.39.053-.603l-.001-.077v.004c-.009-1.681-.849-3.649-3.216-3.649zm-.104 1.23l.06-.001c.435 0 .83.172 1.12.452.347.403.56.93.563 1.507v.001h-3.684a2.056 2.056 0 0 1 1.936-1.959h.005zM29.339 5.66a11.3 11.3 0 0 1 1.551-.104 3.452 3.452 0 0 1 2.281.622l-.011-.007a2.215 2.215 0 0 1 .806 1.834v-.006l.002.09c0 .738-.314 1.402-.815 1.868l-.002.001a3.674 3.674 0 0 1-2.5.727l.012.001-.135.001c-.419 0-.834-.022-1.242-.066l.051.004zm.737 4.472a5.832 5.832 0 0 0 .745-.001l-.017.001c1.551 0 2.392-.78 2.392-2.141 0-1.205-.737-1.95-2.271-1.95h-.053a4.78 4.78 0 0 0-.843.074l.029-.004zm6.483.59l-.07.001a1.82 1.82 0 0 1-1.82-1.82l.001-.047v.002l-.001-.054c0-1.034.838-1.872 1.872-1.872l.092.002h-.004a1.803 1.803 0 0 1 1.943 1.798l-.001.06v-.003l.001.065a1.872 1.872 0 0 1-2.009 1.867h.006zm0-.494a1.284 1.284 0 0 0 1.222-1.419v.006a1.23 1.23 0 0 0-1.218-1.409 1.23 1.23 0 0 0-1.217 1.416l-.001-.007a1.265 1.265 0 0 0 1.229 1.413h.001zm3.172-3.216l.537 1.837c.113.407.217.789.295 1.161.087-.364.217-.754.355-1.153l.685-1.846h.615l.624 1.811c.147.433.269.867.355 1.187a9.82 9.82 0 0 1 .333-1.249l-.021.071.572-1.82h.728l-1.3 3.632h-.667l-.615-1.733a10.285 10.285 0 0 1-.346-1.114l-.018-.082a9.508 9.508 0 0 1-.396 1.271l.023-.067-.65 1.733h-.667l-1.17-3.64zM45.564 8v-.988h.65v.598a1.526 1.526 0 0 1 1.365-.676h-.004l.053-.001a1.378 1.378 0 0 1 1.367 1.55l.001-.007v2.167h-.728V8.545c0-.581-.243-1.075-.936-1.075h-.011c-.442 0-.819.278-.966.669l-.002.007a.851.851 0 0 0-.052.296v2.201h-.737zm4.629-2.678h.728v5.322h-.728zm3.588 5.4a1.82 1.82 0 0 1-1.933-1.816l.001-.049v.002l-.001-.056a1.872 1.872 0 0 1 2-1.868h-.006a1.803 1.803 0 0 1 1.943 1.798l-.001.06V8.79l.001.065a1.872 1.872 0 0 1-2 1.868h.006zm0-.494a1.293 1.293 0 0 0 1.222-1.418v.005a1.23 1.23 0 1 0-2.444.006l-.001-.006a1.275 1.275 0 0 0 1.211 1.396h.003zm5.773-.46v.039c0 .292.019.579.056.861l-.004-.033h-.667l-.061-.459a1.54 1.54 0 0 1-1.171.539l-.063-.001h.003a1.1 1.1 0 0 1-1.239-1.037v-.003c0-.867.867-1.352 2.427-1.352v-.061c0-.303-.087-.867-.919-.867h-.028c-.378 0-.733.1-1.04.274l.01-.005-.165-.442a2.771 2.771 0 0 1 1.321-.286h-.004a1.351 1.351 0 0 1 1.542 1.488l.001-.006zm-.72-.979c-.797 0-1.733.113-1.733.815v.021a.615.615 0 0 0 .688.611h-.003l.059.002c.413 0 .769-.247.927-.602l.003-.006a.56.56 0 0 0-.001-.212l.001.004zm5.374-3.467v5.322h-.659v-.633a1.509 1.509 0 0 1-1.374.71h.004-.003a1.733 1.733 0 0 1-1.73-1.842v.005a1.803 1.803 0 0 1 1.794-1.95 1.375 1.375 0 0 1 1.21.542l.002.003V5.321zm-.737 3.172a1.058 1.058 0 0 0-.001-.292l.001.006a1.05 1.05 0 0 0-1.068-.762h.003a1.249 1.249 0 0 0-1.205 1.402l-.001-.006a1.205 1.205 0 0 0 1.196 1.352h.01-.001.026c.495 0 .913-.33 1.047-.781l.002-.008a.917.917 0 0 0-.001-.291l.001.005zm5.357 2.228a1.82 1.82 0 0 1-1.933-1.816l.001-.049v.002l-.001-.057a1.872 1.872 0 0 1 2.009-1.867h-.006a1.811 1.811 0 0 1 1.942 1.806l-.001.051V8.79l.001.065a1.872 1.872 0 0 1-2.009 1.867h.006zm0-.494a1.284 1.284 0 0 0 1.222-1.419v.006a1.23 1.23 0 0 0-1.218-1.409 1.23 1.23 0 0 0-1.217 1.416l-.001-.007a1.265 1.265 0 0 0 1.202 1.395h.003zM71.757 8v-.988h.65v.598a1.526 1.526 0 0 1 1.365-.676h-.004l.053-.001a1.378 1.378 0 0 1 1.367 1.55l.001-.007v2.167h-.728V8.545c0-.581-.243-1.075-.936-1.075h-.011c-.442 0-.819.278-.966.669l-.002.007a.851.851 0 0 0-.052.296v2.201h-.737zm7.272-1.855v.867h1.049v.503h-1.049v1.959c0 .451.147.702.555.702h.038c.137 0 .271-.016.399-.046l-.012.002v.503c-.19.055-.407.087-.632.087h-.019.001l-.055.001c-.285 0-.545-.106-.743-.28l.001.001a1.303 1.303 0 0 1-.277-.959l-.001.006V7.515h-.624v-.503h.624v-.667zm1.881-.823h.728v2.262c.127-.204.307-.365.521-.465l.007-.003c.215-.115.471-.182.742-.182h.022-.001.037a1.378 1.378 0 0 1 1.366 1.559l.001-.007v2.158h-.728V8.555c0-.589-.243-1.075-.936-1.075h-.006c-.439 0-.814.269-.971.652l-.003.007a.68.68 0 0 0-.051.314v-.002 2.193h-.728zm5.036 3.614l-.001.043a1.23 1.23 0 0 0 1.376 1.223l-.006.001.076.001c.374 0 .732-.067 1.063-.19l-.021.007.139.468a3.613 3.613 0 0 1-1.27.226l-.087-.001h.004a1.785 1.785 0 0 1-1.985-1.774l.001-.057v.003a1.846 1.846 0 0 1 1.901-1.95h-.003l.076-.002a1.595 1.595 0 0 1 1.588 1.742V8.67a1.261 1.261 0 0 1 0 .318l.001-.006zm2.141-.468a.971.971 0 0 0-.965-1.076l-.042.001h.002a1.145 1.145 0 0 0-1.127 1.071v.003z"/></symbol><symbol id="icon-logo-footer" viewBox="0 0 69 32"><title>logo-footer</title><path fill="var(--color1,#fff)" d="M37.456 17.512v.038c0 .305-.058.596-.164.863l.006-.016a1.897 1.897 0 0 1-.456.673l-.001.001c-.2.182-.438.325-.701.418l-.014.004a2.624 2.624 0 0 1-.892.153l-.054-.001h.003l-.069.001c-.509 0-.995-.097-1.441-.274l.026.009a4.564 4.564 0 0 1-.866-.456l.016.01a.218.218 0 0 1-.035-.346l.498-.504a.233.233 0 0 1 .305.001c.169.13.362.24.57.323l.016.006c.136.061.295.106.46.128l.009.001c.107.018.231.029.357.029h.035c.159 0 .312-.024.457-.068l-.011.003c.143-.041.267-.102.379-.179l-.004.003a.788.788 0 0 0 .34-.647v-.013a.642.642 0 0 0-.182-.449 1.114 1.114 0 0 0-.351-.261l-.007-.003a2.343 2.343 0 0 0-.364-.154l-.017-.005-.363-.111a.294.294 0 0 0-.09 0h.002-.07c-.01.002-.021.002-.032.002s-.023-.001-.033-.003h.001a6.356 6.356 0 0 1-.586-.211 3.737 3.737 0 0 1-.798-.418l.012.008a1.76 1.76 0 0 1-.914-1.498v-.002l-.001-.062c0-.339.076-.66.212-.948l-.006.014c.133-.264.315-.485.535-.659l.004-.003c.207-.163.452-.29.718-.366l.015-.004c.239-.065.513-.104.796-.105h.001l.108-.002c.395 0 .775.063 1.131.179l-.026-.007c.3.099.558.214.802.351l-.022-.011c.095.059.175.115.252.175l-.006-.005a.228.228 0 0 1 0 .34l-.528.528a.215.215 0 0 1-.299 0 1.768 1.768 0 0 0-.394-.271l-.01-.005a1.977 1.977 0 0 0-.873-.199h-.009c-.141 0-.278.019-.407.055l.011-.003c-.133.029-.25.074-.359.133l.007-.004a.814.814 0 0 0-.445.708v.006c0 .177.069.339.182.458.102.108.223.198.356.266l.007.003c.111.043.243.08.38.104l.013.002.393.111h.117c.054.023.119.043.186.057l.008.001c.136.043.245.085.351.132l-.022-.009.416.188c.173.088.319.176.458.272l-.013-.008c.565.295.952.864.984 1.525v.004zm7.256 2.004h-.715a.283.283 0 0 1-.251-.162l-.001-.002-.469-1.037-.539-1.201-1.424-3.147-1.424 3.147h1.647c.112 0 .208.067.251.162l.001.002.293.645a.28.28 0 0 1-.252.392H39.35l-.469 1.026a.27.27 0 0 1-.248.164h-.719a.281.281 0 0 1-.251-.394l-.001.002 2.93-6.447a.27.27 0 0 1 .248-.164h.965a.288.288 0 0 1 .257.162l.001.002 2.93 6.447a.28.28 0 0 1-.282.404h.001zm4.835-.955v.709c0 .136-.11.246-.246.246h-3.464a.246.246 0 0 1-.246-.246v-6.511c0-.136.11-.246.246-.246h.709c.136 0 .246.11.246.246v5.556H49.3c.136 0 .246.11.246.246zm3.61-4.858h-2.966a.24.24 0 0 1-.24-.24v-.721a.24.24 0 0 1 .24-.24h3.798a.264.264 0 0 1 .17.07l.51.516a.24.24 0 0 1 .04.289l.001-.001-3.311 6.013a.234.234 0 0 1-.209.129h-.823a.24.24 0 0 1-.209-.358l-.001.001zm7.514-.967v6.547a.234.234 0 0 1-.234.234h-.738a.229.229 0 0 1-.229-.229v-2.679h-2.93v2.679a.229.229 0 0 1-.229.229h-.727a.234.234 0 0 1-.234-.234v-6.547c0-.129.105-.234.234-.234h.738c.126 0 .229.102.229.229v2.679h2.93v-2.679c0-.126.102-.229.229-.229h.738a.235.235 0 0 1 .223.234zm7.666 6.78h-.703a.283.283 0 0 1-.234-.174l-.001-.002-.463-1.032-.545-1.201-1.418-3.147-1.424 3.147h1.641a.288.288 0 0 1 .257.162l.001.002.287.639a.281.281 0 0 1-.255.398h-2.469l-.469 1.032a.281.281 0 0 1-.258.17h-.746a.281.281 0 0 1-.255-.4l-.001.002 2.93-6.447a.281.281 0 0 1 .258-.17h.958c.114 0 .212.069.254.168l.001.002 2.93 6.447a.281.281 0 0 1-.252.405l-.024-.001h.001z"/><path fill="var(--color2,#00b27c)" d="M24.879 15.672c0 5.321-4.314 9.635-9.635 9.635s-9.635-4.314-9.635-9.635 4.314-9.635 9.635-9.635 9.635 4.314 9.635 9.635z"/><path fill="var(--color3,#d67b4e)" d="M24.545 23.379a1.143 1.143 0 1 1-2.287 0 1.143 1.143 0 0 1 2.287 0z"/><path fill="var(--color1,#fff)" d="M26.28 26.256c-.699.696-1.663 1.126-2.728 1.126s-2.029-.43-2.728-1.126l-4.155-4.149q-.217.053-.44.088h-.082c-.32.052-.688.082-1.063.082h-.041.002a7.239 7.239 0 0 1-4.698-1.766l.009.008c-.141-.129-.293-.264-.434-.41a7.054 7.054 0 0 1-1.888-3.262l-.011-.049a6.987 6.987 0 0 1-.234-1.977v.008a7.47 7.47 0 0 1 .325-2.046l-.014.053a.428.428 0 0 1 .721-.176l3.452 3.516h1.793l2.174-2.174v-1.764l-3.464-3.516a.428.428 0 0 1 .173-.714l.003-.001a7.308 7.308 0 0 1 9.203 8.723l.01-.05 4.103 4.103a3.856 3.856 0 0 1 1.141 2.743 3.853 3.853 0 0 1-1.129 2.731z"/><path fill="var(--color4,#ebeced)" d="M13.896 8.674c1.688-.586 5.919-.147 7.314 3.71.337.806.532 1.743.532 2.725a7.22 7.22 0 0 1-.437 2.483l.016-.05c.129-9.336-7.426-8.867-7.426-8.867zm4.202 12.009s-8.721 2.661-9.307-6.845c-1.26 3.593 1.536 8.252 7.848 8.006 1.412-.053 1.553-1.014 1.553-1.014zm3.522-2.813l.686.709 1.412 1.453 1.172 1.225c.75.774 1.383 1.758 1.172 2.843a3.758 3.758 0 0 1-.548 1.368l.009-.014c-.152.246-.34.586-.504.832-.088.123-.188.07-.275.188s-.147.275-.24.334a6.23 6.23 0 0 0 2.17-2.266l.016-.032c.17-.324.27-.708.27-1.115v-.017.001c-.1-1.799-3.815-5.087-3.815-5.087l-1.389-1.412z"/><path fill="var(--color5,#16191a)" d="M15.051 22.271a7.208 7.208 0 0 1-4.698-1.766l.009.008q-.229-.193-.44-.404a7.139 7.139 0 0 1-1.888-3.262l-.011-.05a7.057 7.057 0 0 1-.234-1.983v.007a7.47 7.47 0 0 1 .325-2.046l-.014.053a.434.434 0 0 1 .308-.292l.003-.001a.413.413 0 0 1 .404.117l3.458 3.516h1.793l2.174-2.174v-1.758L12.776 8.72a.433.433 0 0 1 .178-.714l.003-.001a7.143 7.143 0 0 1 2.117-.314 7.27 7.27 0 0 1 5.157 2.137 7.2 7.2 0 0 1 2.139 5.282v-.008a.428.428 0 0 1-.428.422.428.428 0 0 1-.422-.428v-.006l.001-.108a6.446 6.446 0 0 0-7.66-6.333l.04-.006 3.053 3.089a.425.425 0 0 1 .129.305v2.145a.433.433 0 0 1-.129.305l-2.426 2.42a.421.421 0 0 1-.298.123h-2.158a.433.433 0 0 1-.305-.129l-3.036-3.053a5.56 5.56 0 0 0-.1 1.036v.001a6.273 6.273 0 0 0 .215 1.802l-.01-.044a6.33 6.33 0 0 0 1.67 2.93c.123.123.258.246.393.358a6.344 6.344 0 0 0 4.142 1.528 6.34 6.34 0 0 0 1.047-.086l-.037.005a6.474 6.474 0 0 0 2.051-.691l-.035.017a.432.432 0 0 1 .585.174l.001.002a.427.427 0 0 1-.179.585l-.002.001a7.077 7.077 0 0 1-2.22.756l-.042.006h-.082a7.357 7.357 0 0 1-1.091.041h.013z"/><path fill="var(--color5,#16191a)" d="M21.099 18.655h-.007a.41.41 0 0 1-.194-.048l.002.001a.429.429 0 0 1-.174-.588l-.001.002a6.358 6.358 0 0 0 .75-2.926v-.005c0-.233.189-.422.422-.422h.018-.001a.434.434 0 0 1 .422.434 7.338 7.338 0 0 1-.875 3.362l.019-.039a.436.436 0 0 1-.381.229z"/><path fill="var(--color5,#16191a)" d="M23.549 27.388h-.007a3.834 3.834 0 0 1-2.724-1.131l-4.22-4.22a.427.427 0 1 1 .585-.588l.001.002 4.226 4.226a3 3 0 0 0 5.123-2.122v-.018c0-.825-.336-1.571-.879-2.11l-4.22-4.22a.428.428 0 0 1 .588-.585l-.002-.001 4.226 4.22a3.862 3.862 0 0 1-2.731 6.593z"/><path fill="var(--color4,#ebeced)" d="M18.62 21.333a.551.551 0 0 0-.252.937c.358.416 2.391 2.286 3.634 3.821l-.903-.358-3.88-3.892z"/><path fill="var(--color2,#00b27c)" d="M21.902 23.379a1.5 1.5 0 1 1 1.5 1.5 1.5 1.5 0 0 1-1.5-1.5z"/><path fill="var(--color5,#16191a)" d="M23.408 25.313a2.255 2.255 0 0 1-.407-.043l.014.002a1.823 1.823 0 0 1-.525-.192l.009.005a.429.429 0 1 1 .401-.755l-.002-.001c.083.044.179.079.281.099l.007.001a1.061 1.061 0 0 0 1.265-.826l.001-.007a1.074 1.074 0 0 0-.825-1.265l-.007-.001a1.065 1.065 0 0 0-.812.155l.004-.002a1.05 1.05 0 0 0-.456.679l-.001.007a.434.434 0 0 1-.844-.178v.002a1.934 1.934 0 1 1 1.899 2.344z"/><path fill="var(--color6,#231f20)" d="M10.297 11.88H2.572a.434.434 0 0 1-.002-.862h7.727a.434.434 0 0 1 .002.862h-.002z"/><path fill="var(--color1,#fff)" d="M25.788 18.297a.328.328 0 0 1-.114-.001h.002a.429.429 0 0 1-.304-.525l-.001.003c.223-.81.352-1.741.352-2.701v-.067c0-5.881-4.768-10.649-10.649-10.649a10.632 10.632 0 0 0-8.347 4.035l-.017.022a.43.43 0 1 1-.674-.535l-.001.001c2.13-2.667 5.382-4.361 9.029-4.361 6.367 0 11.528 5.161 11.528 11.528a11.55 11.55 0 0 1-.397 3.012l.019-.081a.422.422 0 0 1-.409.317h-.02.001zM14.57 32a.431.431 0 0 1-.31-.146l-7.924-8.903a11.495 11.495 0 0 1-2.901-7.617v-.213c.013-.742.091-1.457.23-2.151l-.013.076a.428.428 0 1 1 .837.167l.001-.003a10.367 10.367 0 0 0-.193 1.96v.003l.002.026-.002.027v-.001.122c0 1.61.361 3.137 1.006 4.502l-.027-.064c.46.995 1.029 1.851 1.708 2.606l-.008-.009 7.619 8.557 4.255-4.419a.426.426 0 0 1 .586 0 .421.421 0 0 1 0 .586l-4.577 4.753a.4.4 0 0 1-.286.141h-.001zM4.648 11.581H4.64a.379.379 0 0 1-.147-.03l.002.001a.428.428 0 0 1-.245-.554l-.001.003c.204-.51.401-.924.619-1.326l-.033.065a.428.428 0 0 1 .588-.181l-.002-.001a.434.434 0 0 1 .181.589l.001-.002a9.423 9.423 0 0 0-.51 1.103l-.024.069a.434.434 0 0 1-.399.264l-.024-.001h.001z"/><path fill="var(--color1,#fff)" d="M15.015 26.596a11.657 11.657 0 0 1-10.396-6.461l-.03-.068a11.23 11.23 0 0 1-1.172-4.818v-.234c.001-.788.078-1.558.223-2.303l-.012.076a.434.434 0 0 1 .507-.339h-.003a.44.44 0 0 1 .339.507v-.003a10.435 10.435 0 0 0-.199 2.06v.121l.002.023-.002.024v-.001a10.398 10.398 0 0 0 1.094 4.573l-.027-.06c1.792 3.607 5.449 6.043 9.676 6.048h.022c.406 0 .806-.023 1.199-.069l-.048.005a10.491 10.491 0 0 0 2.143-.455l-.075.021a.428.428 0 0 1 .261.814l-.003.001c-.646.216-1.403.382-2.185.465l-.048.004c-.365.045-.788.07-1.217.07h-.051.003zm2.567-23.595h-.428a.428.428 0 0 1 0-.856v-.856a.435.435 0 0 0-.428-.434h-3.429a.434.434 0 0 0-.404.433v.857a.428.428 0 0 1 0 .856h-.434a.428.428 0 0 1-.428-.428V1.289A1.29 1.29 0 0 1 13.296 0h3.435c.709 0 1.284.575 1.284 1.284v1.29a.428.428 0 0 1-.428.428h-.006zm7.391 3.862h-.002a.415.415 0 0 1-.326-.157l-.001-.001a12.76 12.76 0 0 0-1.737-1.741l-.022-.017a.433.433 0 0 1-.058-.587l-.001.001a.428.428 0 0 1 .587-.058l-.001-.001a13.159 13.159 0 0 1 1.852 1.841l.018.023a.43.43 0 0 1-.058.585.42.42 0 0 1-.25.111h-.002zm-14.676 4.718H2.572a.428.428 0 0 1 0-.856h7.725a.428.428 0 0 1 0 .856zM7.771 8.58H.427a.428.428 0 0 1 0-.856h7.344a.428.428 0 0 1 0 .856z"/></symbol><symbol id="icon-menu" viewBox="0 0 44 32"><title>menu</title><path fill="var(--color2,#00b27c)" d="M0 0h44.308v2.462H0V0zm0 14.769h44.308v2.462H0v-2.462zm0 14.769h44.308V32H0v-2.462z"/></symbol><symbol id="icon-user" viewBox="0 0 32 32"><title>user</title><path fill="var(--color2,#00b27c)" d="M16 0C7.163 0 0 7.163 0 16s7.163 16 16 16 16-7.163 16-16S24.837 0 16 0zm0 29.92a13.896 13.896 0 0 1-10.366-4.627l-.011-.013a11.52 11.52 0 0 1 3.839-4.685l.036-.024c1.813-1.28 4.069-2.045 6.503-2.045s4.69.766 6.539 2.069l-.036-.024a11.501 11.501 0 0 1 3.845 4.603l.029.071c-2.556 2.865-6.256 4.664-10.375 4.674h-.002zm-4.789-18.229A4.789 4.789 0 1 1 16 16.48a4.8 4.8 0 0 1-4.789-4.788v-.001zm16.56 11.738c-1.661-2.955-4.317-5.184-7.505-6.258l-.095-.028a6.857 6.857 0 1 0-8.358-.011l.016.012c-3.283 1.102-5.939 3.331-7.565 6.218l-.035.068A13.784 13.784 0 0 1 2.08 16C2.08 8.312 8.312 2.08 16 2.08S29.92 8.312 29.92 16a13.86 13.86 0 0 1-2.182 7.486l.033-.056z"/></symbol><symbol id="icon-element-shade" viewBox="0 0 97 32"><title>element-shade</title><path fill="var(--color7,#f0f0f0)" d="M93.452 32H25.009c-.041.002-.088.002-.136.002a3.805 3.805 0 1 1 .143-7.607h-.007 68.443A3.804 3.804 0 1 1 93.459 32h-.007z"/><path fill="var(--color8,#d8dfe1)" d="M91.259 29.389H22.816c-.041.002-.088.002-.136.002a3.805 3.805 0 1 1 .143-7.607h-.007 68.443a3.804 3.804 0 1 1 .007 7.605h-.007z"/><path fill="var(--color7,#f0f0f0)" d="M71.23 9.671H6.158a3.804 3.804 0 1 1-.007-7.605H71.23c.041-.002.088-.002.136-.002a3.805 3.805 0 1 1-.143 7.607h.007z"/><path fill="var(--color8,#d8dfe1)" d="M68.872 7.605H3.8A3.804 3.804 0 1 1 3.793 0h65.079c.041-.002.088-.002.136-.002a3.805 3.805 0 1 1-.143 7.607h.007z"/></symbol><symbol id="icon-app-store-dark" viewBox="0 0 98 32"><title>app-store-dark</title><path fill="var(--color9,#000)" d="M4.326.004h89.147a4.326 4.326 0 0 1 4.326 4.326v23.348a4.326 4.326 0 0 1-4.326 4.326H4.319A4.319 4.319 0 0 1 0 27.685V4.329A4.326 4.326 0 0 1 4.326.003z"/><path fill="var(--color1,#fff)" d="M25.489 21.123a15.808 15.808 0 0 1-1.492 2.727l.035-.055c-.932 1.413-2.236 3.175-3.867 3.19-1.457 0-1.813-.939-3.772-.925s-2.367.947-3.809.932c-1.624 0-2.869-1.609-3.794-3.022-2.6-3.962-2.877-8.608-1.267-11.077.971-1.598 2.661-2.675 4.61-2.781l.015-.001c1.726 0 2.804.939 4.231.939s2.221-.947 4.209-.947a5.618 5.618 0 0 1 4.264 2.264l.011.015a4.844 4.844 0 0 0 .594 8.728l.033.011z"/><path fill="var(--color1,#fff)" d="M19.117 8.553a4.808 4.808 0 0 0 1.068-3.597l.002.022a5.218 5.218 0 0 0-3.366 1.806l-.006.008a4.477 4.477 0 0 0-1.097 3.51l-.002-.021a4.365 4.365 0 0 0 3.393-1.716l.008-.011zm14.31 4.312l-3.729 10.968h1.711l1.107-3.372h3.641l1.143 3.372h1.748l-3.765-10.968zm.882 1.799c.131.488.262.998.437 1.551l1.005 2.913h-2.855l.99-2.913a30.9 30.9 0 0 0 .422-1.551zm9.533 1.041a3.099 3.099 0 0 0-2.631 1.259l-.006.009-.066-1.092h-1.515v.146c.044.677.066 1.457.066 2.505v8.419h1.66v-3.918a2.907 2.907 0 0 0 2.202 1.006l.074-.001h-.004.033c.975 0 1.855-.408 2.478-1.062l.001-.001a4.516 4.516 0 0 0 1.114-3.208v.01a4.35 4.35 0 0 0-.975-2.921l.006.008a3.158 3.158 0 0 0-2.439-1.158zm-.408 1.376c1.457 0 2.141 1.369 2.141 2.724 0 1.755-.845 2.84-2.185 2.84h-.024a2.011 2.011 0 0 1-1.947-1.508l-.003-.014a1.88 1.88 0 0 1-.059-.476l.001-.067v.003-1.347c.004-.149.023-.292.054-.43l-.003.015v-.131a2.108 2.108 0 0 1 2.023-1.609h.001zm8.957-1.376a3.112 3.112 0 0 0-2.638 1.259l-.006.008-.066-1.092h-1.515v.146c.044.685.066 1.457.066 2.505v8.419h1.66v-3.918a2.907 2.907 0 0 0 2.202 1.006l.074-.001h-.004.028c.979 0 1.863-.408 2.491-1.062l.001-.001a4.543 4.543 0 0 0 1.107-3.207v.01a4.35 4.35 0 0 0-.975-2.921l.006.008a3.142 3.142 0 0 0-2.432-1.158zm-.415 1.376c1.457 0 2.141 1.369 2.141 2.724 0 1.755-.845 2.84-2.185 2.84h-.018c-.938 0-1.727-.64-1.953-1.508l-.003-.014a2.204 2.204 0 0 1-.058-.51v-.03.002-1.347c.004-.149.023-.292.054-.43l-.003.015v-.131a2.108 2.108 0 0 1 2.023-1.609h.001zm11.121.401c-1.551-.604-2.046-1.071-2.046-1.944 0-.728.583-1.457 1.886-1.457l.093-.001c.681 0 1.32.181 1.87.499l-.018-.01.138.087.473-1.384-.095-.058a4.785 4.785 0 0 0-2.427-.539h.009c-2.112 0-3.59 1.245-3.59 3.037 0 1.457.925 2.447 2.913 3.168 1.406.532 1.93 1.071 1.93 1.995 0 1.041-.808 1.69-2.112 1.69h-.04c-.874 0-1.69-.247-2.383-.674l.02.011-.146-.087-.444 1.413.08.051a5.58 5.58 0 0 0 2.773.728h.032-.002c2.855 0 3.867-1.733 3.867-3.226s-.794-2.491-2.782-3.299zm5.782-3.488l-1.631.51v1.376h-1.187v1.325h1.187v4.064a3.108 3.108 0 0 0 .582 2.114l-.006-.009a2.126 2.126 0 0 0 1.614.626h-.005.048c.441 0 .865-.072 1.261-.205l-.028.008h.095l-.08-1.333-.16.051a2.415 2.415 0 0 1-.777.087h.005c-.641 0-.918-.408-.918-1.362v-4.042h2.003v-1.325h-2.003zm6.132 1.711c-2.316 0-3.94 1.733-3.94 4.209s1.544 4.122 3.794 4.122c1.901 0 3.94-1.318 3.94-4.224l.002-.131c0-1.07-.401-2.046-1.062-2.787l.004.004a3.67 3.67 0 0 0-2.713-1.194h-.027.001zm-.043 1.311c1.457 0 2.185 1.457 2.185 2.804 0 1.668-.925 2.877-2.185 2.877-1.253 0-2.185-1.187-2.185-2.826-.058-1.42.626-2.855 2.163-2.855zm8.935-1.231h-.095a1.599 1.599 0 0 0-.403-.051h-.013.001a2.376 2.376 0 0 0-2.077 1.319l-.006.014-.044-1.158h-1.457v.117c.051.655.066 1.398.066 2.389v5.426h1.66v-4.239c-.002-.043-.002-.093-.002-.144 0-.183.011-.363.034-.54l-.002.021a1.838 1.838 0 0 1 1.744-1.675h.004a3.798 3.798 0 0 1 .455 0h-.011.175zm3.736-.095c-2.185 0-3.758 1.762-3.758 4.29s1.537 4.005 3.911 4.005l.155.002a6.31 6.31 0 0 0 2.515-.52l-.041.016.102-.044-.32-1.238-.138.058a5.095 5.095 0 0 1-2.083.371h.007a2.31 2.31 0 0 1-2.491-2.409v.005h5.36v-.109a3.92 3.92 0 0 0 .051-.644v-.05.003c.022-1.719-.845-3.736-3.27-3.736zm-.116 1.26l.069-.001c.449 0 .857.178 1.155.468.353.41.568.948.568 1.536v.009h-3.787a2.128 2.128 0 0 1 1.989-2.01h.006zM29.699 5.371a11.11 11.11 0 0 1 1.583-.109h.036-.002a3.553 3.553 0 0 1 2.348.648l-.011-.007a2.284 2.284 0 0 1 .816 1.877v-.006l.002.098c0 .756-.319 1.438-.831 1.918l-.001.001a3.797 3.797 0 0 1-2.569.728l.013.001-.158.001c-.424 0-.843-.022-1.256-.064l.052.004zm.728 4.595a5.122 5.122 0 0 0 .745-.001l-.017.001c1.595 0 2.454-.801 2.454-2.185.058-1.223-.706-1.952-2.294-1.952l-.087-.001c-.278 0-.55.027-.813.078l.027-.004zm6.715.612a1.879 1.879 0 0 1-1.989-1.876l.001-.049v.002l-.001-.056a1.923 1.923 0 0 1 2.061-1.918h-.006a1.85 1.85 0 0 1 1.997 1.844l-.001.067v-.003l.001.063a1.93 1.93 0 0 1-2.068 1.925h.006zm0-.51a1.326 1.326 0 0 0 1.26-1.462v.006a1.267 1.267 0 1 0-2.503.007l-.001-.007a1.303 1.303 0 0 0 1.235 1.456h.003zm3.233-3.306l.553 1.886c.109.422.226.808.299 1.194.095-.379.226-.772.364-1.187l.677-1.893h.699l.641 1.864c.153.444.277.838.371 1.216a9.65 9.65 0 0 1 .341-1.277l-.02.068.59-1.872h.728l-1.333 3.729H43.6l-.634-1.748a10.652 10.652 0 0 1-.354-1.148l-.018-.083c-.11.49-.233.902-.38 1.302l.023-.071-.728 1.748h-.685l-1.223-3.729zm5.994 1.012V6.762h.663l.044.612c.28-.42.753-.694 1.289-.694l.077.002h-.004l.055-.001a1.413 1.413 0 0 1 1.401 1.596l.001-.007v2.221h-.728V8.306c0-.597-.248-1.107-.961-1.107a1.064 1.064 0 0 0-1.003.721l-.002.008a.875.875 0 0 0-.051.296v.018-.001 2.25h-.728zm4.748-2.753h.728v5.469h-.728zm3.692 5.557a1.879 1.879 0 0 1-1.989-1.876l.001-.049v.002l-.001-.056a1.923 1.923 0 0 1 2.061-1.918h-.006a1.85 1.85 0 0 1 1.997 1.844l-.001.067v-.003l.001.062a1.93 1.93 0 0 1-2.061 1.926h.006zm0-.51a1.326 1.326 0 0 0 1.26-1.462v.006a1.267 1.267 0 1 0-2.503.007l-.001-.007a1.303 1.303 0 0 0 1.235 1.456h.003zm5.928-.473v.023c0 .308.021.61.062.907l-.004-.034h-.67l-.073-.466a1.6 1.6 0 0 1-1.212.554l-.058-.001h.003a1.13 1.13 0 0 1-1.253-1.068v-.003c0-.903.889-1.398 2.491-1.391v-.102c0-.306-.095-.874-.939-.867h-.028a2.17 2.17 0 0 0-1.075.283l.011-.006-.167-.452a2.877 2.877 0 0 1 1.329-.321h.042-.002a1.384 1.384 0 0 1 1.58 1.529l.001-.006zm-.728-1.005c-.823 0-1.755.117-1.755.838v.022a.634.634 0 0 0 .733.626h-.004l.047.001c.414 0 .772-.246.934-.599l.003-.006a.502.502 0 0 0-.001-.215l.001.003zm5.535-3.569v5.469h-.677v-.648a1.56 1.56 0 0 1-1.409.729h.004-.004a1.778 1.778 0 0 1-1.773-1.899v.005a1.857 1.857 0 0 1 1.819-1.996h.002a1.412 1.412 0 0 1 1.243.557l.003.004V5.057zm-.728 3.263a1.382 1.382 0 0 0-.001-.305l.001.006a1.088 1.088 0 0 0-1.17-.771h.005a1.274 1.274 0 0 0-1.244 1.463l-.001-.007a1.238 1.238 0 0 0 1.223 1.391h.025c.509 0 .94-.337 1.08-.801l.002-.008a1.158 1.158 0 0 0 0-.304l.001.006zm5.454 2.294a1.872 1.872 0 0 1-1.982-1.869l.001-.057v.003l-.001-.063a1.915 1.915 0 0 1 2.061-1.91h-.006a1.85 1.85 0 0 1 1.989 1.845l-.001.067v-.003l.001.062a1.93 1.93 0 0 1-2.061 1.926h.006zm0-.51a1.326 1.326 0 0 0 1.252-1.462v.006a1.267 1.267 0 1 0-2.503.007l-.001-.007a1.31 1.31 0 0 0 1.243 1.456h.003zm3.015-2.294V6.762h.67l.044.612a1.559 1.559 0 0 1 1.372-.692h-.004l.055-.001a1.413 1.413 0 0 1 1.401 1.596l.001-.007v2.221h-.728V8.306c0-.597-.255-1.107-.961-1.107l-.051-.001c-.557 0-1.009.45-1.012 1.006v2.287h-.728zm7.472-1.901v.888h1.078v.524h-1.078v2.01c0 .466.146.728.561.728h.036c.142 0 .28-.019.412-.054l-.011.003v.517c-.198.06-.425.095-.661.095h-.01.001a1.162 1.162 0 0 1-.817-.285l.001.001a1.362 1.362 0 0 1-.283-.989l-.001.006V7.285h-.604v-.524h.648v-.685zm1.923-.852h.728v2.33c.129-.209.313-.374.531-.477l.008-.003c.216-.119.474-.19.749-.19h.025-.001l.056-.001a1.413 1.413 0 0 1 1.4 1.603l.001-.007v2.185h-.728V8.349c0-.604-.248-1.107-.961-1.107h-.007c-.452 0-.84.277-1.003.67l-.003.007a.817.817 0 0 0-.051.321v-.002 2.25h-.728zm5.178 3.722l-.001.046a1.26 1.26 0 0 0 1.42 1.25l-.006.001.083.001c.381 0 .745-.07 1.081-.197l-.021.007.138.481a3.571 3.571 0 0 1-1.303.241l-.085-.001h.004a1.843 1.843 0 0 1-2.04-1.832l.001-.049v.002a1.893 1.893 0 0 1 1.956-2.017h-.003l.078-.002a1.63 1.63 0 0 1 1.626 1.762V8.43a1.138 1.138 0 0 1 0 .327l.001-.006zm2.185-.488a.998.998 0 0 0-.993-1.101l-.044.001h.002a1.173 1.173 0 0 0-1.158 1.096v.003z"/></symbol><symbol id="icon-logo-header" viewBox="0 0 99 32"><title>logo-header</title><path fill="var(--color2,#00b27c)" d="M42.398 18.743l.001.067c0 .553-.109 1.081-.308 1.563l.01-.027a3.295 3.295 0 0 1-.851 1.216l-.003.003a3.752 3.752 0 0 1-1.269.759l-.026.008a4.9 4.9 0 0 1-1.62.269l-.082-.001h.004l-.111.001a7.12 7.12 0 0 1-2.623-.497l.048.017a7.993 7.993 0 0 1-1.573-.824l.028.018a.403.403 0 0 1-.067-.624l.959-.911a.41.41 0 0 1 .547 0c.304.232.652.431 1.025.584l.031.011c.247.104.535.185.835.228l.019.002c.192.032.418.053.647.057h.04c.295 0 .58-.042.85-.121l-.021.005c.259-.074.486-.182.689-.322l-.008.005a1.42 1.42 0 0 0 .614-1.169v-.032.001c0-.316-.124-.603-.327-.815a1.776 1.776 0 0 0-.641-.466l-.011-.004a2.963 2.963 0 0 0-.669-.282l-.022-.005-.671-.192a.695.695 0 0 0-.167.001h.003a.273.273 0 0 1-.126-.049l.001.001h-.105a16.167 16.167 0 0 1-1.103-.384 7.248 7.248 0 0 1-1.444-.764l.025.016a3.22 3.22 0 0 1-1.65-2.71v-.005a3.93 3.93 0 0 1 .384-1.884l-.01.024c.233-.478.557-.879.952-1.194l.007-.005a3.765 3.765 0 0 1 1.316-.712l.027-.007a5.292 5.292 0 0 1 1.429-.192h.03-.002l.158-.002c.728 0 1.429.113 2.088.322l-.049-.013c.544.183 1.01.393 1.45.644l-.04-.021c.17.105.314.207.452.315l-.011-.008a.412.412 0 0 1 0 .614l-.959.959a.4.4 0 0 1-.538 0 3.63 3.63 0 0 0-.709-.489l-.02-.01a3.66 3.66 0 0 0-1.602-.364h-.013c-.251 0-.495.035-.725.101l.019-.005a2.408 2.408 0 0 0-.646.237l.013-.006a1.472 1.472 0 0 0-.787 1.3V13v-.001.018c0 .314.124.598.327.807.183.198.399.362.639.483l.013.006c.207.112.449.213.701.29l.028.007.71.192.221.058.336.115c.242.068.443.14.638.224l-.034-.013q.345.144.748.345c.31.15.574.306.824.482l-.018-.012a3.297 3.297 0 0 1 1.774 2.735v.009zm13.122 3.626h-1.289a.499.499 0 0 1-.455-.294l-.001-.003-.844-1.918-.959-2.177-2.58-5.688-2.571 5.688h2.974a.508.508 0 0 1 .459.294l.001.003.528 1.17a.505.505 0 0 1-.46.709h-4.499l-.844 1.918a.51.51 0 0 1-.46.297h-1.295a.5.5 0 0 1-.45-.713l-.001.003L48.05 9.965a.5.5 0 0 1 .451-.288h1.748c.201 0 .374.116.457.285l.001.003 5.276 11.693a.505.505 0 0 1-.46.709zm8.749-1.726v1.276a.451.451 0 0 1-.451.451h-6.264a.451.451 0 0 1-.451-.451V10.14c0-.244.198-.441.441-.441h1.295c.244 0 .441.198.441.441v10.053h4.537c.249 0 .451.202.451.451zm6.532-8.796h-5.362a.441.441 0 0 1-.441-.431v-1.305a.441.441 0 0 1 .441-.432h6.877c.12 0 .228.048.308.125l.959.959a.448.448 0 0 1 .075.53l.001-.002-6.034 10.849a.432.432 0 0 1-.382.23h-1.479a.44.44 0 0 1-.382-.654l-.001.002zm13.611-1.756v11.856a.422.422 0 0 1-.422.422h-1.343a.422.422 0 0 1-.422-.422v-4.796h-5.276v4.796a.422.422 0 0 1-.422.422h-1.333a.422.422 0 0 1-.422-.422V10.091a.421.421 0 0 1 .422-.412h1.333c.23 0 .417.184.422.412v4.845h5.276v-4.844a.421.421 0 0 1 .422-.412h1.343c.23 0 .417.184.422.412v.001zm13.861 12.278h-1.266a.528.528 0 0 1-.469-.304l-.001-.003-.844-1.87-.959-2.177-2.571-5.688-2.58 5.688h2.975c.206 0 .384.12.467.294l.001.003.518 1.161a.508.508 0 0 1-.462.719h-4.497l-.835 1.87a.529.529 0 0 1-.47.307h-1.267a.518.518 0 0 1-.469-.732l-.001.003 5.266-11.664a.52.52 0 0 1 .469-.297h1.767c.206 0 .384.12.467.294l.001.003 5.266 11.664a.518.518 0 0 1-.472.73l-.038-.001h.002zm-73.4-6.695a9.631 9.631 0 1 1-19.262 0 9.631 9.631 0 0 1 19.262 0z"/><path fill="var(--color3,#d67b4e)" d="M24.547 23.386a1.142 1.142 0 1 1-2.285 0 1.142 1.142 0 0 1 2.285 0z"/><path fill="var(--color1,#fff)" d="M26.283 26.264c-.696.704-1.662 1.14-2.729 1.14s-2.033-.436-2.729-1.139l-4.153-4.153a3.038 3.038 0 0 1-.425.085l-.016.002h-.077a7.036 7.036 0 0 1-1.116.086 7.224 7.224 0 0 1-4.707-1.735l.01.008c-.144-.134-.297-.269-.432-.412a7.058 7.058 0 0 1-1.907-3.26l-.011-.049a6.985 6.985 0 0 1-.24-1.841v-.082.004c.016-.717.13-1.401.331-2.048l-.014.053a.426.426 0 0 1 .304-.297l.003-.001a.443.443 0 0 1 .413.115l3.453 3.511h1.794l2.168-2.177v-1.832l-3.444-3.511a.436.436 0 0 1-.114-.406l-.001.003a.453.453 0 0 1 .294-.306l.003-.001a7.3 7.3 0 0 1 9.218 8.682l.01-.05 4.115 4.115c.716.698 1.159 1.671 1.159 2.748s-.444 2.051-1.159 2.747l-.001.001z"/><path fill="var(--color4,#ebeced)" d="M13.899 8.633a6.13 6.13 0 0 1 7.304 3.68l.014.042c.334.803.529 1.736.529 2.714 0 .874-.155 1.712-.439 2.487l.016-.05c.134-9.324-7.424-8.873-7.424-8.873zm4.202 12.058s-8.7 2.657-9.333-6.849c-1.266 3.588 1.535 8.249 7.847 8.01 1.41-.058 1.554-1.017 1.554-1.017zm3.53-2.821l.681.71 1.41 1.458 1.218 1.218a3.437 3.437 0 0 1 1.199 2.89l.001-.012a3.907 3.907 0 0 1-.547 1.368l.009-.016c-.153.24-.345.595-.508.835s-.182.067-.269.182-.153.278-.249.336a6.113 6.113 0 0 0 2.171-2.271l.016-.032c.158-.301.251-.658.251-1.036l-.002-.09v.004c-.096-1.803-3.837-5.094-3.837-5.094l-1.42-1.439z"/><path fill="var(--color5,#16191a)" d="M15.05 22.293h-.002c-1.8 0-3.447-.653-4.718-1.735l.01.009-.441-.422a7.247 7.247 0 0 1-2.131-5.143c0-.759.116-1.491.332-2.179l-.014.052a.426.426 0 0 1 .304-.297l.003-.001a.443.443 0 0 1 .413.115l3.453 3.511h1.794l2.177-2.168v-1.794L12.758 8.73a.411.411 0 0 1-.105-.406l-.001.003a.422.422 0 0 1 .285-.306l.003-.001a7.137 7.137 0 0 1 2.121-.315 7.3 7.3 0 0 1 7.3 7.3l-.001.119v-.006a.442.442 0 0 1-.431.422.432.432 0 0 1-.422-.432v-.01.001A6.427 6.427 0 0 0 13.86 8.64l.04-.006 3.06 3.089a.44.44 0 0 1 .125.297v2.149a.455.455 0 0 1-.125.307l-2.427 2.417a.428.428 0 0 1-.307.134h-2.149a.455.455 0 0 1-.307-.125l-3.041-3.05a6.183 6.183 0 0 0-.096 1.033v.003l-.001.11c0 .581.074 1.145.213 1.683l-.01-.047a6.364 6.364 0 0 0 1.678 2.877l.001.001.384.355a6.324 6.324 0 0 0 4.139 1.531c.361 0 .715-.03 1.059-.088l-.037.005a6.216 6.216 0 0 0 2.047-.688l-.033.016a.432.432 0 0 1 .406.757l-.003.001a7.164 7.164 0 0 1-2.221.752l-.043.006h-.077a6.946 6.946 0 0 1-1.068.134l-.016.001z"/><path fill="var(--color5,#16191a)" d="M21.103 18.657h-.013a.399.399 0 0 1-.191-.049l.002.001a.42.42 0 0 1-.171-.578l-.001.002a6.531 6.531 0 0 0 .748-2.929v-.007a.432.432 0 0 1 .432-.422.442.442 0 0 1 .422.441 7.276 7.276 0 0 1-.882 3.357l.019-.038a.414.414 0 0 1-.364.221z"/><path fill="var(--color5,#16191a)" d="M23.549 27.396h-.003a3.825 3.825 0 0 1-2.721-1.132l-4.23-4.201a.43.43 0 0 1 0-.604.447.447 0 0 1 .614 0l4.221 4.221a3.002 3.002 0 1 0 4.251-4.238l-.001-.001-4.221-4.23a.413.413 0 0 1-.001-.604.43.43 0 0 1 .604 0l4.221 4.221a3.837 3.837 0 0 1-2.662 6.6l-.076-.001h.004z"/><path fill="var(--color4,#ebeced)" d="M18.628 21.343s-.806.278-.259.959c.355.422 2.389 2.293 3.636 3.837l-.959-.364-3.837-3.837z"/><path fill="var(--color2,#00b27c)" d="M21.909 23.386v-.01a1.506 1.506 0 1 1 1.506 1.506h-.01.001c-.826 0-1.496-.67-1.496-1.496z"/><path fill="var(--color5,#16191a)" d="M23.405 25.314a1.63 1.63 0 0 1-.392 0l.008.001a1.91 1.91 0 0 1-.528-.187l.01.005a.44.44 0 0 1-.181-.588l-.001.003a.432.432 0 0 1 .587-.171l-.002-.001c.083.044.18.078.282.095l.006.001a1.037 1.037 0 0 0 .81-.156l-.004.002a1.07 1.07 0 0 0 .459-.674l.001-.007a1.083 1.083 0 0 0-.837-1.265l-.007-.001a1.065 1.065 0 0 0-1.256.828l-.001.007a.432.432 0 1 1-.843-.176l-.001.003a1.922 1.922 0 0 1 2.286-1.494l-.013-.002a1.928 1.928 0 1 1-.392 3.836l.008.001z"/><path fill="var(--color1,#fff)" d="M10.302 11.875H2.571a.433.433 0 0 1-.003-.854h7.733a.432.432 0 0 1 .002.854h-.002z"/><path fill="var(--color5,#16191a)" d="M25.803 18.302h-.105a.442.442 0 0 1-.306-.531l-.001.003c.222-.815.35-1.751.35-2.716 0-5.848-4.686-10.602-10.508-10.713h-.01l-.176-.001a10.534 10.534 0 0 0-8.315 4.055l-.017.023a.44.44 0 0 1-.605.066l.001.001a.422.422 0 0 1-.067-.606l-.001.001c2.127-2.685 5.387-4.392 9.046-4.392 6.357 0 11.511 5.154 11.511 11.511v.06-.003.015c0 1.035-.137 2.037-.392 2.991l.018-.08a.442.442 0 0 1-.422.317zM14.571 32h-.003a.396.396 0 0 1-.304-.143l-.001-.001-7.923-8.902a11.014 11.014 0 0 1-1.813-2.742l-.028-.068a11.144 11.144 0 0 1-1.065-4.791v-.198c.013-.744.093-1.462.233-2.157l-.013.076a.423.423 0 0 1 .502-.335h-.003a.423.423 0 0 1 .335.502v-.003a10.26 10.26 0 0 0-.192 1.964v.05a.29.29 0 0 0 .001.088v-.002a10.6 10.6 0 0 0 2.704 7.08l-.009-.01 7.597 8.556 4.259-4.422a.42.42 0 0 1 .604 0 .413.413 0 0 1 .001.604l-4.576 4.796a.396.396 0 0 1-.31.057l.003.001zM4.652 11.588A.431.431 0 0 1 4.25 11l-.001.003c.188-.513.372-.93.579-1.335l-.032.069a.432.432 0 0 1 .578-.171l-.002-.001a.422.422 0 0 1 .181.578l.001-.002c-.176.32-.354.706-.506 1.104l-.022.066a.434.434 0 0 1-.373.278h-.001z"/><path fill="var(--color5,#16191a)" d="M15.022 26.6a11.645 11.645 0 0 1-10.396-6.465l-.03-.068a11.202 11.202 0 0 1-1.16-4.785v-.24c0-.781.077-1.544.223-2.282l-.012.074a.433.433 0 1 1 .844.157l.001-.003c-.127.623-.2 1.338-.201 2.071v.001a.495.495 0 0 0 0 .118v-.002.048a10.452 10.452 0 0 0 1.092 4.569l-.027-.061c1.792 3.601 5.439 6.036 9.657 6.053h.057c.386 0 .767-.024 1.14-.072l-.044.005a11.185 11.185 0 0 0 2.141-.493l-.079.023a.422.422 0 0 1 .536.275l.001.003a.431.431 0 0 1-.275.536l-.003.001a10.9 10.9 0 0 1-2.183.465l-.052.005a10.05 10.05 0 0 1-1.181.067h-.049.003zm2.57-23.598h-.432a.432.432 0 1 1 .003-.854h-.002v-.863a.432.432 0 0 0-.432-.432h-3.424a.432.432 0 0 0-.432.432v.863a.432.432 0 1 1-.003.854h.002-.403a.432.432 0 0 1-.432-.432V1.285A1.295 1.295 0 0 1 13.302 0h3.426c.712 0 1.29.574 1.295 1.285v1.286a.432.432 0 0 1-.432.432zm7.348 3.866a.442.442 0 0 1-.297-.153v-.001a12.199 12.199 0 0 0-1.724-1.729l-.021-.017a.43.43 0 0 1 .309-.734.43.43 0 0 1 .24.073l-.002-.001a13.828 13.828 0 0 1 1.853 1.839l.018.022a.432.432 0 0 1-.066.603l-.001.001a.41.41 0 0 1-.267.098l-.042-.002h.002zm-14.638 4.72H2.571a.432.432 0 0 1 0-.864h7.731a.432.432 0 0 1 0 .864zM7.77 8.633H.432a.432.432 0 0 1 0-.864H7.77a.432.432 0 0 1 0 .864z"/></symbol></defs></svg>