<svg aria-hidden="true" style="position: absolute; width: 0; height: 0; overflow: hidden;" version="1.1" xmlns="http://www.w3.org/2000/svg" xmlns:xlink="http://www.w3.org/1999/xlink">
<defs>
<symbol id="icon-app-store-white" viewBox="0 0 96 32">
<title>app-store-white</title>
<path fill="none" stroke="#fff" style="stroke: var(--color1, #fff)" stroke-linejoin="miter" stroke-linecap="butt" stroke-miterlimit="10" stroke-width="0.8667" d="M4.637 0.433h86.778c2.322 0 4.204 1.882 4.204 4.204v22.726c0 2.322-1.882 4.204-4.204 4.204h-86.778c-2.322 0-4.204-1.882-4.204-4.204v-22.726c0-2.322 1.882-4.204 4.204-4.204z"></path>
<path fill="#fff" style="fill: var(--color1, #fff)" d="M25.257 21.018c-0.424 0.999-0.891 1.854-1.431 2.656l0.035-0.055c-0.867 1.378-2.184 3.094-3.762 3.112-1.404 0-1.733-0.919-3.675-0.91s-2.306 0.919-3.71 0.91c-1.577 0-2.791-1.569-3.692-2.947-2.531-3.848-2.8-8.373-1.222-10.782 0.949-1.555 2.595-2.604 4.492-2.712l0.015-0.001c1.681 0 2.73 0.919 4.117 0.919s2.167-0.919 4.1-0.919c1.686 0.080 3.164 0.911 4.116 2.162l0.010 0.014c-1.468 0.82-2.444 2.365-2.444 4.137 0 2.008 1.252 3.723 3.018 4.407l0.032 0.011z"></path>
<path fill="#fff" style="fill: var(--color1, #fff)" d="M19.068 8.754c0.663-0.806 1.065-1.848 1.065-2.985 0-0.17-0.009-0.338-0.026-0.503l0.002 0.021c-1.317 0.155-2.461 0.792-3.271 1.727l-0.005 0.006c-0.698 0.767-1.126 1.79-1.126 2.914 0 0.164 0.009 0.326 0.027 0.486l-0.002-0.020c1.353-0.011 2.554-0.649 3.33-1.638l0.007-0.009z"></path>
<path fill="#fff" style="fill: var(--color1, #fff)" d="M32.936 12.949l-3.597 10.67h1.664l1.066-3.276h3.467l1.109 3.276h1.733l-3.64-10.67zM33.803 14.683c0.121 0.477 0.251 0.971 0.425 1.508l1.005 2.878h-2.782l0.962-2.852c0.147-0.485 0.286-0.988 0.39-1.482z"></path>
<path fill="#fff" style="fill: var(--color1, #fff)" d="M43.112 15.714c-0.046-0.002-0.099-0.004-0.153-0.004-1 0-1.887 0.482-2.441 1.227l-0.006 0.008-0.061-1.057h-1.447v0.13c0.052 0.667 0.069 1.395 0.069 2.436v8.234h1.612v-3.84c0.523 0.582 1.278 0.946 2.118 0.946 0.032 0 0.065-0.001 0.097-0.002l-0.005 0c0.008 0 0.018 0 0.027 0 0.951 0 1.809-0.399 2.416-1.039l0.001-0.002c0.676-0.768 1.089-1.782 1.089-2.892 0-0.074-0.002-0.148-0.005-0.221l0 0.010c0.001-0.041 0.002-0.090 0.002-0.139 0-1.027-0.357-1.97-0.954-2.712l0.007 0.008c-0.567-0.67-1.408-1.092-2.347-1.092-0.007 0-0.013 0-0.020 0h0.001zM42.704 17.049c1.439 0 2.089 1.335 2.089 2.661 0 1.733-0.867 2.765-2.15 2.765-0.003 0-0.006 0-0.009 0-0.917 0-1.686-0.633-1.895-1.486l-0.003-0.013c-0.039-0.142-0.062-0.305-0.062-0.473 0-0.020 0-0.039 0.001-0.059l-0 0.003v-1.291c0.006-0.145 0.025-0.282 0.055-0.414l-0.003 0.015v-0.139c0.222-0.902 1.021-1.563 1.975-1.569h0.001z"></path>
<path fill="#fff" style="fill: var(--color1, #fff)" d="M51.424 15.714c-0.048-0.003-0.105-0.004-0.162-0.004-0.997 0-1.882 0.483-2.433 1.227l-0.006 0.008-0.069-1.057h-1.473v0.13c0 0.667 0.061 1.395 0.061 2.436v8.234h1.612v-3.84c0.524 0.582 1.28 0.946 2.121 0.946 0.031 0 0.062-0 0.093-0.002l-0.005 0c0.006 0 0.014 0 0.021 0 0.956 0 1.818-0.399 2.431-1.039l0.001-0.001c0.671-0.771 1.080-1.785 1.080-2.895 0-0.073-0.002-0.146-0.005-0.218l0 0.010c0.002-0.045 0.003-0.097 0.003-0.149 0-1.022-0.354-1.961-0.945-2.702l0.007 0.009c-0.565-0.663-1.398-1.083-2.33-1.092h-0.002zM51.025 17.049c1.439 0 2.080 1.335 2.080 2.661 0 1.733-0.867 2.765-2.141 2.765-0.001 0-0.002 0-0.003 0-0.919 0-1.69-0.633-1.901-1.486l-0.003-0.013c-0.039-0.155-0.061-0.333-0.061-0.515 0-0.005 0-0.009 0-0.014v0.001-1.291c0.006-0.148 0.025-0.288 0.055-0.423l-0.003 0.016v-0.13c0.224-0.901 1.022-1.559 1.975-1.569h0.001z"></path>
<path fill="#fff" style="fill: var(--color1, #fff)" d="M61.842 17.473c-1.508-0.589-1.993-1.049-1.993-1.889s0.572-1.439 1.837-1.439c0.026-0.001 0.056-0.001 0.086-0.001 0.666 0 1.291 0.177 1.83 0.487l-0.018-0.009 0.139 0.087 0.416-1.352-0.087-0.052c-0.629-0.335-1.377-0.532-2.17-0.532-0.063 0-0.126 0.001-0.188 0.004l0.009-0c-2.063 0-3.467 1.222-3.467 2.956 0 1.404 0.867 2.392 2.834 3.094 1.369 0.511 1.881 1.031 1.881 1.933s-0.789 1.647-2.054 1.647c-0.008 0-0.017 0-0.026 0-0.851 0-1.645-0.245-2.315-0.669l0.018 0.011-0.139-0.087-0.442 1.378 0.087 0.052c0.774 0.442 1.702 0.702 2.69 0.702 0.014 0 0.028-0 0.042-0h-0.002c2.774 0 3.753-1.69 3.753-3.138s-0.789-2.453-2.722-3.181z"></path>
<path fill="#fff" style="fill: var(--color1, #fff)" d="M67.476 14.050l-1.603 0.494v1.343h-1.144v1.291h1.144v3.952c-0.008 0.084-0.013 0.182-0.013 0.28 0 0.664 0.216 1.277 0.582 1.773l-0.006-0.008c0.372 0.381 0.891 0.618 1.465 0.618 0.034 0 0.067-0.001 0.1-0.002l-0.005 0c0.011 0 0.023 0 0.036 0 0.433 0 0.85-0.070 1.24-0.199l-0.028 0.008h0.087l-0.078-1.291-0.156 0.043c-0.186 0.057-0.4 0.090-0.622 0.090-0.043 0-0.086-0.001-0.129-0.004l0.006 0c-0.624 0-0.867-0.39-0.867-1.317v-3.944h1.942v-1.291h-1.95z"></path>
<path fill="#fff" style="fill: var(--color1, #fff)" d="M73.421 15.714c-0.011-0-0.024-0-0.037-0-2.101 0-3.805 1.704-3.805 3.805 0 0.104 0.004 0.207 0.012 0.308l-0.001-0.013c-0.008 0.088-0.012 0.191-0.012 0.295 0 2.034 1.649 3.684 3.684 3.684 0.013 0 0.027-0 0.040-0l-0.002 0c0.011 0 0.025 0 0.038 0 2.106 0 3.814-1.707 3.814-3.814 0-0.107-0.004-0.213-0.013-0.317l0.001 0.014c0.001-0.038 0.002-0.082 0.002-0.127 0-1.047-0.392-2.003-1.037-2.729l0.004 0.004c-0.653-0.685-1.573-1.111-2.592-1.111-0.033 0-0.067 0-0.1 0.001l0.005-0zM73.421 16.988c1.456 0 2.115 1.421 2.115 2.739 0 1.612-0.867 2.791-2.15 2.791v0c-1.231 0-2.115-1.153-2.115-2.748-0.052-1.387 0.615-2.782 2.106-2.782z"></path>
<path fill="#fff" style="fill: var(--color1, #fff)" d="M82.097 15.792h-0.095c-0.12-0.033-0.257-0.052-0.399-0.052h-0c-0.889 0.021-1.651 0.539-2.022 1.287l-0.006 0.014v-1.127h-1.499v0.13c0 0.641 0.069 1.361 0.069 2.332v5.27h1.595v-4.134c-0.007-0.095-0.011-0.205-0.011-0.316s0.004-0.222 0.011-0.331l-0.001 0.015c0.081-0.899 0.823-1.602 1.732-1.621l0.002-0c0.065-0.005 0.14-0.007 0.217-0.007s0.152 0.003 0.227 0.008l-0.010-0.001h0.173z"></path>
<path fill="#fff" style="fill: var(--color1, #fff)" d="M85.729 15.697c-2.15 0-3.649 1.733-3.649 4.178-0.008 0.090-0.013 0.195-0.013 0.301 0 1.991 1.614 3.606 3.606 3.606 0.075 0 0.149-0.002 0.222-0.007l-0.010 0c0.057 0.002 0.124 0.003 0.191 0.003 0.87 0 1.698-0.18 2.45-0.504l-0.040 0.015 0.095-0.043-0.312-1.205-0.13 0.052c-0.553 0.232-1.195 0.367-1.869 0.367-0.056 0-0.112-0.001-0.167-0.003l0.008 0c-0.053 0.004-0.114 0.007-0.176 0.007-1.24 0-2.245-1.005-2.245-2.245 0-0.036 0.001-0.072 0.003-0.107l-0 0.005h5.2v-0.095c0.034-0.181 0.053-0.39 0.053-0.603 0-0.026-0-0.052-0.001-0.077l0 0.004c-0.009-1.681-0.849-3.649-3.216-3.649zM85.625 16.927c0.018-0.001 0.039-0.001 0.060-0.001 0.435 0 0.83 0.172 1.12 0.452l-0-0c0.347 0.403 0.56 0.93 0.563 1.507v0.001h-3.684c0.049-1.056 0.888-1.9 1.936-1.959l0.005-0z"></path>
<path fill="#fff" style="fill: var(--color1, #fff)" d="M29.339 5.66c0.466-0.066 1.004-0.104 1.551-0.104h0c0.085-0.007 0.183-0.012 0.282-0.012 0.745 0 1.434 0.235 1.999 0.634l-0.011-0.007c0.496 0.41 0.809 1.025 0.809 1.713 0 0.041-0.001 0.081-0.003 0.121l0-0.006c0.001 0.027 0.002 0.058 0.002 0.090 0 0.738-0.314 1.402-0.815 1.868l-0.002 0.001c-0.61 0.461-1.382 0.738-2.218 0.738-0.095 0-0.189-0.004-0.282-0.011l0.012 0.001c-0.040 0.001-0.088 0.001-0.135 0.001-0.419 0-0.834-0.022-1.242-0.066l0.051 0.004zM30.076 10.132c0.109 0.007 0.236 0.011 0.364 0.011s0.255-0.004 0.381-0.012l-0.017 0.001c1.551 0 2.392-0.78 2.392-2.141 0-1.205-0.737-1.95-2.271-1.95-0.016-0-0.034-0-0.053-0-0.288 0-0.569 0.025-0.843 0.074l0.029-0.004z"></path>
<path fill="#fff" style="fill: var(--color1, #fff)" d="M36.559 10.722c-0.021 0.001-0.045 0.001-0.070 0.001-1.005 0-1.82-0.815-1.82-1.82 0-0.016 0-0.031 0.001-0.047l-0 0.002c-0.001-0.016-0.001-0.035-0.001-0.054 0-1.034 0.838-1.872 1.872-1.872 0.031 0 0.061 0.001 0.092 0.002l-0.004-0c0.042-0.003 0.090-0.005 0.14-0.005 0.996 0 1.803 0.807 1.803 1.803 0 0.020-0 0.040-0.001 0.060l0-0.003c0.001 0.019 0.001 0.042 0.001 0.065 0 1.034-0.838 1.872-1.872 1.872-0.046 0-0.092-0.002-0.137-0.005l0.006 0zM36.559 10.228c0.685-0.030 1.229-0.592 1.229-1.282 0-0.046-0.002-0.092-0.007-0.137l0 0.006c0.008-0.054 0.013-0.115 0.013-0.178 0-0.68-0.551-1.231-1.231-1.231s-1.231 0.551-1.231 1.231c0 0.063 0.005 0.125 0.014 0.185l-0.001-0.007c-0.005 0.044-0.009 0.096-0.009 0.148 0 0.69 0.552 1.251 1.238 1.265l0.001 0z"></path>
<path fill="#fff" style="fill: var(--color1, #fff)" d="M39.731 7.012l0.537 1.837c0.113 0.407 0.217 0.789 0.295 1.161v0c0.087-0.364 0.217-0.754 0.355-1.153l0.685-1.846h0.615l0.624 1.811c0.147 0.433 0.269 0.867 0.355 1.187v0c0.095-0.469 0.202-0.865 0.333-1.249l-0.021 0.071 0.572-1.82h0.728l-1.3 3.632h-0.667l-0.615-1.733c-0.118-0.307-0.243-0.707-0.346-1.114l-0.018-0.082c-0.116 0.479-0.243 0.882-0.396 1.271l0.023-0.067-0.65 1.733h-0.667l-1.17-3.64z"></path>
<path fill="#fff" style="fill: var(--color1, #fff)" d="M45.564 8c0-0.39 0-0.685 0-0.988h0.65v0.598c0.278-0.412 0.742-0.679 1.269-0.679 0.032 0 0.064 0.001 0.096 0.003l-0.004-0c0.016-0.001 0.035-0.001 0.053-0.001 0.761 0 1.378 0.617 1.378 1.378 0 0.058-0.004 0.116-0.011 0.172l0.001-0.007v2.167h-0.728v-2.098c0-0.581-0.243-1.075-0.936-1.075-0.003-0-0.007-0-0.011-0-0.442 0-0.819 0.278-0.966 0.669l-0.002 0.007c-0.033 0.088-0.052 0.19-0.052 0.296 0 0.003 0 0.005 0 0.008v-0 2.193h-0.737z"></path>
<path fill="#fff" style="fill: var(--color1, #fff)" d="M50.193 5.322h0.728v5.322h-0.728z"></path>
<path fill="#fff" style="fill: var(--color1, #fff)" d="M53.781 10.722c-0.034 0.002-0.073 0.004-0.113 0.004-1.005 0-1.82-0.815-1.82-1.82 0-0.016 0-0.033 0.001-0.049l-0 0.002c-0.001-0.017-0.001-0.036-0.001-0.056 0-1.034 0.838-1.872 1.872-1.872 0.043 0 0.086 0.001 0.128 0.004l-0.006-0c0.042-0.003 0.090-0.005 0.14-0.005 0.996 0 1.803 0.807 1.803 1.803 0 0.020-0 0.040-0.001 0.060l0-0.003c0.001 0.019 0.001 0.042 0.001 0.065 0 1.034-0.838 1.872-1.872 1.872-0.043 0-0.086-0.001-0.128-0.004l0.006 0zM53.781 10.228c0.685-0.035 1.228-0.599 1.228-1.29 0-0.043-0.002-0.086-0.006-0.128l0 0.005c0.006-0.044 0.009-0.094 0.009-0.146 0-0.68-0.551-1.231-1.231-1.231s-1.231 0.551-1.231 1.231c0 0.051 0.003 0.102 0.009 0.152l-0.001-0.006c-0.004 0.037-0.006 0.079-0.006 0.123 0 0.684 0.54 1.243 1.217 1.273l0.003 0z"></path>
<path fill="#fff" style="fill: var(--color1, #fff)" d="M59.554 9.768c-0 0.011-0 0.025-0 0.039 0 0.292 0.019 0.579 0.056 0.861l-0.004-0.033h-0.667l-0.061-0.459c-0.285 0.331-0.704 0.539-1.171 0.539-0.021 0-0.042-0-0.063-0.001l0.003 0c-0.042 0.006-0.091 0.009-0.14 0.009-0.59 0-1.071-0.464-1.099-1.046l-0-0.003c0-0.867 0.867-1.352 2.427-1.352v-0.061c0-0.303-0.087-0.867-0.919-0.867-0.008-0-0.018-0-0.028-0-0.378 0-0.733 0.1-1.040 0.274l0.010-0.005-0.165-0.442c0.361-0.181 0.787-0.287 1.237-0.287 0.028 0 0.056 0 0.084 0.001l-0.004-0c0.060-0.009 0.128-0.015 0.198-0.015 0.747 0 1.352 0.605 1.352 1.352 0 0.051-0.003 0.101-0.008 0.151l0.001-0.006zM58.834 8.789c-0.797 0-1.733 0.113-1.733 0.815-0 0.006-0 0.014-0 0.021 0 0.34 0.276 0.615 0.615 0.615 0.025 0 0.049-0.001 0.073-0.004l-0.003 0c0.018 0.001 0.038 0.002 0.059 0.002 0.413 0 0.769-0.247 0.927-0.602l0.003-0.006c0.006-0.031 0.009-0.067 0.009-0.104s-0.003-0.073-0.010-0.108l0.001 0.004z"></path>
<path fill="#fff" style="fill: var(--color1, #fff)" d="M64.208 5.322v4.386c0 0.321 0 0.685 0 0.936h-0.659v-0.633c-0.27 0.431-0.743 0.713-1.282 0.713-0.031 0-0.062-0.001-0.092-0.003l0.004 0c-0.001 0-0.002 0-0.003 0-0.957 0-1.733-0.776-1.733-1.733 0-0.037 0.001-0.073 0.003-0.109l-0 0.005c-0.004-0.044-0.006-0.095-0.006-0.147 0-0.995 0.806-1.801 1.8-1.803h0c0.033-0.003 0.072-0.005 0.111-0.005 0.449 0 0.848 0.215 1.099 0.547l0.002 0.003v-2.158zM63.471 8.494c0.006-0.043 0.010-0.093 0.010-0.143s-0.004-0.1-0.011-0.149l0.001 0.006c-0.128-0.445-0.532-0.764-1.009-0.764-0.020 0-0.040 0.001-0.059 0.002l0.003-0c-0.674 0.019-1.214 0.57-1.214 1.248 0 0.052 0.003 0.103 0.009 0.154l-0.001-0.006c-0.006 0.044-0.009 0.095-0.009 0.147 0 0.665 0.539 1.205 1.205 1.205 0.003 0 0.006 0 0.010-0h-0.001c0.008 0 0.017 0 0.026 0 0.495 0 0.913-0.33 1.047-0.781l0.002-0.008c0.007-0.043 0.010-0.093 0.010-0.143s-0.004-0.1-0.011-0.148l0.001 0.005z"></path>
<path fill="#fff" style="fill: var(--color1, #fff)" d="M68.828 10.722c-0.034 0.002-0.073 0.004-0.113 0.004-1.005 0-1.82-0.815-1.82-1.82 0-0.016 0-0.033 0.001-0.049l-0 0.002c-0.001-0.017-0.001-0.037-0.001-0.057 0-1.034 0.838-1.872 1.872-1.872 0.046 0 0.092 0.002 0.137 0.005l-0.006-0c0.039-0.003 0.085-0.005 0.131-0.005 1 0 1.811 0.811 1.811 1.811 0 0.017-0 0.034-0.001 0.051l0-0.002c0.001 0.019 0.001 0.042 0.001 0.065 0 1.034-0.838 1.872-1.872 1.872-0.046 0-0.092-0.002-0.137-0.005l0.006 0zM68.828 10.228c0.685-0.030 1.229-0.592 1.229-1.282 0-0.046-0.002-0.092-0.007-0.137l0 0.006c0.008-0.054 0.013-0.115 0.013-0.178 0-0.68-0.551-1.231-1.231-1.231s-1.231 0.551-1.231 1.231c0 0.063 0.005 0.125 0.014 0.185l-0.001-0.007c-0.004 0.039-0.007 0.085-0.007 0.131 0 0.68 0.536 1.235 1.209 1.264l0.003 0z"></path>
<path fill="#fff" style="fill: var(--color1, #fff)" d="M71.757 8c0-0.39 0-0.685 0-0.988h0.65v0.598c0.278-0.412 0.742-0.679 1.269-0.679 0.032 0 0.064 0.001 0.096 0.003l-0.004-0c0.016-0.001 0.035-0.001 0.053-0.001 0.761 0 1.378 0.617 1.378 1.378 0 0.058-0.004 0.116-0.011 0.172l0.001-0.007v2.167h-0.728v-2.098c0-0.581-0.243-1.075-0.936-1.075-0.003-0-0.007-0-0.011-0-0.442 0-0.819 0.278-0.966 0.669l-0.002 0.007c-0.033 0.088-0.052 0.19-0.052 0.296 0 0.003 0 0.005 0 0.008v-0 2.193h-0.737z"></path>
<path fill="#fff" style="fill: var(--color1, #fff)" d="M79.029 6.145v0.867h1.049v0.503h-1.049v1.959c0 0.451 0.147 0.702 0.555 0.702 0.011 0 0.024 0 0.038 0 0.137 0 0.271-0.016 0.399-0.046l-0.012 0.002v0.503c-0.19 0.055-0.407 0.087-0.632 0.087-0.006 0-0.012-0-0.019-0h0.001c-0.017 0.001-0.036 0.001-0.055 0.001-0.285 0-0.545-0.106-0.743-0.28l0.001 0.001c-0.177-0.221-0.285-0.506-0.285-0.815 0-0.049 0.003-0.097 0.008-0.144l-0.001 0.006v-1.976h-0.624v-0.503h0.624v-0.667z"></path>
<path fill="#fff" style="fill: var(--color1, #fff)" d="M80.91 5.322h0.728v2.262c0.127-0.204 0.307-0.365 0.521-0.465l0.007-0.003c0.215-0.115 0.471-0.182 0.742-0.182 0.007 0 0.014 0 0.022 0h-0.001c0.011-0 0.024-0 0.037-0 0.761 0 1.378 0.617 1.378 1.378 0 0.061-0.004 0.122-0.012 0.181l0.001-0.007v2.158h-0.728v-2.089c0-0.589-0.243-1.075-0.936-1.075-0.002 0-0.004-0-0.006-0-0.439 0-0.814 0.269-0.971 0.652l-0.003 0.007c-0.034 0.079-0.053 0.171-0.053 0.267 0 0.016 0.001 0.032 0.002 0.047l-0-0.002v2.193h-0.728z"></path>
<path fill="#fff" style="fill: var(--color1, #fff)" d="M85.946 8.936c-0 0.013-0.001 0.028-0.001 0.043 0 0.68 0.551 1.231 1.231 1.231 0.049 0 0.098-0.003 0.145-0.008l-0.006 0.001c0.023 0.001 0.049 0.001 0.076 0.001 0.374 0 0.732-0.067 1.063-0.19l-0.021 0.007 0.139 0.468c-0.377 0.143-0.814 0.226-1.27 0.226-0.029 0-0.058-0-0.087-0.001l0.004 0c-0.060 0.007-0.13 0.011-0.2 0.011-0.986 0-1.785-0.799-1.785-1.785 0-0.019 0-0.038 0.001-0.057l-0 0.003c-0.002-0.031-0.003-0.068-0.003-0.105 0-1.020 0.827-1.846 1.846-1.846 0.019 0 0.039 0 0.058 0.001l-0.003-0c0.023-0.001 0.049-0.002 0.076-0.002 0.881 0 1.595 0.714 1.595 1.595 0 0.049-0.002 0.098-0.007 0.147l0-0.006c0.006 0.047 0.009 0.101 0.009 0.156s-0.003 0.109-0.009 0.162l0.001-0.006zM88.087 8.468c0.004-0.031 0.006-0.068 0.006-0.105 0-0.536-0.435-0.971-0.971-0.971-0.014 0-0.028 0-0.042 0.001l0.002-0c-0.601 0.008-1.090 0.479-1.127 1.071l-0 0.003z"></path>
</symbol>
<symbol id="icon-logo-footer" viewBox="0 0 69 32">
<title>logo-footer</title>
<path fill="#fff" style="fill: var(--color1, #fff)" d="M37.456 17.512c0 0.011 0 0.024 0 0.038 0 0.305-0.058 0.596-0.164 0.863l0.006-0.016c-0.107 0.265-0.262 0.489-0.456 0.673l-0.001 0.001c-0.2 0.182-0.438 0.325-0.701 0.418l-0.014 0.004c-0.266 0.097-0.572 0.153-0.892 0.153-0.018 0-0.036-0-0.054-0.001l0.003 0c-0.020 0-0.044 0.001-0.069 0.001-0.509 0-0.995-0.097-1.441-0.274l0.026 0.009c-0.326-0.131-0.605-0.28-0.866-0.456l0.016 0.010c-0.064-0.039-0.105-0.107-0.105-0.186 0-0.063 0.027-0.12 0.070-0.16l0-0 0.498-0.504c0.041-0.035 0.094-0.056 0.152-0.056s0.112 0.021 0.153 0.057l-0-0c0.169 0.13 0.362 0.24 0.57 0.323l0.016 0.006c0.136 0.061 0.295 0.106 0.46 0.128l0.009 0.001c0.107 0.018 0.231 0.029 0.357 0.029h0c0.010 0 0.023 0 0.035 0 0.159 0 0.312-0.024 0.457-0.068l-0.011 0.003c0.143-0.041 0.267-0.102 0.379-0.179l-0.004 0.003c0.206-0.144 0.34-0.38 0.34-0.647 0-0.003-0-0.007-0-0.010v0c0-0.001 0-0.002 0-0.003 0-0.174-0.069-0.333-0.182-0.449l0 0c-0.099-0.109-0.217-0.198-0.351-0.261l-0.007-0.003c-0.107-0.057-0.233-0.111-0.364-0.154l-0.017-0.005-0.363-0.111c-0.013-0.002-0.028-0.003-0.044-0.003s-0.031 0.001-0.046 0.003l0.002-0h-0.070c-0.010 0.002-0.021 0.002-0.032 0.002s-0.023-0.001-0.033-0.003l0.001 0c-0.141-0.041-0.34-0.111-0.586-0.211-0.3-0.115-0.559-0.253-0.798-0.418l0.012 0.008c-0.537-0.298-0.898-0.855-0.914-1.498l-0-0.002c-0.001-0.018-0.001-0.040-0.001-0.062 0-0.339 0.076-0.66 0.212-0.948l-0.006 0.014c0.133-0.264 0.315-0.485 0.535-0.659l0.004-0.003c0.207-0.163 0.452-0.29 0.718-0.366l0.015-0.004c0.239-0.065 0.513-0.104 0.796-0.105h0.001c0.032-0.001 0.070-0.002 0.108-0.002 0.395 0 0.775 0.063 1.131 0.179l-0.026-0.007c0.3 0.099 0.558 0.214 0.802 0.351l-0.022-0.011c0.095 0.059 0.175 0.115 0.252 0.175l-0.006-0.005c0.047 0.042 0.076 0.103 0.076 0.17s-0.029 0.128-0.076 0.17l-0.528 0.528c-0.039 0.037-0.091 0.060-0.149 0.060s-0.111-0.023-0.15-0.060l0 0c-0.117-0.107-0.25-0.198-0.394-0.271l-0.010-0.005c-0.255-0.126-0.555-0.199-0.873-0.199-0.002 0-0.005 0-0.007 0h0c-0.001 0-0.001 0-0.002 0-0.141 0-0.278 0.019-0.407 0.055l0.011-0.003c-0.133 0.029-0.25 0.074-0.359 0.133l0.007-0.004c-0.262 0.135-0.439 0.401-0.445 0.708v0.001c0 0.001-0 0.003-0 0.005 0 0.177 0.069 0.339 0.182 0.458l-0-0c0.102 0.108 0.223 0.198 0.356 0.266l0.007 0.003c0.111 0.043 0.243 0.080 0.38 0.104l0.013 0.002 0.393 0.111h0.117c0.054 0.023 0.119 0.043 0.186 0.057l0.008 0.001c0.136 0.043 0.245 0.085 0.351 0.132l-0.022-0.009 0.416 0.188c0.173 0.088 0.319 0.176 0.458 0.272l-0.013-0.008c0.565 0.295 0.952 0.864 0.984 1.525l0 0.004z"></path>
<path fill="#fff" style="fill: var(--color1, #fff)" d="M44.712 19.516h-0.715c-0.111-0.002-0.207-0.068-0.251-0.162l-0.001-0.002-0.469-1.037-0.539-1.201-1.424-3.147-1.424 3.147h1.647c0 0 0 0 0 0 0.112 0 0.208 0.067 0.251 0.162l0.001 0.002 0.293 0.645c0.015 0.033 0.023 0.071 0.023 0.111 0 0.153-0.122 0.278-0.275 0.281h-2.479l-0.469 1.026c-0.042 0.097-0.137 0.164-0.248 0.164-0.001 0-0.003 0-0.004-0h-0.715c-0.153-0.004-0.275-0.128-0.275-0.281 0-0.040 0.008-0.079 0.024-0.113l-0.001 0.002 2.93-6.447c0.042-0.097 0.137-0.164 0.248-0.164 0.001 0 0.003 0 0.004 0h0.961c0.113 0.001 0.211 0.067 0.257 0.162l0.001 0.002 2.93 6.447c0.018 0.036 0.029 0.079 0.029 0.125 0 0.155-0.126 0.281-0.281 0.281-0.010 0-0.020-0.001-0.030-0.002l0.001 0z"></path>
<path fill="#fff" style="fill: var(--color1, #fff)" d="M49.547 18.561v0.709c0 0.136-0.11 0.246-0.246 0.246h-3.464c-0.136 0-0.246-0.11-0.246-0.246v0-6.511c0-0.136 0.11-0.246 0.246-0.246v0h0.709c0.136 0 0.246 0.11 0.246 0.246v0 5.556h2.508c0.136 0 0.246 0.11 0.246 0.246v0z"></path>
<path fill="#fff" style="fill: var(--color1, #fff)" d="M53.157 13.703h-2.966c-0.133 0-0.24-0.108-0.24-0.24v0-0.715c-0-0.002-0-0.004-0-0.006 0-0.133 0.108-0.24 0.24-0.24 0 0 0 0 0 0h3.798c0.066 0.002 0.125 0.029 0.17 0.070l-0-0 0.51 0.516c0.044 0.044 0.071 0.104 0.071 0.171 0 0.043-0.011 0.083-0.031 0.118l0.001-0.001-3.311 6.013c-0.039 0.077-0.118 0.129-0.209 0.129-0.001 0-0.001 0-0.002 0h-0.82c-0 0-0.001 0-0.001 0-0.133 0-0.24-0.108-0.24-0.24 0-0.043 0.011-0.083 0.031-0.118l-0.001 0.001z"></path>
<path fill="#fff" style="fill: var(--color1, #fff)" d="M60.671 12.736v6.547c0 0.129-0.105 0.234-0.234 0.234v0h-0.738c-0 0-0 0-0 0-0.126 0-0.229-0.102-0.229-0.229 0-0.002 0-0.004 0-0.006v0-2.673h-2.93v2.673c0 0.002 0 0.004 0 0.006 0 0.126-0.102 0.229-0.229 0.229-0 0-0 0-0 0h-0.727c-0.129 0-0.234-0.105-0.234-0.234v0-6.547c0-0.129 0.105-0.234 0.234-0.234v0h0.738c0 0 0 0 0 0 0.126 0 0.229 0.102 0.229 0.229 0 0.002-0 0.004-0 0.006v-0 2.673h2.93v-2.673c-0-0.002-0-0.004-0-0.006 0-0.126 0.102-0.229 0.229-0.229 0 0 0 0 0 0h0.738c0.124 0.006 0.223 0.109 0.223 0.234 0 0 0 0 0 0v-0z"></path>
<path fill="#fff" style="fill: var(--color1, #fff)" d="M68.337 19.516h-0.703c-0.107-0.011-0.195-0.079-0.234-0.174l-0.001-0.002-0.463-1.032-0.545-1.201-1.418-3.147-1.424 3.147h1.641c0.113 0.001 0.211 0.067 0.257 0.162l0.001 0.002 0.287 0.639c0.016 0.034 0.026 0.075 0.026 0.117 0 0.155-0.126 0.281-0.281 0.281-0.001 0-0.001 0-0.002 0h-2.467l-0.469 1.032c-0.044 0.101-0.143 0.17-0.258 0.17h-0.744c-0.001 0-0.001 0-0.002 0-0.155 0-0.281-0.126-0.281-0.281 0-0.043 0.009-0.083 0.026-0.119l-0.001 0.002 2.93-6.447c0.044-0.101 0.143-0.17 0.258-0.17h0.955c0.001 0 0.002-0 0.003-0 0.114 0 0.212 0.069 0.254 0.168l0.001 0.002 2.93 6.447c0.018 0.036 0.029 0.079 0.029 0.124 0 0.155-0.126 0.281-0.281 0.281-0.008 0-0.016-0-0.024-0.001l0.001 0z"></path>
<path fill="#00b27c" style="fill: var(--color2, #00b27c)" d="M24.879 15.672c0 5.321-4.314 9.635-9.635 9.635s-9.635-4.314-9.635-9.635c0-5.321 4.314-9.635 9.635-9.635s9.635 4.314 9.635 9.635z"></path>
<path fill="#d67b4e" style="fill: var(--color3, #d67b4e)" d="M24.545 23.379c0 0.631-0.512 1.143-1.143 1.143s-1.143-0.512-1.143-1.143c0-0.631 0.512-1.143 1.143-1.143s1.143 0.512 1.143 1.143z"></path>
<path fill="#fff" style="fill: var(--color1, #fff)" d="M26.28 26.256c-0.699 0.696-1.663 1.126-2.728 1.126s-2.029-0.43-2.728-1.126l0 0-4.155-4.149q-0.217 0.053-0.44 0.088h-0.082c-0.32 0.052-0.688 0.082-1.063 0.082-0.014 0-0.027-0-0.041-0h0.002c-1.797-0.013-3.437-0.676-4.698-1.766l0.009 0.008c-0.141-0.129-0.293-0.264-0.434-0.41-0.899-0.884-1.563-2.005-1.888-3.262l-0.011-0.049c-0.15-0.547-0.236-1.175-0.236-1.823 0-0.051 0.001-0.103 0.002-0.154l-0 0.008c0.014-0.715 0.127-1.399 0.325-2.046l-0.014 0.053c0.053-0.18 0.217-0.309 0.411-0.309 0.122 0 0.232 0.051 0.31 0.133l0 0 3.452 3.516h1.793l2.174-2.174v-1.764l-3.464-3.516c-0.079-0.078-0.128-0.186-0.128-0.305 0-0.192 0.127-0.355 0.301-0.409l0.003-0.001c0.628-0.195 1.35-0.308 2.099-0.308 4.036 0 7.308 3.272 7.308 7.308 0 0.594-0.071 1.171-0.204 1.723l0.010-0.050 4.103 4.103c0.705 0.701 1.141 1.671 1.141 2.743 0 1.066-0.431 2.032-1.129 2.731l0-0z"></path>
<path fill="#ebeced" style="fill: var(--color4, #ebeced)" d="M13.896 8.674c1.688-0.586 5.919-0.147 7.314 3.71 0.337 0.806 0.532 1.743 0.532 2.725 0 0.872-0.154 1.709-0.437 2.483l0.016-0.050c0.129-9.336-7.426-8.867-7.426-8.867z"></path>
<path fill="#ebeced" style="fill: var(--color4, #ebeced)" d="M18.098 20.683s-8.721 2.661-9.307-6.845c-1.26 3.593 1.536 8.252 7.848 8.006 1.412-0.053 1.553-1.014 1.553-1.014z"></path>
<path fill="#ebeced" style="fill: var(--color4, #ebeced)" d="M21.62 17.87l0.686 0.709 1.412 1.453 1.172 1.225c0.75 0.774 1.383 1.758 1.172 2.843-0.098 0.512-0.285 0.967-0.548 1.368l0.009-0.014c-0.152 0.246-0.34 0.586-0.504 0.832-0.088 0.123-0.188 0.070-0.275 0.188s-0.147 0.275-0.24 0.334c0.918-0.57 1.658-1.346 2.17-2.266l0.016-0.032c0.17-0.324 0.27-0.708 0.27-1.115 0-0.006-0-0.012-0-0.017v0.001c-0.1-1.799-3.815-5.087-3.815-5.087l-1.389-1.412z"></path>
<path fill="#16191a" style="fill: var(--color5, #16191a)" d="M15.051 22.271c-1.798-0.010-3.438-0.674-4.698-1.766l0.009 0.008q-0.229-0.193-0.44-0.404c-0.896-0.886-1.558-2.006-1.888-3.262l-0.011-0.050c-0.15-0.55-0.236-1.181-0.236-1.832 0-0.050 0-0.101 0.002-0.151l-0 0.007c0.014-0.715 0.127-1.399 0.325-2.046l-0.014 0.053c0.046-0.145 0.162-0.256 0.308-0.292l0.003-0.001c0.031-0.008 0.066-0.013 0.102-0.013 0.119 0 0.226 0.050 0.302 0.13l0 0 3.458 3.516h1.793l2.174-2.174v-1.758l-3.464-3.516c-0.075-0.078-0.122-0.184-0.122-0.301 0-0.193 0.126-0.357 0.3-0.413l0.003-0.001c0.633-0.199 1.362-0.314 2.117-0.314 2.014 0 3.837 0.817 5.157 2.137l0 0c1.322 1.309 2.141 3.125 2.141 5.131 0 0.050-0.001 0.101-0.002 0.151l0-0.008c-0.003 0.234-0.194 0.422-0.428 0.422 0 0-0 0-0 0v0c-0.234-0.003-0.422-0.194-0.422-0.428 0-0.002 0-0.004 0-0.006v0c0.001-0.032 0.001-0.070 0.001-0.108 0-3.561-2.886-6.447-6.447-6.447-0.415 0-0.82 0.039-1.213 0.114l0.040-0.006 3.053 3.089c0.079 0.077 0.129 0.185 0.129 0.305v2.145c-0.001 0.119-0.050 0.227-0.129 0.305l-0 0-2.426 2.42c-0.076 0.076-0.182 0.123-0.298 0.123-0.002 0-0.005-0-0.007-0h-2.151c-0.119-0.001-0.227-0.050-0.305-0.129l-0-0-3.036-3.053c-0.062 0.311-0.098 0.67-0.1 1.036v0.001c-0.001 0.049-0.002 0.106-0.002 0.164 0 0.567 0.076 1.116 0.217 1.638l-0.010-0.044c0.298 1.154 0.881 2.146 1.67 2.93l0 0c0.123 0.123 0.258 0.246 0.393 0.358 1.107 0.95 2.557 1.528 4.142 1.528 0.357 0 0.706-0.029 1.047-0.086l-0.037 0.005c0.755-0.123 1.433-0.358 2.051-0.691l-0.035 0.017c0.059-0.032 0.13-0.051 0.205-0.051 0.164 0 0.306 0.091 0.38 0.225l0.001 0.002c0.033 0.059 0.052 0.13 0.052 0.205 0 0.166-0.094 0.309-0.231 0.38l-0.002 0.001c-0.654 0.357-1.415 0.623-2.22 0.756l-0.042 0.006h-0.082c-0.249 0.029-0.538 0.045-0.83 0.045-0.087 0-0.174-0.001-0.261-0.004l0.013 0z"></path>
<path fill="#16191a" style="fill: var(--color5, #16191a)" d="M21.099 18.655c-0.002 0-0.005 0-0.007 0-0.070 0-0.136-0.017-0.194-0.048l0.002 0.001c-0.137-0.073-0.229-0.215-0.229-0.379 0-0.076 0.020-0.147 0.055-0.209l-0.001 0.002c0.459-0.849 0.735-1.856 0.75-2.926l0-0.005c0-0 0-0 0-0 0-0.233 0.189-0.422 0.422-0.422 0.006 0 0.012 0 0.018 0l-0.001-0c0.234 0.007 0.422 0.198 0.422 0.434 0 0 0 0 0 0v0c-0.021 1.219-0.336 2.36-0.875 3.362l0.019-0.039c-0.075 0.137-0.217 0.228-0.381 0.229h-0z"></path>
<path fill="#16191a" style="fill: var(--color5, #16191a)" d="M23.549 27.388c-0.002 0-0.005 0-0.007 0-1.064 0-2.027-0.432-2.724-1.131l-4.22-4.22c-0.127-0.076-0.21-0.212-0.21-0.368 0-0.236 0.192-0.428 0.428-0.428 0.156 0 0.292 0.083 0.367 0.208l0.001 0.002 4.226 4.226c0.543 0.543 1.293 0.879 2.122 0.879 1.657 0 3.001-1.343 3.001-3.001 0-0.002 0-0.004 0-0.006v0c0-0.003 0-0.008 0-0.012 0-0.825-0.336-1.571-0.879-2.11l-4.22-4.22c-0.037-0.062-0.060-0.137-0.060-0.218 0-0.236 0.192-0.428 0.428-0.428 0.080 0 0.156 0.022 0.22 0.061l-0.002-0.001 4.226 4.22c0.699 0.699 1.131 1.665 1.131 2.731 0 2.133-1.729 3.862-3.862 3.862-0 0-0 0-0 0v0z"></path>
<path fill="#ebeced" style="fill: var(--color4, #ebeced)" d="M18.62 21.333c-0.246 0.059-0.425 0.277-0.425 0.536 0 0.158 0.067 0.301 0.173 0.401l0 0c0.358 0.416 2.391 2.286 3.634 3.821l-0.903-0.358-3.88-3.892z"></path>
<path fill="#00b27c" style="fill: var(--color2, #00b27c)" d="M21.902 23.379c0-0.829 0.672-1.5 1.5-1.5s1.5 0.672 1.5 1.5c0 0.829-0.672 1.5-1.5 1.5v0c-0.829 0-1.5-0.672-1.5-1.5v0z"></path>
<path fill="#16191a" style="fill: var(--color5, #16191a)" d="M23.408 25.313c-0.14-0.002-0.276-0.017-0.407-0.043l0.014 0.002c-0.194-0.040-0.367-0.104-0.525-0.192l0.009 0.005c-0.147-0.070-0.247-0.217-0.247-0.388 0-0.236 0.192-0.428 0.428-0.428 0.080 0 0.155 0.022 0.22 0.061l-0.002-0.001c0.083 0.044 0.179 0.079 0.281 0.099l0.007 0.001c0.068 0.015 0.145 0.024 0.225 0.024 0.514 0 0.942-0.365 1.040-0.85l0.001-0.007c0.014-0.065 0.022-0.139 0.022-0.216 0-0.515-0.363-0.945-0.847-1.049l-0.007-0.001c-0.067-0.015-0.143-0.023-0.222-0.023-0.218 0-0.421 0.066-0.59 0.178l0.004-0.002c-0.235 0.155-0.402 0.397-0.456 0.679l-0.001 0.007c-0.058 0.175-0.221 0.299-0.412 0.299-0.24 0-0.434-0.194-0.434-0.434 0-0.014 0.001-0.029 0.002-0.043l-0 0.002c0.195-0.878 0.967-1.524 1.89-1.524 1.068 0 1.934 0.866 1.934 1.934 0 1.065-0.861 1.929-1.925 1.934h-0z"></path>
<path fill="#231f20" style="fill: var(--color6, #231f20)" d="M10.297 11.88h-7.725c-0.217-0.026-0.383-0.209-0.383-0.431s0.166-0.405 0.381-0.431l0.002-0h7.725c0.217 0.026 0.383 0.209 0.383 0.431s-0.166 0.405-0.381 0.431l-0.002 0z"></path>
<path fill="#fff" style="fill: var(--color1, #fff)" d="M25.788 18.297c-0.017 0.003-0.036 0.004-0.056 0.004s-0.039-0.002-0.058-0.005l0.002 0c-0.185-0.050-0.319-0.216-0.319-0.414 0-0.038 0.005-0.076 0.015-0.111l-0.001 0.003c0.223-0.81 0.352-1.741 0.352-2.701 0-0 0-0.001 0-0.001v0c0-0.020 0-0.043 0-0.066 0-5.881-4.768-10.649-10.649-10.649-3.382 0-6.396 1.577-8.347 4.035l-0.017 0.022c-0.079 0.1-0.201 0.163-0.337 0.163-0.237 0-0.43-0.192-0.43-0.43 0-0.101 0.035-0.194 0.093-0.268l-0.001 0.001c2.13-2.667 5.382-4.361 9.029-4.361 6.367 0 11.528 5.161 11.528 11.528 0 1.042-0.138 2.052-0.397 3.012l0.019-0.081c-0.048 0.184-0.213 0.317-0.409 0.317-0.007 0-0.013-0-0.020-0l0.001 0z"></path>
<path fill="#fff" style="fill: var(--color1, #fff)" d="M14.57 32v0c-0.124-0.004-0.234-0.060-0.31-0.146l-0-0-7.924-8.903c-1.793-2.019-2.892-4.69-2.901-7.617v-0.213c0.013-0.742 0.091-1.457 0.23-2.151l-0.013 0.076c0.029-0.211 0.208-0.372 0.424-0.372 0.236 0 0.428 0.192 0.428 0.428 0 0.038-0.005 0.076-0.015 0.111l0.001-0.003c-0.119 0.588-0.189 1.266-0.193 1.96v0.003c0.001 0.008 0.002 0.017 0.002 0.026s-0.001 0.018-0.002 0.027l0-0.001v0.082c-0 0.012-0 0.026-0 0.040 0 1.61 0.361 3.137 1.006 4.502l-0.027-0.064c0.46 0.995 1.029 1.851 1.708 2.606l-0.008-0.009 7.619 8.557 4.255-4.419c0.076-0.072 0.18-0.116 0.293-0.116s0.217 0.044 0.293 0.116l-0-0c0.073 0.076 0.118 0.179 0.118 0.293s-0.045 0.217-0.118 0.293l0-0-4.577 4.753c-0.070 0.082-0.172 0.136-0.286 0.141l-0.001 0z"></path>
<path fill="#fff" style="fill: var(--color1, #fff)" d="M4.648 11.581c-0.002 0-0.005 0-0.008 0-0.052 0-0.102-0.011-0.147-0.030l0.002 0.001c-0.162-0.064-0.274-0.218-0.274-0.399 0-0.055 0.010-0.107 0.029-0.155l-0.001 0.003c0.204-0.51 0.401-0.924 0.619-1.326l-0.033 0.065c0.072-0.14 0.216-0.234 0.381-0.234 0.075 0 0.146 0.019 0.207 0.053l-0.002-0.001c0.139 0.074 0.232 0.218 0.232 0.384 0 0.074-0.019 0.144-0.051 0.205l0.001-0.002c-0.176 0.319-0.355 0.705-0.51 1.103l-0.024 0.069c-0.068 0.157-0.221 0.264-0.399 0.264-0.008 0-0.016-0-0.024-0.001l0.001 0z"></path>
<path fill="#fff" style="fill: var(--color1, #fff)" d="M15.015 26.596c-4.555-0.017-8.492-2.643-10.396-6.461l-0.030-0.068c-0.709-1.408-1.139-3.065-1.172-4.818l-0-0.011v-0.223c0.001-0.788 0.078-1.558 0.223-2.303l-0.012 0.076c0.042-0.2 0.216-0.347 0.425-0.347 0.028 0 0.055 0.003 0.082 0.008l-0.003-0c0.199 0.044 0.346 0.22 0.346 0.43 0 0.026-0.002 0.052-0.007 0.077l0-0.003c-0.127 0.619-0.199 1.331-0.199 2.060 0 0.001 0 0.002 0 0.004v-0 0.117c0.001 0.007 0.002 0.015 0.002 0.023s-0.001 0.016-0.002 0.024l0-0.001c0.014 1.645 0.406 3.196 1.094 4.573l-0.027-0.060c1.792 3.607 5.449 6.043 9.676 6.048h0.001c0.006 0 0.014 0 0.021 0 0.406 0 0.806-0.023 1.199-0.069l-0.048 0.005c0.771-0.084 1.472-0.236 2.143-0.455l-0.075 0.021c0.045-0.017 0.096-0.027 0.15-0.027 0.236 0 0.428 0.192 0.428 0.428 0 0.198-0.135 0.365-0.317 0.413l-0.003 0.001c-0.646 0.216-1.403 0.382-2.185 0.465l-0.048 0.004c-0.365 0.045-0.788 0.070-1.217 0.070-0.017 0-0.034-0-0.051-0h0.003z"></path>
<path fill="#fff" style="fill: var(--color1, #fff)" d="M17.582 3.001h-0.428c-0.236 0-0.428-0.192-0.428-0.428s0.192-0.428 0.428-0.428v-0.856c0 0 0-0 0-0 0-0.237-0.191-0.43-0.428-0.434h-3.429c-0.227 0.016-0.404 0.204-0.404 0.433 0 0 0 0.001 0 0.001v-0 0.856c0.236 0 0.428 0.192 0.428 0.428s-0.192 0.428-0.428 0.428v0h-0.428c-0.002 0-0.004 0-0.006 0-0.236 0-0.428-0.192-0.428-0.428 0 0 0-0 0-0v0-1.284c0-0 0-0 0-0 0-0.704 0.564-1.276 1.265-1.289l0.001-0h3.434c0 0 0 0 0 0 0.709 0 1.284 0.575 1.284 1.284 0 0.002 0 0.004 0 0.006v-0 1.284c0 0 0 0 0 0 0 0.236-0.192 0.428-0.428 0.428-0.002 0-0.004 0-0.006-0h0z"></path>
<path fill="#fff" style="fill: var(--color1, #fff)" d="M24.973 6.863c-0 0-0.001 0-0.002 0-0.132 0-0.25-0.061-0.326-0.157l-0.001-0.001c-0.534-0.648-1.11-1.224-1.737-1.741l-0.022-0.017c-0.090-0.080-0.146-0.196-0.146-0.325 0-0.099 0.033-0.19 0.088-0.262l-0.001 0.001c0.079-0.091 0.195-0.148 0.324-0.148 0.099 0 0.191 0.034 0.263 0.090l-0.001-0.001c0.691 0.564 1.304 1.175 1.852 1.841l0.018 0.023c0.055 0.072 0.088 0.163 0.088 0.261 0 0.129-0.056 0.245-0.146 0.324l-0 0c-0.067 0.062-0.154 0.103-0.25 0.111l-0.002 0z"></path>
<path fill="#fff" style="fill: var(--color1, #fff)" d="M10.297 11.581h-7.725c-0.236 0-0.428-0.192-0.428-0.428s0.192-0.428 0.428-0.428v0h7.725c0.236 0 0.428 0.192 0.428 0.428s-0.192 0.428-0.428 0.428v0z"></path>
<path fill="#fff" style="fill: var(--color1, #fff)" d="M7.771 8.58h-7.344c-0.236 0-0.428-0.192-0.428-0.428s0.192-0.428 0.428-0.428v0h7.344c0.236 0 0.428 0.192 0.428 0.428s-0.192 0.428-0.428 0.428v0z"></path>
</symbol>
<symbol id="icon-menu" viewBox="0 0 44 32">
<title>menu</title>
<path fill="#00b27c" style="fill: var(--color2, #00b27c)" d="M0 0h44.308v2.462h-44.308v-2.462z"></path>
<path fill="#00b27c" style="fill: var(--color2, #00b27c)" d="M0 14.769h44.308v2.462h-44.308v-2.462z"></path>
<path fill="#00b27c" style="fill: var(--color2, #00b27c)" d="M0 29.538h44.308v2.462h-44.308v-2.462z"></path>
</symbol>
<symbol id="icon-user" viewBox="0 0 32 32">
<title>user</title>
<path fill="#00b27c" style="fill: var(--color2, #00b27c)" d="M16 0c-8.837 0-16 7.163-16 16s7.163 16 16 16c8.837 0 16-7.163 16-16v0c0-8.837-7.163-16-16-16v0zM16 29.92c-4.117-0.001-7.816-1.787-10.366-4.627l-0.011-0.013c0.871-1.927 2.194-3.518 3.839-4.685l0.036-0.024c1.813-1.28 4.069-2.045 6.503-2.045s4.69 0.766 6.539 2.069l-0.036-0.024c1.677 1.182 2.999 2.761 3.845 4.603l0.029 0.071c-2.556 2.865-6.256 4.664-10.375 4.674h-0.002zM11.211 11.691c0-2.645 2.144-4.789 4.789-4.789s4.789 2.144 4.789 4.789c0 2.645-2.144 4.789-4.789 4.789v0c-2.642-0.006-4.782-2.147-4.789-4.788v-0.001zM27.771 23.429c-1.661-2.955-4.317-5.184-7.505-6.258l-0.095-0.028c1.64-1.266 2.686-3.232 2.686-5.442 0-3.787-3.070-6.857-6.857-6.857s-6.857 3.070-6.857 6.857c0 2.21 1.046 4.177 2.67 5.431l0.016 0.012c-3.283 1.102-5.939 3.331-7.565 6.218l-0.035 0.068c-1.348-2.106-2.149-4.674-2.149-7.43 0-7.688 6.232-13.92 13.92-13.92s13.92 6.232 13.92 13.92c0 2.756-0.801 5.324-2.182 7.486l0.033-0.056z"></path>
</symbol>
<symbol id="icon-element-shade" viewBox="0 0 97 32">
<title>element-shade</title>
<path fill="#f0f0f0" style="fill: var(--color7, #f0f0f0)" d="M93.452 32h-68.443c-0.041 0.002-0.088 0.002-0.136 0.002-2.102 0-3.805-1.704-3.805-3.805s1.704-3.805 3.805-3.805c0.048 0 0.096 0.001 0.143 0.003l-0.007-0h68.443c2.042 0.075 3.669 1.749 3.669 3.803s-1.627 3.727-3.662 3.802l-0.007 0z"></path>
<path fill="#d8dfe1" style="fill: var(--color8, #d8dfe1)" d="M91.259 29.389h-68.443c-0.041 0.002-0.088 0.002-0.136 0.002-2.102 0-3.805-1.704-3.805-3.805s1.704-3.805 3.805-3.805c0.048 0 0.096 0.001 0.143 0.003l-0.007-0h68.443c2.042 0.075 3.669 1.749 3.669 3.803s-1.627 3.727-3.662 3.802l-0.007 0z"></path>
<path fill="#f0f0f0" style="fill: var(--color7, #f0f0f0)" d="M71.23 9.671h-65.072c-2.042-0.075-3.669-1.749-3.669-3.803s1.627-3.727 3.662-3.802l0.007-0h65.072c0.041-0.002 0.088-0.002 0.136-0.002 2.102 0 3.805 1.704 3.805 3.805s-1.704 3.805-3.805 3.805c-0.048 0-0.096-0.001-0.143-0.003l0.007 0z"></path>
<path fill="#d8dfe1" style="fill: var(--color8, #d8dfe1)" d="M68.872 7.605h-65.072c-2.042-0.075-3.669-1.749-3.669-3.803s1.627-3.727 3.662-3.802l0.007-0h65.072c0.041-0.002 0.088-0.002 0.136-0.002 2.102 0 3.805 1.704 3.805 3.805s-1.704 3.805-3.805 3.805c-0.048 0-0.096-0.001-0.143-0.003l0.007 0z"></path>
</symbol>
<symbol id="icon-app-store-dark" viewBox="0 0 98 32">
<title>app-store-dark</title>
<path fill="#000" style="fill: var(--color9, #000)" d="M4.326 0.004h89.147c2.389 0 4.326 1.937 4.326 4.326v23.348c0 2.389-1.937 4.326-4.326 4.326v0h-89.154c0 0 0 0 0 0-2.385 0-4.319-1.933-4.319-4.319 0-0.003 0-0.005 0-0.008v0-23.348c0-2.389 1.937-4.326 4.326-4.326v0z"></path>
<path fill="#fff" style="fill: var(--color1, #fff)" d="M25.489 21.123c-0.442 1.026-0.929 1.905-1.492 2.727l0.035-0.055c-0.932 1.413-2.236 3.175-3.867 3.19-1.457 0-1.813-0.939-3.772-0.925s-2.367 0.947-3.809 0.932c-1.624 0-2.869-1.609-3.794-3.022-2.6-3.962-2.877-8.608-1.267-11.077 0.971-1.598 2.661-2.675 4.61-2.781l0.015-0.001c1.726 0 2.804 0.939 4.231 0.939s2.221-0.947 4.209-0.947c1.754 0.080 3.288 0.952 4.264 2.264l0.011 0.015c-1.485 0.846-2.47 2.419-2.47 4.222 0 2.047 1.269 3.797 3.064 4.506l0.033 0.011z"></path>
<path fill="#fff" style="fill: var(--color1, #fff)" d="M19.117 8.553c0.683-0.828 1.097-1.899 1.097-3.067 0-0.179-0.010-0.356-0.029-0.53l0.002 0.022c-1.36 0.165-2.538 0.831-3.366 1.806l-0.006 0.008c-0.701 0.79-1.128 1.835-1.128 2.981 0 0.179 0.010 0.355 0.031 0.529l-0.002-0.021c1.386-0.026 2.61-0.693 3.393-1.716l0.008-0.011z"></path>
<path fill="#fff" style="fill: var(--color1, #fff)" d="M33.427 12.865l-3.729 10.968h1.711l1.107-3.372h3.641l1.143 3.372h1.748l-3.765-10.968zM34.309 14.664c0.131 0.488 0.262 0.998 0.437 1.551l1.005 2.913h-2.855l0.99-2.913c0.146-0.495 0.291-1.005 0.422-1.551z"></path>
<path fill="#fff" style="fill: var(--color1, #fff)" d="M43.842 15.705c-0.040-0.002-0.086-0.003-0.133-0.003-1.024 0-1.932 0.496-2.498 1.262l-0.006 0.009-0.066-1.092h-1.515v0.146c0.044 0.677 0.066 1.457 0.066 2.505v8.419h1.66v-3.918c0.537 0.618 1.324 1.006 2.202 1.006 0.025 0 0.049-0 0.074-0.001l-0.004 0c0.010 0 0.021 0 0.033 0 0.975 0 1.855-0.408 2.478-1.062l0.001-0.001c0.695-0.793 1.119-1.839 1.119-2.984 0-0.075-0.002-0.15-0.005-0.224l0 0.010c0.002-0.049 0.003-0.107 0.003-0.166 0-1.045-0.367-2.004-0.978-2.755l0.006 0.008c-0.583-0.708-1.459-1.156-2.439-1.158h-0zM43.434 17.081c1.457 0 2.141 1.369 2.141 2.724 0 1.755-0.845 2.84-2.185 2.84-0.007 0-0.015 0-0.024 0-0.937 0-1.724-0.641-1.947-1.508l-0.003-0.014c-0.038-0.143-0.059-0.307-0.059-0.476 0-0.022 0-0.044 0.001-0.067l-0 0.003v-1.347c0.004-0.149 0.023-0.292 0.054-0.43l-0.003 0.015v-0.131c0.229-0.924 1.047-1.599 2.023-1.609h0.001z"></path>
<path fill="#fff" style="fill: var(--color1, #fff)" d="M52.391 15.705c-0.040-0.002-0.086-0.003-0.133-0.003-1.026 0-1.937 0.496-2.505 1.262l-0.006 0.008-0.066-1.092h-1.515v0.146c0.044 0.685 0.066 1.457 0.066 2.505v8.419h1.66v-3.918c0.537 0.618 1.324 1.006 2.202 1.006 0.025 0 0.049-0 0.074-0.001l-0.004 0c0.008 0 0.018 0 0.028 0 0.979 0 1.863-0.408 2.491-1.062l0.001-0.001c0.691-0.796 1.112-1.842 1.112-2.986 0-0.074-0.002-0.148-0.005-0.221l0 0.010c0.002-0.049 0.003-0.107 0.003-0.166 0-1.045-0.367-2.004-0.978-2.755l0.006 0.008c-0.58-0.708-1.454-1.156-2.432-1.158h-0zM51.976 17.081c1.457 0 2.141 1.369 2.141 2.724 0 1.755-0.845 2.84-2.185 2.84-0.005 0-0.012 0-0.018 0-0.938 0-1.727-0.64-1.953-1.508l-0.003-0.014c-0.037-0.153-0.058-0.329-0.058-0.51 0-0.010 0-0.020 0-0.030v0.002-1.347c0.004-0.149 0.023-0.292 0.054-0.43l-0.003 0.015v-0.131c0.229-0.924 1.047-1.599 2.023-1.609h0.001z"></path>
<path fill="#fff" style="fill: var(--color1, #fff)" d="M63.097 17.482c-1.551-0.604-2.046-1.071-2.046-1.944 0-0.728 0.583-1.457 1.886-1.457 0.028-0.001 0.060-0.001 0.093-0.001 0.681 0 1.32 0.181 1.87 0.499l-0.018-0.010 0.138 0.087 0.473-1.384-0.095-0.058c-0.647-0.342-1.415-0.543-2.229-0.543-0.066 0-0.132 0.001-0.198 0.004l0.009-0c-2.112 0-3.59 1.245-3.59 3.037 0 1.457 0.925 2.447 2.913 3.168 1.406 0.532 1.93 1.071 1.93 1.995 0 1.041-0.808 1.69-2.112 1.69-0.012 0-0.026 0-0.040 0-0.874 0-1.69-0.247-2.383-0.674l0.020 0.011-0.146-0.087-0.444 1.413 0.080 0.051c0.798 0.458 1.754 0.728 2.773 0.728 0.011 0 0.021-0 0.032-0h-0.002c2.855 0 3.867-1.733 3.867-3.226s-0.794-2.491-2.782-3.299z"></path>
<path fill="#fff" style="fill: var(--color1, #fff)" d="M68.879 13.994l-1.631 0.51v1.376h-1.187v1.325h1.187v4.064c-0.008 0.085-0.013 0.184-0.013 0.285 0 0.684 0.221 1.316 0.595 1.829l-0.006-0.009c0.386 0.388 0.921 0.628 1.512 0.628 0.034 0 0.068-0.001 0.102-0.002l-0.005 0c0.014 0 0.031 0 0.048 0 0.441 0 0.865-0.072 1.261-0.205l-0.028 0.008h0.095l-0.080-1.333-0.16 0.051c-0.198 0.057-0.425 0.090-0.66 0.090-0.039 0-0.078-0.001-0.117-0.003l0.005 0c-0.641 0-0.918-0.408-0.918-1.362v-4.042h2.003v-1.325h-2.003z"></path>
<path fill="#fff" style="fill: var(--color1, #fff)" d="M75.011 15.705c-2.316 0-3.94 1.733-3.94 4.209s1.544 4.122 3.794 4.122v0c1.901 0 3.94-1.318 3.94-4.224 0.001-0.039 0.002-0.085 0.002-0.131 0-1.070-0.401-2.046-1.062-2.787l0.004 0.004c-0.675-0.735-1.64-1.194-2.713-1.194-0.009 0-0.018 0-0.027 0h0.001zM74.968 17.016c1.457 0 2.185 1.457 2.185 2.804 0 1.668-0.925 2.877-2.185 2.877v0c-1.253 0-2.185-1.187-2.185-2.826-0.058-1.42 0.626-2.855 2.163-2.855z"></path>
<path fill="#fff" style="fill: var(--color1, #fff)" d="M83.903 15.785h-0.095c-0.121-0.032-0.26-0.051-0.403-0.051-0.004 0-0.009 0-0.013 0h0.001c-0.912 0.020-1.696 0.552-2.077 1.319l-0.006 0.014-0.044-1.158h-1.457v0.117c0.051 0.655 0.066 1.398 0.066 2.389v5.426h1.66v-4.239c-0.002-0.043-0.002-0.093-0.002-0.144 0-0.183 0.011-0.363 0.034-0.54l-0.002 0.021c0.082-0.915 0.825-1.633 1.744-1.675l0.004-0c0.066-0.004 0.144-0.006 0.222-0.006s0.156 0.002 0.233 0.006l-0.011-0h0.175z"></path>
<path fill="#fff" style="fill: var(--color1, #fff)" d="M87.639 15.69c-2.185 0-3.758 1.762-3.758 4.29s1.537 4.005 3.911 4.005c0.046 0.001 0.1 0.002 0.155 0.002 0.894 0 1.744-0.186 2.515-0.52l-0.041 0.016 0.102-0.044-0.32-1.238-0.138 0.058c-0.572 0.236-1.235 0.373-1.931 0.373-0.051 0-0.102-0.001-0.152-0.002l0.007 0c-0.055 0.005-0.119 0.007-0.184 0.007-1.275 0-2.309-1.034-2.309-2.309 0-0.036 0.001-0.072 0.002-0.107l-0 0.005h5.36v-0.109c0.033-0.194 0.051-0.417 0.051-0.644 0-0.017-0-0.034-0-0.050l0 0.003c0.022-1.719-0.845-3.736-3.27-3.736zM87.523 16.95c0.020-0.001 0.044-0.001 0.069-0.001 0.449 0 0.857 0.178 1.155 0.468l-0-0c0.353 0.41 0.568 0.948 0.568 1.536 0 0.003 0 0.006-0 0.009v-0h-3.787c0.059-1.081 0.916-1.943 1.989-2.010l0.006-0z"></path>
<path fill="#fff" style="fill: var(--color1, #fff)" d="M29.699 5.371c0.476-0.070 1.024-0.109 1.583-0.109 0.012 0 0.024 0 0.036 0h-0.002c0.084-0.007 0.182-0.011 0.281-0.011 0.77 0 1.484 0.244 2.067 0.659l-0.011-0.007c0.502 0.422 0.819 1.051 0.819 1.753 0 0.042-0.001 0.083-0.003 0.124l0-0.006c0.001 0.029 0.002 0.064 0.002 0.098 0 0.756-0.319 1.438-0.831 1.918l-0.001 0.001c-0.625 0.462-1.41 0.74-2.26 0.74-0.104 0-0.207-0.004-0.309-0.012l0.013 0.001c-0.047 0.001-0.102 0.001-0.158 0.001-0.424 0-0.843-0.022-1.256-0.064l0.052 0.004zM30.427 9.966c0.109 0.008 0.236 0.012 0.364 0.012s0.255-0.004 0.381-0.013l-0.017 0.001c1.595 0 2.454-0.801 2.454-2.185 0.058-1.223-0.706-1.952-2.294-1.952-0.026-0.001-0.057-0.001-0.087-0.001-0.278 0-0.55 0.027-0.813 0.078l0.027-0.004z"></path>
<path fill="#fff" style="fill: var(--color1, #fff)" d="M37.142 10.578c-0.033 0.002-0.071 0.003-0.11 0.003-1.038 0-1.879-0.841-1.879-1.879 0-0.017 0-0.033 0.001-0.049l-0 0.002c-0.001-0.017-0.001-0.036-0.001-0.056 0-1.062 0.861-1.923 1.923-1.923 0.046 0 0.092 0.002 0.138 0.005l-0.006-0c0.044-0.004 0.095-0.006 0.147-0.006 1.022 0 1.85 0.828 1.85 1.85 0 0.023-0 0.045-0.001 0.067l0-0.003c0.001 0.019 0.001 0.041 0.001 0.063 0 1.066-0.864 1.93-1.93 1.93-0.047 0-0.093-0.002-0.138-0.005l0.006 0zM37.142 10.068c0.706-0.032 1.267-0.613 1.267-1.324 0-0.047-0.002-0.093-0.007-0.138l0 0.006c0.009-0.058 0.015-0.124 0.015-0.192 0-0.7-0.567-1.267-1.267-1.267s-1.267 0.567-1.267 1.267c0 0.068 0.005 0.134 0.016 0.199l-0.001-0.007c-0.006 0.046-0.009 0.1-0.009 0.154 0 0.7 0.552 1.271 1.244 1.302l0.003 0z"></path>
<path fill="#fff" style="fill: var(--color1, #fff)" d="M40.375 6.762l0.553 1.886c0.109 0.422 0.226 0.808 0.299 1.194v0c0.095-0.379 0.226-0.772 0.364-1.187l0.677-1.893h0.699l0.641 1.864c0.153 0.444 0.277 0.838 0.371 1.216v0c0.095-0.478 0.206-0.883 0.341-1.277l-0.020 0.068 0.59-1.872h0.728l-1.333 3.729h-0.685l-0.634-1.748c-0.121-0.318-0.249-0.729-0.354-1.148l-0.018-0.083c-0.11 0.49-0.233 0.902-0.38 1.302l0.023-0.071-0.728 1.748h-0.685l-1.223-3.729z"></path>
<path fill="#fff" style="fill: var(--color1, #fff)" d="M46.369 7.774c0-0.393 0-0.728 0-1.012h0.663l0.044 0.612c0.28-0.42 0.753-0.694 1.289-0.694 0.026 0 0.051 0.001 0.077 0.002l-0.004-0c0.016-0.001 0.035-0.001 0.055-0.001 0.78 0 1.413 0.633 1.413 1.413 0 0.062-0.004 0.123-0.012 0.183l0.001-0.007v2.221h-0.728v-2.185c0-0.597-0.248-1.107-0.961-1.107-0.466 0.002-0.861 0.303-1.003 0.721l-0.002 0.008c-0.032 0.088-0.051 0.19-0.051 0.296 0 0.006 0 0.012 0 0.018v-0.001 2.25h-0.728z"></path>
<path fill="#fff" style="fill: var(--color1, #fff)" d="M51.117 5.021h0.728v5.469h-0.728z"></path>
<path fill="#fff" style="fill: var(--color1, #fff)" d="M54.809 10.578c-0.033 0.002-0.071 0.003-0.11 0.003-1.038 0-1.879-0.841-1.879-1.879 0-0.017 0-0.033 0.001-0.049l-0 0.002c-0.001-0.017-0.001-0.036-0.001-0.056 0-1.062 0.861-1.923 1.923-1.923 0.046 0 0.092 0.002 0.138 0.005l-0.006-0c0.044-0.004 0.095-0.006 0.147-0.006 1.022 0 1.85 0.828 1.85 1.85 0 0.023-0 0.045-0.001 0.067l0-0.003c0.001 0.019 0.001 0.040 0.001 0.062 0 1.066-0.864 1.93-1.93 1.93-0.044 0-0.087-0.001-0.131-0.004l0.006 0zM54.809 10.068c0.706-0.032 1.267-0.613 1.267-1.324 0-0.047-0.002-0.093-0.007-0.138l0 0.006c0.009-0.058 0.015-0.124 0.015-0.192 0-0.7-0.567-1.267-1.267-1.267s-1.267 0.567-1.267 1.267c0 0.068 0.005 0.134 0.016 0.199l-0.001-0.007c-0.006 0.046-0.009 0.1-0.009 0.154 0 0.7 0.552 1.271 1.244 1.302l0.003 0z"></path>
<path fill="#fff" style="fill: var(--color1, #fff)" d="M60.737 9.595c-0 0.007-0 0.015-0 0.023 0 0.308 0.021 0.61 0.062 0.907l-0.004-0.034h-0.67l-0.073-0.466c-0.295 0.34-0.729 0.554-1.212 0.554-0.019 0-0.039-0-0.058-0.001l0.003 0c-0.038 0.004-0.081 0.007-0.125 0.007-0.605 0-1.099-0.477-1.128-1.075l-0-0.003c0-0.903 0.889-1.398 2.491-1.391v-0.102c0-0.306-0.095-0.874-0.939-0.867-0.008-0-0.018-0-0.028-0-0.391 0-0.758 0.103-1.075 0.283l0.011-0.006-0.167-0.452c0.386-0.202 0.844-0.321 1.329-0.321 0.014 0 0.028 0 0.042 0l-0.002-0c0.062-0.010 0.133-0.015 0.205-0.015 0.764 0 1.384 0.62 1.384 1.384 0 0.054-0.003 0.108-0.009 0.16l0.001-0.006zM60.009 8.59c-0.823 0-1.755 0.117-1.755 0.838-0 0.006-0 0.014-0 0.022 0 0.35 0.284 0.634 0.634 0.634 0.034 0 0.066-0.003 0.099-0.008l-0.004 0c0.014 0.001 0.030 0.001 0.047 0.001 0.414 0 0.772-0.246 0.934-0.599l0.003-0.006c0.007-0.032 0.010-0.068 0.010-0.106s-0.004-0.074-0.011-0.109l0.001 0.003z"></path>
<path fill="#fff" style="fill: var(--color1, #fff)" d="M65.544 5.021v4.508c0 0.328 0 0.728 0 0.961h-0.677v-0.648c-0.28 0.442-0.767 0.731-1.32 0.731-0.030 0-0.060-0.001-0.089-0.002l0.004 0c-0.001 0-0.002 0-0.004 0-0.981 0-1.777-0.796-1.777-1.777 0-0.041 0.001-0.082 0.004-0.122l-0 0.005c-0.003-0.041-0.005-0.090-0.005-0.139 0-1.015 0.814-1.839 1.824-1.857l0.002-0c0.034-0.003 0.074-0.005 0.115-0.005 0.461 0 0.87 0.221 1.128 0.562l0.003 0.004v-2.185zM64.816 8.284c0.005-0.045 0.008-0.097 0.008-0.149s-0.003-0.104-0.009-0.156l0.001 0.006c-0.137-0.454-0.551-0.779-1.041-0.779-0.044 0-0.087 0.003-0.129 0.008l0.005-0c-0.697 0.009-1.258 0.576-1.258 1.274 0 0.064 0.005 0.127 0.014 0.189l-0.001-0.007c-0.006 0.046-0.010 0.099-0.010 0.153 0 0.682 0.551 1.235 1.233 1.238h0c0.007 0 0.016 0 0.025 0 0.509 0 0.94-0.337 1.080-0.801l0.002-0.008c0.006-0.045 0.009-0.097 0.009-0.149s-0.003-0.104-0.009-0.155l0.001 0.006z"></path>
<path fill="#fff" style="fill: var(--color1, #fff)" d="M70.27 10.578c-0.033 0.002-0.071 0.003-0.11 0.003-1.034 0-1.872-0.838-1.872-1.872 0-0.019 0-0.038 0.001-0.057l-0 0.003c-0.001-0.019-0.001-0.041-0.001-0.063 0-1.058 0.858-1.915 1.915-1.915 0.049 0 0.098 0.002 0.146 0.005l-0.006-0c0.042-0.003 0.090-0.005 0.139-0.005 1.022 0 1.85 0.828 1.85 1.85 0 0.022-0 0.045-0.001 0.067l0-0.003c0.001 0.019 0.001 0.040 0.001 0.062 0 1.066-0.864 1.93-1.93 1.93-0.044 0-0.087-0.001-0.131-0.004l0.006 0zM70.27 10.068c0.703-0.036 1.259-0.615 1.259-1.324 0-0.047-0.002-0.093-0.007-0.138l0 0.006c0.009-0.058 0.015-0.124 0.015-0.192 0-0.7-0.567-1.267-1.267-1.267s-1.267 0.567-1.267 1.267c0 0.068 0.005 0.134 0.016 0.199l-0.001-0.007c-0.005 0.044-0.008 0.095-0.008 0.147 0 0.704 0.555 1.278 1.251 1.309l0.003 0z"></path>
<path fill="#fff" style="fill: var(--color1, #fff)" d="M73.285 7.774c0-0.393 0-0.728 0-1.012h0.67l0.044 0.612c0.284-0.421 0.758-0.694 1.296-0.694 0.026 0 0.051 0.001 0.076 0.002l-0.004-0c0.016-0.001 0.035-0.001 0.055-0.001 0.78 0 1.413 0.633 1.413 1.413 0 0.062-0.004 0.123-0.012 0.183l0.001-0.007v2.221h-0.728v-2.185c0-0.597-0.255-1.107-0.961-1.107-0.015-0.001-0.033-0.001-0.051-0.001-0.557 0-1.009 0.45-1.012 1.006v2.287h-0.728z"></path>
<path fill="#fff" style="fill: var(--color1, #fff)" d="M80.757 5.873v0.888h1.078v0.524h-1.078v2.010c0 0.466 0.146 0.728 0.561 0.728 0.011 0 0.024 0 0.036 0 0.142 0 0.28-0.019 0.412-0.054l-0.011 0.003v0.517c-0.198 0.060-0.425 0.095-0.661 0.095-0.003 0-0.007 0-0.010-0h0.001c-0.016 0.001-0.034 0.001-0.052 0.001-0.293 0-0.56-0.108-0.765-0.286l0.001 0.001c-0.181-0.23-0.291-0.524-0.291-0.844 0-0.049 0.003-0.097 0.008-0.145l-0.001 0.006v-2.032h-0.604v-0.524h0.648v-0.685z"></path>
<path fill="#fff" style="fill: var(--color1, #fff)" d="M82.68 5.021h0.728v2.33c0.129-0.209 0.313-0.374 0.531-0.477l0.008-0.003c0.216-0.119 0.474-0.19 0.749-0.19 0.008 0 0.016 0 0.025 0h-0.001c0.017-0.001 0.036-0.001 0.056-0.001 0.78 0 1.413 0.633 1.413 1.413 0 0.065-0.004 0.128-0.013 0.19l0.001-0.007v2.185h-0.728v-2.112c0-0.604-0.248-1.107-0.961-1.107-0.002 0-0.004-0-0.007-0-0.452 0-0.84 0.277-1.003 0.67l-0.003 0.007c-0.033 0.086-0.052 0.186-0.052 0.29 0 0.011 0 0.021 0.001 0.031l-0-0.002v2.25h-0.728z"></path>
<path fill="#fff" style="fill: var(--color1, #fff)" d="M87.858 8.743c-0.001 0.014-0.001 0.030-0.001 0.046 0 0.696 0.564 1.26 1.26 1.26 0.054 0 0.108-0.003 0.16-0.010l-0.006 0.001c0.025 0.001 0.054 0.001 0.083 0.001 0.381 0 0.745-0.070 1.081-0.197l-0.021 0.007 0.138 0.481c-0.387 0.153-0.835 0.241-1.303 0.241-0.028 0-0.056-0-0.085-0.001l0.004 0c-0.059 0.007-0.128 0.011-0.197 0.011-1.018 0-1.843-0.825-1.843-1.843 0-0.017 0-0.033 0.001-0.049l-0 0.002c-0.003-0.037-0.004-0.081-0.004-0.125 0-1.046 0.848-1.893 1.894-1.893 0.022 0 0.044 0 0.066 0.001l-0.003-0c0.023-0.001 0.050-0.002 0.078-0.002 0.901 0 1.631 0.73 1.631 1.631 0 0.044-0.002 0.088-0.005 0.131l0-0.006c0.007 0.048 0.011 0.104 0.011 0.16s-0.004 0.112-0.011 0.167l0.001-0.006zM90.043 8.255c0.003-0.031 0.005-0.067 0.005-0.103 0-0.551-0.447-0.998-0.998-0.998-0.015 0-0.029 0-0.044 0.001l0.002-0c-0.617 0.007-1.119 0.488-1.158 1.096l-0 0.003z"></path>
</symbol>
<symbol id="icon-logo-header" viewBox="0 0 99 32">
<title>logo-header</title>
<path fill="#00b27c" style="fill: var(--color2, #00b27c)" d="M42.398 18.743c0 0.020 0.001 0.043 0.001 0.067 0 0.553-0.109 1.081-0.308 1.563l0.010-0.027c-0.197 0.482-0.487 0.889-0.851 1.216l-0.003 0.003c-0.362 0.329-0.794 0.591-1.269 0.759l-0.026 0.008c-0.483 0.171-1.040 0.269-1.62 0.269-0.028 0-0.055-0-0.082-0.001l0.004 0c-0.033 0.001-0.072 0.001-0.111 0.001-0.926 0-1.811-0.176-2.623-0.497l0.048 0.017c-0.591-0.233-1.1-0.504-1.573-0.824l0.028 0.018c-0.112-0.073-0.185-0.197-0.185-0.339 0-0.111 0.045-0.212 0.118-0.285v0l0.959-0.911c0.072-0.064 0.168-0.104 0.273-0.104s0.201 0.039 0.274 0.104l-0-0c0.304 0.232 0.652 0.431 1.025 0.584l0.031 0.011c0.247 0.104 0.535 0.185 0.835 0.228l0.019 0.002c0.192 0.032 0.418 0.053 0.647 0.057l0.005 0c0.010 0 0.023 0 0.035 0 0.295 0 0.58-0.042 0.85-0.121l-0.021 0.005c0.259-0.074 0.486-0.182 0.689-0.322l-0.008 0.005c0.373-0.26 0.614-0.686 0.614-1.169 0-0.011-0-0.021-0-0.032l0 0.002c0-0 0-0.001 0-0.001 0-0.316-0.124-0.603-0.327-0.815l0 0c-0.176-0.201-0.394-0.361-0.641-0.466l-0.011-0.004c-0.198-0.115-0.427-0.213-0.669-0.282l-0.022-0.005-0.671-0.192c-0.025-0.003-0.053-0.005-0.082-0.005s-0.057 0.002-0.085 0.006l0.003-0c-0.047-0.006-0.090-0.023-0.126-0.049l0.001 0.001h-0.105c-0.259-0.077-0.623-0.201-1.103-0.384-0.543-0.216-1.011-0.467-1.444-0.764l0.025 0.016c-0.965-0.545-1.615-1.55-1.65-2.71l-0-0.005c-0.002-0.052-0.004-0.113-0.004-0.174 0-0.613 0.139-1.193 0.388-1.71l-0.010 0.024c0.233-0.478 0.557-0.879 0.952-1.194l0.007-0.005c0.378-0.316 0.826-0.563 1.316-0.712l0.027-0.007c0.429-0.122 0.921-0.192 1.429-0.192 0.010 0 0.020 0 0.030 0h-0.002c0.047-0.001 0.102-0.002 0.158-0.002 0.728 0 1.429 0.113 2.088 0.322l-0.049-0.013c0.544 0.183 1.010 0.393 1.45 0.644l-0.040-0.021c0.17 0.105 0.314 0.207 0.452 0.315l-0.011-0.008c0.084 0.076 0.137 0.185 0.137 0.307s-0.053 0.231-0.137 0.307l-0 0-0.959 0.959c-0.071 0.064-0.165 0.103-0.269 0.103s-0.198-0.039-0.269-0.103l0 0c-0.212-0.188-0.452-0.353-0.709-0.489l-0.020-0.010c-0.468-0.229-1.019-0.364-1.602-0.364h-0c-0.004-0-0.008-0-0.013-0-0.251 0-0.495 0.035-0.725 0.101l0.019-0.005c-0.239 0.052-0.451 0.131-0.646 0.237l0.013-0.006c-0.471 0.251-0.787 0.739-0.787 1.3 0 0.008 0 0.017 0 0.025l-0-0.001c-0 0.005-0 0.012-0 0.018 0 0.314 0.124 0.598 0.327 0.807l-0-0c0.183 0.198 0.399 0.362 0.639 0.483l0.013 0.006c0.207 0.112 0.449 0.213 0.701 0.29l0.028 0.007 0.71 0.192 0.221 0.058 0.336 0.115c0.242 0.068 0.443 0.14 0.638 0.224l-0.034-0.013q0.345 0.144 0.748 0.345c0.31 0.15 0.574 0.306 0.824 0.482l-0.018-0.012c1.013 0.532 1.707 1.549 1.774 2.735l0 0.009z"></path>
<path fill="#00b27c" style="fill: var(--color2, #00b27c)" d="M55.52 22.369h-1.285c-0.001 0-0.003 0-0.004 0-0.203 0-0.377-0.121-0.455-0.294l-0.001-0.003-0.844-1.918-0.959-2.177-2.58-5.688-2.571 5.688h2.974c0.203 0.001 0.379 0.121 0.459 0.294l0.001 0.003 0.528 1.17c0.026 0.059 0.042 0.129 0.042 0.201 0 0.279-0.224 0.505-0.502 0.508h-4.499l-0.844 1.918c-0.082 0.176-0.257 0.296-0.46 0.297h-1.295c-0.275-0.001-0.498-0.224-0.498-0.499 0-0.077 0.017-0.149 0.048-0.214l-0.001 0.003 5.276-11.693c0.081-0.171 0.252-0.287 0.451-0.288h1.746c0.001 0 0.002 0 0.002 0 0.201 0 0.374 0.116 0.457 0.285l0.001 0.003 5.276 11.693c0.026 0.059 0.042 0.129 0.042 0.201 0 0.279-0.224 0.505-0.502 0.508h-0z"></path>
<path fill="#00b27c" style="fill: var(--color2, #00b27c)" d="M64.269 20.643v1.276c0 0.249-0.202 0.451-0.451 0.451v0h-6.264c-0.249 0-0.451-0.202-0.451-0.451v0-11.779c0-0 0-0 0-0 0-0.244 0.198-0.441 0.441-0.441 0.003 0 0.007 0 0.010 0h1.275c0.003-0 0.006-0 0.010-0 0.244 0 0.441 0.198 0.441 0.441 0 0 0 0 0 0v0 10.053h4.537c0.249 0 0.451 0.202 0.451 0.451v0z"></path>
<path fill="#00b27c" style="fill: var(--color2, #00b27c)" d="M70.801 11.847h-5.362c-0 0-0 0-0 0-0.24 0-0.436-0.192-0.441-0.431v-1.305c0.005-0.24 0.201-0.432 0.441-0.432 0 0 0 0 0 0h6.868c0.003-0 0.006-0 0.009-0 0.12 0 0.228 0.048 0.308 0.125l0.959 0.959c0.080 0.081 0.129 0.193 0.129 0.316 0 0.077-0.019 0.15-0.054 0.214l0.001-0.002-6.034 10.849c-0.074 0.138-0.217 0.23-0.382 0.23-0.001 0-0.001 0-0.002 0h-1.477c-0.242-0.002-0.437-0.199-0.437-0.441 0-0.077 0.020-0.15 0.055-0.213l-0.001 0.002z"></path>
<path fill="#00b27c" style="fill: var(--color2, #00b27c)" d="M84.412 10.091v11.856c0 0.233-0.189 0.422-0.422 0.422v0h-1.343c-0.233 0-0.422-0.189-0.422-0.422v-4.796h-5.276v4.796c0 0.233-0.189 0.422-0.422 0.422v0h-1.333c-0.233 0-0.422-0.189-0.422-0.422v-11.856c0.005-0.229 0.192-0.412 0.422-0.412 0 0 0 0 0 0h1.333c0 0 0 0 0 0 0.23 0 0.417 0.184 0.422 0.412v4.845h5.276v-4.844c0.005-0.229 0.192-0.412 0.422-0.412 0 0 0 0 0 0h1.333c0.003-0 0.006-0 0.010-0 0.23 0 0.417 0.184 0.422 0.412v0.001z"></path>
<path fill="#00b27c" style="fill: var(--color2, #00b27c)" d="M98.273 22.369h-1.266c-0.208-0.004-0.386-0.127-0.469-0.304l-0.001-0.003-0.844-1.87-0.959-2.177-2.571-5.688-2.58 5.688h2.974c0 0 0.001 0 0.001 0 0.206 0 0.384 0.12 0.467 0.294l0.001 0.003 0.518 1.161c0.029 0.062 0.046 0.135 0.046 0.211 0 0.281-0.228 0.508-0.508 0.508-0.003 0-0.005-0-0.008-0h-4.489l-0.835 1.87c-0.084 0.18-0.262 0.303-0.47 0.307h-1.267c-0.285-0.002-0.515-0.233-0.515-0.518 0-0.076 0.017-0.149 0.046-0.214l-0.001 0.003 5.266-11.664c0.085-0.177 0.263-0.297 0.469-0.297 0 0 0.001 0 0.001 0h1.765c0 0 0.001 0 0.001 0 0.206 0 0.384 0.12 0.467 0.294l0.001 0.003 5.266 11.664c0.029 0.062 0.046 0.135 0.046 0.212 0 0.286-0.232 0.518-0.518 0.518-0.013 0-0.025-0-0.038-0.001l0.002 0z"></path>
<path fill="#00b27c" style="fill: var(--color2, #00b27c)" d="M24.873 15.674c0 5.319-4.312 9.631-9.631 9.631s-9.631-4.312-9.631-9.631c0-5.319 4.312-9.631 9.631-9.631s9.631 4.312 9.631 9.631z"></path>
<path fill="#d67b4e" style="fill: var(--color3, #d67b4e)" d="M24.547 23.386c0 0.63-0.511 1.142-1.142 1.142s-1.142-0.511-1.142-1.142c0-0.63 0.511-1.142 1.142-1.142s1.142 0.511 1.142 1.142z"></path>
<path fill="#fff" style="fill: var(--color1, #fff)" d="M26.283 26.264c-0.696 0.704-1.662 1.14-2.729 1.14s-2.033-0.436-2.729-1.139l-0-0-4.153-4.153c-0.123 0.035-0.272 0.065-0.425 0.085l-0.016 0.002h-0.077c-0.335 0.055-0.722 0.086-1.116 0.086-1.796 0-3.44-0.653-4.707-1.735l0.010 0.008c-0.144-0.134-0.297-0.269-0.432-0.412-0.906-0.882-1.576-2.002-1.907-3.26l-0.011-0.049c-0.153-0.552-0.24-1.186-0.24-1.841 0-0.027 0-0.054 0-0.082l-0 0.004c0.016-0.717 0.13-1.401 0.331-2.048l-0.014 0.053c0.042-0.147 0.158-0.26 0.304-0.297l0.003-0.001c0.031-0.008 0.066-0.012 0.103-0.012 0.121 0 0.23 0.049 0.31 0.127l-0-0 3.453 3.511h1.794l2.168-2.177v-1.832l-3.444-3.511c-0.078-0.079-0.125-0.188-0.125-0.308 0-0.034 0.004-0.066 0.011-0.098l-0.001 0.003c0.042-0.146 0.153-0.26 0.294-0.306l0.003-0.001c0.633-0.199 1.361-0.314 2.116-0.314 4.032 0 7.3 3.268 7.3 7.3 0 0.584-0.069 1.152-0.198 1.696l0.010-0.050 4.115 4.115c0.716 0.698 1.159 1.671 1.159 2.748s-0.444 2.051-1.159 2.747l-0.001 0.001z"></path>
<path fill="#ebeced" style="fill: var(--color4, #ebeced)" d="M13.899 8.633c0.479-0.134 1.029-0.212 1.596-0.212 2.596 0 4.814 1.613 5.708 3.892l0.014 0.042c0.334 0.803 0.529 1.736 0.529 2.714 0 0.874-0.155 1.712-0.439 2.487l0.016-0.050c0.134-9.324-7.424-8.873-7.424-8.873z"></path>
<path fill="#ebeced" style="fill: var(--color4, #ebeced)" d="M18.101 20.691s-8.7 2.657-9.333-6.849c-1.266 3.588 1.535 8.249 7.847 8.010 1.41-0.058 1.554-1.017 1.554-1.017z"></path>
<path fill="#ebeced" style="fill: var(--color4, #ebeced)" d="M21.631 17.87l0.681 0.71 1.41 1.458 1.218 1.218c0.742 0.635 1.209 1.573 1.209 2.62 0 0.091-0.003 0.181-0.010 0.27l0.001-0.012c-0.101 0.511-0.288 0.965-0.547 1.368l0.009-0.016c-0.153 0.24-0.345 0.595-0.508 0.835s-0.182 0.067-0.269 0.182-0.153 0.278-0.249 0.336c0.922-0.567 1.664-1.346 2.171-2.271l0.016-0.032c0.158-0.301 0.251-0.658 0.251-1.036 0-0.030-0.001-0.060-0.002-0.090l0 0.004c-0.096-1.803-3.837-5.094-3.837-5.094l-1.42-1.439z"></path>
<path fill="#16191a" style="fill: var(--color5, #16191a)" d="M15.050 22.293c-0.001 0-0.002 0-0.002 0-1.8 0-3.447-0.653-4.718-1.735l0.010 0.009-0.441-0.422c-1.317-1.316-2.131-3.134-2.131-5.143 0-0.759 0.116-1.491 0.332-2.179l-0.014 0.052c0.042-0.147 0.158-0.26 0.304-0.297l0.003-0.001c0.031-0.008 0.066-0.012 0.103-0.012 0.121 0 0.23 0.049 0.31 0.127l-0-0 3.453 3.511h1.794l2.177-2.168v-1.794l-3.472-3.511c-0.075-0.075-0.121-0.178-0.121-0.292 0-0.040 0.006-0.078 0.016-0.114l-0.001 0.003c0.035-0.147 0.144-0.262 0.285-0.306l0.003-0.001c0.635-0.2 1.364-0.315 2.121-0.315 4.032 0 7.3 3.268 7.3 7.3 0 0.040-0 0.080-0.001 0.119l0-0.006c-0.010 0.232-0.199 0.417-0.431 0.422h-0c-0.234-0.005-0.422-0.197-0.422-0.432 0-0.003 0-0.007 0-0.010v0.001c0.001-0.044 0.002-0.096 0.002-0.148 0-3.549-2.877-6.427-6.427-6.427-0.418 0-0.826 0.040-1.222 0.116l0.040-0.006 3.060 3.089c0.075 0.077 0.122 0.181 0.125 0.297v2.149c-0.002 0.119-0.049 0.227-0.125 0.307l0-0-2.427 2.417c-0.077 0.081-0.186 0.133-0.307 0.134h-2.149c-0.119-0.002-0.227-0.049-0.307-0.125l0 0-3.041-3.050c-0.057 0.309-0.092 0.667-0.096 1.033l-0 0.003c-0.001 0.033-0.001 0.071-0.001 0.11 0 0.581 0.074 1.145 0.213 1.683l-0.010-0.047c0.311 1.134 0.895 2.107 1.678 2.877l0.001 0.001 0.384 0.355c1.105 0.952 2.554 1.531 4.139 1.531 0.361 0 0.715-0.030 1.059-0.088l-0.037 0.005c0.754-0.117 1.432-0.352 2.047-0.688l-0.033 0.016c0.068-0.047 0.152-0.075 0.243-0.075 0.238 0 0.432 0.193 0.432 0.432 0 0.181-0.111 0.335-0.269 0.4l-0.003 0.001c-0.655 0.354-1.416 0.619-2.221 0.752l-0.043 0.006h-0.077c-0.316 0.067-0.688 0.115-1.068 0.134l-0.016 0.001z"></path>
<path fill="#16191a" style="fill: var(--color5, #16191a)" d="M21.103 18.657c-0.004 0-0.008 0-0.013 0-0.069 0-0.134-0.018-0.191-0.049l0.002 0.001c-0.135-0.072-0.224-0.212-0.224-0.373 0-0.074 0.019-0.144 0.053-0.205l-0.001 0.002c0.453-0.852 0.727-1.859 0.748-2.929l0-0.007c0.005-0.234 0.197-0.422 0.432-0.422 0 0 0 0 0 0v0c0.235 0.011 0.422 0.204 0.422 0.441 0 0 0 0 0 0v-0c-0.022 1.219-0.339 2.358-0.882 3.357l0.019-0.038c-0.070 0.132-0.207 0.22-0.364 0.221h-0z"></path>
<path fill="#16191a" style="fill: var(--color5, #16191a)" d="M23.549 27.396c-0.001 0-0.002 0-0.003 0-1.064 0-2.026-0.433-2.721-1.132l-0-0-4.23-4.201c-0.076-0.078-0.123-0.184-0.123-0.302s0.047-0.224 0.123-0.302l-0 0c0.080-0.075 0.188-0.121 0.307-0.121s0.227 0.046 0.307 0.121l-0-0 4.221 4.221c0.548 0.578 1.322 0.938 2.18 0.938 1.658 0 3.002-1.344 3.002-3.002 0-0.855-0.358-1.627-0.931-2.174l-0.001-0.001-4.221-4.23c-0.081-0.076-0.132-0.183-0.132-0.302s0.051-0.227 0.131-0.302l0-0c0.078-0.076 0.184-0.123 0.302-0.123s0.224 0.047 0.302 0.123l4.221 4.221c0.725 0.699 1.175 1.679 1.175 2.763 0 2.119-1.718 3.837-3.837 3.837-0.025 0-0.050-0-0.076-0.001l0.004 0z"></path>
<path fill="#ebeced" style="fill: var(--color4, #ebeced)" d="M18.628 21.343s-0.806 0.278-0.259 0.959c0.355 0.422 2.389 2.293 3.636 3.837l-0.959-0.364-3.837-3.837z"></path>
<path fill="#00b27c" style="fill: var(--color2, #00b27c)" d="M21.909 23.386c-0-0.003-0-0.006-0-0.010 0-0.832 0.674-1.506 1.506-1.506s1.506 0.674 1.506 1.506c0 0.832-0.674 1.506-1.506 1.506-0.003 0-0.007 0-0.010-0h0.001c-0.826 0-1.496-0.67-1.496-1.496v0z"></path>
<path fill="#16191a" style="fill: var(--color5, #16191a)" d="M23.405 25.314c-0.058 0.007-0.124 0.011-0.192 0.011s-0.134-0.004-0.2-0.011l0.008 0.001c-0.195-0.039-0.368-0.102-0.528-0.187l0.010 0.005c-0.138-0.076-0.229-0.221-0.229-0.387 0-0.072 0.017-0.14 0.048-0.201l-0.001 0.003c0.075-0.135 0.216-0.225 0.379-0.225 0.076 0 0.147 0.019 0.208 0.054l-0.002-0.001c0.083 0.044 0.18 0.078 0.282 0.095l0.006 0.001c0.067 0.015 0.144 0.024 0.223 0.024 0.217 0 0.419-0.066 0.587-0.18l-0.004 0.002c0.234-0.155 0.401-0.395 0.459-0.674l0.001-0.007c0.012-0.062 0.020-0.132 0.020-0.205 0-0.521-0.367-0.956-0.857-1.060l-0.007-0.001c-0.064-0.014-0.137-0.021-0.213-0.021-0.514 0-0.943 0.364-1.043 0.849l-0.001 0.007c-0.030 0.211-0.21 0.372-0.427 0.372-0.238 0-0.432-0.193-0.432-0.432 0-0.040 0.006-0.079 0.016-0.116l-0.001 0.003c0.184-0.883 0.956-1.537 1.88-1.537 0.139 0 0.275 0.015 0.406 0.043l-0.013-0.002c0.979 0.101 1.736 0.921 1.736 1.918 0 1.065-0.863 1.928-1.928 1.928-0.068 0-0.134-0.003-0.2-0.010l0.008 0.001z"></path>
<path fill="#fff" style="fill: var(--color1, #fff)" d="M10.302 11.875h-7.731c-0.209-0.032-0.368-0.211-0.368-0.427s0.158-0.395 0.365-0.427l0.002-0h7.731c0.209 0.032 0.367 0.211 0.367 0.427s-0.158 0.395-0.365 0.427l-0.002 0z"></path>
<path fill="#16191a" style="fill: var(--color5, #16191a)" d="M25.803 18.302h-0.105c-0.186-0.055-0.319-0.224-0.319-0.424 0-0.037 0.005-0.072 0.013-0.107l-0.001 0.003c0.222-0.815 0.35-1.751 0.35-2.716 0-5.848-4.686-10.602-10.508-10.713l-0.010-0c-0.052-0.001-0.114-0.001-0.176-0.001-3.377 0-6.384 1.587-8.315 4.055l-0.017 0.023c-0.081 0.096-0.202 0.157-0.337 0.157-0.101 0-0.194-0.034-0.268-0.091l0.001 0.001c-0.101-0.078-0.165-0.199-0.165-0.335 0-0.103 0.037-0.197 0.098-0.271l-0.001 0.001c2.127-2.685 5.387-4.392 9.046-4.392 6.357 0 11.511 5.154 11.511 11.511 0 0.020-0 0.040-0 0.060v-0.003c0 0.004 0 0.010 0 0.015 0 1.035-0.137 2.037-0.392 2.991l0.018-0.080c-0.055 0.184-0.223 0.316-0.422 0.317h-0z"></path>
<path fill="#16191a" style="fill: var(--color5, #16191a)" d="M14.571 32v0c-0.001 0-0.002 0-0.003 0-0.122 0-0.231-0.056-0.304-0.143l-0.001-0.001-7.923-8.902c-0.728-0.806-1.345-1.733-1.813-2.742l-0.028-0.068c-0.672-1.404-1.065-3.051-1.065-4.791 0-0.002 0-0.004 0-0.006v0-0.192c0.013-0.744 0.093-1.462 0.233-2.157l-0.013 0.076c0.038-0.197 0.209-0.344 0.415-0.344 0.030 0 0.059 0.003 0.087 0.009l-0.003-0c0.197 0.038 0.344 0.209 0.344 0.415 0 0.030-0.003 0.059-0.009 0.087l0-0.003c-0.12 0.59-0.189 1.269-0.192 1.964v0.050c-0.002 0.013-0.003 0.028-0.003 0.043s0.001 0.030 0.004 0.045l-0-0.002c0.002 2.72 1.024 5.2 2.704 7.080l-0.009-0.010 7.597 8.556 4.259-4.422c0.077-0.079 0.184-0.127 0.302-0.127s0.225 0.049 0.302 0.127l0 0c0.081 0.076 0.132 0.183 0.132 0.302s-0.051 0.227-0.131 0.302l-0 0-4.576 4.796c-0.062 0.042-0.139 0.067-0.222 0.067-0.030 0-0.059-0.003-0.088-0.010l0.003 0.001z"></path>
<path fill="#16191a" style="fill: var(--color5, #16191a)" d="M4.652 11.588c-0.238-0-0.431-0.193-0.431-0.432 0-0.055 0.010-0.108 0.029-0.156l-0.001 0.003c0.188-0.513 0.372-0.93 0.579-1.335l-0.032 0.069c0.075-0.133 0.216-0.221 0.377-0.221 0.073 0 0.141 0.018 0.201 0.050l-0.002-0.001c0.139 0.071 0.232 0.213 0.232 0.377 0 0.073-0.018 0.141-0.051 0.201l0.001-0.002c-0.176 0.32-0.354 0.706-0.506 1.104l-0.022 0.066c-0.060 0.155-0.203 0.266-0.373 0.278l-0.001 0z"></path>
<path fill="#16191a" style="fill: var(--color5, #16191a)" d="M15.022 26.6c-4.556-0.015-8.495-2.643-10.396-6.465l-0.030-0.068c-0.702-1.399-1.126-3.044-1.16-4.785l-0-0.011v-0.211c0-0.005 0-0.011 0-0.018 0-0.781 0.077-1.544 0.223-2.282l-0.012 0.074c0.016-0.225 0.203-0.402 0.431-0.402 0.238 0 0.432 0.193 0.432 0.432 0 0.044-0.007 0.087-0.019 0.127l0.001-0.003c-0.127 0.623-0.2 1.338-0.201 2.071v0.001c-0.002 0.017-0.004 0.037-0.004 0.058s0.001 0.040 0.004 0.060l-0-0.002v0.048c0.016 1.644 0.407 3.192 1.092 4.569l-0.027-0.061c1.792 3.601 5.439 6.036 9.657 6.053h0.002c0.016 0 0.036 0 0.055 0 0.386 0 0.767-0.024 1.14-0.072l-0.044 0.005c0.776-0.103 1.473-0.267 2.141-0.493l-0.079 0.023c0.040-0.014 0.086-0.022 0.133-0.022 0.189 0 0.35 0.125 0.403 0.297l0.001 0.003c0.012 0.038 0.019 0.082 0.019 0.127 0 0.19-0.123 0.352-0.294 0.409l-0.003 0.001c-0.645 0.213-1.402 0.379-2.183 0.465l-0.052 0.005c-0.355 0.043-0.765 0.067-1.181 0.067-0.016 0-0.033-0-0.049-0h0.003z"></path>
<path fill="#16191a" style="fill: var(--color5, #16191a)" d="M17.592 3.002h-0.432c-0.019 0.003-0.042 0.005-0.064 0.005-0.238 0-0.432-0.193-0.432-0.432s0.193-0.432 0.432-0.432c0.023 0 0.045 0.002 0.067 0.005l-0.002-0v-0.863c0-0.238-0.193-0.432-0.432-0.432h-3.424c-0.238 0-0.432 0.193-0.432 0.432v0 0.863c0.019-0.003 0.042-0.005 0.064-0.005 0.238 0 0.432 0.193 0.432 0.432s-0.193 0.432-0.432 0.432c-0.023 0-0.045-0.002-0.067-0.005l0.002 0h-0.403c-0.238 0-0.432-0.193-0.432-0.432v0-1.285c0.005-0.701 0.567-1.269 1.265-1.285l0.002-0h3.424c0 0 0 0 0 0 0.712 0 1.29 0.574 1.295 1.285v1.286c0 0.238-0.193 0.432-0.432 0.432v0z"></path>
<path fill="#16191a" style="fill: var(--color5, #16191a)" d="M24.94 6.868c-0.12-0.011-0.224-0.068-0.297-0.153l-0-0.001c-0.528-0.646-1.1-1.218-1.724-1.729l-0.021-0.017c-0.076-0.078-0.123-0.184-0.123-0.302 0-0.238 0.193-0.432 0.432-0.432 0.089 0 0.171 0.027 0.24 0.073l-0.002-0.001c0.689 0.567 1.301 1.176 1.853 1.839l0.018 0.022c0.058 0.073 0.094 0.167 0.094 0.268 0 0.135-0.062 0.256-0.16 0.335l-0.001 0.001c-0.071 0.061-0.165 0.098-0.267 0.098-0.014 0-0.028-0.001-0.042-0.002l0.002 0z"></path>
<path fill="#16191a" style="fill: var(--color5, #16191a)" d="M10.302 11.588h-7.731c-0.238 0-0.432-0.193-0.432-0.432s0.193-0.432 0.432-0.432h7.731c0.238 0 0.432 0.193 0.432 0.432s-0.193 0.432-0.432 0.432v0z"></path>
<path fill="#16191a" style="fill: var(--color5, #16191a)" d="M7.77 8.633h-7.338c-0.238 0-0.432-0.193-0.432-0.432s0.193-0.432 0.432-0.432h7.338c0.238 0 0.432 0.193 0.432 0.432s-0.193 0.432-0.432 0.432v0z"></path>
</symbol>
</defs>
</svg>
