<svg xmlns="http://www.w3.org/2000/svg" viewBox="0 0 110.82 36.92"><defs><style>.cls-1{fill:none;stroke:#fff;stroke-miterlimit:10;}.cls-2{fill:#fff;}</style></defs><title>Asset 23</title><g id="Layer_2" data-name="Layer 2"><g id="Layer_1-2" data-name="Layer 1"><rect class="cls-1" x="0.5" y="0.5" width="109.82" height="35.92" rx="4.85"/><path class="cls-2" d="M29.14,24.25a17.93,17.93,0,0,1-1.61,3c-1,1.59-2.52,3.57-4.34,3.59-1.62,0-2-1.06-4.24-1.05s-2.66,1.06-4.28,1.05c-1.82,0-3.22-1.81-4.26-3.4C7.49,23,7.18,17.78,9,15a6.49,6.49,0,0,1,5.2-3.13c1.94,0,3.15,1.06,4.75,1.06s2.5-1.06,4.73-1.06a6.33,6.33,0,0,1,4.76,2.51A5.45,5.45,0,0,0,29.14,24.25Z"/><path class="cls-2" d="M22,10.1a5.44,5.44,0,0,0,1.2-4,5.87,5.87,0,0,0-3.78,2A5,5,0,0,0,18.15,12,4.93,4.93,0,0,0,22,10.1Z"/><path class="cls-2" d="M38,14.94,33.85,27.25h1.92L37,23.47h4l1.28,3.78h2l-4.2-12.31Zm1,2c.14.55.29,1.12.49,1.74L40.65,22H37.44l1.11-3.29C38.72,18.15,38.88,17.57,39,17Z"/><path class="cls-2" d="M49.74,18.13a3.51,3.51,0,0,0-3,1.42l-.07-1.22H45v.15c.06.77.08,1.61.08,2.81v9.5h1.86V26.36a3.28,3.28,0,0,0,2.55,1.09,3.84,3.84,0,0,0,2.82-1.2,5.06,5.06,0,0,0,1.25-3.58,5,5,0,0,0-1.09-3.28A3.54,3.54,0,0,0,49.74,18.13Zm-.47,1.54c1.66,0,2.41,1.54,2.41,3.07,0,2-1,3.19-2.48,3.19A2.25,2.25,0,0,1,47,24.2a2.13,2.13,0,0,1-.07-.61V22.1a2.64,2.64,0,0,1,.06-.46l0-.16A2.36,2.36,0,0,1,49.27,19.67Z"/><path class="cls-2" d="M59.33,18.13a3.49,3.49,0,0,0-3,1.42l-.08-1.22h-1.7v.15c0,.77.07,1.61.07,2.81v9.5h1.86V26.36a3.29,3.29,0,0,0,2.55,1.09,3.88,3.88,0,0,0,2.83-1.2,5.1,5.1,0,0,0,1.24-3.58,5,5,0,0,0-1.08-3.28A3.57,3.57,0,0,0,59.33,18.13Zm-.46,1.54c1.66,0,2.4,1.54,2.4,3.07,0,2-1,3.19-2.47,3.19a2.26,2.26,0,0,1-2.2-1.73,2.56,2.56,0,0,1-.07-.61V22.1a2.75,2.75,0,0,1,.06-.47l0-.15A2.37,2.37,0,0,1,58.87,19.67Z"/><path class="cls-2" d="M71.35,20.16c-1.74-.68-2.3-1.21-2.3-2.18s.66-1.66,2.12-1.66a4.24,4.24,0,0,1,2.19.55l.16.1L74,15.41l-.1-.06a5.41,5.41,0,0,0-2.71-.61c-2.38,0-4,1.41-4,3.41,0,1.62,1,2.76,3.27,3.57,1.58.59,2.17,1.19,2.17,2.23s-.91,1.9-2.37,1.9a5,5,0,0,1-2.68-.76l-.16-.1-.51,1.59.1.06a6.35,6.35,0,0,0,3.15.81c3.2,0,4.33-1.95,4.33-3.62S73.58,21,71.35,20.16Z"/><path class="cls-2" d="M77.85,16.21,76,16.78v1.55H74.68v1.49H76v4.56a3.45,3.45,0,0,0,.65,2.36,2.36,2.36,0,0,0,1.8.71,4.55,4.55,0,0,0,1.44-.22l.1,0-.09-1.49-.18.05a2.53,2.53,0,0,1-.86.1c-.72,0-1-.45-1-1.52V19.82H80.1V18.33H77.85Z"/><path class="cls-2" d="M84.71,18.13a4.39,4.39,0,0,0-4.42,4.73,4.25,4.25,0,0,0,4.28,4.59h0A4.4,4.4,0,0,0,89,22.7a4.74,4.74,0,0,0-1.19-3.29A4.13,4.13,0,0,0,84.71,18.13Zm0,1.47c1.68,0,2.44,1.64,2.44,3.16,0,1.86-1,3.22-2.48,3.22h0c-1.42,0-2.44-1.33-2.44-3.17C82.17,21.21,82.94,19.6,84.66,19.6Z"/><path class="cls-2" d="M94.72,18.22l-.11,0a1.82,1.82,0,0,0-.46-.06,2.67,2.67,0,0,0-2.34,1.5l0-1.3H90.08v.15c0,.74.08,1.57.08,2.69l0,6.08H92V22.51a5.46,5.46,0,0,1,0-.73,2.05,2.05,0,0,1,2-1.87,3.84,3.84,0,0,1,.5,0l.2,0Z"/><path class="cls-2" d="M98.91,18.11c-2.48,0-4.21,2-4.21,4.82a4.16,4.16,0,0,0,4.39,4.5,7.14,7.14,0,0,0,3-.56l.11-.05-.36-1.39-.15.06a5.71,5.71,0,0,1-2.34.42,2.59,2.59,0,0,1-2.79-2.7h6l0-.11a4,4,0,0,0,.06-.78C102.61,20.38,101.64,18.11,98.91,18.11Zm-.12,1.42a1.86,1.86,0,0,1,1.36.52,2.7,2.7,0,0,1,.65,1.74H96.55A2.37,2.37,0,0,1,98.79,19.53Z"/><path class="cls-2" d="M33.85,6.53a13.52,13.52,0,0,1,1.79-.12,4,4,0,0,1,2.62.71,2.56,2.56,0,0,1,.93,2.11,2.94,2.94,0,0,1-.94,2.26,4.27,4.27,0,0,1-2.87.84,13.35,13.35,0,0,1-1.53-.07Zm.85,5.16a6.89,6.89,0,0,0,.84,0c1.79,0,2.76-.9,2.76-2.47,0-1.39-.85-2.25-2.62-2.25a5.53,5.53,0,0,0-1,.08Z"/><path class="cls-2" d="M42.18,12.37A2.1,2.1,0,0,1,40,10.22,2.16,2.16,0,0,1,42.26,8a2.08,2.08,0,0,1,2.24,2.14,2.16,2.16,0,0,1-2.31,2.23Zm0-.57a1.48,1.48,0,0,0,1.41-1.63,1.42,1.42,0,1,0-2.81,0A1.46,1.46,0,0,0,42.2,11.8Z"/><path class="cls-2" d="M45.84,8.09l.62,2.12c.13.47.25.91.34,1.34h0c.1-.42.25-.87.41-1.33L48,8.09h.71l.72,2.09c.17.5.31,1,.41,1.37h0a11.58,11.58,0,0,1,.36-1.36l.66-2.1h.84l-1.5,4.19h-.77l-.71-2a13.68,13.68,0,0,1-.42-1.38h0a11.29,11.29,0,0,1-.43,1.39l-.75,2h-.77L45,8.09Z"/><path class="cls-2" d="M52.57,9.23c0-.45,0-.79,0-1.14h.75l0,.69h0A1.76,1.76,0,0,1,54.89,8a1.59,1.59,0,0,1,1.64,1.78v2.5h-.84V9.86c0-.67-.28-1.24-1.08-1.24a1.19,1.19,0,0,0-1.13.78,1,1,0,0,0-.06.35v2.53h-.85Z"/><path class="cls-2" d="M57.91,6.14h.84v6.14h-.84Z"/><path class="cls-2" d="M62.05,12.37a2.1,2.1,0,0,1-2.23-2.15A2.16,2.16,0,0,1,62.12,8a2.08,2.08,0,0,1,2.24,2.14,2.16,2.16,0,0,1-2.3,2.23Zm0-.57a1.49,1.49,0,0,0,1.41-1.63,1.42,1.42,0,1,0-2.82,0,1.47,1.47,0,0,0,1.4,1.61Z"/><path class="cls-2" d="M68.71,11.27a7.62,7.62,0,0,0,.06,1H68l-.07-.53h0a1.78,1.78,0,0,1-1.42.62,1.27,1.27,0,0,1-1.43-1.2c0-1,1-1.56,2.8-1.56V9.53c0-.35-.1-1-1.06-1a2.43,2.43,0,0,0-1.22.31l-.19-.51A3.24,3.24,0,0,1,66.93,8a1.56,1.56,0,0,1,1.78,1.71Zm-.83-1.13c-.92,0-2,.13-2,.94a.71.71,0,0,0,.79.73,1.17,1.17,0,0,0,1.14-.7.67.67,0,0,0,0-.24Z"/><path class="cls-2" d="M74.08,6.14V11.2c0,.37,0,.79,0,1.08h-.76l0-.73h0a1.74,1.74,0,0,1-1.58.82,2,2,0,0,1-2-2.12A2.08,2.08,0,0,1,71.81,8a1.59,1.59,0,0,1,1.4.63h0V6.14ZM73.23,9.8a1.19,1.19,0,0,0,0-.33A1.21,1.21,0,0,0,72,8.59a1.44,1.44,0,0,0-1.39,1.61A1.39,1.39,0,0,0,72,11.76a1.26,1.26,0,0,0,1.24-.91,1.15,1.15,0,0,0,0-.33Z"/><path class="cls-2" d="M79.41,12.37a2.1,2.1,0,0,1-2.23-2.15A2.16,2.16,0,0,1,79.49,8a2.09,2.09,0,0,1,2.24,2.14,2.16,2.16,0,0,1-2.31,2.23Zm0-.57a1.48,1.48,0,0,0,1.41-1.63,1.42,1.42,0,1,0-2.81,0,1.46,1.46,0,0,0,1.39,1.61Z"/><path class="cls-2" d="M82.79,9.23c0-.45,0-.79,0-1.14h.75l0,.69h0A1.76,1.76,0,0,1,85.11,8a1.59,1.59,0,0,1,1.64,1.78v2.5h-.84V9.86c0-.67-.28-1.24-1.08-1.24a1.19,1.19,0,0,0-1.13.78,1,1,0,0,0-.06.35v2.53h-.85Z"/><path class="cls-2" d="M91.18,7.09v1h1.21v.58H91.18v2.26c0,.52.17.81.64.81a2,2,0,0,0,.49-.05l0,.58a2.71,2.71,0,0,1-.75.1,1.3,1.3,0,0,1-.92-.32,1.51,1.51,0,0,1-.32-1.1V8.67h-.72V8.09h.72V7.32Z"/><path class="cls-2" d="M93.35,6.14h.84V8.75h0a1.4,1.4,0,0,1,.61-.54A1.85,1.85,0,0,1,95.68,8,1.59,1.59,0,0,1,97.3,9.79v2.49h-.84V9.87c0-.68-.28-1.24-1.08-1.24a1.21,1.21,0,0,0-1.13.76.8.8,0,0,0-.06.36v2.53h-.84Z"/><path class="cls-2" d="M99.16,10.31a1.42,1.42,0,0,0,1.58,1.46,3.53,3.53,0,0,0,1.29-.21l.16.54a4.24,4.24,0,0,1-1.56.26,2.06,2.06,0,0,1-2.29-2.11A2.13,2.13,0,0,1,100.53,8a1.84,1.84,0,0,1,1.92,2,1.6,1.6,0,0,1,0,.36Zm2.47-.54a1.12,1.12,0,0,0-1.16-1.24,1.32,1.32,0,0,0-1.3,1.24Z"/></g></g></svg>