<svg xmlns="http://www.w3.org/2000/svg" xmlns:xlink="http://www.w3.org/1999/xlink" viewBox="0 0 134.29 43.93"><defs><style>.cls-1{fill:none;}.cls-2{clip-path:url(#clip-path);}.cls-3{fill:url(#linear-gradient);}.cls-4{fill:url(#linear-gradient-2);}.cls-5{fill:url(#linear-gradient-3);}.cls-6{fill:url(#linear-gradient-4);}.cls-7{fill:#f9f9f9;}.cls-8{fill:#fafafa;}</style><clipPath id="clip-path"><path class="cls-1" d="M29.1,19.34l-6.05-3.5L11.37,9.1c-.65-.38-1.3-.15-1.3.63V37.21c0,.58.46.84,1,.51l12-6.9,6.05-3.49L34.92,24c.69-.4.62-.94,0-1.25S29.1,19.34,29.1,19.34Z"/></clipPath><linearGradient id="linear-gradient" x1="17.57" y1="8.46" x2="17.57" y2="38.2" gradientUnits="userSpaceOnUse"><stop offset="0" stop-color="#207aae"/><stop offset="0.31" stop-color="#4897b3"/><stop offset="0.77" stop-color="#7fbeb9"/><stop offset="1" stop-color="#95cdbc"/></linearGradient><linearGradient id="linear-gradient-2" x1="10.07" y1="15.84" x2="29.1" y2="15.84" gradientUnits="userSpaceOnUse"><stop offset="0" stop-color="#59b9a8"/><stop offset="1" stop-color="#e4e698"/></linearGradient><linearGradient id="linear-gradient-3" x1="19.59" y1="23.33" x2="19.59" y2="38.31" gradientUnits="userSpaceOnUse"><stop offset="0" stop-color="#e23332"/><stop offset="0.15" stop-color="#d43541"/><stop offset="0.72" stop-color="#a03e78"/><stop offset="1" stop-color="#8c418e"/></linearGradient><linearGradient id="linear-gradient-4" x1="30.55" y1="19.34" x2="30.55" y2="27.33" gradientUnits="userSpaceOnUse"><stop offset="0" stop-color="#ee8579"/><stop offset="0.63" stop-color="#f6b274"/><stop offset="1" stop-color="#fac872"/></linearGradient></defs><title>Asset 5</title><g id="Layer_2" data-name="Layer 2"><g id="Layer_1-2" data-name="Layer 1"><rect width="134.29" height="43.93" rx="5.94"/><g id="PLAY"><g class="cls-2"><polygon class="cls-3" points="10.07 8.46 10.07 23.33 10.07 38.2 25.07 23.33 10.07 8.46"/><polygon class="cls-4" points="29.1 19.34 23.05 15.84 10.07 8.35 10.07 8.46 25.07 23.33 29.1 19.34"/><polygon class="cls-5" points="10.07 38.2 10.07 38.31 23.05 30.82 29.1 27.32 25.07 23.33 10.07 38.2"/><polygon class="cls-6" points="29.1 19.34 25.07 23.33 29.1 27.32 36.02 23.33 29.1 19.34"/></g></g><path class="cls-7" d="M104.51,29.15a3.69,3.69,0,0,1-1.54-.32,2.85,2.85,0,0,1-1.18-.95h-.09a12.06,12.06,0,0,1,.09,1.43v3.56h-1.31V20.34h1.07l.18,1.18h.06a3.18,3.18,0,0,1,1.18-1,3.59,3.59,0,0,1,1.54-.31,3.2,3.2,0,0,1,2.66,1.18,5.17,5.17,0,0,1,.93,3.29,5.19,5.19,0,0,1-.95,3.32A3.21,3.21,0,0,1,104.51,29.15Zm-.19-7.86a2.34,2.34,0,0,0-1.92.74,3.78,3.78,0,0,0-.61,2.33v.29a4.35,4.35,0,0,0,.61,2.61,2.31,2.31,0,0,0,1.95.79,2,2,0,0,0,1.76-.91,4.32,4.32,0,0,0,.63-2.5,4.15,4.15,0,0,0-.63-2.48A2.09,2.09,0,0,0,104.32,21.29Z"/><path class="cls-7" d="M111.13,29h-1.31V16.71h1.31Z"/><path class="cls-7" d="M118.67,29l-.26-1.23h-.07a3.61,3.61,0,0,1-1.29,1.1,4,4,0,0,1-1.6.29,2.91,2.91,0,0,1-2-.67,2.4,2.4,0,0,1-.73-1.88q0-2.62,4.19-2.75l1.47-.05v-.53a2.21,2.21,0,0,0-.44-1.51,1.81,1.81,0,0,0-1.4-.48,5.74,5.74,0,0,0-2.45.66l-.4-1a6.25,6.25,0,0,1,2.93-.75,3.27,3.27,0,0,1,2.29.69,2.86,2.86,0,0,1,.75,2.2V29Zm-3-.93a2.66,2.66,0,0,0,1.92-.67,2.45,2.45,0,0,0,.7-1.88v-.78l-1.31.06a5,5,0,0,0-2.26.48,1.48,1.48,0,0,0-.69,1.34,1.35,1.35,0,0,0,.43,1.08A1.79,1.79,0,0,0,115.71,28.06Z"/><path class="cls-7" d="M120.4,20.34h1.4l1.9,4.93a19.75,19.75,0,0,1,.77,2.44h.07c.06-.27.21-.73.43-1.38s.93-2.65,2.14-6h1.4l-3.71,9.85a4.89,4.89,0,0,1-1.3,2.07,2.72,2.72,0,0,1-1.81.61,5.2,5.2,0,0,1-1.18-.13V31.69a4.78,4.78,0,0,0,1,.09,2,2,0,0,0,1.93-1.51l.48-1.23Z"/><path class="cls-7" d="M80.24,21.14a2.95,2.95,0,0,1-.24,5,1.31,1.31,0,0,0-.51.89,1,1,0,0,0,.48.78l.65.5a3.17,3.17,0,0,1,1.52,2.54c0,1.7-1.65,3.42-4.76,3.42-2.63,0-3.89-1.25-3.89-2.59a2.61,2.61,0,0,1,1.39-2.21,7.68,7.68,0,0,1,3.46-.83,1.88,1.88,0,0,1-.55-1.23,1.65,1.65,0,0,1,.18-.71,5.66,5.66,0,0,1-.57,0,2.87,2.87,0,0,1-3-2.84,3.26,3.26,0,0,1,1.16-2.43,4.92,4.92,0,0,1,3.24-1h3.73l-1.16.65Zm-1.29,8a2.55,2.55,0,0,0-.41,0,6.93,6.93,0,0,0-1.9.29,2,2,0,0,0-1.56,1.86c0,1.28,1.25,2.21,3.19,2.21,1.73,0,2.65-.84,2.65-2C80.92,30.64,80.33,30.15,79,29.18Zm.53-3.44a1.86,1.86,0,0,0,.45-1.32c0-1.31-.78-3.33-2.28-3.33a1.7,1.7,0,0,0-1.27.59A2.14,2.14,0,0,0,76,23c0,1.21.71,3.22,2.27,3.22A1.85,1.85,0,0,0,79.48,25.74Z"/><path class="cls-7" d="M68.85,28.89a4.26,4.26,0,0,1-4.41-4.27,4.47,4.47,0,0,1,4.68-4.39,4.22,4.22,0,0,1,4.31,4.27A4.41,4.41,0,0,1,68.85,28.89Zm2.25-1.47a3.23,3.23,0,0,0,.55-2c0-1.59-.76-4.63-3-4.63a2.52,2.52,0,0,0-1.63.62,2.73,2.73,0,0,0-.83,2.2c0,1.79.89,4.73,3.07,4.73A2.28,2.28,0,0,0,71.1,27.42Z"/><path class="cls-7" d="M59.05,28.89a4.26,4.26,0,0,1-4.4-4.27,4.47,4.47,0,0,1,4.67-4.39,4.23,4.23,0,0,1,4.32,4.27A4.41,4.41,0,0,1,59.05,28.89Zm2.26-1.47a3.22,3.22,0,0,0,.54-2c0-1.59-.75-4.63-3-4.63a2.51,2.51,0,0,0-1.62.62,2.7,2.7,0,0,0-.83,2.2c0,1.79.88,4.73,3.07,4.73A2.3,2.3,0,0,0,61.31,27.42Z"/><path class="cls-7" d="M53.27,28.6l-2.6.6a18.63,18.63,0,0,1-3,.31c-5,0-6.92-3.69-6.92-6.58,0-3.52,2.71-6.79,7.34-6.79a10.79,10.79,0,0,1,2.78.38,7.35,7.35,0,0,1,2.4,1.13l-1.51,1.43-.64.15.46-.73a5.21,5.21,0,0,0-3.89-1.7,5,5,0,0,0-5,5.36,6.42,6.42,0,0,0,6.43,6.62,5.35,5.35,0,0,0,2.3-.45V25.41l-2.74.14,1.45-.78H54l-.48.45a.48.48,0,0,0-.18.29c0,.17,0,.69,0,.88Z"/><path class="cls-7" d="M86,28.08c-.6-.06-.73-.16-.73-.87V16.93a.49.49,0,0,0,0-.12c.08-.64.26-.74.82-1.07h-2.6l-1.36.65h1.39V27.61c0,.36-.07.41-.49,1h3.21l.67-.4C86.6,28.13,86.29,28.12,86,28.08Z"/><path class="cls-7" d="M93.37,28.25c-.2.1-.4.23-.6.32a4.16,4.16,0,0,1-1.75.34,3.83,3.83,0,0,1-2.4-.7,4.65,4.65,0,0,1-1.83-3.81,4.08,4.08,0,0,1,4.13-4.16,3.5,3.5,0,0,1,1.85.5A3,3,0,0,1,94,22.53L89.8,24.24l-1.39.11c.45,2.29,2,3.62,3.71,3.62a4.6,4.6,0,0,0,2.2-.63Zm-1.7-5.38c.35-.13.53-.23.53-.49a1.8,1.8,0,0,0-1.79-1.55,2.22,2.22,0,0,0-2.07,2.51c0,.31,0,.63,0,1Z"/><path class="cls-7" d="M95.11,20.36v1.19H95V20.36h-.39v-.12h.93v.12Z"/><path class="cls-7" d="M96.73,21.55v-1.2h0l-.37,1.2h-.11l-.37-1.2h0v1.2h-.13V20.24H96l.33,1.06h0l.33-1.06h.23v1.31Z"/><path class="cls-8" d="M44.36,12.61h-.9a6.13,6.13,0,0,0-.26-1.06H41.9a5.27,5.27,0,0,0-.27,1.06h-.85a18.55,18.55,0,0,1,.66-1.81,13.79,13.79,0,0,0,.66-1.87h1.07a14.15,14.15,0,0,0,.59,1.84A15.32,15.32,0,0,1,44.36,12.61ZM43.06,11a14.72,14.72,0,0,1-.49-1.57h0c0,.07-.17.6-.5,1.57Z"/><path class="cls-8" d="M48,12.61h-.7a6.75,6.75,0,0,0-.78-1.23,6.32,6.32,0,0,1-.92-1.59h-.05a9.33,9.33,0,0,1,.07,1.12c0,.46,0,1,0,1.7H45c0-.59,0-1.23,0-1.92s0-1.27,0-1.76h.84a5.38,5.38,0,0,0,.69,1.2,7.38,7.38,0,0,1,.86,1.5h0a9.61,9.61,0,0,1-.07-1.13c0-.51,0-1,0-1.57H48c0,.47,0,1.05,0,1.76S48,12,48,12.61Z"/><path class="cls-8" d="M52.08,10.64a2.08,2.08,0,0,1-.51,1.4,1.79,1.79,0,0,1-1.44.6l-1.15,0c0-.57,0-1.21,0-1.92s0-1.27,0-1.76h1.17a1.9,1.9,0,0,1,1.47.5A1.75,1.75,0,0,1,52.08,10.64Zm-.77.12A1.36,1.36,0,0,0,51,9.85a1.19,1.19,0,0,0-1-.37l-.33,0c0,.37,0,.77,0,1.18s0,.89,0,1.33a1.47,1.47,0,0,0,.36,0,1.06,1.06,0,0,0,.9-.38A1.41,1.41,0,0,0,51.31,10.76Z"/><path class="cls-8" d="M55.85,12.61H55a6.18,6.18,0,0,0-.5-1.24.69.69,0,0,0-.57-.23h-.31c0,.49,0,1,0,1.47h-.78c0-.57,0-1.21,0-1.92s0-1.27,0-1.76h1.34c.86,0,1.29.29,1.29.88a1,1,0,0,1-.74,1v0a.89.89,0,0,1,.5.45A8.47,8.47,0,0,1,55.85,12.61ZM54.79,10c0-.37-.24-.56-.72-.56a2.29,2.29,0,0,0-.47,0c0,.29,0,.67,0,1.14h.26C54.5,10.63,54.79,10.43,54.79,10Z"/><path class="cls-8" d="M59.9,10.7a2,2,0,0,1-.54,1.44,1.71,1.71,0,0,1-1.31.57,1.65,1.65,0,0,1-1.24-.53,1.81,1.81,0,0,1-.51-1.33,2,2,0,0,1,.54-1.43,1.71,1.71,0,0,1,1.31-.57,1.64,1.64,0,0,1,1.24.52A1.83,1.83,0,0,1,59.9,10.7Zm-.78.08a1.39,1.39,0,0,0-.31-.95.9.9,0,0,0-.74-.37.86.86,0,0,0-.7.37,1.49,1.49,0,0,0-.29.93,1.42,1.42,0,0,0,.31,1,.94.94,0,0,0,.74.37.88.88,0,0,0,.7-.37A1.5,1.5,0,0,0,59.12,10.78Z"/><path class="cls-8" d="M61.49,12.61h-.8c0-.59,0-1.23,0-1.92s0-1.27,0-1.76h.8c0,.48,0,1.06,0,1.76S61.47,12,61.49,12.61Z"/><path class="cls-8" d="M65.58,10.64a2,2,0,0,1-.52,1.4,1.78,1.78,0,0,1-1.43.6l-1.15,0q0-.86,0-1.92c0-.69,0-1.27,0-1.76h1.16a1.94,1.94,0,0,1,1.48.5A1.8,1.8,0,0,1,65.58,10.64Zm-.77.12a1.37,1.37,0,0,0-.32-.91,1.18,1.18,0,0,0-1-.37l-.34,0c0,.37,0,.77,0,1.18s0,.89,0,1.33a1.55,1.55,0,0,0,.37,0,1.09,1.09,0,0,0,.9-.38A1.47,1.47,0,0,0,64.81,10.76Z"/><path class="cls-8" d="M71,12.61h-.9a6.13,6.13,0,0,0-.26-1.06h-1.3a5.27,5.27,0,0,0-.27,1.06h-.85a18.55,18.55,0,0,1,.66-1.81,13.79,13.79,0,0,0,.66-1.87h1.07a16.3,16.3,0,0,0,.59,1.84A15.32,15.32,0,0,1,71,12.61ZM69.7,11a16,16,0,0,1-.48-1.57h0c0,.07-.17.6-.5,1.57Z"/><path class="cls-8" d="M74.29,9.9a1.09,1.09,0,0,1-.5,1,2.17,2.17,0,0,1-1.23.32h-.19c0,.35,0,.82,0,1.4h-.79c0-.55,0-1.19,0-1.92s0-1.27,0-1.76H73a1.63,1.63,0,0,1,.9.24A.82.82,0,0,1,74.29,9.9Zm-.73.15c0-.4-.26-.6-.8-.6a2.12,2.12,0,0,0-.42,0c0,.36,0,.76,0,1.21h.16C73.22,10.7,73.56,10.49,73.56,10.05Z"/><path class="cls-8" d="M77.67,9.9a1.07,1.07,0,0,1-.5,1,2.17,2.17,0,0,1-1.23.32h-.18c0,.35,0,.82,0,1.4H75c0-.55,0-1.19,0-1.92s0-1.27,0-1.76H76.4a1.59,1.59,0,0,1,.9.24A.82.82,0,0,1,77.67,9.9Zm-.72.15q0-.6-.81-.6a2.12,2.12,0,0,0-.42,0c0,.36,0,.76,0,1.21h.17C76.6,10.7,77,10.49,77,10.05Z"/><path class="cls-8" d="M83.2,10.7a2,2,0,0,1-.53,1.44,1.71,1.71,0,0,1-1.31.57,1.65,1.65,0,0,1-1.24-.53,1.81,1.81,0,0,1-.51-1.33,2,2,0,0,1,.53-1.43,1.73,1.73,0,0,1,1.32-.57,1.64,1.64,0,0,1,1.24.52A1.82,1.82,0,0,1,83.2,10.7Zm-.77.08a1.45,1.45,0,0,0-.31-.95.91.91,0,0,0-.74-.37.84.84,0,0,0-.7.37,1.49,1.49,0,0,0-.29.93,1.42,1.42,0,0,0,.31,1,.93.93,0,0,0,.74.37.88.88,0,0,0,.7-.37A1.5,1.5,0,0,0,82.43,10.78Z"/><path class="cls-8" d="M87,12.61h-.7a6.75,6.75,0,0,0-.78-1.23,6.32,6.32,0,0,1-.92-1.59h0a9.33,9.33,0,0,1,.07,1.12c0,.46,0,1,0,1.7H84c0-.59,0-1.23,0-1.92s0-1.27,0-1.76h.84a5.38,5.38,0,0,0,.69,1.2,7.38,7.38,0,0,1,.86,1.5h0a9.61,9.61,0,0,1-.07-1.13c0-.51,0-1,0-1.57H87c0,.47,0,1.05,0,1.76S87,12,87,12.61Z"/></g></g></svg>