<svg xmlns="http://www.w3.org/2000/svg" xmlns:xlink="http://www.w3.org/1999/xlink" viewBox="0 0 110.82 36.92"><defs><style>.cls-1,.cls-2{fill:none;}.cls-2{stroke:#fff;stroke-miterlimit:10;}.cls-3{clip-path:url(#clip-path);}.cls-4{fill:url(#linear-gradient);}.cls-5{fill:url(#linear-gradient-2);}.cls-6{fill:url(#linear-gradient-3);}.cls-7{fill:url(#linear-gradient-4);}.cls-8{fill:#f9f9f9;}.cls-9{fill:#fafafa;}</style><clipPath id="clip-path"><path class="cls-1" d="M24.3,16.31l-4.95-2.86L9.8,7.94c-.53-.31-1.06-.12-1.06.52V30.93c0,.48.38.68.84.42l9.77-5.64,4.95-2.86,4.76-2.75c.56-.32.5-.77,0-1S24.3,16.31,24.3,16.31Z"/></clipPath><linearGradient id="linear-gradient" x1="14.87" y1="7.42" x2="14.87" y2="31.74" gradientUnits="userSpaceOnUse"><stop offset="0" stop-color="#207aae"/><stop offset="0.31" stop-color="#4897b3"/><stop offset="0.77" stop-color="#7fbeb9"/><stop offset="1" stop-color="#95cdbc"/></linearGradient><linearGradient id="linear-gradient-2" x1="8.74" y1="13.45" x2="24.3" y2="13.45" gradientUnits="userSpaceOnUse"><stop offset="0" stop-color="#59b9a8"/><stop offset="1" stop-color="#e4e698"/></linearGradient><linearGradient id="linear-gradient-3" x1="16.52" y1="19.58" x2="16.52" y2="31.83" gradientUnits="userSpaceOnUse"><stop offset="0" stop-color="#e23332"/><stop offset="0.15" stop-color="#d43541"/><stop offset="0.72" stop-color="#a03e78"/><stop offset="1" stop-color="#8c418e"/></linearGradient><linearGradient id="linear-gradient-4" x1="25.48" y1="16.31" x2="25.48" y2="22.85" gradientUnits="userSpaceOnUse"><stop offset="0" stop-color="#ee8579"/><stop offset="0.63" stop-color="#f6b274"/><stop offset="1" stop-color="#fac872"/></linearGradient></defs><title>Asset 24</title><g id="Layer_2" data-name="Layer 2"><g id="Layer_1-2" data-name="Layer 1"><path class="cls-2" d="M5.36.5H105.47a4.85,4.85,0,0,1,4.85,4.85V31.57a4.85,4.85,0,0,1-4.85,4.85H5.35A4.85,4.85,0,0,1,.5,31.57V5.36A4.86,4.86,0,0,1,5.36.5Z"/><g id="PLAY"><g class="cls-3"><polygon class="cls-4" points="8.74 7.42 8.74 19.58 8.74 31.74 21 19.58 8.74 7.42"/><polygon class="cls-5" points="24.3 16.31 19.35 13.45 8.74 7.33 8.74 7.42 21 19.58 24.3 16.31"/><polygon class="cls-6" points="8.74 31.74 8.74 31.83 19.35 25.71 24.3 22.85 21 19.58 8.74 31.74"/><polygon class="cls-7" points="24.3 16.31 21 19.58 24.3 22.85 29.96 19.58 24.3 16.31"/></g></g><path class="cls-8" d="M86,24.34a3.05,3.05,0,0,1-1.26-.26,2.41,2.41,0,0,1-1-.78h-.08a9.72,9.72,0,0,1,.08,1.17v2.91H82.68V17.13h.87l.15,1h0a2.38,2.38,0,0,1,1-.84A3,3,0,0,1,86,17a2.61,2.61,0,0,1,2.17,1,4.27,4.27,0,0,1,.77,2.7,4.21,4.21,0,0,1-.78,2.71A2.64,2.64,0,0,1,86,24.34Zm-.16-6.43a1.88,1.88,0,0,0-1.56.6,3.05,3.05,0,0,0-.5,1.91v.24a3.49,3.49,0,0,0,.5,2.14,1.9,1.9,0,0,0,1.59.64,1.68,1.68,0,0,0,1.44-.74,3.59,3.59,0,0,0,.52-2.05,3.44,3.44,0,0,0-.52-2A1.73,1.73,0,0,0,85.81,17.91Z"/><path class="cls-8" d="M91.39,24.21H90.32v-10h1.07Z"/><path class="cls-8" d="M97.55,24.21l-.22-1h0a3,3,0,0,1-1,.9,3.18,3.18,0,0,1-1.32.24,2.38,2.38,0,0,1-1.65-.55,2,2,0,0,1-.59-1.54q0-2.14,3.42-2.25l1.21,0v-.44a1.77,1.77,0,0,0-.36-1.23,1.46,1.46,0,0,0-1.15-.4,4.66,4.66,0,0,0-2,.54l-.33-.82a4.65,4.65,0,0,1,1.15-.44A4.82,4.82,0,0,1,95.86,17a2.66,2.66,0,0,1,1.87.56,2.32,2.32,0,0,1,.61,1.8v4.83Zm-2.42-.76a2.16,2.16,0,0,0,1.57-.55,2,2,0,0,0,.57-1.53v-.64l-1.07,0a3.8,3.8,0,0,0-1.84.4,1.19,1.19,0,0,0-.57,1.09,1.12,1.12,0,0,0,.35.89A1.48,1.48,0,0,0,95.13,23.45Z"/><path class="cls-8" d="M99,17.13h1.15l1.55,4a14.84,14.84,0,0,1,.63,2h.06c.05-.22.17-.59.35-1.13s.76-2.16,1.75-4.9h1.15l-3,8.06a3.93,3.93,0,0,1-1.06,1.69,2.19,2.19,0,0,1-1.48.5,4,4,0,0,1-1-.11v-.86a3.29,3.29,0,0,0,.8.08,1.63,1.63,0,0,0,1.57-1.24l.4-1Z"/><path class="cls-8" d="M66.12,17.79a2.41,2.41,0,0,1-.19,4.1,1,1,0,0,0-.42.72.79.79,0,0,0,.39.64l.53.41a2.58,2.58,0,0,1,1.24,2.08c0,1.39-1.35,2.79-3.89,2.79-2.15,0-3.18-1-3.18-2.11a2.12,2.12,0,0,1,1.14-1.81,6.31,6.31,0,0,1,2.82-.68,1.6,1.6,0,0,1-.44-1,1.2,1.2,0,0,1,.15-.57l-.48,0a2.34,2.34,0,0,1-2.45-2.33,2.67,2.67,0,0,1,.94-2,4,4,0,0,1,2.65-.81h3l-.94.53Zm-1.05,6.57a1.83,1.83,0,0,0-.34,0,5.84,5.84,0,0,0-1.56.24,1.67,1.67,0,0,0-1.27,1.53c0,1.05,1,1.8,2.61,1.8,1.42,0,2.17-.68,2.17-1.6C66.68,25.56,66.19,25.16,65.07,24.36Zm.43-2.81a1.5,1.5,0,0,0,.37-1.08c0-1.07-.64-2.73-1.87-2.73a1.39,1.39,0,0,0-1,.49,1.67,1.67,0,0,0-.33,1.1c0,1,.58,2.63,1.85,2.63A1.56,1.56,0,0,0,65.5,21.55Z"/><path class="cls-8" d="M56.8,24.12a3.48,3.48,0,0,1-3.6-3.48A3.66,3.66,0,0,1,57,17.05a3.44,3.44,0,0,1,3.53,3.48A3.6,3.6,0,0,1,56.8,24.12Zm1.85-1.19a2.73,2.73,0,0,0,.44-1.64c0-1.3-.62-3.79-2.45-3.79a2.08,2.08,0,0,0-1.33.51,2.21,2.21,0,0,0-.68,1.8c0,1.46.72,3.87,2.51,3.87A1.89,1.89,0,0,0,58.65,22.93Z"/><path class="cls-8" d="M48.79,24.12a3.49,3.49,0,0,1-3.6-3.48A3.66,3.66,0,0,1,49,17.05a3.45,3.45,0,0,1,3.53,3.48A3.61,3.61,0,0,1,48.79,24.12Zm1.85-1.19a2.66,2.66,0,0,0,.44-1.64c0-1.3-.62-3.79-2.45-3.79A2.08,2.08,0,0,0,47.3,18a2.24,2.24,0,0,0-.68,1.8c0,1.46.73,3.87,2.51,3.87A1.89,1.89,0,0,0,50.64,22.93Z"/><path class="cls-8" d="M44.06,23.89l-2.12.49a15.2,15.2,0,0,1-2.45.25,5.27,5.27,0,0,1-5.66-5.37c0-2.89,2.21-5.56,6-5.56A8.7,8.7,0,0,1,42.1,14a6.1,6.1,0,0,1,2,.92l-1.23,1.18-.52.12.37-.6a4.26,4.26,0,0,0-3.18-1.39,4.09,4.09,0,0,0-4.11,4.38A5.25,5.25,0,0,0,40.64,24a4.41,4.41,0,0,0,1.89-.37V21.28l-2.24.12,1.19-.64h3.14l-.38.37a.34.34,0,0,0-.15.23c0,.14,0,.57,0,.72Z"/><path class="cls-8" d="M70.81,23.46c-.49,0-.59-.13-.59-.71V14.34s0-.06,0-.09c.06-.52.21-.61.67-.88H68.77l-1.11.54h1.13v9.17c0,.29-.06.34-.4.78H71l.55-.32Z"/><path class="cls-8" d="M76.86,23.6l-.49.27a3.46,3.46,0,0,1-1.43.28,3.12,3.12,0,0,1-2-.58,3.82,3.82,0,0,1-1.51-3.11,3.34,3.34,0,0,1,3.38-3.41,2.87,2.87,0,0,1,1.52.41,2.42,2.42,0,0,1,1,1.46l-3.46,1.41-1.14.08a3.28,3.28,0,0,0,3,3,3.82,3.82,0,0,0,1.8-.52Zm-1.39-4.4c.28-.1.43-.19.43-.39a1.46,1.46,0,0,0-1.46-1.27,1.81,1.81,0,0,0-1.7,2.05c0,.25,0,.51.05.78Z"/><path class="cls-8" d="M78.28,17.15v1h-.12v-1h-.32v-.1h.76v.1Z"/><path class="cls-8" d="M79.61,18.12v-1h0l-.3,1h-.09l-.3-1h0v1h-.1V17.05H79l.27.87h0l.27-.87h.18v1.07Z"/><path class="cls-9" d="M36.78,10.81H36a4.83,4.83,0,0,0-.21-.86H34.76a4.45,4.45,0,0,0-.21.86h-.7c0-.06.18-.55.54-1.48a11.66,11.66,0,0,0,.54-1.52h.87a12.19,12.19,0,0,0,.49,1.5A15.67,15.67,0,0,1,36.78,10.81Zm-1.07-1.3q-.39-1.2-.39-1.29h0c0,.06-.14.49-.41,1.29Z"/><path class="cls-9" d="M39.75,10.81h-.57a5.63,5.63,0,0,0-.63-1,5.23,5.23,0,0,1-.76-1.3h0a7.69,7.69,0,0,1,.06.91c0,.38,0,.84,0,1.39h-.56c0-.48,0-1,0-1.57s0-1,0-1.43H38a4.44,4.44,0,0,0,.57,1,5.82,5.82,0,0,1,.7,1.23h0a7.81,7.81,0,0,1,0-.92c0-.42,0-.85,0-1.28h.58c0,.38,0,.86,0,1.43S39.73,10.34,39.75,10.81Z"/><path class="cls-9" d="M43.09,9.2a1.72,1.72,0,0,1-.42,1.15,1.48,1.48,0,0,1-1.17.49l-.94,0c0-.47,0-1,0-1.57s0-1,0-1.43h.95a1.54,1.54,0,0,1,1.21.42A1.42,1.42,0,0,1,43.09,9.2Zm-.63.1a1.11,1.11,0,0,0-.25-.74,1,1,0,0,0-.79-.31l-.28,0c0,.31,0,.63,0,1s0,.73,0,1.09l.3,0a.87.87,0,0,0,.74-.31A1.22,1.22,0,0,0,42.46,9.3Z"/><path class="cls-9" d="M46.18,10.81h-.69a4.11,4.11,0,0,0-.41-1,.52.52,0,0,0-.46-.19h-.25c0,.4,0,.8,0,1.2h-.64c0-.47,0-1,0-1.57s0-1,0-1.43h1.09c.71,0,1.06.24,1.06.73a.81.81,0,0,1-.6.8v0a.72.72,0,0,1,.4.36A7.84,7.84,0,0,1,46.18,10.81Zm-.87-2.12c0-.31-.2-.46-.59-.46a2.17,2.17,0,0,0-.38,0c0,.24,0,.55,0,.93h.22C45.07,9.2,45.31,9,45.31,8.69Z"/><path class="cls-9" d="M49.48,9.25a1.67,1.67,0,0,1-.43,1.18,1.41,1.41,0,0,1-1.07.46,1.33,1.33,0,0,1-1-.43,1.45,1.45,0,0,1-.41-1.08A1.67,1.67,0,0,1,47,8.2a1.41,1.41,0,0,1,1.07-.46,1.36,1.36,0,0,1,1,.42A1.49,1.49,0,0,1,49.48,9.25Zm-.63.07a1.21,1.21,0,0,0-.25-.78.77.77,0,0,0-.61-.3.71.71,0,0,0-.57.3,1.19,1.19,0,0,0-.24.76,1.21,1.21,0,0,0,.25.78.77.77,0,0,0,.61.3.71.71,0,0,0,.57-.3A1.17,1.17,0,0,0,48.85,9.32Z"/><path class="cls-9" d="M50.79,10.81h-.66c0-.48,0-1,0-1.57s0-1,0-1.43h.66c0,.38,0,.86,0,1.43S50.77,10.34,50.79,10.81Z"/><path class="cls-9" d="M54.13,9.2a1.72,1.72,0,0,1-.42,1.15,1.49,1.49,0,0,1-1.18.49l-.94,0c0-.47,0-1,0-1.57s0-1,0-1.43h1a1.56,1.56,0,0,1,1.21.42A1.46,1.46,0,0,1,54.13,9.2Zm-.63.1a1.11,1.11,0,0,0-.26-.74,1,1,0,0,0-.79-.31l-.27,0c0,.31,0,.63,0,1s0,.73,0,1.09l.3,0a.85.85,0,0,0,.73-.31A1.16,1.16,0,0,0,53.5,9.3Z"/><path class="cls-9" d="M58.56,10.81h-.73a4.83,4.83,0,0,0-.21-.86H56.55a4.85,4.85,0,0,0-.22.86h-.69c0-.06.18-.55.54-1.48a11.66,11.66,0,0,0,.54-1.52h.87a12.19,12.19,0,0,0,.49,1.5A13.87,13.87,0,0,1,58.56,10.81ZM57.5,9.51c-.26-.8-.4-1.23-.4-1.29h0c0,.06-.14.49-.41,1.29Z"/><path class="cls-9" d="M61.26,8.59a.92.92,0,0,1-.41.82,1.9,1.9,0,0,1-1,.26h-.15c0,.28,0,.67,0,1.14h-.65c0-.44,0-1,0-1.57s0-1,0-1.43h1.15A1.34,1.34,0,0,1,61,8,.67.67,0,0,1,61.26,8.59Zm-.6.13c0-.33-.22-.49-.65-.49l-.35,0c0,.29,0,.62,0,1h.14C60.38,9.25,60.66,9.07,60.66,8.72Z"/><path class="cls-9" d="M64,8.59a.9.9,0,0,1-.41.82,1.86,1.86,0,0,1-1,.26h-.16c0,.28,0,.67,0,1.14h-.65c0-.44,0-1,0-1.57s0-1,0-1.43H63a1.34,1.34,0,0,1,.74.2A.67.67,0,0,1,64,8.59Zm-.59.13c0-.33-.22-.49-.66-.49l-.34,0c0,.29,0,.62,0,1h.13C63.15,9.25,63.43,9.07,63.43,8.72Z"/><path class="cls-9" d="M68.54,9.25a1.67,1.67,0,0,1-.43,1.18,1.41,1.41,0,0,1-1.07.46,1.33,1.33,0,0,1-1-.43,1.49,1.49,0,0,1-.41-1.08A1.67,1.67,0,0,1,66,8.2a1.41,1.41,0,0,1,1.07-.46,1.36,1.36,0,0,1,1,.42A1.49,1.49,0,0,1,68.54,9.25Zm-.63.07a1.16,1.16,0,0,0-.25-.78.76.76,0,0,0-.61-.3.71.71,0,0,0-.57.3,1.19,1.19,0,0,0-.24.76,1.21,1.21,0,0,0,.25.78.77.77,0,0,0,.61.3.69.69,0,0,0,.57-.3A1.17,1.17,0,0,0,67.91,9.32Z"/><path class="cls-9" d="M71.67,10.81H71.1a5.63,5.63,0,0,0-.63-1,5.23,5.23,0,0,1-.76-1.3h0a7.69,7.69,0,0,1,.06.91c0,.38,0,.84,0,1.39H69.2c0-.48,0-1,0-1.57s0-1,0-1.43h.68a4.44,4.44,0,0,0,.57,1,5.82,5.82,0,0,1,.7,1.23h0a7.81,7.81,0,0,1-.05-.92c0-.42,0-.85,0-1.28h.58c0,.38,0,.86,0,1.43S71.65,10.34,71.67,10.81Z"/></g></g></svg>