<svg xmlns="http://www.w3.org/2000/svg" xmlns:xlink="http://www.w3.org/1999/xlink" viewBox="0 0 257.83 63.97"><defs><style>.cls-1,.cls-17,.cls-22{fill:#fff;}.cls-2{fill:none;}.cls-3{fill:#c5d1cf;}.cls-4{fill:#f0f0f0;}.cls-5{clip-path:url(#clip-path);}.cls-6{fill:#280801;}.cls-7{fill:#362311;}.cls-8{fill:#f7871b;}.cls-9{fill:#ff9e22;}.cls-10{fill:#7a2f06;}.cls-11{fill:#90481d;}.cls-12{fill:#3c1105;}.cls-13{fill:#ff8d57;}.cls-14{fill:#4a2423;}.cls-15{fill:#8c3607;}.cls-16{fill:#732d10;}.cls-17{opacity:0.33;}.cls-18{isolation:isolate;}.cls-19{clip-path:url(#clip-path-2);}.cls-20{fill:#68d6d2;}.cls-20,.cls-22{opacity:0.25;}.cls-21{fill:#435042;}.cls-23{fill:#685a4d;}.cls-24{fill:#e76b41;}.cls-25{fill:#c54830;}.cls-26{fill:#91471d;}.cls-27{fill:#420502;}.cls-28{fill:#670804;}.cls-29{fill:#6e8b86;}.cls-30{fill:#a9bbb8;}.cls-31{fill:#f5541e;}.cls-32{fill:#fadb21;}.cls-33{fill:#9cb1ae;}</style><clipPath id="clip-path"><path class="cls-1" d="M67.93,30.85A21.54,21.54,0,1,1,46.39,9.31,21.54,21.54,0,0,1,67.93,30.85Z"/></clipPath><clipPath id="clip-path-2"><polygon class="cls-2" points="35.28 33.96 35.24 30 47.75 30.28 47.79 34.24 35.28 33.96"/></clipPath></defs><title>Asset 15</title><g id="Layer_2" data-name="Layer 2"><g id="Layer_1-2" data-name="Layer 1"><path class="cls-3" d="M256.82,3.41h0a3.19,3.19,0,0,0-.26-.26L254.43,1s-1.78.89-2.17,1.14H15.4L6.13,12.32c-2.84,1-6,2.15-6,2.15l2.07,2.22,0,0H15.35l-.14,42.91-1,1.15L16,62.5A3.85,3.85,0,0,0,19,64H254a3.84,3.84,0,0,0,3.84-3.83V6A3.79,3.79,0,0,0,256.82,3.41Z"/><path class="cls-4" d="M251.83,0H13.25L0,14.51H13.2L13.05,58a3.83,3.83,0,0,0,3.84,3.85H251.83A3.83,3.83,0,0,0,255.67,58V3.84A3.84,3.84,0,0,0,251.83,0Z"/><path class="cls-1" d="M67.93,30.85A21.54,21.54,0,1,1,46.39,9.31,21.54,21.54,0,0,1,67.93,30.85Z"/><g class="cls-5"><path class="cls-6" d="M35.07,20.81S30.88,25.33,33.43,31s8.32,9.16,9,8.93S43.2,24.26,35.07,20.81Z"/><polygon class="cls-7" points="35.31 31.19 39.62 30.34 39.31 29.98 35.58 30.75 35.31 31.19"/><path class="cls-8" d="M42,50.63a62.27,62.27,0,0,1-2.32,10.62h1.85a61.22,61.22,0,0,0,2.61-10.5c.25-1.76-2.39-3.76-4.07-3.17a1.81,1.81,0,0,0-.31.13C41.05,48.24,42.17,49.47,42,50.63Z"/><path class="cls-9" d="M39.72,61.25A62.27,62.27,0,0,0,42,50.63c.13-1.16-1-2.39-2.24-2.92h0c-.76.36-1,.88-1.61,2.5a54.32,54.32,0,0,0-2.43,11Z"/><path class="cls-9" d="M57.48,53.28A21.32,21.32,0,0,0,55.8,57l-2-3.4s-2.39,5.06-3.63,6-4.31.12-8,0a3.11,3.11,0,0,1-3.17-2.29h0a5.56,5.56,0,0,1,.27-1.39,12.32,12.32,0,0,0,.19-7.57s17.69-2.39,18.36.82S57.48,53.28,57.48,53.28Z"/><path class="cls-10" d="M51.11,45.33a8.43,8.43,0,0,1-3.06,2.35c-1.94.87-2.55-1.07-2.74-2.23,2.12-2.3.09-7.12.09-7.12l4.85-3.11S48.26,43,51.11,45.33Z"/><path class="cls-11" d="M51.13,28.76c0,1.72-.93,9.28-3.85,11.37a10.64,10.64,0,0,1-4.52.77c-2.17-.27-4.42-6.62-5.22-8.39s.64-9.8.64-9.8c.36-2.64,3.53-3.3,6.93-3.1l-.94.81s1.25,5.43,3.48,6.51S51.15,27,51.13,28.76Z"/><path class="cls-9" d="M57.58,48.62s-18.52.56-18.17-.38.66-.37,4.66-2a3.42,3.42,0,0,0,1.24-.83c.19,1.16.8,3.1,2.74,2.23a8.43,8.43,0,0,0,3.06-2.35,2.61,2.61,0,0,0,1,.54C57.06,47.06,57.58,48.62,57.58,48.62Z"/><path class="cls-12" d="M37.33,29c-.08,0,.6-1.08,1.25-1.19a4.87,4.87,0,0,1,2.19-.08,1.47,1.47,0,0,1,.29,1.1,2.74,2.74,0,0,0-1-.32A8.92,8.92,0,0,0,37.33,29Z"/><path class="cls-13" d="M41.1,31.39l-3.36-.2A1.75,1.75,0,0,1,39,30C40.32,29.64,41.1,31.39,41.1,31.39Z"/><path class="cls-14" d="M41.1,31.39H37.7l-.35-.22.39,0A1.75,1.75,0,0,1,39,30C40.32,29.64,41.1,31.39,41.1,31.39Z"/><path class="cls-1" d="M41.1,31.39a3.5,3.5,0,0,1-.84.51A2.21,2.21,0,0,1,38.7,32a2,2,0,0,1-.53-.24,2.39,2.39,0,0,1-.47-.36.7.7,0,0,1,0-.2A1.75,1.75,0,0,1,39,30C40.32,29.64,41.1,31.39,41.1,31.39Z"/><path class="cls-15" d="M40.24,30.88a1,1,0,1,1-1-1.21A1.13,1.13,0,0,1,40.24,30.88Z"/><path class="cls-12" d="M39.87,30.88a.66.66,0,1,1-.65-.77A.72.72,0,0,1,39.87,30.88Z"/><path class="cls-1" d="M38.84,30.82a.25.25,0,0,1-.23.28.28.28,0,0,1,0-.56A.25.25,0,0,1,38.84,30.82Z"/><path class="cls-16" d="M41.1,31.35a1.86,1.86,0,0,0-1.59-1.73c-1.53-.23-2.16,1.55-2.16,1.55.15-1,.82-2.67,2.46-2.31C41,29.12,41.09,31.06,41.1,31.35Z"/><path class="cls-14" d="M41.1,31.39S40.32,29.64,39,30a1.75,1.75,0,0,0-1.26,1.16l-.39,0s.63-1.78,2.16-1.55a1.86,1.86,0,0,1,1.59,1.73Z"/><path class="cls-14" d="M49.28,30.32l-.47.35-5,.51A3.4,3.4,0,0,1,46,29.26a3,3,0,0,1,2.64,1.17Z"/><path class="cls-16" d="M48.92,30.37a4.25,4.25,0,0,0-3.2-1.62c-1.95.07-2.23,2.49-2.23,2.49s-.53-3.18,1.95-3.31S48.86,30.22,48.92,30.37Z"/><path class="cls-1" d="M48.45,30.73A4,4,0,0,1,47,31.82a3.23,3.23,0,0,1-.82.19,3.35,3.35,0,0,1-1.06-.07,3.76,3.76,0,0,1-.78-.25,4,4,0,0,1-.8-.45,3.4,3.4,0,0,1,2.12-1.92,3,3,0,0,1,2.64,1.17A2.51,2.51,0,0,1,48.45,30.73Z"/><path class="cls-15" d="M46.76,30.46a1.28,1.28,0,1,1-1.28-1.37A1.32,1.32,0,0,1,46.76,30.46Z"/><path class="cls-12" d="M46.29,30.46a.81.81,0,1,1-.81-.87A.84.84,0,0,1,46.29,30.46Z"/><path class="cls-1" d="M45,30.39a.3.3,0,1,1-.3-.32A.3.3,0,0,1,45,30.39Z"/><path class="cls-14" d="M48.92,30.38l-.67.11a3,3,0,0,0-2.64-1.17,3.4,3.4,0,0,0-2.12,1.92h0s.28-2.42,2.23-2.49a4.25,4.25,0,0,1,3.2,1.62Z"/><path class="cls-10" d="M43,34.49c-.12.38-1.09,0-1.63,0s-.63.42-1.24-.19a.73.73,0,0,1-.27-.67c.06-.31.39-.59.76-.88.62-.46.18-2.64.18-2.64.45.31.35,2.16.25,2.53s-.48.57-.76.85a.82.82,0,0,0-.26.36c-.06.29.53.77.91.53s.81,0,1.31.06.57-.15.65-.46-.16-.34-.33-.44l-.1-.05h0l-.12,0a.53.53,0,0,1,.55.25A1,1,0,0,1,43,34.49Z"/><path class="cls-15" d="M42.9,34c-.08.31-.13.52-.65.46s-.92-.29-1.31-.06-1-.24-.91-.53a.82.82,0,0,1,.26-.36,3.06,3.06,0,0,0,1.76.27c.47-.2.45-.25.42-.27l.1.05C42.74,33.69,42.94,33.85,42.9,34Z"/><path class="cls-17" d="M41.26,34c0,.1-.26.14-.56.1s-.54-.15-.52-.25.26-.13.56-.09S41.27,34,41.26,34Z"/><path class="cls-12" d="M48.51,27.78a3.23,3.23,0,0,0-1.89-.86,9.32,9.32,0,0,0-2.93.36,1.08,1.08,0,0,0-.18,1.08,4.73,4.73,0,0,1,1.26-.49A16.63,16.63,0,0,1,48.51,27.78Z"/><path class="cls-15" d="M52.65,35.16a8.83,8.83,0,0,1-5.39,5c2.92-2.09,3.83-9.64,3.85-11.37s-1.25-.75-3.48-1.83-3.48-6.51-3.48-6.51l.94-.8c4.11.24,8.55,1.75,8.81,2.57C54.38,23.68,54.38,30.48,52.65,35.16Z"/><path class="cls-8" d="M42.53,60.89s0,.13,0,.36h5.07l0-1.25c-1.44-.08-3.28-.35-5.29-.42a3.11,3.11,0,0,1-3.17-2.29C39,60.43,42.53,60.89,42.53,60.89Z"/><path class="cls-8" d="M54.44,61.25c.13-.48.26-1,.4-1.44h0v0c.31-1,.63-2,.95-2.79l-2-3.4s-2.39,5.06-3.63,6a4.19,4.19,0,0,1-2.67.42l0,1.25Z"/><g class="cls-18"><g class="cls-19"><path class="cls-7" d="M39.44,30.64l.48,0h0c.13,0,.55,0,.6.43v.17q0,.21,0,.45h0a5.5,5.5,0,0,1-.28,1.38h0v0h0a.67.67,0,0,1-.19.27h0a8,8,0,0,1-2.46.32h-.39a3.83,3.83,0,0,1-.87-.17l-.16-.06h0a.91.91,0,0,1-.16-.11h0a.84.84,0,0,1-.23-.4v0a6.26,6.26,0,0,1-.14-.83,2.49,2.49,0,0,1,0-.92h0v0h0l0,0a3.19,3.19,0,0,1,1.48-.34h.14l.66,0h1.55Zm-4,.19c-.44.41-.06,2,0,2.2a1,1,0,0,0,.59.71,4.15,4.15,0,0,0,1.51.27h.36a7.93,7.93,0,0,0,2.2-.33c.64-.26.72-2.35.72-2.58h0l-.16.07c0-.1-.09-.19-.13-.29l.2-.08A.87.87,0,0,0,40,30.4h-.06l-.47,0C38.38,30.36,36,30.36,35.45,30.83Z"/><path class="cls-20" d="M36.44,30.77a1.78,1.78,0,0,0-.83.26l0,0h0v0h0v0h0a2.55,2.55,0,0,0,0,.66Z"/><path class="cls-21" d="M35.54,31.17h0Zm0,0h0Zm0,0h0Zm0,0v0Zm0,0h0Zm0,0h0Zm0,0h0Zm0,0h0Zm0,0,0,0Z"/><path class="cls-20" d="M38.85,30.64H38.3l-2.4,2.73a.91.91,0,0,0,.16.11h0l.16.06Z"/><path class="cls-21" d="M36.27,33.56h0l-.16-.06Zm-.19-.07h0Zm-.18-.12a.91.91,0,0,0,.16.11.91.91,0,0,1-.16-.11Zm2.87-2.73h0Z"/><path class="cls-20" d="M40.53,31.71l-1.74,2a5.29,5.29,0,0,0,1.2-.25h0a.67.67,0,0,0,.19-.27h0v0h0A5.5,5.5,0,0,0,40.53,31.71Z"/><path class="cls-21" d="M40,33.43h0Zm0,0Zm0,0h0Zm.2-.27Zm0,0v0Zm.29-1.41a5.5,5.5,0,0,1-.28,1.38,5.5,5.5,0,0,0,.28-1.38Z"/><path class="cls-7" d="M46.22,30.52a2.29,2.29,0,0,1,1.09.24,1.78,1.78,0,0,1,.2,1.15v0q0,.36-.06.72v0a.69.69,0,0,1-.37.54,3.9,3.9,0,0,1-1.4.32h0c-.24,0-.5,0-.74,0a9.66,9.66,0,0,1-1.2-.1,4,4,0,0,1-.55-.12.37.37,0,0,1-.17-.14h0v0h0a2,2,0,0,1-.21-.44h0l0,0v0h0a3.41,3.41,0,0,1-.15-.51h0v0h0V32h0V32h0l0-.16h0v-.07h0s0,0,0,0h0v-.08c0-.2-.07-.4-.09-.57,0-.45.58-.46.6-.46.4,0,1.07-.08,1.75-.09h1ZM43,30.33a.84.84,0,0,0-.77.43l.16.06-.09.29-.13,0h0c0,.24.31,2.32,1,2.54a7,7,0,0,0,1.81.23h.41a4.56,4.56,0,0,0,1.85-.35,1,1,0,0,0,.51-.74c0-.18.25-1.8-.23-2.19a3.86,3.86,0,0,0-1.86-.33C44.45,30.21,43.19,30.31,43,30.33Z"/><path class="cls-20" d="M43.4,30.56l-.42,0s-.59,0-.6.46c0,.17,0,.37.09.57Z"/><path class="cls-21" d="M42.47,31.62h0c0-.2-.07-.4-.09-.57C42.4,31.22,42.43,31.42,42.47,31.62Zm-.09-.57c0-.45.58-.46.6-.46S42.39,30.6,42.38,31.05Z"/><path class="cls-20" d="M45.66,30.49h-.44l-2.3,2.6.06.1h0v0h0a.37.37,0,0,0,.17.14h0l2.54-2.87Z"/><path class="cls-21" d="M43.18,33.36a.37.37,0,0,1-.17-.14A.37.37,0,0,0,43.18,33.36ZM43,33.22v0Zm0,0Zm2.48-2.7h0Z"/><path class="cls-20" d="M47.51,31.48l-1.84,2.09a3.8,3.8,0,0,0,1.4-.32.69.69,0,0,0,.37-.54v0q0-.36.06-.72v0C47.52,31.76,47.51,31.62,47.51,31.48Z"/><path class="cls-21" d="M45.67,33.57h0a3.9,3.9,0,0,0,1.4-.32A3.8,3.8,0,0,1,45.67,33.57Zm1.78-.9q0-.36.06-.72Q47.5,32.31,47.45,32.67Zm.06-.74v0Z"/><path class="cls-7" d="M41.53,30.65a2.22,2.22,0,0,0-.81.13l-.2.08c0,.1.09.19.13.29l.16-.07a2.22,2.22,0,0,1,.72-.12,2.11,2.11,0,0,1,.6.11l.13,0,.09-.29-.16-.06A2.17,2.17,0,0,0,41.53,30.65Z"/><path class="cls-22" d="M38.3,30.64h-.41l-.66,0h-.14l-.65.08-.95,1.07,0,.26c0,.27.08.55.14.83v0a.84.84,0,0,0,.23.4Z"/><path class="cls-23" d="M35.9,33.37h0a.84.84,0,0,1-.23-.4A.84.84,0,0,0,35.9,33.37Zm-.24-.44c-.06-.28-.11-.56-.14-.83A6.26,6.26,0,0,0,35.66,32.93Zm1.43-2.24h0Zm.1,0h0Zm0,0,.66,0Zm.68,0h0Zm0,0h0Zm.08,0h0Zm.13,0h0Z"/><path class="cls-22" d="M39.45,30.64h-.6l-2.58,2.92a3.83,3.83,0,0,0,.87.17h.39a8.55,8.55,0,0,0,1.26-.07l1.74-2q0-.24,0-.45v-.17c-.05-.39-.47-.43-.6-.43h0Z"/><path class="cls-23" d="M37.28,33.74h0Zm-.06,0h0Zm-.95-.18a3.83,3.83,0,0,0,.87.17,3.83,3.83,0,0,1-.87-.17Zm4.26-1.85h0q0-.24,0-.45Q40.54,31.47,40.53,31.71Zm0-.47v0Zm-1.71-.6h.6l.47,0h0c.13,0,.55,0,.6.43-.05-.39-.47-.43-.6-.43h0l-.48,0Z"/><path class="cls-22" d="M45.22,30.49h-.49c-.48,0-.95,0-1.33.06l-.93,1.06v.08h0s0,0,0,0h0v.07h0l0,.16h0V32h0v.07h0v0h0a3.41,3.41,0,0,0,.15.51h0v0l0,0h0a2.84,2.84,0,0,0,.15.34Z"/><path class="cls-23" d="M42.75,32.71v0Zm0,0a3.41,3.41,0,0,1-.15-.51A3.41,3.41,0,0,0,42.74,32.67Zm-.15-.52v0Zm0,0v0Zm0-.07h0Zm0-.06Zm0-.16Zm0,0v0Zm0,0s0,0,0,0S42.49,31.72,42.49,31.74Zm0-.12v0Zm2.26-1.12h0Z"/><path class="cls-22" d="M45.76,30.5l-2.54,2.87a2.89,2.89,0,0,0,.51.11,9.66,9.66,0,0,0,1.2.1c.24,0,.5,0,.74,0l1.84-2.09a1.12,1.12,0,0,0-.2-.72,2.42,2.42,0,0,0-1.09-.24Z"/><path class="cls-23" d="M44.93,33.58c.24,0,.5,0,.74,0h0c-.24,0-.5,0-.74,0a9.66,9.66,0,0,1-1.2-.1A9.66,9.66,0,0,0,44.93,33.58Zm.83-3.08.46,0-.46,0Z"/></g></g><polygon class="cls-7" points="47.7 31.03 52 30.18 51.7 29.82 47.46 30.56 47.7 31.03"/><path class="cls-16" d="M51,32.61a3.67,3.67,0,0,1,.51-3.6c.54-.67,1.31-1.17,2.09-.7,1.27.79,1.28,3.88-.22,5.36a1.15,1.15,0,0,1-1.8-.05A3.9,3.9,0,0,1,51,32.61Z"/><path class="cls-24" d="M53.64,29.89s.21.59-.12.42-1.32-.6-1.09.1,1,1.07.57,1.66-.51.5-.7.33c0,0,.54-.31.44-.65a2.93,2.93,0,0,1,0-.63s-.52-.23-.52-.23l-.28-.65.15-.5,1-.41A1.09,1.09,0,0,1,53.64,29.89Z"/><path class="cls-25" d="M52.53,29.34s1.07-.14,1,.63.14-.56-.67-.33-.8.1-.82.54.21.59.74.82-.24,1.65-.48,1.44.76-1,.35-1.21-1-.66-.9-1.08A1.28,1.28,0,0,1,52.53,29.34Z"/><path class="cls-10" d="M57.91,61.25h.87a87.67,87.67,0,0,0,0-10.7,3.73,3.73,0,0,0-1.64-2.5H57a3.42,3.42,0,0,1,.93,1.89A88.55,88.55,0,0,1,57.91,61.25Z"/><path class="cls-26" d="M57.91,61.25a88.55,88.55,0,0,0,0-11.31A3.42,3.42,0,0,0,57,48.05c-.6,0-3,.42-3.82,5.1a38.71,38.71,0,0,0-.1,8.1Z"/><path class="cls-8" d="M56.39,50.05a59.33,59.33,0,0,1,.39,11.2h2.58a67,67,0,0,0-.71-11.7c-.26-1.76-3.56-3.41-5.09-1.87-.1.09-.21.14-.3.21C54.71,48,56.21,48.9,56.39,50.05Z"/><path class="cls-9" d="M56.78,61.25a59.33,59.33,0,0,0-.39-11.2c-.18-1.15-1.68-2-3.13-2.16h0c-.7.56-.8,1.14-1,2.88a48.17,48.17,0,0,0,.29,10.48Z"/><path class="cls-27" d="M41.16,36.64l.14.46s1,1.15,1.07,1.15,2.39-1.17,2.39-1.17l.94-1-.2,0-2.18.22Z"/><path class="cls-28" d="M45.7,36.11l-.33.06a8.71,8.71,0,0,1-4.21.47s-.13-1.36.44-.9.72-.12,1.36,0C44.71,36.13,45.13,36.23,45.7,36.11Z"/><path class="cls-28" d="M42.32,37.63a1.42,1.42,0,0,1-1.16-1,4,4,0,0,0,.54,1.43h0a1.16,1.16,0,0,0,.88.39c1.83,0,2.92-2.1,3.12-2.35C44,37.31,43,37.66,42.32,37.63Z"/><path class="cls-1" d="M45.38,36.17A7.43,7.43,0,0,1,42,37c-.72-.06-.81-.36-.81-.36a8.71,8.71,0,0,0,4.21-.47Z"/><path class="cls-6" d="M36.9,35.23l.06.09a1.75,1.75,0,0,1,.15.24l.25.35.19.21.15.16a.46.46,0,0,1,.11.27.33.33,0,0,1-.13.28,1,1,0,0,1-.25.13,1.31,1.31,0,0,1,0-.14.26.26,0,0,0,0-.12l0-.05h0l-.12-.07a1,1,0,0,1-.37-.34A.87.87,0,0,1,36.9,35.23Z"/><path class="cls-6" d="M47.23,23.28c.5.17,5.18,4.43,3.53,9s1.61,7.13,5.05,5.24c3.65-2,8.62-18.21-4.39-23.31C39.26,9.48,34.83,18,34.83,22S38.77,20.32,47.23,23.28Z"/><path class="cls-6" d="M40.47,21.31s-2.63,1.8-1.23,2.87-.14,2.58-.32,2.77,1-1.45.15-2.11S37.51,22,38.5,21.63A7.18,7.18,0,0,1,40.47,21.31Z"/><path class="cls-6" d="M38.93,19.85A14.81,14.81,0,0,0,37.39,23c-.61,1.79.25,1.6.19,2.4a6.08,6.08,0,0,0-.12,2.28,3.84,3.84,0,0,1-.44-2c.19-.74-1.54-1.85-.49-3.51A6.84,6.84,0,0,1,38.93,19.85Z"/><path class="cls-6" d="M39.81,22.41l-.15.16a3.08,3.08,0,0,0-.36.46.85.85,0,0,0-.13.3.78.78,0,0,0,.09.41c.08.19.16.4.24.64a.77.77,0,0,1,0,.4c0,.13-.15.24-.24.21a.16.16,0,0,0,0-.17.58.58,0,0,0-.1-.19,3.28,3.28,0,0,1-.25-.35,2.24,2.24,0,0,1-.28-.47,1,1,0,0,1-.1-.37.85.85,0,0,1,.1-.4,1.19,1.19,0,0,1,.49-.48A1.17,1.17,0,0,1,39.81,22.41Z"/><path class="cls-6" d="M51.19,31.85l-.08-.08a1.4,1.4,0,0,1-.2-.29,1.64,1.64,0,0,1-.12-1.33,2.43,2.43,0,0,1,.18-.39.35.35,0,0,0,.06-.23.77.77,0,0,0-.17-.29,1.78,1.78,0,0,1-.31-.52c-.14-.49.09-.85,0-1.19a1.52,1.52,0,0,0-.27-.54.73.73,0,0,1-.17-.58.3.3,0,0,0,0,.1.8.8,0,0,0,.21.25,3.12,3.12,0,0,1,.45.45,1.11,1.11,0,0,1,.17.45,3.54,3.54,0,0,1,0,.45,1,1,0,0,0,0,.35.57.57,0,0,0,.15.27,2.53,2.53,0,0,1,.31.44.79.79,0,0,1,.09.35.65.65,0,0,1-.08.35,4.5,4.5,0,0,1-.27.44,1.67,1.67,0,0,0-.16.46A1.79,1.79,0,0,0,51.19,31.85Z"/><path class="cls-6" d="M50.26,26.76l-.11,0a1.34,1.34,0,0,1-.28-.12,1.29,1.29,0,0,1-.38-.34,1.41,1.41,0,0,1-.26-.67c0-.26,0-.51,0-.67a.35.35,0,0,0-.1-.2,1.34,1.34,0,0,0-.32-.22,1.58,1.58,0,0,1-.41-.37,2.23,2.23,0,0,1-.26-.48,5.11,5.11,0,0,0-.45-1l.11.07a1.86,1.86,0,0,1,.26.25c.21.22.42.61.7.87A1,1,0,0,0,49,24l.35.19a1,1,0,0,1,.38.43,1,1,0,0,1,.06.54,2.34,2.34,0,0,0,0,.83A1.48,1.48,0,0,0,50.26,26.76Z"/><path class="cls-6" d="M49.41,25.39a1.31,1.31,0,0,1-.32-.06,1.64,1.64,0,0,1-.8-.53,1.72,1.72,0,0,1-.35-.61c-.07-.23-.11-.46-.19-.66a.72.72,0,0,0-.46-.48c-.27-.12-.56-.24-.87-.39h.39l.45,0a1.33,1.33,0,0,1,.63.2,1.31,1.31,0,0,1,.46.67c.08.23.11.46.18.65A2.54,2.54,0,0,0,49.41,25.39Z"/><path class="cls-6" d="M48,23.75l-.51-.25-.61-.32a1.3,1.3,0,0,0-.73-.18c-.12,0-.28.08-.51.14a1.22,1.22,0,0,1-.4.05,1.12,1.12,0,0,1-.39-.11,3,3,0,0,1-.3-.13c-.1,0-.2-.07-.3-.09a6,6,0,0,0-.69-.14c-1-.13-2.16-.31-3.42-.57,0,0,1.1-.08,2.69,0,.39,0,.82,0,1.29.11a4.15,4.15,0,0,1,.72.21,1.94,1.94,0,0,0,.3.14.52.52,0,0,0,.24.05c.19,0,.43-.1.72-.12a1.35,1.35,0,0,1,.77.24,5.38,5.38,0,0,1,.59.48Q47.7,23.48,48,23.75Z"/><path class="cls-6" d="M41.53,22.4l-.52,0a3.69,3.69,0,0,0-.6.08,1.69,1.69,0,0,0-.35.1c-.12,0-.21.1-.41.19a1,1,0,0,1-.36.06,1.22,1.22,0,0,1-.35-.06,4.32,4.32,0,0,1-.56-.23.47.47,0,0,0-.61,0,1.37,1.37,0,0,1-.36.21,4,4,0,0,1-.76.13,1.73,1.73,0,0,0-.65.27,5.11,5.11,0,0,0-1.13,1.25l.06-.17c0-.12.11-.28.21-.48a2.9,2.9,0,0,1,.45-.7,2,2,0,0,1,.95-.64c.21-.06.4-.08.55-.12a.68.68,0,0,0,.19-.08l.22-.17a.93.93,0,0,1,.4-.19,1,1,0,0,1,.45,0,3.76,3.76,0,0,1,.63.29.71.71,0,0,0,.5.1l.32-.1.36-.06A3.72,3.72,0,0,1,41.53,22.4Z"/><path class="cls-6" d="M35.94,23.37a.41.41,0,0,0-.14.1,1,1,0,0,0-.21.54,5.08,5.08,0,0,1-.11.58,1.5,1.5,0,0,1-.15.38,2.78,2.78,0,0,1-.26.32,2.57,2.57,0,0,0-.5.55.62.62,0,0,0-.07.39,2.64,2.64,0,0,0,.13.46l-.08-.06a1.92,1.92,0,0,1-.19-.23.8.8,0,0,1-.17-.5,1.2,1.2,0,0,1,.22-.63c.12-.19.25-.34.36-.49a1.59,1.59,0,0,0,.13-.22l.1-.29a1.91,1.91,0,0,1,.32-.7.76.76,0,0,1,.31-.23A.33.33,0,0,1,35.94,23.37Z"/><path class="cls-6" d="M35.85,21.93s0,.05,0,.16a3,3,0,0,1,0,.46,1.94,1.94,0,0,0,0,.59.76.76,0,0,0,.13.28,4,4,0,0,1,.26.49,1.47,1.47,0,0,1,.08.75,2.84,2.84,0,0,1-.21.68,2.73,2.73,0,0,0-.36,1.15c0,.4.34.9.41,1.52a2.53,2.53,0,0,1-.44,1.75,1.32,1.32,0,0,0,0-.18,2.72,2.72,0,0,0,.06-.5,3.12,3.12,0,0,0-.09-.76,3.32,3.32,0,0,0-.37-.89,2.56,2.56,0,0,1-.27-.62,1.63,1.63,0,0,1,0-.82,7.9,7.9,0,0,1,.53-1.31,1,1,0,0,0,.06-.55c0-.19-.17-.42-.22-.69a1.47,1.47,0,0,1,.1-.76A6,6,0,0,0,35.85,21.93Z"/><path class="cls-6" d="M37.73,22l.08.18.21.51.16.36a1.34,1.34,0,0,1,.2.57,1,1,0,0,1-.21.67,2.17,2.17,0,0,1-.52.48l.08-.27a2.56,2.56,0,0,0,.13-.59.79.79,0,0,0,0-.3c0-.1-.12-.27-.18-.46A1.53,1.53,0,0,1,37.73,22Z"/><path class="cls-6" d="M58,20l.06.06a.79.79,0,0,0,.16.18c.14.16.39.36.73.69a2.54,2.54,0,0,1,.51.65,2.09,2.09,0,0,1,.19,1,6.51,6.51,0,0,1-.16,1.05,3.12,3.12,0,0,0-.09,1.16l-.06-.11a1.76,1.76,0,0,1-.13-.36,4.61,4.61,0,0,1-.1-1.25,4.46,4.46,0,0,0,0-.73,1.76,1.76,0,0,0-.24-.71c-.13-.23-.33-.48-.5-.75A2,2,0,0,1,58,20Z"/><path class="cls-6" d="M59.15,24.22l0,.07s0,.11.1.2a5.63,5.63,0,0,0,.57.75,2.77,2.77,0,0,1,.41.71,1.19,1.19,0,0,1,.09.51,1.28,1.28,0,0,1-.14.55,3.47,3.47,0,0,1-.3.42,4.38,4.38,0,0,0-.28.42,3.79,3.79,0,0,0-.43,1.06,2.49,2.49,0,0,1,0-.49,2.76,2.76,0,0,1,.34-1.24,1.93,1.93,0,0,0,.27-.6,1.12,1.12,0,0,0-.12-.66c-.1-.25-.26-.51-.39-.81A1.23,1.23,0,0,1,59.15,24.22Z"/><path class="cls-6" d="M58.75,25.61s0,.12.13.34a5.14,5.14,0,0,0,.5.88,4.51,4.51,0,0,0,.48.56,1.2,1.2,0,0,1,.33.49,1,1,0,0,1-.08.66,4.65,4.65,0,0,1-1.64,1.71l.29-.41a12,12,0,0,0,.64-1.07,2.38,2.38,0,0,0,.26-.64.3.3,0,0,0-.09-.22c-.08-.09-.21-.23-.31-.36A2.51,2.51,0,0,1,58.75,25.61Z"/><path class="cls-6" d="M58.66,27.26l.14.34a4.28,4.28,0,0,0,.5.89,4.51,4.51,0,0,0,.48.56,1.15,1.15,0,0,1,.33.49.93.93,0,0,1-.08.65,4,4,0,0,1-.68.93,4.52,4.52,0,0,1-1,.79s.12-.15.29-.41a8.56,8.56,0,0,0,.64-1.07,2.19,2.19,0,0,0,.26-.64.3.3,0,0,0-.09-.22c-.07-.1-.2-.23-.31-.37A2.58,2.58,0,0,1,58.66,27.26Z"/><path class="cls-6" d="M58.13,29.78a8.42,8.42,0,0,1,.65,1.32,1.38,1.38,0,0,1,.13.43.8.8,0,0,1,0,.34.9.9,0,0,1-.15.24c-.21.24-.4.45-.64.7a2.61,2.61,0,0,0-.62.78,1.92,1.92,0,0,1-.22.55c-.11.17-.29.29-.33.57a.42.42,0,0,1,0-.16,1.11,1.11,0,0,1,.11-.39,1.11,1.11,0,0,0,.07-.47,1.61,1.61,0,0,1,.07-.4,1.62,1.62,0,0,1,.19-.4,8,8,0,0,1,.52-.67c.1-.12.2-.23.31-.34a1.05,1.05,0,0,0,.2-.26c0-.05,0-.2,0-.36s-.07-.31-.09-.48A6.51,6.51,0,0,1,58.13,29.78Z"/><path class="cls-6" d="M57.35,32.88a1,1,0,0,0,0,.18c0,.12.12.29.25.57a2.4,2.4,0,0,1,.2.55.87.87,0,0,1,0,.57.77.77,0,0,1-.31.33,2.56,2.56,0,0,1-.59.23.79.79,0,0,0-.29.17.73.73,0,0,0-.22.4.83.83,0,0,1,0-.45,1.27,1.27,0,0,1,.21-.42,2.2,2.2,0,0,1,.37-.33,2.15,2.15,0,0,0,.29-.24h0s0-.11,0-.2a5.88,5.88,0,0,1-.11-.69A.94.94,0,0,1,57.35,32.88Z"/><path class="cls-6" d="M51,36.24a.68.68,0,0,1-.31,0,.89.89,0,0,1-.65-.49,1.33,1.33,0,0,1,0-1.12c.07-.18.17-.35.26-.54a1.5,1.5,0,0,0,.16-.67l0,.06a.93.93,0,0,1,.1.22,1.58,1.58,0,0,1,0,.79c-.06.3-.16.58-.2.85a.79.79,0,0,0,.06.44A.63.63,0,0,0,51,36.24Z"/><path class="cls-6" d="M57.55,20.14s0-.09,0-.26,0-.18,0-.27a.32.32,0,0,0-.11-.21.36.36,0,0,0-.11-.06l-.25,0a1.08,1.08,0,0,1-.42-.14.84.84,0,0,1-.31-.37,4.45,4.45,0,0,0-.26-.73,1.81,1.81,0,0,0-.59-.66h.1a1.12,1.12,0,0,1,.28.08,1.56,1.56,0,0,1,.79.71,2.19,2.19,0,0,0,.23.43.26.26,0,0,0,.15.08l.33.09a.71.71,0,0,1,.39.24.62.62,0,0,1,.12.42A1.18,1.18,0,0,1,57.55,20.14Z"/><path class="cls-6" d="M55.91,18v-.06a.82.82,0,0,0,0-.18,1.17,1.17,0,0,0-.3-.57,1.29,1.29,0,0,0-.4-.29,1.4,1.4,0,0,1-.34-.25,1.55,1.55,0,0,1-.24-.37c-.06-.11-.11-.22-.17-.31a1.15,1.15,0,0,0-.27-.27,1.28,1.28,0,0,0-.9-.24l.1-.06a1.28,1.28,0,0,1,.3-.1,1.32,1.32,0,0,1,1.11.33,3.21,3.21,0,0,1,.41.54.69.69,0,0,0,.17.17c.08.06.19.12.3.21a1.13,1.13,0,0,1,.44.72A.91.91,0,0,1,55.91,18Z"/><path class="cls-6" d="M57.09,18.89,57,18.71a2.57,2.57,0,0,0-.14-.42,1,1,0,0,0-.15-.2,1.35,1.35,0,0,0-.34-.18,1.11,1.11,0,0,1-.48-.43,1.81,1.81,0,0,1-.24-.61l.21.14a2.48,2.48,0,0,0,.48.31l.34.12a1,1,0,0,1,.27.12,1,1,0,0,1,.23.24.84.84,0,0,1,.11.59A1.06,1.06,0,0,1,57.09,18.89Z"/><path class="cls-6" d="M53.76,15.69l-.34-.19L53,15.24l-.51-.35a.57.57,0,0,0-.24-.11,1.58,1.58,0,0,0-.34,0,2.14,2.14,0,0,1-.5,0,1.36,1.36,0,0,1-.56-.21c-.32-.22-.54-.48-.87-.68a3.07,3.07,0,0,0-1.16-.42l.14,0a3.1,3.1,0,0,1,.39,0,2.51,2.51,0,0,1,1.34.42,3.37,3.37,0,0,0,.66.36,1.31,1.31,0,0,0,.37,0,2.43,2.43,0,0,1,.52,0,1.13,1.13,0,0,1,.52.27,4.14,4.14,0,0,1,.35.38A8.39,8.39,0,0,1,53.76,15.69Z"/><path class="cls-6" d="M50.35,14.25,50,14.14,49.49,14l-.3-.11a2.22,2.22,0,0,0-.31-.1.44.44,0,0,0-.25,0,1.9,1.9,0,0,0-.37.12,1.63,1.63,0,0,1-.28.07,1,1,0,0,1-.34,0,1.93,1.93,0,0,1-.56-.25,2.46,2.46,0,0,0-.45-.25,3,3,0,0,0-.55-.14,9,9,0,0,0-1.31-.08,4.59,4.59,0,0,1,.52-.17A3.06,3.06,0,0,1,46.76,13a2.22,2.22,0,0,1,.47.17l.38.19a.55.55,0,0,0,.31,0c.12,0,.28-.08.48-.13a1.1,1.1,0,0,1,.32,0,1,1,0,0,1,.3.09,3.07,3.07,0,0,1,.47.28A7.84,7.84,0,0,1,50.35,14.25Z"/><path class="cls-6" d="M48.31,13.7a2.19,2.19,0,0,1-.27-.11c-.17-.07-.41-.2-.7-.3a1.85,1.85,0,0,0-.49-.11.81.81,0,0,0-.27,0l-.3.06a2,2,0,0,1-.41.11,1.29,1.29,0,0,1-.48,0,2.19,2.19,0,0,1-.82-.47l.37.06a1.56,1.56,0,0,0,.8,0,5.68,5.68,0,0,1,.59-.23,1.52,1.52,0,0,1,.82,0A2.21,2.21,0,0,1,48.31,13.7Z"/><path class="cls-6" d="M46,13.25l-.07,0-.19-.06a3.07,3.07,0,0,0-.75-.11,2.6,2.6,0,0,0-1.17.24l-.23.09a.71.71,0,0,1-.29,0,3.76,3.76,0,0,1-.44-.15,5.48,5.48,0,0,0-1-.24,2.05,2.05,0,0,1,.41-.1,2.13,2.13,0,0,1,.47,0h.29l.26,0c.07,0,.06,0,.14,0a2.24,2.24,0,0,1,.32-.17,1.94,1.94,0,0,1,.8-.17,1.81,1.81,0,0,1,.8.19A1.47,1.47,0,0,1,46,13.25Z"/><path class="cls-6" d="M42.85,13.46l-.26-.06a3.65,3.65,0,0,0-.73-.1,1.12,1.12,0,0,0-.43,0,.28.28,0,0,0-.13.11c0,.07-.1.18-.19.31a.79.79,0,0,1-.41.31,1.24,1.24,0,0,1-.46.06c-.15,0-.3,0-.45,0a.78.78,0,0,0-.48.17l.06-.11a.87.87,0,0,1,.26-.22,2.41,2.41,0,0,1,.43-.17,1.44,1.44,0,0,0,.43-.15.26.26,0,0,0,.12-.11s.07-.13.13-.23a.91.91,0,0,1,.28-.37.72.72,0,0,1,.46-.16,1.67,1.67,0,0,1,.78.19A1.69,1.69,0,0,1,42.85,13.46Z"/><path class="cls-6" d="M41,14.11a2.42,2.42,0,0,1-.33.11,3.43,3.43,0,0,1-1,.13.85.85,0,0,0-.47.09c-.12.06-.22.3-.4.58a7.25,7.25,0,0,1-.62.75,2,2,0,0,0-.49,1l0-.13a1.41,1.41,0,0,1,0-.36,2.76,2.76,0,0,1,.45-1.11l.17-.29c.06-.1.1-.19.16-.31a1.43,1.43,0,0,1,.26-.4.87.87,0,0,1,.49-.28,1.26,1.26,0,0,1,.48,0l.43.08Z"/><path class="cls-6" d="M38.7,15.36a1,1,0,0,1-.18.21c-.12.13-.34.28-.51.45a1,1,0,0,0-.21.3,2.79,2.79,0,0,1-.25.61,1.53,1.53,0,0,1-.63.49,1.06,1.06,0,0,0-.31.21.58.58,0,0,0-.2.41.52.52,0,0,1,0-.42,1,1,0,0,1,.21-.4c.1-.13.23-.24.33-.35a.91.91,0,0,0,.2-.33,2.11,2.11,0,0,1,.26-.62,1.13,1.13,0,0,1,.62-.39C38.23,15.46,38.45,15.43,38.7,15.36Z"/><path class="cls-6" d="M38.32,15.54a.69.69,0,0,0-.2.07,1.17,1.17,0,0,0-.44.38,3.31,3.31,0,0,0-.45,1,1.88,1.88,0,0,1-.16.37.92.92,0,0,1-.32.33,3.49,3.49,0,0,1-.39.19.65.65,0,0,0-.34.35V18.1a.64.64,0,0,1,.13-.3,2.14,2.14,0,0,1,.28-.32,1.33,1.33,0,0,0,.12-.16.48.48,0,0,0,.08-.16c0-.13.07-.31.13-.53a2.07,2.07,0,0,1,.29-.65,1.23,1.23,0,0,1,.59-.49A.7.7,0,0,1,38.32,15.54Z"/><path class="cls-6" d="M37.27,17.32a8.22,8.22,0,0,1-1,.92.93.93,0,0,0-.1.11s0,0,0,0a.58.58,0,0,0,.07.11,1.86,1.86,0,0,1,.33,1,1.26,1.26,0,0,1-.14.57,2.44,2.44,0,0,1-.32.45c-.25.28-.51.56-.8.84,0,0,.06-.16.18-.43s.14-.3.23-.48a3.58,3.58,0,0,0,.27-.56,1,1,0,0,0,0-.57,2.33,2.33,0,0,0-.14-.33l-.11-.19a.8.8,0,0,1-.1-.32.55.55,0,0,1,.11-.36.87.87,0,0,1,.22-.18c.14-.08.28-.14.43-.21A6.81,6.81,0,0,1,37.27,17.32Z"/><path class="cls-6" d="M35.88,19.27l-.12.2c-.07.13-.19.3-.34.53a3.34,3.34,0,0,0-.21.32s0,0,0,.09,0,.16.06.27a1.91,1.91,0,0,1,.06.33,1,1,0,0,1,0,.39.47.47,0,0,1-.26.32,1.06,1.06,0,0,1-.37.1l.06-.05.13-.16a.27.27,0,0,0,.07-.19.9.9,0,0,0-.1-.27c-.06-.14-.1-.27-.17-.45a.8.8,0,0,1,0-.4.67.67,0,0,1,.17-.37A2.27,2.27,0,0,1,35.88,19.27Z"/><path class="cls-6" d="M37.16,16.91l-.18.17c-.11.11-.29.26-.51.46l-.13.1h0s0,.05,0,.07l.06.16.09.32a1.23,1.23,0,0,1,0,.39.88.88,0,0,1-.11.42,1.53,1.53,0,0,1-.64.54s.05-.11.15-.29a2.52,2.52,0,0,0,.12-.29.74.74,0,0,0,0-.33,2.08,2.08,0,0,0-.15-.44,2.76,2.76,0,0,1-.08-.27s0,0,0,0l0-.06a.35.35,0,0,1,0-.14.45.45,0,0,1,0-.26.6.6,0,0,1,.2-.19l.14-.08.32-.13A2.16,2.16,0,0,1,37.16,16.91Z"/><path class="cls-6" d="M35.45,21l-.16.17-.44.44a3.45,3.45,0,0,0-.52.8l-.15.28a.56.56,0,0,0-.1.26c0,.09,0,.23,0,.36a.21.21,0,0,1-.08.17.08.08,0,0,1-.11,0s0,0,0-.13h0s0,0,0,0,0,0,0,0-.06-.08-.1-.16a.63.63,0,0,1-.08-.3,1.37,1.37,0,0,1,0-.31A4.63,4.63,0,0,1,33.9,22a2.25,2.25,0,0,1,.34-.53A1.82,1.82,0,0,1,35.45,21Z"/><path class="cls-6" d="M34.2,23s-.06.12-.18.31-.32.49-.53.85c-.11.19-.22.39-.33.62a2.09,2.09,0,0,0-.13.35.84.84,0,0,0,0,.36,3.77,3.77,0,0,1,0,.51,2.57,2.57,0,0,1,0,.55,3.12,3.12,0,0,1-.4,1.1,4,4,0,0,0,0-.46,5.4,5.4,0,0,0-.08-1.13c0-.12,0-.23-.08-.36a1.65,1.65,0,0,1-.06-.48,2.12,2.12,0,0,1,.35-.93A4.16,4.16,0,0,1,34.2,23Z"/><path class="cls-6" d="M33.26,26.6A11.43,11.43,0,0,1,33,28.26l-.09.42a1.88,1.88,0,0,0-.07.37,1,1,0,0,0,.15.37,2.4,2.4,0,0,1,.21.57,1.65,1.65,0,0,1,.06.32c0,.1,0,.22,0,.3a.31.31,0,0,0,0,.21,1.38,1.38,0,0,0,.21.21,2.18,2.18,0,0,1,.71,1.19l-.08-.12c-.06-.08-.14-.18-.25-.3a2.5,2.5,0,0,0-.45-.38l-.33-.2a.72.72,0,0,1-.23-.23,1.24,1.24,0,0,1-.11-.3,1.85,1.85,0,0,0,0-.23c0-.07,0-.13,0-.2a3.39,3.39,0,0,0-.15-.41,4.52,4.52,0,0,1-.24-.49.92.92,0,0,1,0-.37,1.29,1.29,0,0,1,.07-.31A10.86,10.86,0,0,1,33.26,26.6Z"/><path class="cls-6" d="M35.5,19.32a12.09,12.09,0,0,1-1,1.34l-.29.32a1.87,1.87,0,0,0-.23.29.91.91,0,0,0-.05.39,3.23,3.23,0,0,1-.09.6,2.81,2.81,0,0,1-.1.31l-.14.28a.34.34,0,0,0,0,.21,1.1,1.1,0,0,0,.09.28,2.24,2.24,0,0,1,0,1.38s0,0,0-.14a3,3,0,0,0-.07-.39,2.76,2.76,0,0,0-.21-.55c0-.1-.11-.17-.19-.33a.63.63,0,0,1-.09-.31.77.77,0,0,1,.05-.32c0-.07,0-.14.08-.22a1.17,1.17,0,0,0,0-.2,2.83,2.83,0,0,0,.07-.42,4,4,0,0,1,0-.55A.91.91,0,0,1,33.5,21a.84.84,0,0,1,.21-.24A11.38,11.38,0,0,1,35.5,19.32Z"/><path class="cls-6" d="M34.23,31.6a2.36,2.36,0,0,1,.12.71v.28s0,.11.18.23a1.47,1.47,0,0,1,.33.48,5.14,5.14,0,0,0,.29.57.86.86,0,0,1-.26-.11,4.55,4.55,0,0,1-.5-.37l-.31-.23a1,1,0,0,1-.2-.24.54.54,0,0,1-.07-.36A2.39,2.39,0,0,1,34.23,31.6Z"/><path class="cls-6" d="M34,31.22a.67.67,0,0,1,0,.16.69.69,0,0,0-.05.13s0,0,0,0h0l.09.12.23.32.3.41a.54.54,0,0,1,.12.31c0,.11,0,.23-.13.24a.14.14,0,0,0,0-.09.46.46,0,0,0-.07-.07l-.13-.07a2.77,2.77,0,0,1-.24-.15,2,2,0,0,1-.26-.24,1.16,1.16,0,0,1-.2-.32,1,1,0,0,1-.07-.18.42.42,0,0,1,0-.27.34.34,0,0,1,.21-.21A.85.85,0,0,0,34,31.22Z"/><path class="cls-6" d="M35,33.34l0,.07a1.1,1.1,0,0,0,.22.21l.59.5a.9.9,0,0,1,.21.25.51.51,0,0,1,0,.36c-.07.22-.23.32-.3.57l0-.07s0-.12,0-.21a2,2,0,0,0,0-.25c0-.09,0-.1-.06-.12a3,3,0,0,1-.59-.47,1.15,1.15,0,0,1-.25-.45.41.41,0,0,1,0-.27C34.89,33.38,35,33.33,35,33.34Z"/><path class="cls-6" d="M50.88,26.8A.85.85,0,0,1,51,27a1.23,1.23,0,0,1,.06.7,1.37,1.37,0,0,1-.64.88c-.17.1-.34.17-.49.28a.78.78,0,0,0-.21.23.54.54,0,0,0-.08.37.52.52,0,0,1-.13-.33.83.83,0,0,1,.07-.39,1.15,1.15,0,0,1,.27-.38,2.78,2.78,0,0,1,.34-.29,2.56,2.56,0,0,0,.27-.29A2,2,0,0,0,50.88,26.8Z"/><path class="cls-6" d="M45.77,21.71a1.34,1.34,0,0,1,.19.11,2.11,2.11,0,0,1,.48.43,1.73,1.73,0,0,1,.44,1,1.36,1.36,0,0,1-.11.68.92.92,0,0,1-.51.48,1.69,1.69,0,0,0,.1-.23,1.56,1.56,0,0,0,0-.59,2.94,2.94,0,0,0-.22-.8A8.25,8.25,0,0,1,45.77,21.71Z"/><path class="cls-6" d="M40.33,22.09c0,.23-.25,0-2.87,1.06s-2.47,2-3.09,2.72.5-3.82.78-3.91S40.25,20.81,40.33,22.09Z"/><path class="cls-6" d="M39.31,15.92S34.76,17,34,20.77a32.35,32.35,0,0,0-.83,4.72Z"/><path class="cls-6" d="M50.41,35.51s-.93,2.06.53,2.15a2.81,2.81,0,0,0,2.33-1.35l-.37.14s-1.39,1.1-1.69.7.18-1.54.18-1.54Z"/><path class="cls-6" d="M57.3,18.53A1.87,1.87,0,0,0,58,19c.56.26.27.61.78,1.43s.14,1.69.29,2,.74.76.85,1.43a6.71,6.71,0,0,1-.1,1.79l-4.36,2.75L53,20.71Z"/><path class="cls-6" d="M47.46,13.37a.65.65,0,0,1,1-.13,2.06,2.06,0,0,0,1,.46,9.19,9.19,0,0,1-1.41.42S47.46,13.37,47.46,13.37Z"/><path class="cls-6" d="M52.74,15s1.22-.22,1.44.44-.39.7-.39.7Z"/><path class="cls-6" d="M59.31,30.43s.94.45.29,1.81a11.5,11.5,0,0,0-1,3c-.22,1-2.4,1.06-2.4,1.06l.91-.85a1.48,1.48,0,0,1,.21,1.78c-.63.86-3.84,0-3.84,0Z"/><path class="cls-6" d="M51.9,37.3s0,2,1.12,1.49,1.8-.12,2.09-.5S56,37,56,37Z"/><path class="cls-6" d="M35.05,33.41s-1.07.58.1,1.46,1,1.27,1.26,1.72.83-.34,1.4.69.34,1.37,1.12,1.42a7.06,7.06,0,0,0,1.09,0Z"/></g><path class="cls-29" d="M124.4,13h0l-.82-1.17,2.58.46.16.25,1.49-.37,1.89-3,1.84,3,.71.18-.13-.19c.09-.05,2-.35,2-.35L135,13l-.08.05H135l-2.27,2.68.22,3.51L129.65,18l-3.28,1.29L125.58,18l.68-1.05.28.17.1-1.4Z"/><polygon class="cls-30" points="125.56 18.02 128.83 16.72 132.08 18.05 131.86 14.55 134.13 11.87 130.73 10.99 128.88 8.01 127 10.97 123.58 11.81 125.83 14.51 125.56 18.02"/><path class="cls-29" d="M112.09,13h0l-.82-1.17,2.58.46.16.25,1.49-.37,1.88-3,1.85,3,.71.18-.13-.19c.09-.05,2-.35,2-.35l.83,1.17-.08.05h.07l-2.27,2.68.22,3.51L117.34,18l-3.28,1.29L113.27,18l.67-1.05.28.17.11-1.4Z"/><polygon class="cls-30" points="113.25 18.02 116.52 16.72 119.77 18.05 119.55 14.55 121.82 11.87 118.42 10.99 116.57 8.01 114.69 10.97 111.27 11.81 113.51 14.51 113.25 18.02"/><path class="cls-31" d="M99.78,13h0L99,11.86l2.58.46.16.25,1.49-.37,1.88-3,1.85,3,.71.18-.13-.19c.09-.05,2-.35,2-.35l.82,1.17-.07.05h.07l-2.28,2.68.23,3.51L105,18l-3.28,1.29L101,18l.68-1.05.28.17.11-1.4Z"/><polygon class="cls-32" points="100.94 18.02 104.21 16.72 107.46 18.05 107.24 14.55 109.51 11.87 106.1 10.99 104.25 8.01 102.37 10.97 98.96 11.81 101.2 14.51 100.94 18.02"/><path class="cls-31" d="M87.47,13h0l-.82-1.17,2.58.46.15.25,1.5-.37,1.88-3,1.85,3,.71.18-.13-.19c.09-.05,2-.35,2-.35L98,13l-.07.05H98l-2.27,2.68L96,19.28,92.72,18l-3.28,1.29L88.64,18,89.32,17l.28.17.11-1.4Z"/><polygon class="cls-32" points="88.63 18.02 91.9 16.72 95.15 18.05 94.93 14.55 97.2 11.87 93.79 10.99 91.94 8.01 90.06 10.97 86.65 11.81 88.89 14.51 88.63 18.02"/><path class="cls-31" d="M75.16,13h0l-.82-1.17,2.58.46.15.25,1.5-.37,1.88-3,1.85,3,.71.18-.14-.19c.1-.05,2-.35,2-.35L85.71,13l-.07.05h.06l-2.27,2.68.23,3.51L80.4,18l-3.27,1.29L76.33,18,77,17l.28.17.11-1.4Z"/><polygon class="cls-32" points="76.32 18.02 79.59 16.72 82.84 18.05 82.61 14.55 84.89 11.87 81.48 10.99 79.63 8.01 77.75 10.97 74.34 11.81 76.58 14.51 76.32 18.02"/><rect class="cls-33" x="75.63" y="24.02" width="59.44" height="9.48"/><rect class="cls-3" x="75.63" y="37.37" width="170.57" height="7.2"/><rect class="cls-3" x="75.63" y="46.97" width="108.54" height="7.2"/></g></g></svg>