<svg xmlns="http://www.w3.org/2000/svg" xmlns:xlink="http://www.w3.org/1999/xlink" viewBox="0 0 182.14 63.97"><defs><style>.cls-1{fill:#fff;}.cls-2{fill:#c5d1cf;}.cls-3{fill:#f0f0f0;}.cls-4{clip-path:url(#clip-path);}.cls-5{fill:#347c88;}.cls-6{fill:#dd806b;}.cls-7{fill:#e09573;}.cls-8{fill:#0094b6;}.cls-9{fill:#45a2ba;}.cls-10{fill:#3c8a9f;}.cls-11{fill:#f5af83;}.cls-12{fill:#66282d;}.cls-13{fill:#290800;}.cls-14{fill:#d37d55;}.cls-15{fill:#1d1d1b;}.cls-16{fill:#882905;}.cls-17{fill:#d45d54;}.cls-18{fill:#854533;}.cls-19{fill:#864533;}.cls-20{fill:#d54b45;}.cls-21{fill:#ba433c;}.cls-22{fill:#6e8b86;}.cls-23{fill:#a9bbb8;}.cls-24{fill:#f5541e;}.cls-25{fill:#fadb21;}.cls-26{fill:#9cb1ae;}</style><clipPath id="clip-path"><path class="cls-1" d="M67.35,31.28A21.54,21.54,0,1,1,45.81,9.75,21.54,21.54,0,0,1,67.35,31.28Z"/></clipPath></defs><title>Asset 13</title><g id="Layer_2" data-name="Layer 2"><g id="Layer_1-2" data-name="Layer 1"><path class="cls-2" d="M181.1,3.38h0a2.72,2.72,0,0,0-.24-.24l-1.68-1.65-.16.74a3.45,3.45,0,0,0-.72-.07H15.4L7,11.42H7c-.24.27-6.9,3.07-6.9,3.07l2.07,2.22.15,0H15.35l-.14,43.39-1,.69,2,2,.1.11h0A3.84,3.84,0,0,0,19,64H178.3a3.83,3.83,0,0,0,3.84-3.83V6A3.81,3.81,0,0,0,181.1,3.38Z"/><path class="cls-3" d="M176.14,0H13.25L0,14.51H13.2L13.05,58a3.83,3.83,0,0,0,3.84,3.85H176.14A3.83,3.83,0,0,0,180,58V3.84A3.84,3.84,0,0,0,176.14,0Z"/><path class="cls-1" d="M67.35,31.28A21.54,21.54,0,1,1,45.81,9.75,21.54,21.54,0,0,1,67.35,31.28Z"/><g class="cls-4"><path class="cls-1" d="M67.35,31.28A21.54,21.54,0,1,1,45.81,9.75,21.54,21.54,0,0,1,67.35,31.28Z"/><path class="cls-5" d="M50.43,42.34c.1,0,1.35-2.17,2.86-1.36l-.15,1.8Z"/><path class="cls-6" d="M43,41a31.05,31.05,0,0,1,0,3.3l1.61,3.92s8.21-2,8.33-4.26-.46-4.77.22-6.93S43,41,43,41Z"/><path class="cls-7" d="M37.78,61.31c-.22-4.53-3-2.2-4.89,0Z"/><path class="cls-8" d="M40.68,61.31c2.48-4.46,4.57-10.6,3.18-14.53,0,0-6.33.08-10.21,7.53-1.72,3.3-2.73,5.55-3.33,7Z"/><path class="cls-8" d="M56.49,59.62l.8.57s0,.41-.06,1.12h2l.08-1.49-.8-.57c-.69-3.28-3.07-14.39-3.94-15-.27-.2-1.06,0-2.09.34l.06,0C53.42,45.23,55.8,56.34,56.49,59.62Z"/><path class="cls-9" d="M57.23,61.31c0-.71.06-1.12.06-1.12l-.8-.57c-.69-3.28-1.33-15.22-2.2-15.87,0,0-1.78.81-1.8.8a78,78,0,0,0-7.9,3.63l-.21-.55-.08-.2-.68-1H42.43l-.61.72-.15.17-.17-.12C38.61,49.3,36.91,54.75,36,61.31Z"/><path class="cls-9" d="M45.75,46.49s-.69.26-1.25,1.92L52,45S46.72,45.63,45.75,46.49Z"/><path class="cls-10" d="M45.75,46.49s2.68-.8,2.86,3.17c0,0,6-4.59,6-5.72a7.28,7.28,0,0,0-1.29-3S53.09,43.5,45.75,46.49Z"/><path class="cls-9" d="M43.81,45.57l.78,2.66s-.92-3.21-3.44,0C41.15,48.18,42.72,45.35,43.81,45.57Z"/><path class="cls-11" d="M50.61,37.88c-.92,3.56-4,4.82-7.87,4.78a3.14,3.14,0,0,1-2.27-2.08c-.53-1.65-1.89-4.52-2.73-6.31-.76-1.63-1-12.61-1-12.61,4.43-7.5,9.92-6.51,13.64-4.26-1.8,1.22-3.13,2.14-3.13,2.14s.37,2.5,2,3.46S53.92,25.17,50.61,37.88Z"/><path class="cls-7" d="M54.92,32c-.9,4-3.35,11.38-11,10.84a6,6,0,0,1-1.19-.2c3.9,0,6.95-1.22,7.87-4.78C53.92,25.17,50.82,24,49.24,23s-2-3.46-2-3.46,1.33-.92,3.13-2.14a13,13,0,0,1,4.14,3.79C55.59,23.12,55.85,27.85,54.92,32Z"/><path class="cls-1" d="M37.21,28.93a1.45,1.45,0,0,0,1.39,1.56,1.76,1.76,0,0,0,2-1.74Z"/><path class="cls-1" d="M44,28.59A1.52,1.52,0,0,0,45.52,30a2.51,2.51,0,0,0,2.65-1.87Z"/><path class="cls-12" d="M39.81,29.45a.86.86,0,1,1-.93-.85A.89.89,0,0,1,39.81,29.45Z"/><path class="cls-13" d="M39.39,29.49a.44.44,0,1,1-.87.06.44.44,0,1,1,.87-.06Z"/><path class="cls-12" d="M46.59,29a.91.91,0,0,1-.8,1,.93.93,0,0,1-.14-1.85A.91.91,0,0,1,46.59,29Z"/><path class="cls-13" d="M46.16,29a.45.45,0,0,1-.4.5.45.45,0,0,1-.47-.43.45.45,0,0,1,.4-.5A.45.45,0,0,1,46.16,29Z"/><path class="cls-14" d="M37.21,28.93s.48-1.5,1.09-1.65c.93-.22,1.73-.34,2.33,1.47Z"/><path class="cls-14" d="M44,28.59a1.75,1.75,0,0,1,2-1.95c2.15.14,2.15,1.47,2.15,1.47S44.59,28.47,44,28.59Z"/><polygon class="cls-15" points="43.56 28.34 43.98 28.59 48.17 28.11 48.15 27.98 43.56 28.34"/><polygon class="cls-15" points="37.21 28.93 36.92 28.75 40.47 28.61 40.63 28.75 37.21 28.93"/><path class="cls-16" d="M42.26,12.64c-2.41-.12-8,5.53-8.37,8.74,0,0,2.59-3.16,6.38.09,0,0,9.36-2.52,12.11-1.57,1.61.56,3.2-2.51.33-4.32A23.35,23.35,0,0,0,42.26,12.64Z"/><path class="cls-16" d="M51.25,23.17s3-3.12.15-4.64c0,0,5.66-5,6.76,3.18.39,2.94-3.48,8.51-3.48,8.51S53.4,24.74,51.25,23.17Z"/><path class="cls-16" d="M36.82,23.76c-.13-.78,1-4.05,2.79-4.33s-4.21-2-4.48,1.13S36.82,23.76,36.82,23.76Z"/><path class="cls-17" d="M41.23,31.27c-.2.37-1,2.13-.62,2.62s1.85.38,2.77.11,1,.26,1.19-.15.23-1.19-.51-1.24c0,0,.56.49.34.92s-.28-.27-1.07,0-2.28.71-2.52.23S41.23,31.27,41.23,31.27Z"/><path class="cls-17" d="M40.61,27.19a5.62,5.62,0,0,1,.56,4.17,4.47,4.47,0,0,0-.46-4.26Z"/><path class="cls-18" d="M40.81,26.16v.07c0,.2,0,.84-.43,1s-2.59-.56-3.7.19c-.66.45-.33-.67,0-.93S40.56,25.31,40.81,26.16Z"/><path class="cls-18" d="M43.64,25a3.78,3.78,0,0,0-.12.36c0,.21,0,.85.45,1s3.33-.85,4.42,0,.35-.72,0-1S43.74,24.42,43.64,25Z"/><path class="cls-7" d="M53.66,29a5,5,0,0,1,1.67-4c.69-.62,1.52-1,2.2-.12,1.19,1.52.77,5.52-1.46,6.45a1.64,1.64,0,0,1-2.15-1A4.85,4.85,0,0,1,53.66,29Z"/><path class="cls-17" d="M56.44,26.16c-1.18,0-1.3,2.74-1.3,2.74a6.7,6.7,0,0,1,.41-1.51c0,.59.11,1.88,1,2.16,0,0-.83-.49-.72-2.51A.61.61,0,0,1,56,26.7l0,0a.61.61,0,0,1,.48-.2c.93.07.83,1.11.83,1.11S57.65,26.18,56.44,26.16Z"/><path class="cls-16" d="M52.09,31.23s1.63-5.76-.84-8.06l2.57.69s.58,5.28.1,6.54Z"/><path class="cls-17" d="M46.7,35.7a9.9,9.9,0,0,1-4.94,1.55c-.09,0-.19,0-.29,0a3.47,3.47,0,0,1-.78-.1s-.17-.85.06-.8l.17.5.6,0h.21A10.68,10.68,0,0,0,46.7,35.7Z"/><path class="cls-17" d="M47.08,34.63c-.12.12.63-.05.71.58a2.28,2.28,0,0,1,0,.82s.37-1.06.2-1.27A1.13,1.13,0,0,0,47.08,34.63Z"/><path class="cls-19" d="M47.12,37.16c-.11.7-.14.76-.39,1.08-.57.74-4.56,1.61-4.61,1,0-.17-.15-.87-.21-1.26A10.54,10.54,0,0,0,47.12,37.16Z"/><path class="cls-1" d="M47.38,35.26s-.08,1-.26,1.9a10.54,10.54,0,0,1-5.21.84c-.06-.32-.12-.62-.15-.75A9.9,9.9,0,0,0,46.7,35.7l.24-.15c.15-.09.25-.17.33-.22Z"/><path class="cls-20" d="M40.61,47.54,37,53.39,38.7,55s3-7.16,3.95-8.47A8.67,8.67,0,0,0,40.61,47.54Z"/><path class="cls-20" d="M46.84,61.31c.6-3.92,1-6.29,1-6.29A18.2,18.2,0,0,1,37,53.39a39.09,39.09,0,0,0-2.16,7.92Z"/><path class="cls-10" d="M43,43.17c.06.18-.19.55.8,2.4,0,0-2.65,2-2.77,3.75a9.76,9.76,0,0,1,.42-3.89A4.62,4.62,0,0,1,43,43.17Z"/><path class="cls-11" d="M66.25,61.31c-.07-.17-.15-.34-.23-.52-5.23-11.6-6.34-4.14-6.56.52Z"/><path class="cls-8" d="M65.3,61.31h3.26c-.55-1.5-1.47-3.75-3-7.13-2.53-5.53-5.77-7.91-8.14-8.92a23,23,0,0,1,5,8.11C63.53,56.31,64.51,59,65.3,61.31Z"/><path class="cls-9" d="M65.3,61.31c-.79-2.3-1.77-5-2.92-7.94a23,23,0,0,0-5-8.11,8.19,8.19,0,0,0-3.22-.79c-1.86,4.19-.45,11.38,1.62,16.84Z"/><path class="cls-21" d="M46.84,61.31h4c.24-2.05.5-4.05.71-5.59a11.81,11.81,0,0,1,2.3-5.62c1.35-1.77,2.83-3.82,2.53-4.72a1.54,1.54,0,0,0-1.79-1.17c1,2.16-6.71,10.81-6.71,10.81S47.44,57.39,46.84,61.31Z"/></g><path class="cls-22" d="M123.23,13.35h0l-.82-1.17,2.58.47.15.24,1.5-.36,1.88-3,1.85,3,.71.18-.14-.2c.1,0,2-.35,2-.35l.82,1.17-.07.05.06,0-2.27,2.68.22,3.51-3.25-1.34-3.27,1.3-.8-1.22.68-1.06.28.18.11-1.4Z"/><polygon class="cls-23" points="124.39 18.33 127.65 17.04 130.91 18.37 130.68 14.86 132.95 12.18 129.55 11.31 127.7 8.32 125.82 11.29 122.41 12.12 124.65 14.83 124.39 18.33"/><path class="cls-24" d="M110.91,13.35h0l-.82-1.17,2.58.47.15.24,1.5-.36,1.88-3,1.85,3,.71.18-.14-.2c.1,0,2-.35,2-.35l.82,1.17-.07.05.06,0-2.27,2.68.22,3.51-3.25-1.34-3.27,1.3-.8-1.22.68-1.06.28.18.11-1.4Z"/><polygon class="cls-25" points="112.08 18.33 115.34 17.04 118.59 18.37 118.37 14.86 120.64 12.18 117.24 11.31 115.39 8.32 113.51 11.29 110.1 12.12 112.34 14.83 112.08 18.33"/><path class="cls-24" d="M98.6,13.35h0l-.83-1.17,2.58.47.16.24,1.5-.36,1.88-3,1.85,3,.71.18-.14-.2c.09,0,2-.35,2-.35l.82,1.17-.07.05.06,0-2.27,2.68.22,3.51-3.25-1.34-3.28,1.3-.79-1.22.68-1.06.28.18.11-1.4Z"/><polygon class="cls-25" points="99.77 18.33 103.03 17.04 106.28 18.37 106.06 14.86 108.33 12.18 104.93 11.31 103.08 8.32 101.2 11.29 97.79 12.12 100.03 14.83 99.77 18.33"/><path class="cls-24" d="M86.29,13.35h0l-.82-1.17,2.58.47.16.24,1.5-.36,1.88-3,1.84,3,.71.18-.13-.2c.09,0,2-.35,2-.35l.82,1.17-.08.05.07,0-2.27,2.68.22,3.51-3.25-1.34-3.28,1.3-.79-1.22.68-1.06.28.18.1-1.4Z"/><polygon class="cls-25" points="87.45 18.33 90.72 17.04 93.97 18.37 93.75 14.86 96.02 12.18 92.62 11.31 90.77 8.32 88.89 11.29 85.47 12.12 87.72 14.83 87.45 18.33"/><path class="cls-24" d="M74,13.35h0l-.82-1.17,2.58.47.16.24,1.49-.36,1.88-3,1.85,3,.71.18-.13-.2c.09,0,2-.35,2-.35l.83,1.17-.08.05.07,0-2.27,2.68.22,3.51-3.25-1.34L76,19.56l-.79-1.22.68-1.06.27.18.11-1.4Z"/><polygon class="cls-25" points="75.14 18.33 78.41 17.04 81.66 18.37 81.44 14.86 83.71 12.18 80.31 11.31 78.46 8.32 76.58 11.29 73.16 12.12 75.41 14.83 75.14 18.33"/><rect class="cls-26" x="74.45" y="24.33" width="59.44" height="9.48"/><rect class="cls-2" x="74.45" y="37.69" width="96.05" height="7.2"/><rect class="cls-2" x="74.45" y="47.28" width="96.05" height="7.2"/></g></g></svg>