<svg xmlns="http://www.w3.org/2000/svg" xmlns:xlink="http://www.w3.org/1999/xlink" viewBox="0 0 123.26 139.66"><defs><style>.cls-1{fill:#fff;}.cls-2{fill:#c5d1cf;}.cls-3{fill:#f0f0f0;}.cls-4{clip-path:url(#clip-path);}.cls-5{fill:#8b4533;}.cls-6{fill:#4bbee1;}.cls-7{fill:#88d0e7;}.cls-8{fill:#268196;}.cls-9{fill:#f09078;}.cls-10{fill:#f4a780;}.cls-11{fill:#70bcd1;}.cls-12{fill:#5a91ac;}.cls-13{fill:#f08f69;}.cls-14,.cls-16{fill:#f0f1f1;}.cls-15{fill:#6f4237;}.cls-16{opacity:0.7;}.cls-17{fill:#06b7df;}.cls-18{fill:#eb8d6b;}.cls-19{fill:#eb7260;}.cls-20{fill:#c4674a;}.cls-21{fill:#d4c8a3;}.cls-22{fill:#f5541e;}.cls-23{fill:#fadb21;}.cls-24{fill:#9cb1ae;}</style><clipPath id="clip-path"><path class="cls-1" d="M88.08,33.12A21.54,21.54,0,1,1,66.55,11.59,21.53,21.53,0,0,1,88.08,33.12Z"/></clipPath></defs><title>Asset 16</title><g id="Layer_2" data-name="Layer 2"><g id="Layer_1-2" data-name="Layer 1"><path class="cls-2" d="M122.1,3.24h0l-1.94-1.92-.69.84H15.4L6.21,12.23v-.71c-1,.59-6.21,3-6.21,3l2.17,2.18v0h0l0,0,.08,0H15.35l-.14,119-1.17.55,2.05,2a4.08,4.08,0,0,0,.55.55h0a3.81,3.81,0,0,0,2.4.84H119.43a3.82,3.82,0,0,0,3.83-3.83V6A3.81,3.81,0,0,0,122.1,3.24Z"/><path class="cls-3" d="M117.27,0h-104L0,14.51H13.2l-.15,119.15a3.84,3.84,0,0,0,3.84,3.85H117.27a3.84,3.84,0,0,0,3.84-3.84V3.84A3.84,3.84,0,0,0,117.27,0Z"/><path class="cls-1" d="M88.08,33.12A21.54,21.54,0,1,1,66.55,11.59,21.53,21.53,0,0,1,88.08,33.12Z"/><g class="cls-4"><path class="cls-5" d="M58.36,20.91s-2.68,2.89-1.18,4.93,5.73-1.66,5.73-1.66Z"/><path class="cls-6" d="M66.81,58.74c3.61-15.45-15-16.51-31.17-.41l-.43.41Z"/><path class="cls-7" d="M80.74,58.74a93.5,93.5,0,0,0-2.23-11.68l-2.14-2.59L76,44.4l-.18,0c-.48-.08-1-.14-1.44-.2a45.89,45.89,0,0,0-12.07.31c-1.36.2-2.62.45-3.75.71l-1,.23a17.32,17.32,0,0,0-.15,2l-.52-1.79h-.05l-.78.22L55,46.14l-.52.16-1.05.35c-.92.31-1.43.52-1.43.52a87.26,87.26,0,0,0-3.63,11.57Z"/><path class="cls-6" d="M80.74,58.74H95.82a15.14,15.14,0,0,0-6.24-9,32,32,0,0,0-12.4-5.16l-.81-.15,2.14,2.59A93.5,93.5,0,0,1,80.74,58.74Z"/><path class="cls-8" d="M75.66,40.72c-2.15-.23-5.46-.23-10.17-.47-4.54-.22-6.86.42-8,1.18a3,3,0,0,0-.92.88,1.69,1.69,0,0,0-.3,1.06l.61,2.25.58,2.13.18.66h.11l9.15-.16s.54-.13,1.4-.37c1.44-.39,3.77-1.07,5.88-1.87.63-.25,1.25-.5,1.81-.76s.87-.42,1.24-.63c1-.61,1.74-1.23,1.76-1.83C79,41.47,78,41,75.66,40.72ZM56.88,45.6l.67-.17a17.32,17.32,0,0,0-.15,2Z"/><path class="cls-8" d="M57.55,45.43a17.32,17.32,0,0,0-.15,2l-.52-1.79Z"/><path class="cls-9" d="M75.94,45.25c-1,4.91-15.65,11.94-15.65,11.94l-.24-.81a59.24,59.24,0,0,0-2.2-6.31,6,6,0,0,1-.44-2.32c0-.12,0-.24,0-.36a17.32,17.32,0,0,1,.15-2c.05-.38.11-.75.16-1.06.14-.74.27-1.22.27-1.22l1-.23c3.55-.73,15.1-2.79,16.78.91a1.17,1.17,0,0,1,.09.24h0a.41.41,0,0,1,0,.08,2.27,2.27,0,0,1,.06.25A2.45,2.45,0,0,1,75.94,45.25Z"/><path class="cls-10" d="M75.12,30.07a15.16,15.16,0,0,1-.53,4.1l-.21-3.9L74,35.12l-1.36.32s1,5.23-.52,9.19c-11.47,2-14.94-2.73-16-5.41a14.67,14.67,0,0,1,.32-2.37,77.73,77.73,0,0,0,.9-8.2c.29-3.51.63-6.7,1.48-7.38C60.34,20.08,67.61,20,71.76,20c1.74,0,2.92.06,2.92.06s.15,3.51.34,7.84c0,.11,0,.23,0,.34C75.07,28.86,75.09,29.47,75.12,30.07Z"/><path class="cls-10" d="M57.65,44.31a7,7,0,0,1-1.5-5.09c1.14,3,5.25,8.36,19.75,4.59C76.19,46.64,63.79,51.33,57.65,44.31Z"/><polygon class="cls-11" points="72.73 50.88 60.29 57.19 78.94 42.79 72.73 50.88"/><polygon class="cls-12" points="77.92 55.55 72.73 50.88 78.94 42.79 77.92 55.55"/><polygon class="cls-12" points="52.16 52.4 55.74 50.19 56.22 43.37 52.16 52.4"/><polygon class="cls-11" points="60.29 57.19 55.74 50.19 56.05 45.83 56.22 43.37 56.88 45.6 57.41 47.4 57.7 48.41 60.05 56.38 60.29 57.19"/><path class="cls-13" d="M60,42.62s.91,1.7,5.46,2.15C65.45,44.77,61.23,45.62,60,42.62Z"/><path class="cls-14" d="M65.17,29.77l4-.08A2.34,2.34,0,0,1,67,32.12C64.78,32.24,65.17,29.77,65.17,29.77Z"/><path class="cls-5" d="M68.34,30.35a1,1,0,1,1-1-1A1,1,0,0,1,68.34,30.35Z"/><path class="cls-14" d="M58.61,29.83l3.32-.07a1.92,1.92,0,0,1-1.81,2C58.28,31.86,58.61,29.83,58.61,29.83Z"/><path class="cls-5" d="M61.52,30.28a.87.87,0,1,1-.87-.87A.87.87,0,0,1,61.52,30.28Z"/><path class="cls-15" d="M61,30.35a.37.37,0,0,1-.37.37.37.37,0,0,1,0-.73A.37.37,0,0,1,61,30.35Z"/><path class="cls-15" d="M67.69,30.43a.37.37,0,0,1-.37.36.36.36,0,0,1-.36-.36.37.37,0,0,1,.36-.37A.38.38,0,0,1,67.69,30.43Z"/><path class="cls-16" d="M60,30.82a.36.36,0,0,1-.36.36.37.37,0,0,1-.37-.36.38.38,0,0,1,.37-.37A.37.37,0,0,1,60,30.82Z"/><path class="cls-16" d="M66.68,30.92a.37.37,0,0,1-.73,0,.37.37,0,1,1,.73,0Z"/><path class="cls-17" d="M101.17,58.74A44.93,44.93,0,0,0,91.46,51c-8.49-4.25-9.26,1-7.6,7.72Z"/><path class="cls-18" d="M58.61,29.83l3.32-.07s-.52-1.86-1.94-1.7S58.61,29.83,58.61,29.83Z"/><path class="cls-18" d="M65.17,29.77l4-.08A2,2,0,0,0,67,28.3C65.32,28.63,65.17,29.77,65.17,29.77Z"/><path class="cls-9" d="M72.13,44.63c1.54-4,.52-9.19.52-9.19L74,35.12l.37-4.85.21,3.9a15.16,15.16,0,0,0,.53-4.1c.27,5.86.6,12.38.78,13.71v0C74.55,44.16,73.3,44.43,72.13,44.63Z"/><path class="cls-9" d="M72.13,44.63a18.81,18.81,0,0,1-7.07,4.85c-4.72,1.93-5,1.82-5,1.82l7.61-1.07s6.46-3.4,8.3-5.83l-.08-.59Z"/><path class="cls-5" d="M57.34,22.52s2.44,3.35,4.93,1.26,9.33-.33,11.42,1.36c0,0,1.4,2.68-.33,7s-1.82,7.17-8.81,3.87c0,0-5.74-.64-7.75,1.74s-1,4.72-2,6.25,4.59,4.26,4.83,4.34,7.31,1.69,8.44,1,5.3-4.66,5.38-6.27-.36-6.15.69-8.56,2.93-11.22,1.24-14.19-5.52-5.74-7.85-4.77c0,0-4.71-1.66-5.84.91S55.28,17.59,57.34,22.52Z"/><path class="cls-10" d="M74.69,30s1-1.89,2.5-.52C78.9,31,76.63,34.94,75,35.12s-.76-1.48-.76-1.48Z"/><path class="cls-19" d="M75.5,33.57s1.94-1.25,1.4-2.6-1.92,0-2,.47C74.9,31.44,76.3,31.25,75.5,33.57Z"/><path class="cls-20" d="M67.5,38.3a10.79,10.79,0,0,1-1.19,1.37C65,41,62.9,42.35,61.24,40.12A6.26,6.26,0,0,1,60.6,39l.72-.08,5.07-.52Z"/><path class="cls-1" d="M66.39,38.41l0,.66a14.49,14.49,0,0,1-5.08.62l0-.76Z"/><path class="cls-1" d="M66.33,39.32l0,.35C65,41,62.9,42.35,61.24,40.12l0-.38C64.77,39.93,66,39.51,66.33,39.32Z"/><path class="cls-21" d="M66.35,39.07l0,.25c-.35.19-1.56.61-5.06.42v-.05A14.49,14.49,0,0,0,66.35,39.07Z"/><path class="cls-18" d="M63.81,30.55c0-.3-.69-.33-.92-.14-2.68,2.24-2.79,5.09-2.38,5.65.91,1.23,2.34-.91,4,.06.82.5,1.33-.68,1.07-1.52s-1-.5-1.59-.82C63.57,33.58,63.9,31.89,63.81,30.55Z"/><polygon class="cls-5" points="56.91 27.45 57.12 28.3 61.84 28.68 61.84 26.54 56.91 27.45"/><polygon class="cls-5" points="64.68 26.75 65 28.73 70.36 29.54 70.36 28.3 64.68 26.75"/><path class="cls-5" d="M57.23,30.48s-1.66,6.59-1,8.25,1.54-.5,1.54-.5S57.12,31.52,57.23,30.48Z"/><path class="cls-5" d="M57.23,30.48s-.61,7.18,2,5.94l-1.42,2-.83-1.2Z"/></g><path class="cls-22" d="M86.52,67.74h0l-.82-1.17,2.58.47.15.24,1.5-.37,1.88-3,1.85,3,.71.18-.14-.19c.1,0,2-.35,2-.35l.82,1.17-.07,0h.06l-2.27,2.69L95,74l-3.25-1.33-3.27,1.29-.8-1.21.68-1.06.28.17.11-1.4Z"/><polygon class="cls-23" points="87.68 72.72 90.94 71.42 94.2 72.75 93.97 69.25 96.24 66.57 92.84 65.69 90.99 62.71 89.11 65.67 85.7 66.51 87.94 69.22 87.68 72.72"/><path class="cls-22" d="M74.21,67.74h0l-.82-1.17L76,67l.15.24,1.5-.37,1.88-3,1.85,3,.71.18-.14-.19c.1,0,2-.35,2-.35l.82,1.17-.07,0h.06l-2.27,2.69L82.7,74l-3.25-1.33-3.27,1.29-.8-1.21.68-1.06.28.17.11-1.4Z"/><polygon class="cls-23" points="75.37 72.72 78.63 71.42 81.89 72.75 81.66 69.25 83.93 66.57 80.53 65.69 78.68 62.71 76.8 65.67 73.39 66.51 75.63 69.22 75.37 72.72"/><path class="cls-22" d="M61.89,67.74h0l-.82-1.17,2.57.47.16.24,1.5-.37,1.88-3,1.85,3,.71.18-.14-.19c.09,0,2-.35,2-.35l.82,1.17-.07,0h.06l-2.27,2.69.22,3.5-3.25-1.33-3.27,1.29-.8-1.21.68-1.06.28.17.11-1.4Z"/><polygon class="cls-23" points="63.06 72.72 66.32 71.42 69.58 72.75 69.35 69.25 71.62 66.57 68.22 65.69 66.37 62.71 64.49 65.67 61.08 66.51 63.32 69.22 63.06 72.72"/><path class="cls-22" d="M49.58,67.74h0l-.83-1.17,2.58.47.16.24L53,66.9l1.88-3,1.85,3,.71.18-.14-.19c.09,0,2-.35,2-.35l.82,1.17-.07,0h.06l-2.27,2.69.22,3.5-3.25-1.33-3.28,1.29-.79-1.21.68-1.06.28.17.1-1.4Z"/><polygon class="cls-23" points="50.75 72.72 54.01 71.42 57.26 72.75 57.04 69.25 59.31 66.57 55.91 65.69 54.06 62.71 52.18 65.67 48.77 66.51 51.01 69.22 50.75 72.72"/><path class="cls-22" d="M37.27,67.74h0l-.82-1.17L39,67l.16.24,1.5-.37,1.88-3,1.84,3,.72.18L45,66.91c.09,0,2-.35,2-.35l.82,1.17-.08,0h.07l-2.27,2.69.22,3.5-3.25-1.33-3.28,1.29-.79-1.21.68-1.06.28.17.1-1.4Z"/><polygon class="cls-23" points="38.44 72.72 41.7 71.42 44.95 72.75 44.73 69.25 47 66.57 43.6 65.69 41.75 62.71 39.87 65.67 36.45 66.51 38.7 69.22 38.44 72.72"/><rect class="cls-24" x="28.21" y="78.72" width="77.1" height="9.48"/><rect class="cls-2" x="23.26" y="98.1" width="89.16" height="7.2"/><rect class="cls-2" x="23.26" y="107.7" width="89.16" height="7.2"/><rect class="cls-2" x="23.26" y="117.18" width="60.73" height="7.2"/></g></g></svg>